G04 EAGLE Gerber RS-274X export*
G75*
%MOMM*%
%FSLAX34Y34*%
%LPD*%
%INBottom Copper*%
%IPPOS*%
%AMOC8*
5,1,8,0,0,1.08239X$1,22.5*%
G01*
%ADD10P,1.677704X8X22.500000*%
%ADD11P,4.329560X8X202.500000*%
%ADD12P,4.329560X8X112.500000*%
%ADD13C,1.950000*%
%ADD14P,1.814519X8X202.500000*%
%ADD15C,3.216000*%
%ADD16C,1.524000*%
%ADD17R,1.100000X1.000000*%
%ADD18C,1.016000*%
%ADD19C,0.609600*%
%ADD20C,0.508000*%
%ADD21C,0.756400*%
%ADD22C,0.965200*%
%ADD23C,0.304800*%
%ADD24C,0.762000*%
%ADD25C,0.355600*%
%ADD26C,0.406400*%

G36*
X2338284Y468927D02*
X2338284Y468927D01*
X2338313Y468925D01*
X2338405Y468947D01*
X2338498Y468962D01*
X2338524Y468976D01*
X2338552Y468983D01*
X2338698Y469065D01*
X2345612Y474003D01*
X2345682Y474072D01*
X2345756Y474136D01*
X2345768Y474158D01*
X2345787Y474176D01*
X2345830Y474264D01*
X2345880Y474349D01*
X2345888Y474379D01*
X2345897Y474396D01*
X2345901Y474429D01*
X2345923Y474511D01*
X2353069Y522749D01*
X2353069Y522782D01*
X2353077Y522861D01*
X2353077Y524173D01*
X2353357Y524848D01*
X2353359Y524857D01*
X2353364Y524865D01*
X2353407Y525027D01*
X2353514Y525750D01*
X2354188Y526875D01*
X2354200Y526906D01*
X2354238Y526975D01*
X2354740Y528187D01*
X2355257Y528704D01*
X2355262Y528712D01*
X2355270Y528717D01*
X2355371Y528851D01*
X2355747Y529477D01*
X2356800Y530259D01*
X2356823Y530283D01*
X2356885Y530332D01*
X2357813Y531260D01*
X2358488Y531539D01*
X2358496Y531544D01*
X2358505Y531547D01*
X2358650Y531631D01*
X2359237Y532067D01*
X2360509Y532386D01*
X2360539Y532399D01*
X2360615Y532421D01*
X2361827Y532923D01*
X2362558Y532923D01*
X2362567Y532924D01*
X2362577Y532923D01*
X2362743Y532946D01*
X2363451Y533123D01*
X2364749Y532931D01*
X2364782Y532931D01*
X2364861Y532923D01*
X2372173Y532923D01*
X2376187Y531260D01*
X2379367Y528080D01*
X2380534Y526913D01*
X2380554Y526899D01*
X2380570Y526879D01*
X2380708Y526783D01*
X2398254Y517212D01*
X2398261Y517210D01*
X2398267Y517205D01*
X2398377Y517169D01*
X2398486Y517131D01*
X2398494Y517131D01*
X2398501Y517129D01*
X2398668Y517121D01*
X2515361Y524773D01*
X2515400Y524782D01*
X2515441Y524783D01*
X2515596Y524828D01*
X2515600Y524829D01*
X2515601Y524829D01*
X2515602Y524829D01*
X2515827Y524923D01*
X2517617Y524923D01*
X2517636Y524926D01*
X2517667Y524924D01*
X2519453Y525041D01*
X2519684Y524963D01*
X2519724Y524956D01*
X2519762Y524941D01*
X2519923Y524923D01*
X2519927Y524923D01*
X2519928Y524923D01*
X2519929Y524923D01*
X2542257Y524923D01*
X2542285Y524927D01*
X2542314Y524925D01*
X2542479Y524956D01*
X2542890Y525081D01*
X2544491Y524926D01*
X2544517Y524928D01*
X2544564Y524923D01*
X2546173Y524923D01*
X2546569Y524758D01*
X2546598Y524752D01*
X2546623Y524738D01*
X2546787Y524704D01*
X2604824Y519088D01*
X2604885Y519091D01*
X2604944Y519085D01*
X2605021Y519099D01*
X2607123Y518865D01*
X2607127Y518865D01*
X2607134Y518864D01*
X2609240Y518660D01*
X2609267Y518646D01*
X2609343Y518628D01*
X2611195Y517608D01*
X2611200Y517607D01*
X2611205Y517603D01*
X2613073Y516609D01*
X2613092Y516585D01*
X2613156Y516540D01*
X2614477Y514889D01*
X2614480Y514886D01*
X2614484Y514880D01*
X2615829Y513247D01*
X2615838Y513217D01*
X2615888Y513138D01*
X2615903Y513108D01*
X2615914Y513097D01*
X2615927Y513076D01*
X2627388Y498750D01*
X2627463Y498682D01*
X2627534Y498610D01*
X2627554Y498600D01*
X2627570Y498586D01*
X2627664Y498545D01*
X2627754Y498500D01*
X2627781Y498494D01*
X2627796Y498488D01*
X2627829Y498485D01*
X2627919Y498467D01*
X2642634Y497241D01*
X2642695Y497246D01*
X2642755Y497241D01*
X2642816Y497255D01*
X2642880Y497260D01*
X2642935Y497284D01*
X2642994Y497298D01*
X2643076Y497344D01*
X2643106Y497357D01*
X2643118Y497368D01*
X2643140Y497380D01*
X2665847Y513599D01*
X2665889Y513641D01*
X2665937Y513675D01*
X2665998Y513750D01*
X2666021Y513773D01*
X2666028Y513786D01*
X2666043Y513804D01*
X2688763Y548831D01*
X2688780Y548871D01*
X2688806Y548906D01*
X2688829Y548983D01*
X2688861Y549056D01*
X2688865Y549099D01*
X2688878Y549141D01*
X2688876Y549221D01*
X2688883Y549301D01*
X2688873Y549343D01*
X2688872Y549387D01*
X2688844Y549462D01*
X2688826Y549540D01*
X2688802Y549577D01*
X2688787Y549618D01*
X2688737Y549681D01*
X2688695Y549748D01*
X2688661Y549776D01*
X2688634Y549810D01*
X2688566Y549853D01*
X2688505Y549904D01*
X2688464Y549920D01*
X2688427Y549943D01*
X2688349Y549963D01*
X2688274Y549991D01*
X2688231Y549993D01*
X2688188Y550003D01*
X2688108Y549997D01*
X2688029Y550000D01*
X2687987Y549988D01*
X2687943Y549984D01*
X2687869Y549953D01*
X2687793Y549930D01*
X2687757Y549905D01*
X2687717Y549888D01*
X2687603Y549797D01*
X2687591Y549789D01*
X2687589Y549786D01*
X2687586Y549783D01*
X2680559Y542756D01*
X2677806Y540003D01*
X2641589Y540003D01*
X2631281Y550311D01*
X2631281Y555062D01*
X2631262Y555177D01*
X2631245Y555293D01*
X2631243Y555299D01*
X2631242Y555305D01*
X2631187Y555408D01*
X2631134Y555513D01*
X2631129Y555517D01*
X2631126Y555522D01*
X2631042Y555602D01*
X2630958Y555685D01*
X2630952Y555688D01*
X2630948Y555692D01*
X2630931Y555700D01*
X2630811Y555766D01*
X2629844Y556166D01*
X2626986Y559024D01*
X2625439Y562759D01*
X2625439Y582041D01*
X2626986Y585776D01*
X2629844Y588634D01*
X2633579Y590181D01*
X2637621Y590181D01*
X2641356Y588634D01*
X2644214Y585776D01*
X2645761Y582041D01*
X2645761Y562759D01*
X2644214Y559024D01*
X2641356Y556166D01*
X2640389Y555766D01*
X2640289Y555704D01*
X2640189Y555644D01*
X2640185Y555639D01*
X2640180Y555636D01*
X2640105Y555546D01*
X2640029Y555457D01*
X2640027Y555451D01*
X2640023Y555447D01*
X2639981Y555338D01*
X2639937Y555229D01*
X2639936Y555221D01*
X2639935Y555217D01*
X2639934Y555199D01*
X2639919Y555062D01*
X2639919Y554204D01*
X2639933Y554114D01*
X2639941Y554023D01*
X2639953Y553993D01*
X2639958Y553961D01*
X2640001Y553881D01*
X2640037Y553797D01*
X2640063Y553765D01*
X2640074Y553744D01*
X2640097Y553722D01*
X2640116Y553698D01*
X2640120Y553692D01*
X2640124Y553688D01*
X2640142Y553666D01*
X2644944Y548864D01*
X2645018Y548811D01*
X2645087Y548751D01*
X2645117Y548739D01*
X2645144Y548720D01*
X2645231Y548693D01*
X2645315Y548659D01*
X2645356Y548655D01*
X2645379Y548648D01*
X2645411Y548649D01*
X2645482Y548641D01*
X2673913Y548641D01*
X2674003Y548655D01*
X2674094Y548663D01*
X2674124Y548675D01*
X2674156Y548680D01*
X2674236Y548723D01*
X2674320Y548759D01*
X2674352Y548785D01*
X2674373Y548796D01*
X2674395Y548819D01*
X2674451Y548864D01*
X2681254Y555667D01*
X2681307Y555741D01*
X2681367Y555810D01*
X2681379Y555840D01*
X2681398Y555867D01*
X2681425Y555954D01*
X2681459Y556038D01*
X2681463Y556079D01*
X2681470Y556102D01*
X2681469Y556134D01*
X2681477Y556205D01*
X2681477Y601781D01*
X2681463Y601871D01*
X2681455Y601962D01*
X2681443Y601992D01*
X2681438Y602024D01*
X2681395Y602104D01*
X2681359Y602188D01*
X2681333Y602220D01*
X2681322Y602241D01*
X2681299Y602263D01*
X2681254Y602319D01*
X2608030Y675543D01*
X2607956Y675596D01*
X2607887Y675656D01*
X2607857Y675668D01*
X2607830Y675687D01*
X2607743Y675714D01*
X2607659Y675748D01*
X2607618Y675752D01*
X2607595Y675759D01*
X2607563Y675758D01*
X2607492Y675766D01*
X2499222Y675766D01*
X2360507Y814481D01*
X2360433Y814534D01*
X2360364Y814594D01*
X2360334Y814606D01*
X2360307Y814625D01*
X2360220Y814652D01*
X2360136Y814686D01*
X2360095Y814690D01*
X2360072Y814697D01*
X2360040Y814696D01*
X2359969Y814704D01*
X2357255Y814704D01*
X2354454Y815864D01*
X2352310Y818008D01*
X2351150Y820809D01*
X2351150Y823841D01*
X2352310Y826642D01*
X2354454Y828786D01*
X2357255Y829946D01*
X2360287Y829946D01*
X2363088Y828786D01*
X2365232Y826642D01*
X2366392Y823841D01*
X2366392Y821127D01*
X2366406Y821037D01*
X2366414Y820946D01*
X2366426Y820916D01*
X2366431Y820884D01*
X2366474Y820804D01*
X2366510Y820720D01*
X2366536Y820688D01*
X2366547Y820667D01*
X2366570Y820645D01*
X2366615Y820589D01*
X2502577Y684627D01*
X2502651Y684574D01*
X2502720Y684514D01*
X2502750Y684502D01*
X2502777Y684483D01*
X2502864Y684456D01*
X2502948Y684422D01*
X2502989Y684418D01*
X2503012Y684411D01*
X2503044Y684412D01*
X2503115Y684404D01*
X2611385Y684404D01*
X2690115Y605674D01*
X2690115Y553488D01*
X2690119Y553460D01*
X2690117Y553432D01*
X2690139Y553339D01*
X2690154Y553245D01*
X2690168Y553220D01*
X2690174Y553192D01*
X2690225Y553112D01*
X2690270Y553027D01*
X2690290Y553008D01*
X2690305Y552984D01*
X2690379Y552924D01*
X2690448Y552858D01*
X2690474Y552846D01*
X2690495Y552828D01*
X2690585Y552795D01*
X2690671Y552754D01*
X2690699Y552751D01*
X2690725Y552741D01*
X2690821Y552738D01*
X2690915Y552727D01*
X2690943Y552733D01*
X2690971Y552732D01*
X2691062Y552759D01*
X2691156Y552780D01*
X2691180Y552794D01*
X2691207Y552802D01*
X2691285Y552857D01*
X2691367Y552906D01*
X2691385Y552927D01*
X2691408Y552943D01*
X2691515Y553073D01*
X2712419Y585301D01*
X2712432Y585330D01*
X2712468Y585388D01*
X2713072Y586658D01*
X2713544Y587083D01*
X2713554Y587095D01*
X2713567Y587104D01*
X2713673Y587234D01*
X2714019Y587767D01*
X2715177Y588564D01*
X2715199Y588585D01*
X2715216Y588594D01*
X2715226Y588605D01*
X2715255Y588626D01*
X2716300Y589567D01*
X2716898Y589780D01*
X2716912Y589787D01*
X2716927Y589791D01*
X2717075Y589870D01*
X2717598Y590230D01*
X2718974Y590523D01*
X2719003Y590535D01*
X2719070Y590550D01*
X2779218Y611893D01*
X2779235Y611902D01*
X2779359Y611960D01*
X2780192Y612465D01*
X2781248Y612628D01*
X2781275Y612637D01*
X2781387Y612663D01*
X2782395Y613020D01*
X2783368Y612970D01*
X2783387Y612972D01*
X2783523Y612978D01*
X2834323Y620793D01*
X2834324Y620793D01*
X2834325Y620794D01*
X2973040Y642592D01*
X2973044Y642593D01*
X2973200Y642635D01*
X3180357Y723949D01*
X3180386Y723966D01*
X3180419Y723976D01*
X3180491Y724029D01*
X3180569Y724075D01*
X3180591Y724100D01*
X3180618Y724120D01*
X3180670Y724193D01*
X3180729Y724261D01*
X3180742Y724293D01*
X3180761Y724320D01*
X3180819Y724478D01*
X3213056Y857219D01*
X3213056Y857225D01*
X3213059Y857232D01*
X3213077Y857398D01*
X3213077Y879829D01*
X3213069Y879882D01*
X3213070Y879936D01*
X3213049Y880003D01*
X3213038Y880072D01*
X3213012Y880119D01*
X3212996Y880171D01*
X3212936Y880264D01*
X3212922Y880289D01*
X3212915Y880297D01*
X3212905Y880311D01*
X3182790Y917119D01*
X3182710Y917190D01*
X3182633Y917263D01*
X3182618Y917271D01*
X3182605Y917282D01*
X3182507Y917323D01*
X3182411Y917369D01*
X3182391Y917372D01*
X3182379Y917377D01*
X3182348Y917379D01*
X3182245Y917397D01*
X3019551Y926967D01*
X3019494Y926961D01*
X3019436Y926965D01*
X3019338Y926945D01*
X3019306Y926942D01*
X3019299Y926938D01*
X3017252Y927102D01*
X3017246Y927102D01*
X3017236Y927103D01*
X3015173Y927225D01*
X3015156Y927230D01*
X3015104Y927255D01*
X3015006Y927274D01*
X3014975Y927283D01*
X3014967Y927283D01*
X3013138Y928218D01*
X3013132Y928220D01*
X3013124Y928225D01*
X3011265Y929127D01*
X3011251Y929138D01*
X3011213Y929182D01*
X3011129Y929237D01*
X3011105Y929257D01*
X3011097Y929260D01*
X3009765Y930823D01*
X3009760Y930827D01*
X3009755Y930835D01*
X3008382Y932380D01*
X3008373Y932395D01*
X3008355Y932450D01*
X3008298Y932533D01*
X3008283Y932561D01*
X3008273Y932571D01*
X3008261Y932589D01*
X2919558Y1036718D01*
X2919482Y1036783D01*
X2919409Y1036852D01*
X2919384Y1036866D01*
X2919371Y1036877D01*
X2919340Y1036889D01*
X2919261Y1036931D01*
X2892214Y1047750D01*
X2892199Y1047754D01*
X2892178Y1047764D01*
X2890399Y1048374D01*
X2890286Y1048474D01*
X2890247Y1048498D01*
X2890213Y1048531D01*
X2890095Y1048594D01*
X2890078Y1048604D01*
X2890073Y1048606D01*
X2890065Y1048610D01*
X2889926Y1048665D01*
X2888579Y1049980D01*
X2888567Y1049988D01*
X2888552Y1050005D01*
X2887141Y1051251D01*
X2887076Y1051385D01*
X2887049Y1051423D01*
X2887030Y1051466D01*
X2886945Y1051569D01*
X2886933Y1051586D01*
X2886929Y1051589D01*
X2886923Y1051596D01*
X2886816Y1051700D01*
X2886075Y1053430D01*
X2886067Y1053442D01*
X2886059Y1053464D01*
X2843043Y1141451D01*
X2843019Y1141485D01*
X2843003Y1141524D01*
X2842953Y1141586D01*
X2842946Y1141597D01*
X2842939Y1141604D01*
X2842906Y1141644D01*
X2842901Y1141652D01*
X2842900Y1141653D01*
X2842898Y1141655D01*
X2842740Y1141813D01*
X2842047Y1143485D01*
X2842038Y1143500D01*
X2842028Y1143528D01*
X2841233Y1145155D01*
X2841219Y1145377D01*
X2841210Y1145418D01*
X2841209Y1145460D01*
X2841166Y1145608D01*
X2841164Y1145617D01*
X2841163Y1145619D01*
X2841163Y1145621D01*
X2841077Y1145827D01*
X2841077Y1147637D01*
X2841074Y1147655D01*
X2841076Y1147685D01*
X2840964Y1149491D01*
X2841036Y1149702D01*
X2841043Y1149744D01*
X2841059Y1149783D01*
X2841076Y1149936D01*
X2841077Y1149945D01*
X2841077Y1149947D01*
X2841077Y1149950D01*
X2841077Y1152423D01*
X2841074Y1152441D01*
X2841076Y1152459D01*
X2841050Y1152625D01*
X2840892Y1153199D01*
X2841071Y1154633D01*
X2841070Y1154664D01*
X2841077Y1154727D01*
X2841077Y1156173D01*
X2841305Y1156723D01*
X2841309Y1156741D01*
X2841318Y1156757D01*
X2841357Y1156920D01*
X2844530Y1182304D01*
X2844526Y1182409D01*
X2844527Y1182513D01*
X2844522Y1182531D01*
X2844521Y1182550D01*
X2844484Y1182648D01*
X2844451Y1182747D01*
X2844439Y1182766D01*
X2844434Y1182780D01*
X2844414Y1182804D01*
X2844358Y1182887D01*
X2786375Y1252093D01*
X2786358Y1252107D01*
X2786267Y1252198D01*
X2768804Y1266169D01*
X2768760Y1266194D01*
X2768721Y1266227D01*
X2768612Y1266277D01*
X2768589Y1266290D01*
X2768581Y1266291D01*
X2768569Y1266297D01*
X2760345Y1269038D01*
X2760307Y1269044D01*
X2760271Y1269059D01*
X2760104Y1269077D01*
X2760071Y1269077D01*
X2760067Y1269077D01*
X2760061Y1269077D01*
X2757935Y1269051D01*
X2757917Y1269059D01*
X2757856Y1269066D01*
X2755886Y1269881D01*
X2755883Y1269882D01*
X2755878Y1269885D01*
X2753902Y1270675D01*
X2753888Y1270689D01*
X2753834Y1270719D01*
X2752327Y1272226D01*
X2752324Y1272228D01*
X2752321Y1272232D01*
X2750798Y1273718D01*
X2750790Y1273737D01*
X2750752Y1273785D01*
X2749936Y1275755D01*
X2749934Y1275758D01*
X2749932Y1275763D01*
X2722995Y1338616D01*
X2722935Y1338710D01*
X2722877Y1338807D01*
X2722869Y1338814D01*
X2722863Y1338823D01*
X2722776Y1338894D01*
X2722691Y1338967D01*
X2722680Y1338971D01*
X2722672Y1338978D01*
X2722567Y1339017D01*
X2722462Y1339059D01*
X2722449Y1339060D01*
X2722441Y1339063D01*
X2722415Y1339064D01*
X2722296Y1339077D01*
X2679157Y1339077D01*
X2679134Y1339073D01*
X2679008Y1339062D01*
X2678012Y1338863D01*
X2677003Y1339063D01*
X2676979Y1339064D01*
X2676855Y1339077D01*
X2675827Y1339077D01*
X2674889Y1339466D01*
X2674866Y1339471D01*
X2674745Y1339509D01*
X2673749Y1339707D01*
X2672894Y1340277D01*
X2672871Y1340287D01*
X2672763Y1340347D01*
X2671813Y1340740D01*
X2671095Y1341458D01*
X2671076Y1341472D01*
X2670978Y1341554D01*
X2670133Y1342117D01*
X2669561Y1342971D01*
X2669545Y1342989D01*
X2669467Y1343086D01*
X2668740Y1343813D01*
X2668351Y1344751D01*
X2668339Y1344771D01*
X2668281Y1344883D01*
X2667715Y1345727D01*
X2667514Y1346735D01*
X2667505Y1346758D01*
X2667471Y1346878D01*
X2667077Y1347827D01*
X2667077Y1348843D01*
X2667073Y1348866D01*
X2667062Y1348992D01*
X2662955Y1369531D01*
X2662946Y1369554D01*
X2662944Y1369578D01*
X2662903Y1369668D01*
X2662868Y1369762D01*
X2662853Y1369780D01*
X2662843Y1369802D01*
X2662776Y1369875D01*
X2662713Y1369952D01*
X2662692Y1369965D01*
X2662676Y1369983D01*
X2662589Y1370030D01*
X2662505Y1370083D01*
X2662481Y1370089D01*
X2662460Y1370100D01*
X2662297Y1370138D01*
X2484077Y1390994D01*
X2484073Y1390994D01*
X2484069Y1390995D01*
X2483902Y1390994D01*
X2483090Y1390901D01*
X2481911Y1391237D01*
X2481878Y1391241D01*
X2481790Y1391261D01*
X2480573Y1391404D01*
X2479859Y1391802D01*
X2479855Y1391803D01*
X2479852Y1391806D01*
X2479697Y1391869D01*
X2478912Y1392094D01*
X2477951Y1392856D01*
X2477923Y1392872D01*
X2477849Y1392924D01*
X2476778Y1393522D01*
X2476272Y1394163D01*
X2476269Y1394166D01*
X2476267Y1394169D01*
X2476148Y1394287D01*
X2228726Y1590654D01*
X2228656Y1590693D01*
X2228592Y1590739D01*
X2228550Y1590752D01*
X2228511Y1590773D01*
X2228433Y1590788D01*
X2228357Y1590811D01*
X2228313Y1590810D01*
X2228270Y1590818D01*
X2228191Y1590807D01*
X2228111Y1590805D01*
X2228069Y1590790D01*
X2228026Y1590784D01*
X2227955Y1590748D01*
X2227880Y1590721D01*
X2227845Y1590693D01*
X2227806Y1590674D01*
X2227750Y1590617D01*
X2227688Y1590567D01*
X2227664Y1590530D01*
X2227633Y1590499D01*
X2227598Y1590427D01*
X2227555Y1590360D01*
X2227544Y1590318D01*
X2227525Y1590278D01*
X2227514Y1590199D01*
X2227495Y1590121D01*
X2227498Y1590078D01*
X2227492Y1590034D01*
X2227507Y1589956D01*
X2227514Y1589876D01*
X2227531Y1589836D01*
X2227539Y1589793D01*
X2227579Y1589723D01*
X2227610Y1589650D01*
X2227646Y1589605D01*
X2227661Y1589579D01*
X2227690Y1589550D01*
X2227715Y1589519D01*
X2230786Y1586448D01*
X2233621Y1579604D01*
X2233621Y1572196D01*
X2230786Y1565352D01*
X2225548Y1560114D01*
X2218704Y1557279D01*
X2211296Y1557279D01*
X2204452Y1560114D01*
X2199214Y1565352D01*
X2196379Y1572196D01*
X2196379Y1579604D01*
X2199214Y1586448D01*
X2204452Y1591686D01*
X2210854Y1594338D01*
X2210862Y1594343D01*
X2210872Y1594345D01*
X2210967Y1594408D01*
X2211063Y1594467D01*
X2211069Y1594475D01*
X2211078Y1594480D01*
X2211148Y1594570D01*
X2211220Y1594657D01*
X2211224Y1594666D01*
X2211230Y1594674D01*
X2211268Y1594781D01*
X2211308Y1594886D01*
X2211309Y1594896D01*
X2211312Y1594905D01*
X2211314Y1595019D01*
X2211319Y1595132D01*
X2211316Y1595142D01*
X2211316Y1595151D01*
X2211282Y1595259D01*
X2211250Y1595368D01*
X2211245Y1595376D01*
X2211242Y1595386D01*
X2211175Y1595477D01*
X2211110Y1595570D01*
X2211102Y1595576D01*
X2211096Y1595584D01*
X2211004Y1595649D01*
X2210912Y1595717D01*
X2210903Y1595720D01*
X2210895Y1595726D01*
X2210737Y1595782D01*
X2162341Y1607169D01*
X2162308Y1607172D01*
X2162230Y1607187D01*
X2140520Y1608996D01*
X2140511Y1608995D01*
X2140502Y1608997D01*
X2140335Y1608989D01*
X2069291Y1597468D01*
X2069274Y1597463D01*
X2069257Y1597462D01*
X2069097Y1597410D01*
X2050615Y1589009D01*
X2050571Y1588979D01*
X2048506Y1588050D01*
X2048505Y1588049D01*
X2048504Y1588049D01*
X2046460Y1587120D01*
X2046430Y1587114D01*
X2046414Y1587105D01*
X2046384Y1587095D01*
X2015372Y1573139D01*
X2015284Y1573081D01*
X2015193Y1573027D01*
X2015181Y1573014D01*
X2015167Y1573004D01*
X2015102Y1572920D01*
X2015033Y1572840D01*
X2015026Y1572824D01*
X2015016Y1572810D01*
X2014981Y1572710D01*
X2014941Y1572612D01*
X2014939Y1572590D01*
X2014934Y1572577D01*
X2014934Y1572546D01*
X2014923Y1572445D01*
X2014923Y1566758D01*
X2014938Y1566667D01*
X2014945Y1566575D01*
X2014959Y1566538D01*
X2014962Y1566515D01*
X2014978Y1566487D01*
X2015003Y1566418D01*
X2042922Y1510581D01*
X2042944Y1510549D01*
X2042959Y1510514D01*
X2043064Y1510383D01*
X2043260Y1510187D01*
X2043933Y1508563D01*
X2043943Y1508546D01*
X2043955Y1508514D01*
X2044741Y1506942D01*
X2044761Y1506666D01*
X2044770Y1506628D01*
X2044770Y1506589D01*
X2044817Y1506428D01*
X2044923Y1506173D01*
X2044923Y1504414D01*
X2044926Y1504395D01*
X2044925Y1504361D01*
X2045049Y1502607D01*
X2044962Y1502345D01*
X2044956Y1502307D01*
X2044941Y1502271D01*
X2044923Y1502104D01*
X2044923Y1495827D01*
X2043260Y1491813D01*
X2033164Y1481716D01*
X2033136Y1481678D01*
X2033101Y1481646D01*
X2033032Y1481534D01*
X2033020Y1481517D01*
X2033018Y1481511D01*
X2033013Y1481503D01*
X2032955Y1481379D01*
X2031553Y1480105D01*
X2031544Y1480094D01*
X2031527Y1480080D01*
X2030187Y1478740D01*
X2030061Y1478688D01*
X2030021Y1478663D01*
X2029976Y1478646D01*
X2029871Y1478570D01*
X2029852Y1478558D01*
X2029848Y1478554D01*
X2029841Y1478548D01*
X2009781Y1460312D01*
X2009764Y1460291D01*
X2009727Y1460258D01*
X2008665Y1459078D01*
X2008258Y1458884D01*
X2008235Y1458868D01*
X2008210Y1458858D01*
X2008074Y1458760D01*
X2007740Y1458456D01*
X2006246Y1457919D01*
X2006223Y1457906D01*
X2006176Y1457890D01*
X2004744Y1457207D01*
X2004293Y1457183D01*
X2004266Y1457177D01*
X2004239Y1457178D01*
X2004075Y1457139D01*
X2003651Y1456986D01*
X2002065Y1457062D01*
X2002039Y1457059D01*
X2001989Y1457062D01*
X1971188Y1455440D01*
X1971127Y1455427D01*
X1971066Y1455424D01*
X1971008Y1455401D01*
X1970947Y1455388D01*
X1970894Y1455356D01*
X1970837Y1455334D01*
X1970790Y1455294D01*
X1970736Y1455262D01*
X1970696Y1455215D01*
X1970649Y1455175D01*
X1970598Y1455100D01*
X1970576Y1455075D01*
X1970570Y1455059D01*
X1970555Y1455036D01*
X1955911Y1427376D01*
X1955903Y1427352D01*
X1955880Y1427311D01*
X1955260Y1425813D01*
X1954966Y1425519D01*
X1954948Y1425495D01*
X1954926Y1425475D01*
X1954831Y1425337D01*
X1954637Y1424969D01*
X1953387Y1423935D01*
X1953370Y1423916D01*
X1953334Y1423887D01*
X1952187Y1422740D01*
X1951803Y1422581D01*
X1951778Y1422565D01*
X1951749Y1422556D01*
X1951609Y1422464D01*
X1951289Y1422199D01*
X1949739Y1421722D01*
X1949716Y1421711D01*
X1949671Y1421698D01*
X1948173Y1421077D01*
X1947757Y1421077D01*
X1947727Y1421072D01*
X1947698Y1421075D01*
X1947533Y1421044D01*
X1947136Y1420921D01*
X1945521Y1421074D01*
X1945495Y1421072D01*
X1945449Y1421077D01*
X1857993Y1421077D01*
X1857991Y1421077D01*
X1857988Y1421077D01*
X1857868Y1421057D01*
X1857750Y1421038D01*
X1857748Y1421037D01*
X1857746Y1421036D01*
X1857638Y1420978D01*
X1857533Y1420922D01*
X1857531Y1420921D01*
X1857529Y1420920D01*
X1857445Y1420831D01*
X1857363Y1420744D01*
X1857362Y1420742D01*
X1857361Y1420741D01*
X1857283Y1420592D01*
X1832974Y1358084D01*
X1832963Y1358028D01*
X1832941Y1357975D01*
X1832930Y1357874D01*
X1832924Y1357843D01*
X1832925Y1357830D01*
X1832923Y1357808D01*
X1832923Y1345035D01*
X1832936Y1344954D01*
X1832940Y1344873D01*
X1832956Y1344834D01*
X1832962Y1344792D01*
X1833001Y1344720D01*
X1833030Y1344644D01*
X1833058Y1344612D01*
X1833078Y1344575D01*
X1833137Y1344519D01*
X1833189Y1344456D01*
X1833235Y1344425D01*
X1833256Y1344405D01*
X1833282Y1344393D01*
X1833328Y1344362D01*
X1860008Y1330237D01*
X1860019Y1330233D01*
X1860158Y1330177D01*
X1861049Y1329927D01*
X1861928Y1329235D01*
X1861954Y1329220D01*
X1862042Y1329160D01*
X1863031Y1328637D01*
X1863621Y1327924D01*
X1863628Y1327917D01*
X1863736Y1327811D01*
X1864463Y1327239D01*
X1865010Y1326263D01*
X1865029Y1326240D01*
X1865088Y1326151D01*
X1865801Y1325289D01*
X1866073Y1324405D01*
X1866078Y1324395D01*
X1866137Y1324256D01*
X1956978Y1162321D01*
X1956994Y1162300D01*
X1957061Y1162202D01*
X1957741Y1161398D01*
X1958043Y1160454D01*
X1958052Y1160436D01*
X1958104Y1160314D01*
X1958589Y1159449D01*
X1958714Y1158404D01*
X1958721Y1158379D01*
X1958744Y1158262D01*
X1974181Y1110023D01*
X1974195Y1109996D01*
X1974215Y1109935D01*
X1974823Y1108626D01*
X1974848Y1108029D01*
X1974851Y1108011D01*
X1974850Y1107993D01*
X1974883Y1107828D01*
X1975065Y1107260D01*
X1974946Y1105821D01*
X1974948Y1105790D01*
X1974944Y1105726D01*
X1976685Y1063941D01*
X1976685Y1063938D01*
X1976685Y1063935D01*
X1976710Y1063818D01*
X1976734Y1063701D01*
X1976736Y1063698D01*
X1976737Y1063694D01*
X1976798Y1063592D01*
X1976858Y1063488D01*
X1976861Y1063486D01*
X1976863Y1063483D01*
X1976984Y1063367D01*
X2063841Y997281D01*
X2063869Y997266D01*
X2063947Y997213D01*
X2065010Y996654D01*
X2065548Y996006D01*
X2065550Y996005D01*
X2065551Y996003D01*
X2065673Y995887D01*
X2066343Y995377D01*
X2066948Y994339D01*
X2066968Y994314D01*
X2067020Y994236D01*
X2067788Y993313D01*
X2068038Y992508D01*
X2068039Y992506D01*
X2068039Y992504D01*
X2068107Y992350D01*
X2068531Y991623D01*
X2068693Y990433D01*
X2068702Y990402D01*
X2068720Y990310D01*
X2073113Y976155D01*
X2073160Y976060D01*
X2073203Y975963D01*
X2073215Y975950D01*
X2073223Y975935D01*
X2073298Y975860D01*
X2073370Y975782D01*
X2073385Y975773D01*
X2073397Y975761D01*
X2073492Y975714D01*
X2073585Y975663D01*
X2073602Y975660D01*
X2073618Y975652D01*
X2073723Y975638D01*
X2073827Y975619D01*
X2073844Y975622D01*
X2073861Y975620D01*
X2073965Y975640D01*
X2074071Y975655D01*
X2074086Y975663D01*
X2074103Y975666D01*
X2074195Y975719D01*
X2074290Y975767D01*
X2074302Y975779D01*
X2074317Y975787D01*
X2074388Y975866D01*
X2074462Y975942D01*
X2074472Y975961D01*
X2074481Y975970D01*
X2074493Y975999D01*
X2074543Y976089D01*
X2075450Y978280D01*
X2075972Y978802D01*
X2076025Y978876D01*
X2076085Y978945D01*
X2076097Y978975D01*
X2076116Y979001D01*
X2076143Y979088D01*
X2076177Y979173D01*
X2076181Y979214D01*
X2076188Y979236D01*
X2076187Y979269D01*
X2076195Y979340D01*
X2076195Y1140714D01*
X2076192Y1140734D01*
X2076194Y1140753D01*
X2076172Y1140855D01*
X2076156Y1140957D01*
X2076146Y1140974D01*
X2076142Y1140994D01*
X2076089Y1141083D01*
X2076040Y1141174D01*
X2076026Y1141188D01*
X2076016Y1141205D01*
X2075937Y1141272D01*
X2075862Y1141344D01*
X2075844Y1141352D01*
X2075829Y1141365D01*
X2075733Y1141404D01*
X2075639Y1141447D01*
X2075619Y1141449D01*
X2075601Y1141457D01*
X2075434Y1141475D01*
X2033614Y1141475D01*
X2033524Y1141461D01*
X2033433Y1141453D01*
X2033403Y1141441D01*
X2033372Y1141436D01*
X2033291Y1141393D01*
X2033207Y1141357D01*
X2033175Y1141331D01*
X2033154Y1141320D01*
X2033132Y1141297D01*
X2033076Y1141252D01*
X2026128Y1134304D01*
X2026075Y1134230D01*
X2026015Y1134161D01*
X2026003Y1134130D01*
X2025984Y1134104D01*
X2025957Y1134017D01*
X2025923Y1133932D01*
X2025919Y1133892D01*
X2025912Y1133869D01*
X2025913Y1133837D01*
X2025905Y1133766D01*
X2025905Y1132848D01*
X2024745Y1130047D01*
X2022601Y1127903D01*
X2019800Y1126743D01*
X2016768Y1126743D01*
X2013967Y1127903D01*
X2011823Y1130047D01*
X2010663Y1132848D01*
X2010663Y1135880D01*
X2011823Y1138681D01*
X2013967Y1140825D01*
X2016768Y1141985D01*
X2017686Y1141985D01*
X2017776Y1141999D01*
X2017867Y1142007D01*
X2017897Y1142019D01*
X2017928Y1142024D01*
X2018009Y1142067D01*
X2018093Y1142103D01*
X2018125Y1142129D01*
X2018146Y1142140D01*
X2018168Y1142163D01*
X2018224Y1142208D01*
X2027818Y1151802D01*
X2029872Y1152653D01*
X2128393Y1152653D01*
X2128413Y1152656D01*
X2128432Y1152654D01*
X2128534Y1152676D01*
X2128636Y1152692D01*
X2128653Y1152702D01*
X2128673Y1152706D01*
X2128762Y1152759D01*
X2128853Y1152808D01*
X2128867Y1152822D01*
X2128884Y1152832D01*
X2128951Y1152911D01*
X2129023Y1152986D01*
X2129031Y1153004D01*
X2129044Y1153019D01*
X2129083Y1153115D01*
X2129126Y1153209D01*
X2129128Y1153229D01*
X2129136Y1153247D01*
X2129154Y1153414D01*
X2129154Y1191260D01*
X2129151Y1191280D01*
X2129153Y1191299D01*
X2129131Y1191401D01*
X2129115Y1191503D01*
X2129105Y1191520D01*
X2129101Y1191540D01*
X2129048Y1191629D01*
X2128999Y1191720D01*
X2128985Y1191734D01*
X2128975Y1191751D01*
X2128896Y1191818D01*
X2128821Y1191890D01*
X2128803Y1191898D01*
X2128788Y1191911D01*
X2128692Y1191950D01*
X2128598Y1191993D01*
X2128578Y1191995D01*
X2128560Y1192003D01*
X2128393Y1192021D01*
X2126519Y1192021D01*
X2124465Y1192872D01*
X2091933Y1225404D01*
X2090254Y1227083D01*
X2089403Y1229137D01*
X2089403Y1283081D01*
X2089400Y1283101D01*
X2089402Y1283120D01*
X2089380Y1283222D01*
X2089364Y1283324D01*
X2089354Y1283341D01*
X2089350Y1283361D01*
X2089297Y1283450D01*
X2089248Y1283541D01*
X2089234Y1283555D01*
X2089224Y1283572D01*
X2089145Y1283639D01*
X2089070Y1283711D01*
X2089052Y1283719D01*
X2089037Y1283732D01*
X2088941Y1283771D01*
X2088847Y1283814D01*
X2088827Y1283816D01*
X2088809Y1283824D01*
X2088642Y1283842D01*
X1978957Y1283842D01*
X1978867Y1283828D01*
X1978776Y1283820D01*
X1978746Y1283808D01*
X1978714Y1283803D01*
X1978633Y1283760D01*
X1978550Y1283724D01*
X1978517Y1283698D01*
X1978497Y1283687D01*
X1978475Y1283664D01*
X1978419Y1283619D01*
X1977770Y1282970D01*
X1974969Y1281810D01*
X1971937Y1281810D01*
X1969136Y1282970D01*
X1966992Y1285114D01*
X1965832Y1287915D01*
X1965832Y1290947D01*
X1966992Y1293748D01*
X1969136Y1295892D01*
X1971937Y1297052D01*
X1974969Y1297052D01*
X1977770Y1295892D01*
X1978419Y1295243D01*
X1978493Y1295190D01*
X1978562Y1295130D01*
X1978592Y1295118D01*
X1978618Y1295099D01*
X1978705Y1295072D01*
X1978790Y1295038D01*
X1978831Y1295034D01*
X1978853Y1295027D01*
X1978886Y1295028D01*
X1978957Y1295020D01*
X2107729Y1295020D01*
X2107819Y1295034D01*
X2107910Y1295042D01*
X2107940Y1295054D01*
X2107971Y1295059D01*
X2108052Y1295102D01*
X2108136Y1295138D01*
X2108168Y1295164D01*
X2108189Y1295175D01*
X2108211Y1295198D01*
X2108267Y1295243D01*
X2124105Y1311081D01*
X2124158Y1311155D01*
X2124188Y1311189D01*
X2124197Y1311198D01*
X2124198Y1311201D01*
X2124218Y1311224D01*
X2124230Y1311255D01*
X2124249Y1311281D01*
X2124276Y1311368D01*
X2124279Y1311375D01*
X2124300Y1311421D01*
X2124301Y1311431D01*
X2124310Y1311453D01*
X2124314Y1311493D01*
X2124321Y1311516D01*
X2124320Y1311548D01*
X2124328Y1311619D01*
X2124328Y1438312D01*
X2124314Y1438402D01*
X2124306Y1438493D01*
X2124294Y1438523D01*
X2124289Y1438554D01*
X2124246Y1438635D01*
X2124210Y1438719D01*
X2124184Y1438751D01*
X2124173Y1438772D01*
X2124150Y1438794D01*
X2124105Y1438850D01*
X2122999Y1439956D01*
X2122925Y1440009D01*
X2122856Y1440069D01*
X2122825Y1440081D01*
X2122799Y1440100D01*
X2122712Y1440127D01*
X2122627Y1440161D01*
X2122587Y1440165D01*
X2122564Y1440172D01*
X2122532Y1440171D01*
X2122461Y1440179D01*
X2121543Y1440179D01*
X2118742Y1441339D01*
X2116598Y1443483D01*
X2115438Y1446284D01*
X2115438Y1449316D01*
X2116598Y1452117D01*
X2118742Y1454261D01*
X2121543Y1455421D01*
X2124575Y1455421D01*
X2127376Y1454261D01*
X2129520Y1452117D01*
X2130680Y1449316D01*
X2130680Y1448398D01*
X2130694Y1448308D01*
X2130702Y1448217D01*
X2130714Y1448187D01*
X2130719Y1448156D01*
X2130762Y1448075D01*
X2130798Y1447991D01*
X2130824Y1447959D01*
X2130835Y1447938D01*
X2130858Y1447916D01*
X2130903Y1447860D01*
X2134655Y1444108D01*
X2135506Y1442054D01*
X2135506Y1437894D01*
X2135509Y1437874D01*
X2135507Y1437855D01*
X2135529Y1437753D01*
X2135545Y1437651D01*
X2135555Y1437634D01*
X2135559Y1437614D01*
X2135612Y1437525D01*
X2135661Y1437434D01*
X2135675Y1437420D01*
X2135685Y1437403D01*
X2135764Y1437336D01*
X2135839Y1437264D01*
X2135857Y1437256D01*
X2135872Y1437243D01*
X2135968Y1437204D01*
X2136062Y1437161D01*
X2136082Y1437159D01*
X2136100Y1437151D01*
X2136267Y1437133D01*
X2328618Y1437133D01*
X2336396Y1429355D01*
X2336469Y1429302D01*
X2336539Y1429242D01*
X2336569Y1429230D01*
X2336595Y1429211D01*
X2336682Y1429184D01*
X2336767Y1429150D01*
X2336808Y1429146D01*
X2336830Y1429139D01*
X2336863Y1429140D01*
X2336934Y1429132D01*
X2338570Y1429132D01*
X2341371Y1427972D01*
X2342528Y1426815D01*
X2342602Y1426762D01*
X2342671Y1426702D01*
X2342701Y1426690D01*
X2342727Y1426671D01*
X2342814Y1426644D01*
X2342899Y1426610D01*
X2342940Y1426606D01*
X2342962Y1426599D01*
X2342995Y1426600D01*
X2343066Y1426592D01*
X2422725Y1426592D01*
X2513180Y1336137D01*
X2513253Y1336084D01*
X2513323Y1336024D01*
X2513353Y1336012D01*
X2513379Y1335993D01*
X2513466Y1335966D01*
X2513551Y1335932D01*
X2513592Y1335928D01*
X2513614Y1335921D01*
X2513647Y1335922D01*
X2513718Y1335914D01*
X2540211Y1335914D01*
X2540301Y1335928D01*
X2540392Y1335936D01*
X2540422Y1335948D01*
X2540454Y1335953D01*
X2540535Y1335996D01*
X2540618Y1336032D01*
X2540651Y1336058D01*
X2540671Y1336069D01*
X2540693Y1336092D01*
X2540749Y1336137D01*
X2541906Y1337294D01*
X2544707Y1338454D01*
X2547739Y1338454D01*
X2550540Y1337294D01*
X2552684Y1335150D01*
X2553844Y1332349D01*
X2553844Y1329317D01*
X2552684Y1326516D01*
X2550540Y1324372D01*
X2547739Y1323212D01*
X2544707Y1323212D01*
X2541906Y1324372D01*
X2540749Y1325529D01*
X2540675Y1325582D01*
X2540606Y1325642D01*
X2540576Y1325654D01*
X2540550Y1325673D01*
X2540463Y1325700D01*
X2540378Y1325734D01*
X2540337Y1325738D01*
X2540315Y1325745D01*
X2540282Y1325744D01*
X2540211Y1325752D01*
X2509193Y1325752D01*
X2418738Y1416207D01*
X2418665Y1416260D01*
X2418595Y1416320D01*
X2418565Y1416332D01*
X2418539Y1416351D01*
X2418452Y1416378D01*
X2418367Y1416412D01*
X2418326Y1416416D01*
X2418304Y1416423D01*
X2418271Y1416422D01*
X2418200Y1416430D01*
X2343066Y1416430D01*
X2342976Y1416416D01*
X2342885Y1416408D01*
X2342855Y1416396D01*
X2342823Y1416391D01*
X2342742Y1416348D01*
X2342659Y1416312D01*
X2342626Y1416286D01*
X2342606Y1416275D01*
X2342584Y1416252D01*
X2342528Y1416207D01*
X2341371Y1415050D01*
X2338570Y1413890D01*
X2335538Y1413890D01*
X2332737Y1415050D01*
X2330593Y1417194D01*
X2329433Y1419995D01*
X2329433Y1421631D01*
X2329419Y1421721D01*
X2329411Y1421812D01*
X2329399Y1421842D01*
X2329394Y1421874D01*
X2329351Y1421955D01*
X2329315Y1422038D01*
X2329289Y1422071D01*
X2329278Y1422091D01*
X2329255Y1422113D01*
X2329210Y1422169D01*
X2324631Y1426748D01*
X2324558Y1426801D01*
X2324488Y1426861D01*
X2324458Y1426873D01*
X2324432Y1426892D01*
X2324345Y1426919D01*
X2324260Y1426953D01*
X2324219Y1426957D01*
X2324197Y1426964D01*
X2324164Y1426963D01*
X2324093Y1426971D01*
X2136267Y1426971D01*
X2136247Y1426968D01*
X2136228Y1426970D01*
X2136126Y1426948D01*
X2136024Y1426932D01*
X2136007Y1426922D01*
X2135987Y1426918D01*
X2135898Y1426865D01*
X2135807Y1426816D01*
X2135793Y1426802D01*
X2135776Y1426792D01*
X2135709Y1426713D01*
X2135637Y1426638D01*
X2135629Y1426620D01*
X2135616Y1426605D01*
X2135577Y1426509D01*
X2135534Y1426415D01*
X2135532Y1426395D01*
X2135524Y1426377D01*
X2135506Y1426210D01*
X2135506Y1307877D01*
X2134655Y1305823D01*
X2113525Y1284693D01*
X2111471Y1283842D01*
X2101342Y1283842D01*
X2101322Y1283839D01*
X2101303Y1283841D01*
X2101201Y1283819D01*
X2101099Y1283803D01*
X2101082Y1283793D01*
X2101062Y1283789D01*
X2100973Y1283736D01*
X2100882Y1283687D01*
X2100868Y1283673D01*
X2100851Y1283663D01*
X2100784Y1283584D01*
X2100712Y1283509D01*
X2100704Y1283491D01*
X2100691Y1283476D01*
X2100652Y1283380D01*
X2100609Y1283286D01*
X2100607Y1283266D01*
X2100599Y1283248D01*
X2100581Y1283081D01*
X2100581Y1232879D01*
X2100595Y1232789D01*
X2100603Y1232698D01*
X2100615Y1232668D01*
X2100620Y1232636D01*
X2100663Y1232556D01*
X2100699Y1232472D01*
X2100725Y1232440D01*
X2100736Y1232419D01*
X2100759Y1232397D01*
X2100804Y1232341D01*
X2129723Y1203422D01*
X2129797Y1203369D01*
X2129866Y1203309D01*
X2129897Y1203297D01*
X2129923Y1203278D01*
X2130010Y1203251D01*
X2130095Y1203217D01*
X2130135Y1203213D01*
X2130158Y1203206D01*
X2130190Y1203207D01*
X2130261Y1203199D01*
X2226762Y1203199D01*
X2226827Y1203209D01*
X2226892Y1203210D01*
X2226972Y1203233D01*
X2227005Y1203238D01*
X2227022Y1203248D01*
X2227053Y1203257D01*
X2229366Y1204215D01*
X2232398Y1204215D01*
X2235199Y1203055D01*
X2237343Y1200911D01*
X2238503Y1198110D01*
X2238503Y1195078D01*
X2237343Y1192277D01*
X2235199Y1190133D01*
X2232398Y1188973D01*
X2229366Y1188973D01*
X2226565Y1190133D01*
X2224900Y1191798D01*
X2224826Y1191851D01*
X2224757Y1191911D01*
X2224727Y1191923D01*
X2224701Y1191942D01*
X2224614Y1191969D01*
X2224529Y1192003D01*
X2224488Y1192007D01*
X2224466Y1192014D01*
X2224433Y1192013D01*
X2224362Y1192021D01*
X2141093Y1192021D01*
X2141073Y1192018D01*
X2141054Y1192020D01*
X2140952Y1191998D01*
X2140850Y1191982D01*
X2140833Y1191972D01*
X2140813Y1191968D01*
X2140724Y1191915D01*
X2140633Y1191866D01*
X2140619Y1191852D01*
X2140602Y1191842D01*
X2140535Y1191763D01*
X2140463Y1191688D01*
X2140455Y1191670D01*
X2140442Y1191655D01*
X2140403Y1191559D01*
X2140360Y1191465D01*
X2140358Y1191445D01*
X2140350Y1191427D01*
X2140332Y1191260D01*
X2140332Y1136189D01*
X2140342Y1136124D01*
X2140343Y1136059D01*
X2140366Y1135979D01*
X2140371Y1135946D01*
X2140381Y1135929D01*
X2140390Y1135898D01*
X2140713Y1135118D01*
X2140713Y1132086D01*
X2139553Y1129285D01*
X2137409Y1127141D01*
X2134608Y1125981D01*
X2131576Y1125981D01*
X2128775Y1127141D01*
X2126631Y1129285D01*
X2125471Y1132086D01*
X2125471Y1135118D01*
X2126631Y1137919D01*
X2128843Y1140130D01*
X2128859Y1140140D01*
X2128921Y1140215D01*
X2128988Y1140286D01*
X2128999Y1140310D01*
X2129016Y1140329D01*
X2129051Y1140420D01*
X2129092Y1140509D01*
X2129095Y1140535D01*
X2129104Y1140559D01*
X2129108Y1140656D01*
X2129119Y1140753D01*
X2129114Y1140779D01*
X2129115Y1140805D01*
X2129088Y1140898D01*
X2129067Y1140994D01*
X2129053Y1141016D01*
X2129046Y1141041D01*
X2128991Y1141121D01*
X2128941Y1141205D01*
X2128921Y1141222D01*
X2128906Y1141243D01*
X2128828Y1141301D01*
X2128754Y1141365D01*
X2128730Y1141375D01*
X2128709Y1141390D01*
X2128616Y1141420D01*
X2128526Y1141457D01*
X2128493Y1141460D01*
X2128475Y1141466D01*
X2128442Y1141466D01*
X2128359Y1141475D01*
X2088134Y1141475D01*
X2088114Y1141472D01*
X2088095Y1141474D01*
X2087993Y1141452D01*
X2087891Y1141436D01*
X2087874Y1141426D01*
X2087854Y1141422D01*
X2087765Y1141369D01*
X2087674Y1141320D01*
X2087660Y1141306D01*
X2087643Y1141296D01*
X2087576Y1141217D01*
X2087504Y1141142D01*
X2087496Y1141124D01*
X2087483Y1141109D01*
X2087444Y1141013D01*
X2087401Y1140919D01*
X2087399Y1140899D01*
X2087391Y1140881D01*
X2087373Y1140714D01*
X2087373Y979594D01*
X2087387Y979504D01*
X2087395Y979413D01*
X2087407Y979383D01*
X2087412Y979351D01*
X2087455Y979270D01*
X2087491Y979187D01*
X2087517Y979154D01*
X2087528Y979134D01*
X2087551Y979112D01*
X2087596Y979056D01*
X2088372Y978280D01*
X2089532Y975479D01*
X2089532Y972447D01*
X2088372Y969646D01*
X2086228Y967502D01*
X2083427Y966342D01*
X2080395Y966342D01*
X2077594Y967502D01*
X2077168Y967929D01*
X2077117Y967965D01*
X2077073Y968010D01*
X2077018Y968037D01*
X2076968Y968072D01*
X2076908Y968091D01*
X2076852Y968118D01*
X2076792Y968127D01*
X2076733Y968144D01*
X2076671Y968143D01*
X2076608Y968151D01*
X2076548Y968140D01*
X2076487Y968138D01*
X2076428Y968117D01*
X2076367Y968105D01*
X2076314Y968075D01*
X2076256Y968054D01*
X2076207Y968014D01*
X2076153Y967984D01*
X2076112Y967938D01*
X2076064Y967900D01*
X2076031Y967847D01*
X2075988Y967800D01*
X2075964Y967744D01*
X2075931Y967693D01*
X2075916Y967632D01*
X2075891Y967575D01*
X2075886Y967514D01*
X2075871Y967455D01*
X2075876Y967392D01*
X2075871Y967329D01*
X2075888Y967242D01*
X2075890Y967209D01*
X2075897Y967193D01*
X2075903Y967165D01*
X2086220Y933920D01*
X2086234Y933892D01*
X2086253Y933833D01*
X2086852Y932503D01*
X2086870Y931921D01*
X2086873Y931902D01*
X2086872Y931883D01*
X2086903Y931718D01*
X2087076Y931162D01*
X2086942Y929710D01*
X2086944Y929680D01*
X2086939Y929617D01*
X2090784Y802759D01*
X2090797Y802692D01*
X2090800Y802623D01*
X2090820Y802572D01*
X2090831Y802517D01*
X2090864Y802458D01*
X2090889Y802394D01*
X2090936Y802332D01*
X2090952Y802304D01*
X2090968Y802289D01*
X2090990Y802260D01*
X2214952Y670551D01*
X2214961Y670544D01*
X2214967Y670535D01*
X2215098Y670430D01*
X2215697Y670049D01*
X2216461Y668958D01*
X2216484Y668935D01*
X2216530Y668874D01*
X2217443Y667904D01*
X2217695Y667239D01*
X2217700Y667230D01*
X2217703Y667219D01*
X2217783Y667072D01*
X2218191Y666490D01*
X2218480Y665191D01*
X2218492Y665160D01*
X2218511Y665086D01*
X2218984Y663841D01*
X2218962Y663130D01*
X2218963Y663120D01*
X2218962Y663109D01*
X2218980Y662942D01*
X2226222Y630352D01*
X2226240Y630308D01*
X2226248Y630262D01*
X2226306Y630143D01*
X2226314Y630124D01*
X2226317Y630119D01*
X2226321Y630111D01*
X2327799Y469278D01*
X2327834Y469238D01*
X2327861Y469193D01*
X2327915Y469147D01*
X2327963Y469094D01*
X2328008Y469067D01*
X2328048Y469033D01*
X2328114Y469007D01*
X2328176Y468971D01*
X2328228Y468961D01*
X2328277Y468941D01*
X2328389Y468929D01*
X2328417Y468923D01*
X2328427Y468924D01*
X2328443Y468923D01*
X2338256Y468923D01*
X2338284Y468927D01*
G37*
%LPC*%
G36*
X2893322Y645794D02*
X2893322Y645794D01*
X2890521Y646954D01*
X2888377Y649098D01*
X2887521Y651166D01*
X2887459Y651266D01*
X2887399Y651366D01*
X2887395Y651370D01*
X2887391Y651375D01*
X2887302Y651450D01*
X2887212Y651526D01*
X2887207Y651528D01*
X2887202Y651532D01*
X2887094Y651574D01*
X2886984Y651618D01*
X2886977Y651619D01*
X2886972Y651620D01*
X2886954Y651621D01*
X2886818Y651636D01*
X2678080Y651636D01*
X2676026Y652487D01*
X2633666Y694847D01*
X2633592Y694900D01*
X2633523Y694960D01*
X2633492Y694972D01*
X2633466Y694991D01*
X2633379Y695018D01*
X2633294Y695052D01*
X2633254Y695056D01*
X2633231Y695063D01*
X2633199Y695062D01*
X2633128Y695070D01*
X2582969Y695070D01*
X2582879Y695056D01*
X2582788Y695048D01*
X2582758Y695036D01*
X2582726Y695031D01*
X2582645Y694988D01*
X2582562Y694952D01*
X2582529Y694926D01*
X2582509Y694915D01*
X2582487Y694892D01*
X2582431Y694847D01*
X2581782Y694198D01*
X2578981Y693038D01*
X2575949Y693038D01*
X2573148Y694198D01*
X2571004Y696342D01*
X2569844Y699143D01*
X2569844Y702175D01*
X2571004Y704976D01*
X2573148Y707120D01*
X2575949Y708280D01*
X2578981Y708280D01*
X2581782Y707120D01*
X2582431Y706471D01*
X2582505Y706418D01*
X2582574Y706358D01*
X2582604Y706346D01*
X2582630Y706327D01*
X2582717Y706300D01*
X2582802Y706266D01*
X2582843Y706262D01*
X2582865Y706255D01*
X2582898Y706256D01*
X2582969Y706248D01*
X2636870Y706248D01*
X2638924Y705397D01*
X2681284Y663037D01*
X2681358Y662984D01*
X2681427Y662924D01*
X2681458Y662912D01*
X2681484Y662893D01*
X2681571Y662866D01*
X2681656Y662832D01*
X2681696Y662828D01*
X2681719Y662821D01*
X2681751Y662822D01*
X2681822Y662814D01*
X2839339Y662814D01*
X2839359Y662817D01*
X2839378Y662815D01*
X2839480Y662837D01*
X2839582Y662853D01*
X2839599Y662863D01*
X2839619Y662867D01*
X2839708Y662920D01*
X2839799Y662969D01*
X2839813Y662983D01*
X2839830Y662993D01*
X2839897Y663072D01*
X2839969Y663147D01*
X2839977Y663165D01*
X2839990Y663180D01*
X2840029Y663276D01*
X2840072Y663370D01*
X2840074Y663390D01*
X2840082Y663408D01*
X2840100Y663575D01*
X2840100Y720000D01*
X2840086Y720090D01*
X2840078Y720181D01*
X2840066Y720211D01*
X2840061Y720242D01*
X2840018Y720323D01*
X2839982Y720407D01*
X2839956Y720439D01*
X2839945Y720460D01*
X2839922Y720482D01*
X2839877Y720538D01*
X2749003Y811412D01*
X2748152Y813466D01*
X2748152Y846285D01*
X2748138Y846375D01*
X2748130Y846466D01*
X2748118Y846496D01*
X2748113Y846528D01*
X2748070Y846609D01*
X2748034Y846692D01*
X2748008Y846725D01*
X2747997Y846745D01*
X2747974Y846767D01*
X2747929Y846823D01*
X2747280Y847472D01*
X2746120Y850273D01*
X2746120Y853305D01*
X2747280Y856106D01*
X2749424Y858250D01*
X2752225Y859410D01*
X2753691Y859410D01*
X2753761Y859421D01*
X2753833Y859423D01*
X2753882Y859441D01*
X2753933Y859449D01*
X2753997Y859483D01*
X2754064Y859508D01*
X2754105Y859540D01*
X2754151Y859565D01*
X2754200Y859616D01*
X2754256Y859661D01*
X2754284Y859705D01*
X2754320Y859743D01*
X2754350Y859808D01*
X2754389Y859868D01*
X2754402Y859919D01*
X2754424Y859966D01*
X2754432Y860037D01*
X2754449Y860107D01*
X2754445Y860159D01*
X2754451Y860210D01*
X2754436Y860281D01*
X2754430Y860352D01*
X2754410Y860400D01*
X2754399Y860451D01*
X2754362Y860512D01*
X2754334Y860578D01*
X2754289Y860634D01*
X2754272Y860662D01*
X2754255Y860677D01*
X2754229Y860709D01*
X2719939Y894999D01*
X2717037Y897901D01*
X2717037Y919368D01*
X2717023Y919458D01*
X2717015Y919549D01*
X2717003Y919578D01*
X2716998Y919610D01*
X2716955Y919691D01*
X2716919Y919775D01*
X2716893Y919807D01*
X2716882Y919828D01*
X2716859Y919850D01*
X2716814Y919906D01*
X2716250Y920470D01*
X2715287Y922794D01*
X2715287Y925310D01*
X2716250Y927634D01*
X2718028Y929412D01*
X2720352Y930375D01*
X2722868Y930375D01*
X2725192Y929412D01*
X2726970Y927634D01*
X2727933Y925310D01*
X2727933Y922794D01*
X2726970Y920470D01*
X2726406Y919906D01*
X2726353Y919832D01*
X2726293Y919763D01*
X2726281Y919732D01*
X2726262Y919706D01*
X2726235Y919619D01*
X2726201Y919534D01*
X2726197Y919493D01*
X2726190Y919471D01*
X2726191Y919439D01*
X2726183Y919368D01*
X2726183Y902004D01*
X2726197Y901914D01*
X2726205Y901823D01*
X2726217Y901794D01*
X2726222Y901762D01*
X2726265Y901681D01*
X2726301Y901597D01*
X2726327Y901565D01*
X2726338Y901544D01*
X2726361Y901522D01*
X2726406Y901466D01*
X2899504Y728368D01*
X2899583Y728311D01*
X2899658Y728249D01*
X2899683Y728239D01*
X2899704Y728224D01*
X2899797Y728196D01*
X2899888Y728161D01*
X2899914Y728160D01*
X2899939Y728152D01*
X2900036Y728154D01*
X2900133Y728150D01*
X2900159Y728158D01*
X2900185Y728158D01*
X2900276Y728192D01*
X2900370Y728219D01*
X2900391Y728234D01*
X2900416Y728243D01*
X2900492Y728304D01*
X2900572Y728359D01*
X2900587Y728380D01*
X2900608Y728396D01*
X2900661Y728479D01*
X2900719Y728556D01*
X2900727Y728581D01*
X2900741Y728603D01*
X2900765Y728698D01*
X2900795Y728790D01*
X2900794Y728817D01*
X2900801Y728842D01*
X2900793Y728939D01*
X2900792Y729036D01*
X2900783Y729068D01*
X2900782Y729087D01*
X2900769Y729117D01*
X2900746Y729197D01*
X2900199Y730516D01*
X2900199Y731315D01*
X2900185Y731405D01*
X2900177Y731496D01*
X2900165Y731525D01*
X2900160Y731557D01*
X2900117Y731638D01*
X2900081Y731722D01*
X2900055Y731754D01*
X2900044Y731775D01*
X2900021Y731797D01*
X2899976Y731853D01*
X2875406Y756423D01*
X2875406Y814909D01*
X2875392Y814999D01*
X2875384Y815090D01*
X2875372Y815119D01*
X2875367Y815151D01*
X2875324Y815232D01*
X2875288Y815316D01*
X2875262Y815348D01*
X2875251Y815369D01*
X2875228Y815391D01*
X2875183Y815447D01*
X2872085Y818545D01*
X2872011Y818598D01*
X2871941Y818658D01*
X2871911Y818670D01*
X2871885Y818689D01*
X2871798Y818716D01*
X2871713Y818750D01*
X2871672Y818754D01*
X2871650Y818761D01*
X2871618Y818760D01*
X2871547Y818768D01*
X2819665Y818768D01*
X2729610Y908823D01*
X2729610Y931814D01*
X2729596Y931904D01*
X2729588Y931995D01*
X2729576Y932024D01*
X2729571Y932056D01*
X2729528Y932137D01*
X2729492Y932221D01*
X2729466Y932253D01*
X2729455Y932274D01*
X2729432Y932296D01*
X2729387Y932352D01*
X2728823Y932916D01*
X2727860Y935240D01*
X2727860Y937756D01*
X2728823Y940080D01*
X2730601Y941858D01*
X2732925Y942821D01*
X2735441Y942821D01*
X2737765Y941858D01*
X2739543Y940080D01*
X2740506Y937756D01*
X2740506Y935240D01*
X2739543Y932916D01*
X2738979Y932352D01*
X2738926Y932278D01*
X2738866Y932209D01*
X2738854Y932178D01*
X2738835Y932152D01*
X2738808Y932065D01*
X2738774Y931980D01*
X2738770Y931939D01*
X2738763Y931917D01*
X2738764Y931885D01*
X2738756Y931814D01*
X2738756Y912926D01*
X2738770Y912836D01*
X2738778Y912745D01*
X2738790Y912716D01*
X2738795Y912684D01*
X2738838Y912603D01*
X2738874Y912519D01*
X2738900Y912487D01*
X2738911Y912466D01*
X2738934Y912444D01*
X2738979Y912388D01*
X2823230Y828137D01*
X2823304Y828084D01*
X2823374Y828024D01*
X2823404Y828012D01*
X2823430Y827993D01*
X2823517Y827966D01*
X2823602Y827932D01*
X2823643Y827928D01*
X2823665Y827921D01*
X2823697Y827922D01*
X2823768Y827914D01*
X2831161Y827914D01*
X2831231Y827925D01*
X2831303Y827927D01*
X2831352Y827945D01*
X2831403Y827953D01*
X2831467Y827987D01*
X2831534Y828012D01*
X2831575Y828044D01*
X2831621Y828069D01*
X2831670Y828121D01*
X2831726Y828165D01*
X2831754Y828209D01*
X2831790Y828247D01*
X2831820Y828312D01*
X2831859Y828372D01*
X2831872Y828423D01*
X2831894Y828470D01*
X2831902Y828541D01*
X2831919Y828611D01*
X2831915Y828663D01*
X2831921Y828714D01*
X2831906Y828785D01*
X2831900Y828856D01*
X2831880Y828904D01*
X2831869Y828955D01*
X2831832Y829016D01*
X2831804Y829082D01*
X2831759Y829138D01*
X2831742Y829166D01*
X2831725Y829181D01*
X2831699Y829213D01*
X2744723Y916189D01*
X2744723Y952388D01*
X2744709Y952478D01*
X2744701Y952569D01*
X2744689Y952598D01*
X2744684Y952630D01*
X2744641Y952711D01*
X2744605Y952795D01*
X2744579Y952827D01*
X2744568Y952848D01*
X2744545Y952870D01*
X2744500Y952926D01*
X2743936Y953490D01*
X2742973Y955814D01*
X2742973Y958330D01*
X2743936Y960654D01*
X2745714Y962432D01*
X2748038Y963395D01*
X2750554Y963395D01*
X2752878Y962432D01*
X2754656Y960654D01*
X2755619Y958330D01*
X2755619Y955814D01*
X2754656Y953490D01*
X2754092Y952926D01*
X2754039Y952852D01*
X2753979Y952783D01*
X2753967Y952752D01*
X2753948Y952726D01*
X2753921Y952639D01*
X2753887Y952554D01*
X2753883Y952513D01*
X2753876Y952491D01*
X2753877Y952459D01*
X2753869Y952388D01*
X2753869Y920292D01*
X2753883Y920202D01*
X2753891Y920111D01*
X2753903Y920082D01*
X2753908Y920050D01*
X2753951Y919969D01*
X2753987Y919885D01*
X2754013Y919853D01*
X2754024Y919832D01*
X2754047Y919810D01*
X2754092Y919754D01*
X2758918Y914928D01*
X2758976Y914886D01*
X2759028Y914837D01*
X2759075Y914815D01*
X2759117Y914785D01*
X2759186Y914763D01*
X2759251Y914733D01*
X2759303Y914728D01*
X2759353Y914712D01*
X2759424Y914714D01*
X2759495Y914706D01*
X2759546Y914717D01*
X2759598Y914719D01*
X2759666Y914743D01*
X2759736Y914758D01*
X2759781Y914785D01*
X2759829Y914803D01*
X2759885Y914848D01*
X2759947Y914885D01*
X2759981Y914924D01*
X2760021Y914957D01*
X2760060Y915017D01*
X2760107Y915071D01*
X2760126Y915120D01*
X2760154Y915164D01*
X2760172Y915233D01*
X2760199Y915300D01*
X2760207Y915371D01*
X2760215Y915402D01*
X2760213Y915425D01*
X2760217Y915466D01*
X2760217Y991312D01*
X2760203Y991402D01*
X2760195Y991493D01*
X2760183Y991522D01*
X2760178Y991554D01*
X2760135Y991635D01*
X2760099Y991719D01*
X2760073Y991751D01*
X2760062Y991772D01*
X2760039Y991794D01*
X2759994Y991850D01*
X2730168Y1021676D01*
X2730074Y1021744D01*
X2729979Y1021814D01*
X2729973Y1021816D01*
X2729968Y1021820D01*
X2729857Y1021854D01*
X2729746Y1021890D01*
X2729739Y1021890D01*
X2729733Y1021892D01*
X2729616Y1021889D01*
X2729500Y1021888D01*
X2729492Y1021886D01*
X2729487Y1021886D01*
X2729470Y1021879D01*
X2729338Y1021841D01*
X2727567Y1021107D01*
X2725051Y1021107D01*
X2722727Y1022070D01*
X2720949Y1023848D01*
X2719986Y1026172D01*
X2719986Y1028688D01*
X2720949Y1031012D01*
X2722727Y1032790D01*
X2725051Y1033753D01*
X2727567Y1033753D01*
X2729891Y1032790D01*
X2730455Y1032226D01*
X2730529Y1032173D01*
X2730598Y1032113D01*
X2730629Y1032101D01*
X2730655Y1032082D01*
X2730742Y1032055D01*
X2730827Y1032021D01*
X2730868Y1032017D01*
X2730890Y1032010D01*
X2730922Y1032011D01*
X2730993Y1032003D01*
X2732775Y1032003D01*
X2769363Y995415D01*
X2769363Y916228D01*
X2769377Y916138D01*
X2769385Y916047D01*
X2769397Y916018D01*
X2769402Y915986D01*
X2769445Y915905D01*
X2769481Y915821D01*
X2769507Y915789D01*
X2769518Y915768D01*
X2769541Y915746D01*
X2769586Y915690D01*
X2777841Y907435D01*
X2777899Y907393D01*
X2777951Y907344D01*
X2777998Y907322D01*
X2778040Y907292D01*
X2778109Y907270D01*
X2778174Y907240D01*
X2778226Y907235D01*
X2778276Y907219D01*
X2778347Y907221D01*
X2778418Y907213D01*
X2778469Y907224D01*
X2778521Y907226D01*
X2778589Y907250D01*
X2778659Y907265D01*
X2778704Y907292D01*
X2778752Y907310D01*
X2778808Y907355D01*
X2778870Y907392D01*
X2778904Y907431D01*
X2778944Y907464D01*
X2778983Y907524D01*
X2779030Y907578D01*
X2779049Y907627D01*
X2779077Y907671D01*
X2779095Y907740D01*
X2779122Y907807D01*
X2779130Y907878D01*
X2779138Y907909D01*
X2779136Y907932D01*
X2779140Y907973D01*
X2779140Y991312D01*
X2779126Y991402D01*
X2779118Y991493D01*
X2779106Y991522D01*
X2779101Y991554D01*
X2779058Y991635D01*
X2779022Y991719D01*
X2778996Y991751D01*
X2778985Y991772D01*
X2778962Y991794D01*
X2778917Y991850D01*
X2734925Y1035842D01*
X2734851Y1035895D01*
X2734781Y1035955D01*
X2734751Y1035967D01*
X2734725Y1035986D01*
X2734638Y1036013D01*
X2734553Y1036047D01*
X2734512Y1036051D01*
X2734490Y1036058D01*
X2734458Y1036057D01*
X2734387Y1036065D01*
X2687559Y1036065D01*
X2687469Y1036051D01*
X2687378Y1036043D01*
X2687349Y1036031D01*
X2687317Y1036026D01*
X2687236Y1035983D01*
X2687152Y1035947D01*
X2687120Y1035921D01*
X2687099Y1035910D01*
X2687089Y1035900D01*
X2687088Y1035899D01*
X2687075Y1035885D01*
X2687021Y1035842D01*
X2686457Y1035278D01*
X2684133Y1034315D01*
X2681617Y1034315D01*
X2679293Y1035278D01*
X2677515Y1037056D01*
X2676552Y1039380D01*
X2676552Y1041896D01*
X2677515Y1044220D01*
X2677967Y1044672D01*
X2678009Y1044730D01*
X2678058Y1044782D01*
X2678080Y1044829D01*
X2678111Y1044871D01*
X2678132Y1044940D01*
X2678162Y1045005D01*
X2678168Y1045057D01*
X2678183Y1045107D01*
X2678181Y1045178D01*
X2678189Y1045249D01*
X2678178Y1045300D01*
X2678177Y1045352D01*
X2678152Y1045420D01*
X2678137Y1045490D01*
X2678110Y1045535D01*
X2678092Y1045583D01*
X2678047Y1045639D01*
X2678011Y1045701D01*
X2677971Y1045735D01*
X2677938Y1045775D01*
X2677878Y1045814D01*
X2677824Y1045861D01*
X2677775Y1045880D01*
X2677732Y1045908D01*
X2677662Y1045926D01*
X2677595Y1045953D01*
X2677524Y1045961D01*
X2677493Y1045969D01*
X2677470Y1045967D01*
X2677429Y1045971D01*
X2658603Y1045971D01*
X2658513Y1045957D01*
X2658422Y1045949D01*
X2658393Y1045937D01*
X2658361Y1045932D01*
X2658280Y1045889D01*
X2658196Y1045853D01*
X2658164Y1045827D01*
X2658143Y1045816D01*
X2658124Y1045797D01*
X2658122Y1045795D01*
X2658117Y1045790D01*
X2658065Y1045748D01*
X2657501Y1045184D01*
X2655177Y1044221D01*
X2652661Y1044221D01*
X2650337Y1045184D01*
X2648559Y1046962D01*
X2647596Y1049286D01*
X2647596Y1051802D01*
X2648559Y1054126D01*
X2649519Y1055086D01*
X2649561Y1055144D01*
X2649610Y1055196D01*
X2649632Y1055243D01*
X2649663Y1055285D01*
X2649684Y1055354D01*
X2649714Y1055419D01*
X2649720Y1055471D01*
X2649735Y1055521D01*
X2649733Y1055592D01*
X2649741Y1055663D01*
X2649730Y1055714D01*
X2649729Y1055766D01*
X2649704Y1055834D01*
X2649689Y1055904D01*
X2649662Y1055949D01*
X2649644Y1055997D01*
X2649599Y1056053D01*
X2649563Y1056115D01*
X2649523Y1056149D01*
X2649490Y1056189D01*
X2649430Y1056228D01*
X2649376Y1056275D01*
X2649327Y1056294D01*
X2649284Y1056322D01*
X2649214Y1056340D01*
X2649147Y1056367D01*
X2649076Y1056375D01*
X2649045Y1056383D01*
X2649022Y1056381D01*
X2648981Y1056385D01*
X2622408Y1056385D01*
X2622318Y1056371D01*
X2622227Y1056363D01*
X2622198Y1056351D01*
X2622166Y1056346D01*
X2622085Y1056303D01*
X2622001Y1056267D01*
X2621969Y1056241D01*
X2621948Y1056230D01*
X2621926Y1056207D01*
X2621870Y1056162D01*
X2621306Y1055598D01*
X2618982Y1054635D01*
X2616466Y1054635D01*
X2614142Y1055598D01*
X2612364Y1057376D01*
X2611401Y1059700D01*
X2611401Y1062216D01*
X2612364Y1064540D01*
X2614142Y1066318D01*
X2614221Y1066351D01*
X2614304Y1066402D01*
X2614390Y1066448D01*
X2614408Y1066466D01*
X2614430Y1066480D01*
X2614492Y1066555D01*
X2614559Y1066626D01*
X2614570Y1066650D01*
X2614587Y1066670D01*
X2614622Y1066761D01*
X2614663Y1066849D01*
X2614666Y1066875D01*
X2614675Y1066899D01*
X2614679Y1066997D01*
X2614690Y1067093D01*
X2614684Y1067119D01*
X2614686Y1067145D01*
X2614658Y1067239D01*
X2614638Y1067334D01*
X2614624Y1067356D01*
X2614617Y1067381D01*
X2614561Y1067461D01*
X2614512Y1067545D01*
X2614492Y1067562D01*
X2614477Y1067583D01*
X2614399Y1067642D01*
X2614325Y1067705D01*
X2614300Y1067715D01*
X2614279Y1067730D01*
X2614187Y1067760D01*
X2614096Y1067797D01*
X2614064Y1067800D01*
X2614046Y1067806D01*
X2614012Y1067806D01*
X2613930Y1067815D01*
X2548185Y1067815D01*
X2548174Y1067819D01*
X2548089Y1067853D01*
X2548048Y1067857D01*
X2548026Y1067864D01*
X2547994Y1067863D01*
X2547923Y1067871D01*
X2547124Y1067871D01*
X2544800Y1068834D01*
X2543022Y1070612D01*
X2542059Y1072936D01*
X2542059Y1075452D01*
X2543054Y1077853D01*
X2543081Y1077891D01*
X2543103Y1077960D01*
X2543133Y1078025D01*
X2543139Y1078076D01*
X2543154Y1078126D01*
X2543152Y1078198D01*
X2543160Y1078269D01*
X2543149Y1078320D01*
X2543148Y1078372D01*
X2543123Y1078440D01*
X2543108Y1078510D01*
X2543081Y1078554D01*
X2543063Y1078603D01*
X2543018Y1078659D01*
X2542982Y1078721D01*
X2542942Y1078755D01*
X2542910Y1078795D01*
X2542849Y1078834D01*
X2542795Y1078881D01*
X2542746Y1078900D01*
X2542703Y1078928D01*
X2542633Y1078946D01*
X2542566Y1078973D01*
X2542496Y1078981D01*
X2542465Y1078989D01*
X2542441Y1078987D01*
X2542400Y1078991D01*
X2521088Y1078991D01*
X2497267Y1102812D01*
X2497267Y1108419D01*
X2497248Y1108533D01*
X2497231Y1108649D01*
X2497229Y1108655D01*
X2497228Y1108661D01*
X2497173Y1108764D01*
X2497120Y1108869D01*
X2497115Y1108873D01*
X2497112Y1108879D01*
X2497028Y1108959D01*
X2496944Y1109041D01*
X2496938Y1109045D01*
X2496934Y1109048D01*
X2496917Y1109056D01*
X2496797Y1109122D01*
X2496084Y1109417D01*
X2493226Y1112275D01*
X2491679Y1116010D01*
X2491679Y1135292D01*
X2493226Y1139027D01*
X2496084Y1141885D01*
X2499819Y1143432D01*
X2503861Y1143432D01*
X2507596Y1141885D01*
X2510454Y1139027D01*
X2512001Y1135292D01*
X2512001Y1116010D01*
X2510454Y1112275D01*
X2507596Y1109417D01*
X2506883Y1109122D01*
X2506783Y1109060D01*
X2506683Y1109000D01*
X2506679Y1108996D01*
X2506674Y1108992D01*
X2506599Y1108902D01*
X2506523Y1108813D01*
X2506521Y1108808D01*
X2506517Y1108803D01*
X2506475Y1108694D01*
X2506431Y1108585D01*
X2506430Y1108578D01*
X2506429Y1108573D01*
X2506428Y1108555D01*
X2506413Y1108419D01*
X2506413Y1106915D01*
X2506427Y1106825D01*
X2506435Y1106734D01*
X2506447Y1106705D01*
X2506452Y1106673D01*
X2506495Y1106592D01*
X2506531Y1106508D01*
X2506557Y1106476D01*
X2506568Y1106455D01*
X2506591Y1106433D01*
X2506636Y1106377D01*
X2524653Y1088360D01*
X2524727Y1088307D01*
X2524797Y1088247D01*
X2524827Y1088235D01*
X2524853Y1088216D01*
X2524940Y1088189D01*
X2525025Y1088155D01*
X2525066Y1088151D01*
X2525088Y1088144D01*
X2525120Y1088145D01*
X2525191Y1088137D01*
X2786115Y1088137D01*
X2789017Y1085235D01*
X2840325Y1033927D01*
X2840383Y1033885D01*
X2840435Y1033836D01*
X2840482Y1033814D01*
X2840524Y1033784D01*
X2840593Y1033762D01*
X2840658Y1033732D01*
X2840710Y1033726D01*
X2840760Y1033711D01*
X2840831Y1033713D01*
X2840902Y1033705D01*
X2840953Y1033716D01*
X2841005Y1033718D01*
X2841073Y1033742D01*
X2841143Y1033757D01*
X2841188Y1033784D01*
X2841236Y1033802D01*
X2841292Y1033847D01*
X2841354Y1033884D01*
X2841388Y1033923D01*
X2841428Y1033956D01*
X2841467Y1034016D01*
X2841514Y1034070D01*
X2841533Y1034119D01*
X2841561Y1034163D01*
X2841579Y1034232D01*
X2841606Y1034299D01*
X2841614Y1034370D01*
X2841622Y1034401D01*
X2841620Y1034424D01*
X2841624Y1034465D01*
X2841624Y1053796D01*
X2841610Y1053886D01*
X2841602Y1053977D01*
X2841590Y1054006D01*
X2841585Y1054038D01*
X2841542Y1054119D01*
X2841506Y1054203D01*
X2841480Y1054235D01*
X2841469Y1054256D01*
X2841446Y1054278D01*
X2841401Y1054334D01*
X2748514Y1147221D01*
X2748440Y1147274D01*
X2748370Y1147334D01*
X2748340Y1147346D01*
X2748314Y1147365D01*
X2748227Y1147392D01*
X2748142Y1147426D01*
X2748101Y1147430D01*
X2748079Y1147437D01*
X2748047Y1147436D01*
X2747976Y1147444D01*
X2487345Y1147444D01*
X2487255Y1147430D01*
X2487164Y1147422D01*
X2487135Y1147410D01*
X2487103Y1147405D01*
X2487022Y1147362D01*
X2486938Y1147326D01*
X2486906Y1147300D01*
X2486885Y1147289D01*
X2486863Y1147266D01*
X2486807Y1147221D01*
X2482371Y1142786D01*
X2482360Y1142769D01*
X2482344Y1142757D01*
X2482288Y1142670D01*
X2482228Y1142586D01*
X2482222Y1142567D01*
X2482211Y1142550D01*
X2482186Y1142450D01*
X2482156Y1142351D01*
X2482156Y1142331D01*
X2482151Y1142312D01*
X2482159Y1142209D01*
X2482162Y1142105D01*
X2482169Y1142086D01*
X2482170Y1142066D01*
X2482211Y1141971D01*
X2482246Y1141874D01*
X2482259Y1141858D01*
X2482267Y1141840D01*
X2482371Y1141709D01*
X2485054Y1139027D01*
X2486601Y1135292D01*
X2486601Y1116010D01*
X2485054Y1112275D01*
X2482196Y1109417D01*
X2478461Y1107870D01*
X2474419Y1107870D01*
X2470684Y1109417D01*
X2467826Y1112275D01*
X2466279Y1116010D01*
X2466279Y1135292D01*
X2467826Y1139027D01*
X2470684Y1141885D01*
X2471584Y1142258D01*
X2471684Y1142319D01*
X2471784Y1142379D01*
X2471788Y1142384D01*
X2471793Y1142387D01*
X2471868Y1142477D01*
X2471944Y1142566D01*
X2471946Y1142572D01*
X2471950Y1142577D01*
X2471992Y1142685D01*
X2472036Y1142794D01*
X2472037Y1142802D01*
X2472038Y1142806D01*
X2472039Y1142825D01*
X2472054Y1142961D01*
X2472054Y1145402D01*
X2483242Y1156590D01*
X2752079Y1156590D01*
X2850770Y1057899D01*
X2850770Y927404D01*
X2850784Y927314D01*
X2850792Y927223D01*
X2850804Y927194D01*
X2850809Y927162D01*
X2850852Y927081D01*
X2850888Y926997D01*
X2850914Y926965D01*
X2850925Y926944D01*
X2850948Y926922D01*
X2850993Y926866D01*
X2865394Y912465D01*
X2865468Y912412D01*
X2865538Y912352D01*
X2865568Y912340D01*
X2865594Y912321D01*
X2865681Y912294D01*
X2865766Y912260D01*
X2865807Y912256D01*
X2865829Y912249D01*
X2865861Y912250D01*
X2865932Y912242D01*
X2877708Y912242D01*
X2877798Y912256D01*
X2877889Y912264D01*
X2877918Y912276D01*
X2877950Y912281D01*
X2878031Y912324D01*
X2878115Y912360D01*
X2878147Y912386D01*
X2878168Y912397D01*
X2878190Y912420D01*
X2878246Y912465D01*
X2878810Y913029D01*
X2881134Y913992D01*
X2883650Y913992D01*
X2885974Y913029D01*
X2887752Y911251D01*
X2888715Y908927D01*
X2888715Y906411D01*
X2887720Y904010D01*
X2887693Y903972D01*
X2887671Y903903D01*
X2887641Y903838D01*
X2887635Y903787D01*
X2887620Y903737D01*
X2887622Y903665D01*
X2887614Y903594D01*
X2887625Y903543D01*
X2887626Y903491D01*
X2887651Y903423D01*
X2887666Y903353D01*
X2887693Y903309D01*
X2887711Y903260D01*
X2887756Y903204D01*
X2887792Y903142D01*
X2887832Y903108D01*
X2887864Y903068D01*
X2887925Y903029D01*
X2887979Y902982D01*
X2888028Y902963D01*
X2888071Y902935D01*
X2888141Y902917D01*
X2888208Y902890D01*
X2888278Y902882D01*
X2888309Y902874D01*
X2888333Y902876D01*
X2888374Y902872D01*
X2899428Y902872D01*
X2899493Y902882D01*
X2899558Y902883D01*
X2899638Y902906D01*
X2899671Y902911D01*
X2899688Y902921D01*
X2899719Y902930D01*
X2900057Y903070D01*
X2902573Y903070D01*
X2904897Y902107D01*
X2906675Y900329D01*
X2907638Y898005D01*
X2907638Y895489D01*
X2906675Y893165D01*
X2905969Y892459D01*
X2905927Y892401D01*
X2905878Y892349D01*
X2905856Y892302D01*
X2905825Y892260D01*
X2905804Y892191D01*
X2905774Y892126D01*
X2905768Y892074D01*
X2905753Y892024D01*
X2905755Y891953D01*
X2905747Y891882D01*
X2905758Y891831D01*
X2905759Y891779D01*
X2905784Y891711D01*
X2905799Y891641D01*
X2905826Y891596D01*
X2905844Y891548D01*
X2905889Y891492D01*
X2905925Y891430D01*
X2905965Y891396D01*
X2905998Y891356D01*
X2906058Y891317D01*
X2906112Y891270D01*
X2906161Y891251D01*
X2906204Y891223D01*
X2906274Y891205D01*
X2906341Y891178D01*
X2906412Y891170D01*
X2906443Y891162D01*
X2906466Y891164D01*
X2906507Y891160D01*
X2909331Y891160D01*
X2909421Y891174D01*
X2909512Y891182D01*
X2909541Y891194D01*
X2909573Y891199D01*
X2909654Y891242D01*
X2909738Y891278D01*
X2909770Y891304D01*
X2909791Y891315D01*
X2909813Y891338D01*
X2909869Y891383D01*
X2910433Y891947D01*
X2912757Y892910D01*
X2915273Y892910D01*
X2917597Y891947D01*
X2919375Y890169D01*
X2920338Y887845D01*
X2920338Y885339D01*
X2920349Y885269D01*
X2920351Y885197D01*
X2920369Y885148D01*
X2920377Y885097D01*
X2920411Y885033D01*
X2920436Y884966D01*
X2920468Y884925D01*
X2920493Y884879D01*
X2920545Y884830D01*
X2920589Y884774D01*
X2920633Y884746D01*
X2920671Y884710D01*
X2920736Y884680D01*
X2920796Y884641D01*
X2920847Y884628D01*
X2920894Y884606D01*
X2920965Y884598D01*
X2921035Y884581D01*
X2921087Y884585D01*
X2921138Y884579D01*
X2921209Y884594D01*
X2921280Y884600D01*
X2921328Y884620D01*
X2921379Y884631D01*
X2921440Y884668D01*
X2921506Y884696D01*
X2921562Y884741D01*
X2921590Y884758D01*
X2921605Y884775D01*
X2921637Y884801D01*
X2922836Y886000D01*
X2922889Y886074D01*
X2922949Y886144D01*
X2922961Y886174D01*
X2922980Y886200D01*
X2923007Y886287D01*
X2923041Y886372D01*
X2923045Y886413D01*
X2923052Y886435D01*
X2923051Y886467D01*
X2923059Y886538D01*
X2923059Y887337D01*
X2924022Y889661D01*
X2925800Y891439D01*
X2928124Y892402D01*
X2930640Y892402D01*
X2932964Y891439D01*
X2934742Y889661D01*
X2935705Y887337D01*
X2935705Y884821D01*
X2934742Y882497D01*
X2932964Y880719D01*
X2930640Y879756D01*
X2929841Y879756D01*
X2929751Y879742D01*
X2929660Y879734D01*
X2929631Y879722D01*
X2929599Y879717D01*
X2929518Y879674D01*
X2929434Y879638D01*
X2929402Y879612D01*
X2929381Y879601D01*
X2929359Y879578D01*
X2929303Y879533D01*
X2918449Y868679D01*
X2846843Y868679D01*
X2814827Y900695D01*
X2814827Y1004012D01*
X2814813Y1004102D01*
X2814805Y1004193D01*
X2814793Y1004222D01*
X2814788Y1004254D01*
X2814745Y1004335D01*
X2814709Y1004419D01*
X2814683Y1004451D01*
X2814672Y1004472D01*
X2814649Y1004494D01*
X2814604Y1004550D01*
X2762992Y1056162D01*
X2762918Y1056215D01*
X2762848Y1056275D01*
X2762818Y1056287D01*
X2762792Y1056306D01*
X2762705Y1056333D01*
X2762620Y1056367D01*
X2762579Y1056371D01*
X2762557Y1056378D01*
X2762525Y1056377D01*
X2762454Y1056385D01*
X2751505Y1056385D01*
X2751435Y1056374D01*
X2751363Y1056372D01*
X2751314Y1056354D01*
X2751263Y1056346D01*
X2751199Y1056312D01*
X2751132Y1056287D01*
X2751091Y1056255D01*
X2751045Y1056230D01*
X2750996Y1056178D01*
X2750940Y1056134D01*
X2750912Y1056090D01*
X2750876Y1056052D01*
X2750846Y1055987D01*
X2750807Y1055927D01*
X2750794Y1055876D01*
X2750772Y1055829D01*
X2750764Y1055758D01*
X2750747Y1055688D01*
X2750751Y1055636D01*
X2750745Y1055585D01*
X2750760Y1055514D01*
X2750766Y1055443D01*
X2750786Y1055395D01*
X2750797Y1055344D01*
X2750834Y1055283D01*
X2750862Y1055217D01*
X2750907Y1055161D01*
X2750924Y1055133D01*
X2750941Y1055118D01*
X2750967Y1055086D01*
X2809241Y996812D01*
X2809241Y903909D01*
X2809255Y903819D01*
X2809263Y903728D01*
X2809275Y903699D01*
X2809280Y903667D01*
X2809323Y903586D01*
X2809359Y903502D01*
X2809385Y903470D01*
X2809396Y903449D01*
X2809419Y903427D01*
X2809464Y903371D01*
X2846598Y866237D01*
X2846672Y866184D01*
X2846742Y866124D01*
X2846772Y866112D01*
X2846798Y866093D01*
X2846885Y866066D01*
X2846970Y866032D01*
X2847011Y866028D01*
X2847033Y866021D01*
X2847065Y866022D01*
X2847136Y866014D01*
X2920823Y866014D01*
X2920913Y866028D01*
X2921004Y866036D01*
X2921033Y866048D01*
X2921065Y866053D01*
X2921146Y866096D01*
X2921230Y866132D01*
X2921262Y866158D01*
X2921283Y866169D01*
X2921305Y866192D01*
X2921361Y866237D01*
X2938203Y883079D01*
X2938256Y883153D01*
X2938316Y883223D01*
X2938328Y883253D01*
X2938347Y883279D01*
X2938374Y883366D01*
X2938408Y883451D01*
X2938412Y883492D01*
X2938419Y883514D01*
X2938418Y883546D01*
X2938426Y883617D01*
X2938426Y884416D01*
X2939389Y886740D01*
X2941167Y888518D01*
X2943491Y889481D01*
X2946007Y889481D01*
X2948331Y888518D01*
X2950109Y886740D01*
X2951072Y884416D01*
X2951072Y881900D01*
X2950109Y879576D01*
X2948331Y877798D01*
X2946007Y876835D01*
X2945208Y876835D01*
X2945118Y876821D01*
X2945027Y876813D01*
X2944998Y876801D01*
X2944966Y876796D01*
X2944885Y876753D01*
X2944801Y876717D01*
X2944769Y876691D01*
X2944748Y876680D01*
X2944726Y876657D01*
X2944670Y876612D01*
X2927828Y859770D01*
X2924926Y856868D01*
X2843033Y856868D01*
X2840131Y859770D01*
X2802997Y896904D01*
X2800095Y899806D01*
X2800095Y992709D01*
X2800081Y992799D01*
X2800073Y992890D01*
X2800061Y992919D01*
X2800056Y992951D01*
X2800013Y993032D01*
X2799977Y993116D01*
X2799951Y993148D01*
X2799940Y993169D01*
X2799917Y993191D01*
X2799872Y993247D01*
X2747371Y1045748D01*
X2747297Y1045801D01*
X2747227Y1045861D01*
X2747197Y1045873D01*
X2747171Y1045892D01*
X2747084Y1045919D01*
X2746999Y1045953D01*
X2746958Y1045957D01*
X2746936Y1045964D01*
X2746904Y1045963D01*
X2746833Y1045971D01*
X2739567Y1045971D01*
X2739497Y1045960D01*
X2739425Y1045958D01*
X2739376Y1045940D01*
X2739325Y1045932D01*
X2739261Y1045898D01*
X2739194Y1045873D01*
X2739153Y1045841D01*
X2739107Y1045816D01*
X2739058Y1045764D01*
X2739002Y1045720D01*
X2738974Y1045676D01*
X2738938Y1045638D01*
X2738908Y1045573D01*
X2738869Y1045513D01*
X2738856Y1045462D01*
X2738834Y1045415D01*
X2738826Y1045344D01*
X2738809Y1045274D01*
X2738813Y1045222D01*
X2738807Y1045171D01*
X2738822Y1045100D01*
X2738828Y1045029D01*
X2738848Y1044981D01*
X2738859Y1044930D01*
X2738896Y1044869D01*
X2738924Y1044803D01*
X2738969Y1044747D01*
X2738986Y1044719D01*
X2739003Y1044704D01*
X2739007Y1044698D01*
X2739011Y1044694D01*
X2739029Y1044672D01*
X2741392Y1042309D01*
X2788286Y995415D01*
X2788286Y907719D01*
X2788300Y907629D01*
X2788308Y907538D01*
X2788320Y907509D01*
X2788325Y907477D01*
X2788368Y907396D01*
X2788404Y907312D01*
X2788430Y907280D01*
X2788441Y907259D01*
X2788464Y907237D01*
X2788509Y907181D01*
X2842534Y853156D01*
X2842608Y853103D01*
X2842678Y853043D01*
X2842708Y853031D01*
X2842734Y853012D01*
X2842821Y852985D01*
X2842906Y852951D01*
X2842947Y852947D01*
X2842969Y852940D01*
X2843001Y852941D01*
X2843072Y852933D01*
X2889493Y852933D01*
X2908047Y834379D01*
X2908047Y803325D01*
X2908061Y803235D01*
X2908069Y803144D01*
X2908081Y803115D01*
X2908086Y803083D01*
X2908129Y803002D01*
X2908165Y802918D01*
X2908191Y802886D01*
X2908202Y802865D01*
X2908225Y802843D01*
X2908270Y802787D01*
X2908983Y802074D01*
X2909057Y802021D01*
X2909127Y801961D01*
X2909157Y801949D01*
X2909183Y801930D01*
X2909270Y801903D01*
X2909355Y801869D01*
X2909396Y801865D01*
X2909418Y801858D01*
X2909450Y801859D01*
X2909521Y801851D01*
X2910320Y801851D01*
X2912644Y800888D01*
X2914422Y799110D01*
X2915385Y796786D01*
X2915385Y794270D01*
X2914422Y791946D01*
X2912644Y790168D01*
X2911417Y789660D01*
X2911357Y789622D01*
X2911291Y789593D01*
X2911253Y789558D01*
X2911208Y789530D01*
X2911163Y789475D01*
X2911110Y789427D01*
X2911085Y789381D01*
X2911052Y789341D01*
X2911026Y789274D01*
X2910991Y789211D01*
X2910982Y789160D01*
X2910963Y789111D01*
X2910960Y789040D01*
X2910948Y788969D01*
X2910955Y788918D01*
X2910953Y788866D01*
X2910973Y788797D01*
X2910983Y788726D01*
X2911007Y788679D01*
X2911022Y788629D01*
X2911062Y788570D01*
X2911095Y788506D01*
X2911132Y788470D01*
X2911162Y788427D01*
X2911219Y788384D01*
X2911271Y788334D01*
X2911333Y788300D01*
X2911359Y788280D01*
X2911381Y788273D01*
X2911417Y788253D01*
X2911882Y788061D01*
X2913660Y786283D01*
X2914623Y783959D01*
X2914623Y781443D01*
X2913660Y779119D01*
X2911882Y777341D01*
X2909558Y776378D01*
X2907042Y776378D01*
X2904718Y777341D01*
X2902940Y779119D01*
X2901977Y781443D01*
X2901977Y782242D01*
X2901963Y782332D01*
X2901955Y782423D01*
X2901943Y782452D01*
X2901938Y782484D01*
X2901895Y782565D01*
X2901859Y782649D01*
X2901833Y782681D01*
X2901822Y782702D01*
X2901799Y782724D01*
X2901754Y782780D01*
X2895199Y789335D01*
X2893725Y790809D01*
X2893667Y790851D01*
X2893615Y790900D01*
X2893568Y790922D01*
X2893526Y790952D01*
X2893457Y790974D01*
X2893392Y791004D01*
X2893340Y791009D01*
X2893290Y791025D01*
X2893219Y791023D01*
X2893148Y791031D01*
X2893097Y791020D01*
X2893045Y791018D01*
X2892977Y790994D01*
X2892907Y790979D01*
X2892862Y790952D01*
X2892814Y790934D01*
X2892758Y790889D01*
X2892696Y790852D01*
X2892662Y790813D01*
X2892622Y790780D01*
X2892583Y790720D01*
X2892536Y790666D01*
X2892517Y790617D01*
X2892489Y790573D01*
X2892471Y790504D01*
X2892444Y790437D01*
X2892436Y790366D01*
X2892428Y790335D01*
X2892430Y790312D01*
X2892426Y790271D01*
X2892426Y771702D01*
X2892440Y771612D01*
X2892448Y771521D01*
X2892460Y771492D01*
X2892465Y771460D01*
X2892508Y771379D01*
X2892544Y771295D01*
X2892570Y771263D01*
X2892581Y771242D01*
X2892604Y771220D01*
X2892649Y771164D01*
X2910126Y753687D01*
X2910200Y753634D01*
X2910270Y753574D01*
X2910300Y753562D01*
X2910326Y753543D01*
X2910413Y753516D01*
X2910498Y753482D01*
X2910539Y753478D01*
X2910561Y753471D01*
X2910593Y753472D01*
X2910664Y753464D01*
X2911463Y753464D01*
X2913787Y752501D01*
X2915565Y750723D01*
X2916528Y748399D01*
X2916528Y745883D01*
X2915565Y743559D01*
X2913787Y741781D01*
X2911463Y740818D01*
X2908947Y740818D01*
X2906623Y741781D01*
X2904845Y743559D01*
X2903882Y745883D01*
X2903882Y746682D01*
X2903868Y746772D01*
X2903860Y746863D01*
X2903848Y746892D01*
X2903843Y746924D01*
X2903800Y747005D01*
X2903764Y747089D01*
X2903738Y747121D01*
X2903727Y747142D01*
X2903704Y747164D01*
X2903659Y747220D01*
X2886182Y764697D01*
X2885851Y765028D01*
X2885793Y765070D01*
X2885741Y765119D01*
X2885694Y765141D01*
X2885652Y765171D01*
X2885583Y765193D01*
X2885518Y765223D01*
X2885466Y765228D01*
X2885416Y765244D01*
X2885345Y765242D01*
X2885274Y765250D01*
X2885223Y765239D01*
X2885171Y765237D01*
X2885103Y765213D01*
X2885033Y765198D01*
X2884988Y765171D01*
X2884940Y765153D01*
X2884884Y765108D01*
X2884822Y765071D01*
X2884788Y765032D01*
X2884748Y764999D01*
X2884709Y764939D01*
X2884662Y764885D01*
X2884643Y764836D01*
X2884615Y764792D01*
X2884597Y764723D01*
X2884570Y764656D01*
X2884562Y764585D01*
X2884554Y764554D01*
X2884556Y764531D01*
X2884552Y764490D01*
X2884552Y760526D01*
X2884566Y760436D01*
X2884574Y760345D01*
X2884586Y760316D01*
X2884591Y760284D01*
X2884634Y760203D01*
X2884670Y760119D01*
X2884696Y760087D01*
X2884707Y760066D01*
X2884730Y760044D01*
X2884775Y759988D01*
X2906443Y738320D01*
X2906517Y738267D01*
X2906587Y738207D01*
X2906617Y738195D01*
X2906643Y738176D01*
X2906730Y738149D01*
X2906815Y738115D01*
X2906856Y738111D01*
X2906878Y738104D01*
X2906910Y738105D01*
X2906981Y738097D01*
X2907780Y738097D01*
X2910104Y737134D01*
X2911882Y735356D01*
X2912845Y733032D01*
X2912845Y730516D01*
X2911882Y728192D01*
X2910104Y726414D01*
X2907780Y725451D01*
X2905264Y725451D01*
X2903945Y725998D01*
X2903850Y726020D01*
X2903758Y726048D01*
X2903731Y726048D01*
X2903706Y726054D01*
X2903609Y726045D01*
X2903512Y726042D01*
X2903487Y726033D01*
X2903461Y726031D01*
X2903372Y725991D01*
X2903281Y725958D01*
X2903260Y725941D01*
X2903236Y725931D01*
X2903165Y725865D01*
X2903089Y725804D01*
X2903074Y725782D01*
X2903055Y725764D01*
X2903008Y725679D01*
X2902956Y725597D01*
X2902949Y725572D01*
X2902937Y725549D01*
X2902919Y725453D01*
X2902896Y725359D01*
X2902898Y725332D01*
X2902893Y725307D01*
X2902907Y725210D01*
X2902915Y725113D01*
X2902925Y725089D01*
X2902929Y725063D01*
X2902973Y724976D01*
X2903011Y724887D01*
X2903031Y724862D01*
X2903040Y724844D01*
X2903064Y724821D01*
X2903116Y724756D01*
X2909717Y718155D01*
X2912619Y715253D01*
X2912619Y713344D01*
X2912633Y713254D01*
X2912641Y713163D01*
X2912653Y713133D01*
X2912658Y713102D01*
X2912701Y713021D01*
X2912737Y712937D01*
X2912763Y712905D01*
X2912774Y712884D01*
X2912797Y712862D01*
X2912842Y712806D01*
X2913406Y712242D01*
X2914369Y709918D01*
X2914369Y707402D01*
X2913406Y705078D01*
X2911628Y703300D01*
X2909304Y702337D01*
X2906788Y702337D01*
X2904464Y703300D01*
X2902686Y705078D01*
X2901891Y706997D01*
X2901840Y707080D01*
X2901794Y707166D01*
X2901776Y707183D01*
X2901762Y707206D01*
X2901686Y707268D01*
X2901616Y707335D01*
X2901592Y707346D01*
X2901572Y707363D01*
X2901481Y707398D01*
X2901393Y707439D01*
X2901367Y707441D01*
X2901343Y707451D01*
X2901245Y707455D01*
X2901149Y707466D01*
X2901123Y707460D01*
X2901097Y707461D01*
X2901003Y707434D01*
X2900908Y707413D01*
X2900886Y707400D01*
X2900861Y707393D01*
X2900781Y707337D01*
X2900697Y707287D01*
X2900680Y707267D01*
X2900659Y707252D01*
X2900600Y707174D01*
X2900537Y707100D01*
X2900527Y707076D01*
X2900512Y707055D01*
X2900482Y706963D01*
X2900445Y706872D01*
X2900442Y706840D01*
X2900436Y706821D01*
X2900436Y706788D01*
X2900427Y706705D01*
X2900427Y659765D01*
X2900430Y659745D01*
X2900428Y659726D01*
X2900450Y659624D01*
X2900466Y659522D01*
X2900476Y659505D01*
X2900480Y659485D01*
X2900533Y659396D01*
X2900582Y659305D01*
X2900596Y659291D01*
X2900606Y659274D01*
X2900685Y659207D01*
X2900760Y659135D01*
X2900778Y659127D01*
X2900793Y659114D01*
X2900889Y659075D01*
X2900983Y659032D01*
X2901003Y659030D01*
X2901021Y659022D01*
X2901188Y659004D01*
X2947707Y659004D01*
X2947797Y659018D01*
X2947888Y659026D01*
X2947918Y659038D01*
X2947949Y659043D01*
X2948030Y659086D01*
X2948114Y659122D01*
X2948146Y659148D01*
X2948167Y659159D01*
X2948189Y659182D01*
X2948245Y659227D01*
X2969671Y680653D01*
X2969724Y680727D01*
X2969784Y680796D01*
X2969796Y680827D01*
X2969815Y680853D01*
X2969842Y680940D01*
X2969876Y681025D01*
X2969880Y681065D01*
X2969887Y681088D01*
X2969886Y681120D01*
X2969894Y681191D01*
X2969894Y717253D01*
X2969880Y717343D01*
X2969872Y717434D01*
X2969860Y717464D01*
X2969855Y717496D01*
X2969812Y717577D01*
X2969776Y717660D01*
X2969750Y717693D01*
X2969739Y717713D01*
X2969716Y717735D01*
X2969671Y717791D01*
X2969022Y718440D01*
X2967862Y721241D01*
X2967862Y724273D01*
X2969022Y727074D01*
X2971166Y729218D01*
X2973967Y730378D01*
X2976999Y730378D01*
X2979800Y729218D01*
X2981944Y727074D01*
X2983104Y724273D01*
X2983104Y721241D01*
X2981944Y718440D01*
X2981295Y717791D01*
X2981242Y717717D01*
X2981182Y717648D01*
X2981170Y717618D01*
X2981151Y717592D01*
X2981124Y717505D01*
X2981090Y717420D01*
X2981086Y717379D01*
X2981079Y717357D01*
X2981080Y717324D01*
X2981072Y717253D01*
X2981072Y677449D01*
X2980221Y675395D01*
X2953503Y648677D01*
X2951449Y647826D01*
X2900342Y647826D01*
X2900252Y647812D01*
X2900161Y647804D01*
X2900131Y647792D01*
X2900099Y647787D01*
X2900018Y647744D01*
X2899935Y647708D01*
X2899902Y647682D01*
X2899882Y647671D01*
X2899873Y647662D01*
X2899872Y647662D01*
X2899858Y647646D01*
X2899804Y647603D01*
X2899155Y646954D01*
X2896354Y645794D01*
X2893322Y645794D01*
G37*
%LPD*%
%LPC*%
G36*
X2679835Y914907D02*
X2679835Y914907D01*
X2677034Y916067D01*
X2674890Y918211D01*
X2673730Y921012D01*
X2673730Y922648D01*
X2673728Y922660D01*
X2673729Y922667D01*
X2673721Y922706D01*
X2673716Y922738D01*
X2673708Y922829D01*
X2673696Y922859D01*
X2673691Y922891D01*
X2673648Y922972D01*
X2673612Y923055D01*
X2673586Y923088D01*
X2673575Y923108D01*
X2673552Y923130D01*
X2673507Y923186D01*
X2551072Y1045621D01*
X2550999Y1045674D01*
X2550929Y1045734D01*
X2550899Y1045746D01*
X2550873Y1045765D01*
X2550786Y1045792D01*
X2550701Y1045826D01*
X2550660Y1045830D01*
X2550638Y1045837D01*
X2550605Y1045836D01*
X2550534Y1045844D01*
X2479221Y1045844D01*
X2456584Y1068481D01*
X2456511Y1068534D01*
X2456441Y1068594D01*
X2456411Y1068606D01*
X2456385Y1068625D01*
X2456298Y1068652D01*
X2456213Y1068686D01*
X2456172Y1068690D01*
X2456150Y1068697D01*
X2456117Y1068696D01*
X2456046Y1068704D01*
X2349427Y1068704D01*
X2318959Y1099172D01*
X2318959Y1108629D01*
X2318940Y1108744D01*
X2318923Y1108860D01*
X2318921Y1108866D01*
X2318920Y1108872D01*
X2318865Y1108974D01*
X2318812Y1109079D01*
X2318807Y1109084D01*
X2318804Y1109089D01*
X2318720Y1109169D01*
X2318636Y1109251D01*
X2318630Y1109255D01*
X2318626Y1109258D01*
X2318609Y1109266D01*
X2318489Y1109332D01*
X2318284Y1109417D01*
X2315426Y1112275D01*
X2313879Y1116010D01*
X2313879Y1135292D01*
X2315426Y1139027D01*
X2318284Y1141885D01*
X2322019Y1143432D01*
X2326061Y1143432D01*
X2329796Y1141885D01*
X2332654Y1139027D01*
X2334201Y1135292D01*
X2334201Y1116010D01*
X2332654Y1112275D01*
X2329796Y1109417D01*
X2329591Y1109332D01*
X2329491Y1109271D01*
X2329391Y1109211D01*
X2329387Y1109206D01*
X2329382Y1109203D01*
X2329307Y1109113D01*
X2329231Y1109024D01*
X2329229Y1109018D01*
X2329225Y1109013D01*
X2329183Y1108905D01*
X2329139Y1108796D01*
X2329138Y1108788D01*
X2329137Y1108784D01*
X2329136Y1108765D01*
X2329121Y1108629D01*
X2329121Y1103697D01*
X2329135Y1103607D01*
X2329143Y1103516D01*
X2329155Y1103486D01*
X2329160Y1103454D01*
X2329203Y1103373D01*
X2329239Y1103290D01*
X2329265Y1103257D01*
X2329276Y1103237D01*
X2329299Y1103215D01*
X2329344Y1103159D01*
X2353414Y1079089D01*
X2353487Y1079036D01*
X2353557Y1078976D01*
X2353587Y1078964D01*
X2353613Y1078945D01*
X2353700Y1078918D01*
X2353785Y1078884D01*
X2353826Y1078880D01*
X2353848Y1078873D01*
X2353881Y1078874D01*
X2353952Y1078866D01*
X2460571Y1078866D01*
X2483208Y1056229D01*
X2483281Y1056176D01*
X2483351Y1056116D01*
X2483381Y1056104D01*
X2483407Y1056085D01*
X2483494Y1056058D01*
X2483579Y1056024D01*
X2483620Y1056020D01*
X2483642Y1056013D01*
X2483675Y1056014D01*
X2483746Y1056006D01*
X2487669Y1056006D01*
X2487740Y1056017D01*
X2487812Y1056019D01*
X2487861Y1056037D01*
X2487912Y1056045D01*
X2487975Y1056079D01*
X2488043Y1056104D01*
X2488083Y1056136D01*
X2488129Y1056161D01*
X2488179Y1056213D01*
X2488235Y1056257D01*
X2488263Y1056301D01*
X2488299Y1056339D01*
X2488329Y1056404D01*
X2488368Y1056464D01*
X2488380Y1056515D01*
X2488402Y1056562D01*
X2488410Y1056633D01*
X2488428Y1056703D01*
X2488424Y1056755D01*
X2488429Y1056806D01*
X2488414Y1056877D01*
X2488409Y1056948D01*
X2488388Y1056996D01*
X2488377Y1057047D01*
X2488340Y1057108D01*
X2488312Y1057174D01*
X2488268Y1057230D01*
X2488251Y1057258D01*
X2488233Y1057273D01*
X2488208Y1057305D01*
X2457473Y1088039D01*
X2457400Y1088092D01*
X2457330Y1088152D01*
X2457300Y1088164D01*
X2457274Y1088183D01*
X2457187Y1088210D01*
X2457102Y1088244D01*
X2457061Y1088248D01*
X2457039Y1088255D01*
X2457006Y1088254D01*
X2456935Y1088262D01*
X2397179Y1088262D01*
X2377723Y1107719D01*
X2377629Y1107786D01*
X2377534Y1107857D01*
X2377528Y1107859D01*
X2377523Y1107862D01*
X2377413Y1107896D01*
X2377301Y1107933D01*
X2377294Y1107933D01*
X2377288Y1107935D01*
X2377172Y1107932D01*
X2377055Y1107930D01*
X2377047Y1107928D01*
X2377042Y1107928D01*
X2377025Y1107922D01*
X2376894Y1107884D01*
X2376861Y1107870D01*
X2372819Y1107870D01*
X2369084Y1109417D01*
X2366226Y1112275D01*
X2364679Y1116010D01*
X2364679Y1135292D01*
X2366226Y1139027D01*
X2369028Y1141829D01*
X2369081Y1141903D01*
X2369141Y1141972D01*
X2369153Y1142002D01*
X2369172Y1142029D01*
X2369199Y1142115D01*
X2369233Y1142200D01*
X2369237Y1142241D01*
X2369244Y1142264D01*
X2369243Y1142296D01*
X2369251Y1142367D01*
X2369251Y1153033D01*
X2369248Y1153053D01*
X2369250Y1153072D01*
X2369228Y1153174D01*
X2369212Y1153276D01*
X2369202Y1153293D01*
X2369198Y1153313D01*
X2369145Y1153402D01*
X2369096Y1153493D01*
X2369082Y1153507D01*
X2369072Y1153524D01*
X2368993Y1153591D01*
X2368918Y1153663D01*
X2368900Y1153671D01*
X2368885Y1153684D01*
X2368789Y1153723D01*
X2368695Y1153766D01*
X2368675Y1153768D01*
X2368657Y1153776D01*
X2368490Y1153794D01*
X2264736Y1153794D01*
X2264646Y1153780D01*
X2264555Y1153772D01*
X2264525Y1153760D01*
X2264493Y1153755D01*
X2264413Y1153712D01*
X2264329Y1153676D01*
X2264297Y1153650D01*
X2264276Y1153639D01*
X2264254Y1153616D01*
X2264198Y1153571D01*
X2218447Y1107820D01*
X2196635Y1107820D01*
X2196545Y1107806D01*
X2196454Y1107798D01*
X2196424Y1107786D01*
X2196392Y1107781D01*
X2196311Y1107738D01*
X2196228Y1107702D01*
X2196195Y1107676D01*
X2196175Y1107665D01*
X2196153Y1107642D01*
X2196097Y1107597D01*
X2194178Y1105678D01*
X2191377Y1104518D01*
X2188345Y1104518D01*
X2185544Y1105678D01*
X2183400Y1107822D01*
X2182240Y1110623D01*
X2182240Y1113655D01*
X2183400Y1116456D01*
X2185544Y1118600D01*
X2188345Y1119760D01*
X2191377Y1119760D01*
X2194178Y1118600D01*
X2196097Y1116681D01*
X2196171Y1116628D01*
X2196240Y1116568D01*
X2196270Y1116556D01*
X2196296Y1116537D01*
X2196383Y1116510D01*
X2196468Y1116476D01*
X2196509Y1116472D01*
X2196531Y1116465D01*
X2196564Y1116466D01*
X2196635Y1116458D01*
X2214554Y1116458D01*
X2214644Y1116472D01*
X2214735Y1116480D01*
X2214765Y1116492D01*
X2214797Y1116497D01*
X2214877Y1116540D01*
X2214961Y1116576D01*
X2214993Y1116602D01*
X2215014Y1116613D01*
X2215036Y1116636D01*
X2215092Y1116681D01*
X2260843Y1162432D01*
X2368490Y1162432D01*
X2368510Y1162435D01*
X2368529Y1162433D01*
X2368631Y1162455D01*
X2368733Y1162471D01*
X2368750Y1162481D01*
X2368770Y1162485D01*
X2368859Y1162538D01*
X2368950Y1162587D01*
X2368964Y1162601D01*
X2368981Y1162611D01*
X2369048Y1162690D01*
X2369120Y1162765D01*
X2369128Y1162783D01*
X2369141Y1162798D01*
X2369180Y1162894D01*
X2369223Y1162988D01*
X2369225Y1163008D01*
X2369233Y1163026D01*
X2369251Y1163193D01*
X2369251Y1176564D01*
X2370102Y1178618D01*
X2377634Y1186150D01*
X2377676Y1186208D01*
X2377725Y1186260D01*
X2377747Y1186307D01*
X2377778Y1186349D01*
X2377799Y1186418D01*
X2377829Y1186483D01*
X2377835Y1186535D01*
X2377850Y1186585D01*
X2377848Y1186656D01*
X2377856Y1186727D01*
X2377845Y1186778D01*
X2377844Y1186830D01*
X2377819Y1186898D01*
X2377804Y1186968D01*
X2377777Y1187013D01*
X2377759Y1187061D01*
X2377714Y1187117D01*
X2377678Y1187179D01*
X2377638Y1187213D01*
X2377605Y1187253D01*
X2377545Y1187292D01*
X2377491Y1187339D01*
X2377442Y1187358D01*
X2377399Y1187386D01*
X2377329Y1187404D01*
X2377263Y1187431D01*
X2377191Y1187439D01*
X2377160Y1187447D01*
X2377137Y1187445D01*
X2377096Y1187449D01*
X2353607Y1187449D01*
X2353517Y1187435D01*
X2353426Y1187427D01*
X2353396Y1187415D01*
X2353364Y1187410D01*
X2353283Y1187367D01*
X2353200Y1187331D01*
X2353167Y1187305D01*
X2353147Y1187294D01*
X2353125Y1187271D01*
X2353069Y1187226D01*
X2351912Y1186069D01*
X2349111Y1184909D01*
X2346079Y1184909D01*
X2343278Y1186069D01*
X2341134Y1188213D01*
X2339974Y1191014D01*
X2339974Y1191823D01*
X2339963Y1191894D01*
X2339961Y1191965D01*
X2339943Y1192014D01*
X2339935Y1192066D01*
X2339901Y1192129D01*
X2339876Y1192196D01*
X2339844Y1192237D01*
X2339819Y1192283D01*
X2339767Y1192332D01*
X2339723Y1192388D01*
X2339679Y1192417D01*
X2339641Y1192452D01*
X2339576Y1192483D01*
X2339516Y1192521D01*
X2339465Y1192534D01*
X2339418Y1192556D01*
X2339347Y1192564D01*
X2339277Y1192581D01*
X2339225Y1192577D01*
X2339174Y1192583D01*
X2339103Y1192568D01*
X2339032Y1192562D01*
X2338984Y1192542D01*
X2338933Y1192531D01*
X2338872Y1192494D01*
X2338806Y1192466D01*
X2338750Y1192421D01*
X2338722Y1192405D01*
X2338707Y1192387D01*
X2338675Y1192361D01*
X2331858Y1185544D01*
X2312913Y1185544D01*
X2312374Y1186083D01*
X2312300Y1186136D01*
X2312231Y1186196D01*
X2312201Y1186208D01*
X2312174Y1186227D01*
X2312087Y1186254D01*
X2312003Y1186288D01*
X2311962Y1186292D01*
X2311939Y1186299D01*
X2311907Y1186298D01*
X2311836Y1186306D01*
X2309122Y1186306D01*
X2306321Y1187466D01*
X2304177Y1189610D01*
X2303017Y1192411D01*
X2303017Y1194011D01*
X2303006Y1194082D01*
X2303004Y1194154D01*
X2302986Y1194203D01*
X2302978Y1194254D01*
X2302944Y1194317D01*
X2302919Y1194385D01*
X2302887Y1194425D01*
X2302862Y1194471D01*
X2302810Y1194521D01*
X2302766Y1194577D01*
X2302722Y1194605D01*
X2302684Y1194641D01*
X2302619Y1194671D01*
X2302559Y1194710D01*
X2302508Y1194722D01*
X2302461Y1194744D01*
X2302390Y1194752D01*
X2302320Y1194770D01*
X2302268Y1194766D01*
X2302217Y1194771D01*
X2302146Y1194756D01*
X2302075Y1194751D01*
X2302027Y1194730D01*
X2301976Y1194719D01*
X2301915Y1194682D01*
X2301849Y1194654D01*
X2301793Y1194609D01*
X2301765Y1194593D01*
X2301750Y1194575D01*
X2301718Y1194549D01*
X2300223Y1193054D01*
X2297422Y1191894D01*
X2294390Y1191894D01*
X2291589Y1193054D01*
X2289445Y1195198D01*
X2288285Y1197999D01*
X2288285Y1201031D01*
X2289445Y1203832D01*
X2290602Y1204989D01*
X2290655Y1205063D01*
X2290715Y1205132D01*
X2290727Y1205162D01*
X2290746Y1205188D01*
X2290773Y1205275D01*
X2290807Y1205360D01*
X2290811Y1205401D01*
X2290818Y1205423D01*
X2290817Y1205456D01*
X2290825Y1205527D01*
X2290825Y1209764D01*
X2290822Y1209784D01*
X2290824Y1209803D01*
X2290802Y1209905D01*
X2290786Y1210007D01*
X2290776Y1210024D01*
X2290772Y1210044D01*
X2290719Y1210133D01*
X2290670Y1210224D01*
X2290656Y1210238D01*
X2290646Y1210255D01*
X2290567Y1210322D01*
X2290492Y1210394D01*
X2290474Y1210402D01*
X2290459Y1210415D01*
X2290363Y1210454D01*
X2290269Y1210497D01*
X2290249Y1210499D01*
X2290231Y1210507D01*
X2290064Y1210525D01*
X2289354Y1210525D01*
X2287865Y1212014D01*
X2287865Y1224118D01*
X2289354Y1225607D01*
X2302458Y1225607D01*
X2303947Y1224118D01*
X2303947Y1212014D01*
X2302458Y1210525D01*
X2301748Y1210525D01*
X2301728Y1210522D01*
X2301709Y1210524D01*
X2301607Y1210502D01*
X2301505Y1210486D01*
X2301488Y1210476D01*
X2301468Y1210472D01*
X2301379Y1210419D01*
X2301288Y1210370D01*
X2301274Y1210356D01*
X2301257Y1210346D01*
X2301190Y1210267D01*
X2301118Y1210192D01*
X2301110Y1210174D01*
X2301097Y1210159D01*
X2301058Y1210063D01*
X2301015Y1209969D01*
X2301013Y1209949D01*
X2301005Y1209931D01*
X2300987Y1209764D01*
X2300987Y1205527D01*
X2301001Y1205437D01*
X2301009Y1205346D01*
X2301021Y1205316D01*
X2301026Y1205284D01*
X2301069Y1205203D01*
X2301105Y1205120D01*
X2301131Y1205087D01*
X2301142Y1205067D01*
X2301165Y1205045D01*
X2301210Y1204989D01*
X2302367Y1203832D01*
X2303527Y1201031D01*
X2303527Y1199431D01*
X2303538Y1199360D01*
X2303540Y1199288D01*
X2303558Y1199239D01*
X2303566Y1199188D01*
X2303600Y1199125D01*
X2303625Y1199057D01*
X2303657Y1199017D01*
X2303682Y1198971D01*
X2303734Y1198921D01*
X2303778Y1198865D01*
X2303822Y1198837D01*
X2303860Y1198801D01*
X2303925Y1198771D01*
X2303985Y1198732D01*
X2304036Y1198720D01*
X2304083Y1198698D01*
X2304154Y1198690D01*
X2304224Y1198672D01*
X2304276Y1198676D01*
X2304327Y1198671D01*
X2304398Y1198686D01*
X2304469Y1198691D01*
X2304517Y1198712D01*
X2304568Y1198723D01*
X2304629Y1198760D01*
X2304695Y1198788D01*
X2304751Y1198833D01*
X2304779Y1198849D01*
X2304794Y1198867D01*
X2304826Y1198893D01*
X2306321Y1200388D01*
X2309122Y1201548D01*
X2312154Y1201548D01*
X2314955Y1200388D01*
X2316265Y1199077D01*
X2316323Y1199035D01*
X2316375Y1198986D01*
X2316423Y1198964D01*
X2316465Y1198934D01*
X2316533Y1198913D01*
X2316598Y1198882D01*
X2316650Y1198877D01*
X2316700Y1198861D01*
X2316772Y1198863D01*
X2316843Y1198855D01*
X2316894Y1198866D01*
X2316946Y1198868D01*
X2317013Y1198892D01*
X2317083Y1198908D01*
X2317128Y1198934D01*
X2317177Y1198952D01*
X2317233Y1198997D01*
X2317294Y1199034D01*
X2317328Y1199073D01*
X2317369Y1199106D01*
X2317408Y1199166D01*
X2317454Y1199221D01*
X2317474Y1199269D01*
X2317502Y1199313D01*
X2317519Y1199382D01*
X2317546Y1199449D01*
X2317554Y1199520D01*
X2317562Y1199551D01*
X2317560Y1199575D01*
X2317565Y1199616D01*
X2317565Y1201285D01*
X2318725Y1204086D01*
X2320868Y1206230D01*
X2322740Y1207005D01*
X2322840Y1207066D01*
X2322940Y1207126D01*
X2322944Y1207131D01*
X2322949Y1207134D01*
X2323024Y1207224D01*
X2323100Y1207313D01*
X2323102Y1207319D01*
X2323106Y1207324D01*
X2323148Y1207432D01*
X2323192Y1207541D01*
X2323193Y1207549D01*
X2323194Y1207554D01*
X2323195Y1207572D01*
X2323210Y1207708D01*
X2323210Y1209510D01*
X2323207Y1209530D01*
X2323209Y1209549D01*
X2323187Y1209651D01*
X2323171Y1209753D01*
X2323161Y1209770D01*
X2323157Y1209790D01*
X2323104Y1209879D01*
X2323055Y1209970D01*
X2323041Y1209984D01*
X2323031Y1210001D01*
X2322952Y1210068D01*
X2322877Y1210140D01*
X2322859Y1210148D01*
X2322844Y1210161D01*
X2322748Y1210200D01*
X2322654Y1210243D01*
X2322634Y1210245D01*
X2322616Y1210253D01*
X2322449Y1210271D01*
X2321739Y1210271D01*
X2320250Y1211760D01*
X2320250Y1223864D01*
X2321739Y1225353D01*
X2334843Y1225353D01*
X2336332Y1223864D01*
X2336332Y1211760D01*
X2334843Y1210271D01*
X2334133Y1210271D01*
X2334113Y1210268D01*
X2334094Y1210270D01*
X2333992Y1210248D01*
X2333890Y1210232D01*
X2333873Y1210222D01*
X2333853Y1210218D01*
X2333764Y1210165D01*
X2333673Y1210116D01*
X2333659Y1210102D01*
X2333642Y1210092D01*
X2333575Y1210013D01*
X2333503Y1209938D01*
X2333495Y1209920D01*
X2333482Y1209905D01*
X2333443Y1209809D01*
X2333400Y1209715D01*
X2333398Y1209695D01*
X2333390Y1209677D01*
X2333372Y1209510D01*
X2333372Y1201111D01*
X2333383Y1201040D01*
X2333385Y1200969D01*
X2333403Y1200920D01*
X2333411Y1200868D01*
X2333445Y1200805D01*
X2333470Y1200738D01*
X2333502Y1200697D01*
X2333527Y1200651D01*
X2333579Y1200602D01*
X2333623Y1200546D01*
X2333667Y1200517D01*
X2333705Y1200482D01*
X2333770Y1200451D01*
X2333830Y1200413D01*
X2333881Y1200400D01*
X2333928Y1200378D01*
X2333999Y1200370D01*
X2334069Y1200353D01*
X2334121Y1200357D01*
X2334172Y1200351D01*
X2334243Y1200366D01*
X2334314Y1200372D01*
X2334362Y1200392D01*
X2334413Y1200403D01*
X2334474Y1200440D01*
X2334540Y1200468D01*
X2334596Y1200513D01*
X2334624Y1200529D01*
X2334639Y1200547D01*
X2334671Y1200573D01*
X2342037Y1207939D01*
X2344790Y1210692D01*
X2378511Y1210692D01*
X2378601Y1210706D01*
X2378692Y1210714D01*
X2378722Y1210726D01*
X2378754Y1210731D01*
X2378834Y1210774D01*
X2378918Y1210810D01*
X2378950Y1210836D01*
X2378971Y1210847D01*
X2378993Y1210870D01*
X2379049Y1210915D01*
X2398638Y1230504D01*
X2441122Y1230504D01*
X2441212Y1230518D01*
X2441303Y1230526D01*
X2441333Y1230538D01*
X2441365Y1230543D01*
X2441445Y1230586D01*
X2441529Y1230622D01*
X2441561Y1230648D01*
X2441582Y1230659D01*
X2441604Y1230682D01*
X2441660Y1230727D01*
X2525384Y1314451D01*
X2658248Y1314451D01*
X2718309Y1254390D01*
X2718309Y1174231D01*
X2714128Y1170050D01*
X2703692Y1170050D01*
X2703153Y1170589D01*
X2703079Y1170642D01*
X2703010Y1170702D01*
X2702980Y1170714D01*
X2702953Y1170733D01*
X2702866Y1170760D01*
X2702782Y1170794D01*
X2702741Y1170798D01*
X2702718Y1170805D01*
X2702686Y1170804D01*
X2702615Y1170812D01*
X2699901Y1170812D01*
X2697100Y1171972D01*
X2694956Y1174116D01*
X2693796Y1176917D01*
X2693796Y1179949D01*
X2694956Y1182750D01*
X2697100Y1184894D01*
X2699901Y1186054D01*
X2702933Y1186054D01*
X2705734Y1184894D01*
X2707878Y1182750D01*
X2708207Y1181955D01*
X2708258Y1181872D01*
X2708304Y1181786D01*
X2708322Y1181768D01*
X2708336Y1181746D01*
X2708412Y1181684D01*
X2708482Y1181617D01*
X2708506Y1181606D01*
X2708526Y1181589D01*
X2708617Y1181554D01*
X2708705Y1181513D01*
X2708731Y1181510D01*
X2708755Y1181501D01*
X2708853Y1181497D01*
X2708949Y1181486D01*
X2708975Y1181492D01*
X2709001Y1181491D01*
X2709095Y1181518D01*
X2709190Y1181538D01*
X2709212Y1181552D01*
X2709237Y1181559D01*
X2709317Y1181615D01*
X2709401Y1181665D01*
X2709418Y1181684D01*
X2709439Y1181699D01*
X2709498Y1181778D01*
X2709561Y1181852D01*
X2709571Y1181876D01*
X2709586Y1181897D01*
X2709616Y1181989D01*
X2709653Y1182080D01*
X2709656Y1182112D01*
X2709662Y1182131D01*
X2709662Y1182164D01*
X2709671Y1182246D01*
X2709671Y1250497D01*
X2709657Y1250587D01*
X2709649Y1250678D01*
X2709637Y1250708D01*
X2709632Y1250740D01*
X2709589Y1250820D01*
X2709553Y1250904D01*
X2709527Y1250936D01*
X2709516Y1250957D01*
X2709493Y1250979D01*
X2709448Y1251035D01*
X2654893Y1305590D01*
X2654819Y1305643D01*
X2654750Y1305703D01*
X2654720Y1305715D01*
X2654693Y1305734D01*
X2654606Y1305761D01*
X2654522Y1305795D01*
X2654481Y1305799D01*
X2654458Y1305806D01*
X2654426Y1305805D01*
X2654355Y1305813D01*
X2529277Y1305813D01*
X2529187Y1305799D01*
X2529096Y1305791D01*
X2529066Y1305779D01*
X2529034Y1305774D01*
X2528954Y1305731D01*
X2528870Y1305695D01*
X2528838Y1305669D01*
X2528817Y1305658D01*
X2528795Y1305635D01*
X2528739Y1305590D01*
X2528358Y1305209D01*
X2528316Y1305151D01*
X2528267Y1305099D01*
X2528245Y1305052D01*
X2528214Y1305010D01*
X2528193Y1304941D01*
X2528163Y1304876D01*
X2528157Y1304824D01*
X2528142Y1304774D01*
X2528144Y1304703D01*
X2528136Y1304632D01*
X2528147Y1304581D01*
X2528148Y1304529D01*
X2528173Y1304461D01*
X2528188Y1304391D01*
X2528215Y1304346D01*
X2528233Y1304298D01*
X2528278Y1304242D01*
X2528314Y1304180D01*
X2528354Y1304146D01*
X2528386Y1304106D01*
X2528447Y1304067D01*
X2528501Y1304020D01*
X2528550Y1304001D01*
X2528593Y1303973D01*
X2528663Y1303955D01*
X2528729Y1303928D01*
X2528801Y1303920D01*
X2528832Y1303912D01*
X2528855Y1303914D01*
X2528896Y1303910D01*
X2652152Y1303910D01*
X2654905Y1301157D01*
X2666280Y1289782D01*
X2669033Y1287029D01*
X2669033Y1181270D01*
X2669047Y1181180D01*
X2669055Y1181089D01*
X2669067Y1181059D01*
X2669072Y1181027D01*
X2669115Y1180947D01*
X2669151Y1180863D01*
X2669177Y1180830D01*
X2669188Y1180810D01*
X2669211Y1180788D01*
X2669256Y1180732D01*
X2671175Y1178813D01*
X2672335Y1176012D01*
X2672335Y1172980D01*
X2671175Y1170179D01*
X2669553Y1168557D01*
X2669511Y1168499D01*
X2669461Y1168447D01*
X2669439Y1168400D01*
X2669409Y1168358D01*
X2669388Y1168289D01*
X2669358Y1168224D01*
X2669352Y1168172D01*
X2669337Y1168122D01*
X2669339Y1168051D01*
X2669331Y1167980D01*
X2669342Y1167929D01*
X2669343Y1167877D01*
X2669368Y1167809D01*
X2669383Y1167739D01*
X2669410Y1167694D01*
X2669427Y1167646D01*
X2669472Y1167590D01*
X2669509Y1167528D01*
X2669549Y1167494D01*
X2669581Y1167454D01*
X2669641Y1167415D01*
X2669696Y1167368D01*
X2669744Y1167349D01*
X2669788Y1167321D01*
X2669858Y1167303D01*
X2669924Y1167276D01*
X2669995Y1167268D01*
X2670027Y1167260D01*
X2670050Y1167262D01*
X2670091Y1167258D01*
X2766049Y1167258D01*
X2889759Y1043548D01*
X2889759Y937271D01*
X2886144Y933656D01*
X2886091Y933582D01*
X2886031Y933512D01*
X2886019Y933482D01*
X2886000Y933456D01*
X2885973Y933369D01*
X2885939Y933284D01*
X2885935Y933243D01*
X2885928Y933221D01*
X2885929Y933189D01*
X2885921Y933118D01*
X2885921Y932319D01*
X2884958Y929995D01*
X2883180Y928217D01*
X2880856Y927254D01*
X2878340Y927254D01*
X2876016Y928217D01*
X2874238Y929995D01*
X2873275Y932319D01*
X2873275Y934835D01*
X2874238Y937159D01*
X2876016Y938937D01*
X2878340Y939900D01*
X2879139Y939900D01*
X2879229Y939914D01*
X2879320Y939922D01*
X2879349Y939934D01*
X2879381Y939939D01*
X2879462Y939982D01*
X2879546Y940018D01*
X2879578Y940044D01*
X2879599Y940055D01*
X2879621Y940078D01*
X2879677Y940123D01*
X2880390Y940836D01*
X2880443Y940910D01*
X2880503Y940980D01*
X2880515Y941010D01*
X2880534Y941036D01*
X2880561Y941123D01*
X2880595Y941208D01*
X2880599Y941249D01*
X2880606Y941271D01*
X2880605Y941303D01*
X2880613Y941374D01*
X2880613Y1039445D01*
X2880599Y1039535D01*
X2880591Y1039626D01*
X2880579Y1039655D01*
X2880574Y1039687D01*
X2880531Y1039768D01*
X2880495Y1039852D01*
X2880469Y1039884D01*
X2880458Y1039905D01*
X2880435Y1039927D01*
X2880390Y1039983D01*
X2762484Y1157889D01*
X2762410Y1157942D01*
X2762340Y1158002D01*
X2762310Y1158014D01*
X2762284Y1158033D01*
X2762197Y1158060D01*
X2762112Y1158094D01*
X2762071Y1158098D01*
X2762049Y1158105D01*
X2762017Y1158104D01*
X2761946Y1158112D01*
X2470581Y1158112D01*
X2470491Y1158098D01*
X2470400Y1158090D01*
X2470371Y1158078D01*
X2470339Y1158073D01*
X2470258Y1158030D01*
X2470174Y1157994D01*
X2470142Y1157968D01*
X2470121Y1157957D01*
X2470099Y1157934D01*
X2470043Y1157889D01*
X2455836Y1143682D01*
X2455783Y1143608D01*
X2455723Y1143538D01*
X2455711Y1143508D01*
X2455692Y1143482D01*
X2455665Y1143395D01*
X2455631Y1143310D01*
X2455627Y1143269D01*
X2455620Y1143247D01*
X2455621Y1143215D01*
X2455613Y1143144D01*
X2455613Y1142883D01*
X2455632Y1142769D01*
X2455649Y1142653D01*
X2455651Y1142647D01*
X2455652Y1142641D01*
X2455707Y1142538D01*
X2455760Y1142433D01*
X2455765Y1142429D01*
X2455768Y1142423D01*
X2455852Y1142343D01*
X2455936Y1142261D01*
X2455942Y1142257D01*
X2455946Y1142254D01*
X2455963Y1142246D01*
X2456083Y1142180D01*
X2456796Y1141885D01*
X2459654Y1139027D01*
X2461201Y1135292D01*
X2461201Y1116010D01*
X2459654Y1112275D01*
X2456796Y1109417D01*
X2453061Y1107870D01*
X2449019Y1107870D01*
X2445284Y1109417D01*
X2442426Y1112275D01*
X2440879Y1116010D01*
X2440879Y1135292D01*
X2442426Y1139027D01*
X2445284Y1141885D01*
X2445997Y1142180D01*
X2446097Y1142242D01*
X2446197Y1142302D01*
X2446201Y1142306D01*
X2446206Y1142310D01*
X2446281Y1142400D01*
X2446357Y1142489D01*
X2446359Y1142494D01*
X2446363Y1142499D01*
X2446405Y1142608D01*
X2446449Y1142717D01*
X2446450Y1142724D01*
X2446451Y1142729D01*
X2446452Y1142747D01*
X2446467Y1142883D01*
X2446467Y1147247D01*
X2466478Y1167258D01*
X2659337Y1167258D01*
X2659408Y1167269D01*
X2659480Y1167271D01*
X2659529Y1167289D01*
X2659580Y1167297D01*
X2659643Y1167331D01*
X2659711Y1167356D01*
X2659751Y1167388D01*
X2659797Y1167413D01*
X2659847Y1167465D01*
X2659903Y1167509D01*
X2659931Y1167553D01*
X2659967Y1167591D01*
X2659997Y1167656D01*
X2660036Y1167716D01*
X2660048Y1167767D01*
X2660070Y1167814D01*
X2660078Y1167885D01*
X2660096Y1167955D01*
X2660092Y1168007D01*
X2660097Y1168058D01*
X2660082Y1168129D01*
X2660077Y1168200D01*
X2660056Y1168248D01*
X2660045Y1168299D01*
X2660008Y1168360D01*
X2659980Y1168426D01*
X2659935Y1168482D01*
X2659919Y1168510D01*
X2659901Y1168525D01*
X2659875Y1168557D01*
X2658253Y1170179D01*
X2657093Y1172980D01*
X2657093Y1176012D01*
X2658253Y1178813D01*
X2660172Y1180732D01*
X2660225Y1180806D01*
X2660285Y1180875D01*
X2660297Y1180905D01*
X2660316Y1180931D01*
X2660343Y1181018D01*
X2660377Y1181103D01*
X2660381Y1181144D01*
X2660388Y1181166D01*
X2660387Y1181199D01*
X2660395Y1181270D01*
X2660395Y1283136D01*
X2660381Y1283226D01*
X2660373Y1283317D01*
X2660361Y1283347D01*
X2660356Y1283379D01*
X2660313Y1283459D01*
X2660277Y1283543D01*
X2660251Y1283575D01*
X2660240Y1283596D01*
X2660217Y1283618D01*
X2660172Y1283674D01*
X2648797Y1295049D01*
X2648723Y1295102D01*
X2648654Y1295162D01*
X2648624Y1295174D01*
X2648597Y1295193D01*
X2648510Y1295220D01*
X2648426Y1295254D01*
X2648385Y1295258D01*
X2648362Y1295265D01*
X2648330Y1295264D01*
X2648259Y1295272D01*
X2612734Y1295272D01*
X2612663Y1295261D01*
X2612592Y1295259D01*
X2612543Y1295241D01*
X2612491Y1295233D01*
X2612428Y1295199D01*
X2612361Y1295174D01*
X2612320Y1295142D01*
X2612274Y1295117D01*
X2612225Y1295065D01*
X2612169Y1295021D01*
X2612141Y1294977D01*
X2612105Y1294939D01*
X2612075Y1294874D01*
X2612036Y1294814D01*
X2612023Y1294763D01*
X2612001Y1294716D01*
X2611993Y1294645D01*
X2611976Y1294575D01*
X2611980Y1294523D01*
X2611974Y1294472D01*
X2611989Y1294401D01*
X2611995Y1294330D01*
X2612015Y1294282D01*
X2612026Y1294231D01*
X2612063Y1294170D01*
X2612091Y1294104D01*
X2612136Y1294048D01*
X2612152Y1294020D01*
X2612170Y1294005D01*
X2612196Y1293973D01*
X2636305Y1269864D01*
X2637156Y1267810D01*
X2637156Y1221136D01*
X2636305Y1219082D01*
X2610857Y1193634D01*
X2608803Y1192783D01*
X2436672Y1192783D01*
X2436582Y1192769D01*
X2436491Y1192761D01*
X2436462Y1192749D01*
X2436430Y1192744D01*
X2436349Y1192701D01*
X2436265Y1192665D01*
X2436233Y1192639D01*
X2436212Y1192628D01*
X2436190Y1192605D01*
X2436134Y1192560D01*
X2432909Y1189335D01*
X2432856Y1189261D01*
X2432796Y1189191D01*
X2432784Y1189161D01*
X2432765Y1189135D01*
X2432738Y1189048D01*
X2432704Y1188963D01*
X2432700Y1188922D01*
X2432693Y1188900D01*
X2432694Y1188868D01*
X2432686Y1188797D01*
X2432686Y1140910D01*
X2432700Y1140820D01*
X2432708Y1140729D01*
X2432720Y1140699D01*
X2432725Y1140667D01*
X2432768Y1140587D01*
X2432804Y1140503D01*
X2432830Y1140471D01*
X2432841Y1140450D01*
X2432864Y1140428D01*
X2432909Y1140372D01*
X2434254Y1139027D01*
X2435801Y1135292D01*
X2435801Y1116010D01*
X2434254Y1112275D01*
X2431396Y1109417D01*
X2427661Y1107870D01*
X2423619Y1107870D01*
X2419884Y1109417D01*
X2417026Y1112275D01*
X2415479Y1116010D01*
X2415479Y1135292D01*
X2417026Y1139027D01*
X2419884Y1141885D01*
X2423070Y1143204D01*
X2423170Y1143266D01*
X2423270Y1143326D01*
X2423274Y1143331D01*
X2423279Y1143334D01*
X2423354Y1143424D01*
X2423430Y1143513D01*
X2423432Y1143519D01*
X2423436Y1143524D01*
X2423478Y1143632D01*
X2423522Y1143741D01*
X2423523Y1143749D01*
X2423524Y1143753D01*
X2423525Y1143771D01*
X2423540Y1143908D01*
X2423540Y1192900D01*
X2430076Y1199436D01*
X2430129Y1199510D01*
X2430189Y1199580D01*
X2430201Y1199610D01*
X2430220Y1199636D01*
X2430247Y1199723D01*
X2430281Y1199808D01*
X2430285Y1199849D01*
X2430292Y1199871D01*
X2430291Y1199903D01*
X2430299Y1199974D01*
X2430299Y1200773D01*
X2431262Y1203097D01*
X2433040Y1204875D01*
X2434959Y1205670D01*
X2435042Y1205721D01*
X2435128Y1205767D01*
X2435146Y1205786D01*
X2435168Y1205799D01*
X2435230Y1205874D01*
X2435297Y1205945D01*
X2435308Y1205969D01*
X2435325Y1205989D01*
X2435359Y1206080D01*
X2435401Y1206168D01*
X2435403Y1206194D01*
X2435413Y1206218D01*
X2435417Y1206316D01*
X2435428Y1206412D01*
X2435422Y1206438D01*
X2435423Y1206464D01*
X2435396Y1206558D01*
X2435375Y1206653D01*
X2435362Y1206675D01*
X2435355Y1206700D01*
X2435299Y1206780D01*
X2435249Y1206864D01*
X2435229Y1206881D01*
X2435214Y1206902D01*
X2435136Y1206961D01*
X2435062Y1207024D01*
X2435038Y1207034D01*
X2435017Y1207049D01*
X2434925Y1207079D01*
X2434834Y1207116D01*
X2434802Y1207119D01*
X2434783Y1207125D01*
X2434750Y1207125D01*
X2434667Y1207134D01*
X2414741Y1207134D01*
X2414651Y1207120D01*
X2414560Y1207112D01*
X2414530Y1207100D01*
X2414499Y1207095D01*
X2414418Y1207052D01*
X2414334Y1207016D01*
X2414302Y1206990D01*
X2414281Y1206979D01*
X2414259Y1206956D01*
X2414203Y1206911D01*
X2380652Y1173360D01*
X2380599Y1173286D01*
X2380539Y1173217D01*
X2380527Y1173186D01*
X2380508Y1173160D01*
X2380481Y1173073D01*
X2380447Y1172988D01*
X2380443Y1172948D01*
X2380436Y1172925D01*
X2380437Y1172893D01*
X2380429Y1172822D01*
X2380429Y1142367D01*
X2380443Y1142277D01*
X2380451Y1142186D01*
X2380463Y1142156D01*
X2380468Y1142124D01*
X2380511Y1142044D01*
X2380547Y1141960D01*
X2380573Y1141928D01*
X2380584Y1141907D01*
X2380607Y1141885D01*
X2380652Y1141829D01*
X2383454Y1139027D01*
X2385001Y1135292D01*
X2385001Y1116010D01*
X2384844Y1115632D01*
X2384818Y1115519D01*
X2384789Y1115405D01*
X2384790Y1115399D01*
X2384788Y1115393D01*
X2384799Y1115276D01*
X2384808Y1115160D01*
X2384811Y1115154D01*
X2384811Y1115148D01*
X2384859Y1115041D01*
X2384905Y1114934D01*
X2384909Y1114928D01*
X2384911Y1114923D01*
X2384924Y1114910D01*
X2385009Y1114803D01*
X2401166Y1098647D01*
X2401239Y1098594D01*
X2401309Y1098534D01*
X2401339Y1098522D01*
X2401365Y1098503D01*
X2401452Y1098476D01*
X2401537Y1098442D01*
X2401578Y1098438D01*
X2401600Y1098431D01*
X2401633Y1098432D01*
X2401704Y1098424D01*
X2461460Y1098424D01*
X2496035Y1063849D01*
X2496108Y1063796D01*
X2496178Y1063736D01*
X2496208Y1063724D01*
X2496234Y1063705D01*
X2496321Y1063678D01*
X2496406Y1063644D01*
X2496447Y1063640D01*
X2496469Y1063633D01*
X2496502Y1063634D01*
X2496573Y1063626D01*
X2572077Y1063626D01*
X2575276Y1060427D01*
X2700759Y934944D01*
X2700832Y934891D01*
X2700902Y934831D01*
X2700932Y934819D01*
X2700958Y934800D01*
X2701045Y934773D01*
X2701130Y934739D01*
X2701171Y934735D01*
X2701193Y934728D01*
X2701226Y934729D01*
X2701297Y934721D01*
X2702933Y934721D01*
X2705734Y933561D01*
X2707878Y931417D01*
X2709038Y928616D01*
X2709038Y925584D01*
X2707878Y922783D01*
X2705734Y920639D01*
X2702933Y919479D01*
X2699901Y919479D01*
X2697100Y920639D01*
X2694956Y922783D01*
X2693796Y925584D01*
X2693796Y927220D01*
X2693795Y927230D01*
X2693795Y927235D01*
X2693790Y927260D01*
X2693782Y927310D01*
X2693774Y927401D01*
X2693762Y927431D01*
X2693757Y927463D01*
X2693714Y927544D01*
X2693678Y927627D01*
X2693652Y927660D01*
X2693641Y927680D01*
X2693618Y927702D01*
X2693573Y927758D01*
X2568090Y1053241D01*
X2568017Y1053294D01*
X2567947Y1053354D01*
X2567917Y1053366D01*
X2567891Y1053385D01*
X2567804Y1053412D01*
X2567719Y1053446D01*
X2567678Y1053450D01*
X2567656Y1053457D01*
X2567623Y1053456D01*
X2567552Y1053464D01*
X2559438Y1053464D01*
X2559367Y1053453D01*
X2559295Y1053451D01*
X2559246Y1053433D01*
X2559195Y1053425D01*
X2559132Y1053391D01*
X2559064Y1053366D01*
X2559024Y1053334D01*
X2558978Y1053309D01*
X2558928Y1053257D01*
X2558872Y1053213D01*
X2558844Y1053169D01*
X2558808Y1053131D01*
X2558778Y1053066D01*
X2558739Y1053006D01*
X2558727Y1052955D01*
X2558705Y1052908D01*
X2558697Y1052837D01*
X2558679Y1052767D01*
X2558683Y1052715D01*
X2558678Y1052664D01*
X2558693Y1052593D01*
X2558698Y1052522D01*
X2558719Y1052474D01*
X2558730Y1052423D01*
X2558767Y1052362D01*
X2558795Y1052296D01*
X2558839Y1052240D01*
X2558856Y1052212D01*
X2558874Y1052197D01*
X2558899Y1052165D01*
X2680693Y930372D01*
X2680766Y930319D01*
X2680836Y930259D01*
X2680866Y930247D01*
X2680892Y930228D01*
X2680979Y930201D01*
X2681064Y930167D01*
X2681105Y930163D01*
X2681127Y930156D01*
X2681160Y930157D01*
X2681231Y930149D01*
X2682867Y930149D01*
X2685668Y928989D01*
X2687812Y926845D01*
X2688972Y924044D01*
X2688972Y921012D01*
X2687812Y918211D01*
X2685668Y916067D01*
X2682867Y914907D01*
X2679835Y914907D01*
G37*
%LPD*%
G36*
X2605151Y1203975D02*
X2605151Y1203975D01*
X2605242Y1203983D01*
X2605272Y1203995D01*
X2605303Y1204000D01*
X2605384Y1204043D01*
X2605468Y1204079D01*
X2605500Y1204105D01*
X2605521Y1204116D01*
X2605543Y1204139D01*
X2605599Y1204184D01*
X2625755Y1224340D01*
X2625802Y1224406D01*
X2625812Y1224416D01*
X2625815Y1224421D01*
X2625868Y1224483D01*
X2625880Y1224514D01*
X2625899Y1224540D01*
X2625926Y1224627D01*
X2625960Y1224712D01*
X2625964Y1224752D01*
X2625971Y1224775D01*
X2625970Y1224807D01*
X2625978Y1224878D01*
X2625978Y1264068D01*
X2625964Y1264158D01*
X2625956Y1264249D01*
X2625944Y1264279D01*
X2625939Y1264310D01*
X2625896Y1264391D01*
X2625860Y1264475D01*
X2625834Y1264507D01*
X2625823Y1264528D01*
X2625800Y1264550D01*
X2625755Y1264606D01*
X2606488Y1283873D01*
X2606414Y1283926D01*
X2606345Y1283986D01*
X2606314Y1283998D01*
X2606288Y1284017D01*
X2606201Y1284044D01*
X2606116Y1284078D01*
X2606076Y1284082D01*
X2606053Y1284089D01*
X2606021Y1284088D01*
X2605950Y1284096D01*
X2590509Y1284096D01*
X2590419Y1284082D01*
X2590328Y1284074D01*
X2590298Y1284062D01*
X2590267Y1284057D01*
X2590186Y1284014D01*
X2590102Y1283978D01*
X2590070Y1283952D01*
X2590049Y1283941D01*
X2590027Y1283918D01*
X2589971Y1283873D01*
X2577815Y1271717D01*
X2577762Y1271643D01*
X2577702Y1271574D01*
X2577690Y1271543D01*
X2577671Y1271517D01*
X2577644Y1271430D01*
X2577610Y1271345D01*
X2577606Y1271305D01*
X2577599Y1271282D01*
X2577600Y1271250D01*
X2577592Y1271179D01*
X2577592Y1270031D01*
X2577606Y1269941D01*
X2577614Y1269850D01*
X2577626Y1269820D01*
X2577631Y1269788D01*
X2577674Y1269707D01*
X2577710Y1269624D01*
X2577736Y1269591D01*
X2577747Y1269571D01*
X2577770Y1269549D01*
X2577815Y1269493D01*
X2582294Y1265014D01*
X2582294Y1256488D01*
X2576266Y1250460D01*
X2567740Y1250460D01*
X2561712Y1256488D01*
X2561712Y1265014D01*
X2566191Y1269493D01*
X2566244Y1269567D01*
X2566304Y1269636D01*
X2566316Y1269666D01*
X2566335Y1269692D01*
X2566362Y1269779D01*
X2566396Y1269864D01*
X2566400Y1269905D01*
X2566407Y1269927D01*
X2566406Y1269960D01*
X2566414Y1270031D01*
X2566414Y1274921D01*
X2567265Y1276975D01*
X2583034Y1292744D01*
X2584263Y1293973D01*
X2584305Y1294031D01*
X2584354Y1294083D01*
X2584376Y1294130D01*
X2584407Y1294172D01*
X2584428Y1294241D01*
X2584458Y1294306D01*
X2584464Y1294358D01*
X2584479Y1294408D01*
X2584477Y1294479D01*
X2584485Y1294550D01*
X2584474Y1294601D01*
X2584473Y1294653D01*
X2584448Y1294721D01*
X2584433Y1294791D01*
X2584406Y1294836D01*
X2584388Y1294884D01*
X2584343Y1294940D01*
X2584307Y1295002D01*
X2584267Y1295036D01*
X2584234Y1295076D01*
X2584174Y1295115D01*
X2584120Y1295162D01*
X2584071Y1295181D01*
X2584028Y1295209D01*
X2583958Y1295227D01*
X2583892Y1295254D01*
X2583820Y1295262D01*
X2583789Y1295270D01*
X2583766Y1295268D01*
X2583725Y1295272D01*
X2532960Y1295272D01*
X2532870Y1295258D01*
X2532779Y1295250D01*
X2532749Y1295238D01*
X2532717Y1295233D01*
X2532637Y1295190D01*
X2532553Y1295154D01*
X2532521Y1295128D01*
X2532500Y1295117D01*
X2532478Y1295094D01*
X2532422Y1295049D01*
X2456984Y1219611D01*
X2456942Y1219553D01*
X2456893Y1219501D01*
X2456871Y1219454D01*
X2456840Y1219412D01*
X2456819Y1219343D01*
X2456789Y1219278D01*
X2456783Y1219226D01*
X2456768Y1219176D01*
X2456770Y1219105D01*
X2456762Y1219034D01*
X2456773Y1218983D01*
X2456774Y1218931D01*
X2456799Y1218863D01*
X2456814Y1218793D01*
X2456841Y1218749D01*
X2456859Y1218700D01*
X2456904Y1218644D01*
X2456940Y1218582D01*
X2456980Y1218548D01*
X2457012Y1218508D01*
X2457073Y1218469D01*
X2457127Y1218422D01*
X2457176Y1218403D01*
X2457219Y1218375D01*
X2457289Y1218357D01*
X2457355Y1218330D01*
X2457427Y1218322D01*
X2457458Y1218314D01*
X2457481Y1218316D01*
X2457522Y1218312D01*
X2560611Y1218312D01*
X2560701Y1218326D01*
X2560792Y1218334D01*
X2560822Y1218346D01*
X2560853Y1218351D01*
X2560934Y1218394D01*
X2561018Y1218430D01*
X2561050Y1218456D01*
X2561071Y1218467D01*
X2561093Y1218490D01*
X2561149Y1218535D01*
X2566191Y1223577D01*
X2566238Y1223642D01*
X2566250Y1223655D01*
X2566253Y1223661D01*
X2566304Y1223720D01*
X2566316Y1223751D01*
X2566335Y1223777D01*
X2566362Y1223864D01*
X2566396Y1223949D01*
X2566400Y1223989D01*
X2566407Y1224012D01*
X2566406Y1224044D01*
X2566414Y1224115D01*
X2566414Y1226071D01*
X2566400Y1226161D01*
X2566392Y1226252D01*
X2566380Y1226282D01*
X2566375Y1226314D01*
X2566332Y1226395D01*
X2566296Y1226478D01*
X2566270Y1226511D01*
X2566259Y1226531D01*
X2566236Y1226553D01*
X2566191Y1226609D01*
X2561712Y1231088D01*
X2561712Y1239614D01*
X2567740Y1245642D01*
X2576266Y1245642D01*
X2582294Y1239614D01*
X2582294Y1231088D01*
X2577815Y1226609D01*
X2577762Y1226535D01*
X2577702Y1226466D01*
X2577690Y1226436D01*
X2577671Y1226410D01*
X2577644Y1226323D01*
X2577610Y1226238D01*
X2577606Y1226197D01*
X2577599Y1226175D01*
X2577600Y1226142D01*
X2577592Y1226071D01*
X2577592Y1220373D01*
X2576741Y1218319D01*
X2566407Y1207985D01*
X2564353Y1207134D01*
X2438577Y1207134D01*
X2438481Y1207119D01*
X2438384Y1207109D01*
X2438360Y1207099D01*
X2438334Y1207095D01*
X2438248Y1207049D01*
X2438159Y1207009D01*
X2438140Y1206992D01*
X2438116Y1206979D01*
X2438049Y1206909D01*
X2437978Y1206843D01*
X2437965Y1206820D01*
X2437947Y1206801D01*
X2437906Y1206713D01*
X2437859Y1206627D01*
X2437854Y1206602D01*
X2437843Y1206578D01*
X2437833Y1206481D01*
X2437815Y1206385D01*
X2437819Y1206359D01*
X2437816Y1206334D01*
X2437837Y1206238D01*
X2437851Y1206142D01*
X2437863Y1206119D01*
X2437869Y1206093D01*
X2437919Y1206010D01*
X2437963Y1205923D01*
X2437981Y1205904D01*
X2437995Y1205882D01*
X2438069Y1205819D01*
X2438138Y1205751D01*
X2438167Y1205735D01*
X2438182Y1205722D01*
X2438212Y1205710D01*
X2438285Y1205670D01*
X2440204Y1204875D01*
X2440895Y1204184D01*
X2440969Y1204131D01*
X2441038Y1204071D01*
X2441069Y1204059D01*
X2441095Y1204040D01*
X2441182Y1204013D01*
X2441267Y1203979D01*
X2441308Y1203975D01*
X2441330Y1203968D01*
X2441362Y1203969D01*
X2441433Y1203961D01*
X2605061Y1203961D01*
X2605151Y1203975D01*
G37*
%LPC*%
G36*
X2481179Y554619D02*
X2481179Y554619D01*
X2477444Y556166D01*
X2474586Y559024D01*
X2473039Y562759D01*
X2473039Y582041D01*
X2474586Y585776D01*
X2476626Y587816D01*
X2476679Y587890D01*
X2476739Y587959D01*
X2476751Y587989D01*
X2476770Y588016D01*
X2476797Y588102D01*
X2476831Y588187D01*
X2476835Y588228D01*
X2476842Y588251D01*
X2476841Y588283D01*
X2476849Y588354D01*
X2476849Y593985D01*
X2476835Y594075D01*
X2476827Y594166D01*
X2476815Y594196D01*
X2476810Y594228D01*
X2476767Y594309D01*
X2476731Y594392D01*
X2476705Y594425D01*
X2476694Y594445D01*
X2476671Y594467D01*
X2476626Y594523D01*
X2441072Y630077D01*
X2440998Y630130D01*
X2440929Y630190D01*
X2440899Y630202D01*
X2440873Y630221D01*
X2440786Y630248D01*
X2440701Y630282D01*
X2440660Y630286D01*
X2440638Y630293D01*
X2440605Y630292D01*
X2440534Y630300D01*
X2270513Y630300D01*
X2268179Y631267D01*
X2104721Y794725D01*
X2103754Y797059D01*
X2103754Y1007711D01*
X2103744Y1007775D01*
X2103743Y1007841D01*
X2103720Y1007921D01*
X2103715Y1007953D01*
X2103705Y1007971D01*
X2103696Y1008002D01*
X2102484Y1010928D01*
X2102484Y1013960D01*
X2103644Y1016761D01*
X2105788Y1018905D01*
X2108589Y1020065D01*
X2111621Y1020065D01*
X2114422Y1018905D01*
X2116566Y1016761D01*
X2117726Y1013960D01*
X2117726Y1010928D01*
X2116514Y1008002D01*
X2116499Y1007938D01*
X2116474Y1007877D01*
X2116465Y1007795D01*
X2116458Y1007763D01*
X2116459Y1007743D01*
X2116456Y1007711D01*
X2116456Y801268D01*
X2116470Y801178D01*
X2116478Y801087D01*
X2116490Y801057D01*
X2116495Y801025D01*
X2116538Y800944D01*
X2116574Y800861D01*
X2116600Y800828D01*
X2116611Y800808D01*
X2116634Y800786D01*
X2116679Y800730D01*
X2274184Y643225D01*
X2274258Y643172D01*
X2274327Y643112D01*
X2274357Y643100D01*
X2274383Y643081D01*
X2274470Y643054D01*
X2274555Y643020D01*
X2274596Y643016D01*
X2274618Y643009D01*
X2274651Y643010D01*
X2274722Y643002D01*
X2444743Y643002D01*
X2447077Y642035D01*
X2448971Y640141D01*
X2488584Y600528D01*
X2489551Y598194D01*
X2489551Y588354D01*
X2489565Y588264D01*
X2489573Y588173D01*
X2489585Y588143D01*
X2489590Y588111D01*
X2489633Y588031D01*
X2489669Y587947D01*
X2489695Y587915D01*
X2489706Y587894D01*
X2489729Y587872D01*
X2489774Y587816D01*
X2491814Y585776D01*
X2493361Y582041D01*
X2493361Y562759D01*
X2491814Y559024D01*
X2488956Y556166D01*
X2485221Y554619D01*
X2481179Y554619D01*
G37*
%LPD*%
%LPC*%
G36*
X2211840Y738885D02*
X2211840Y738885D01*
X2209039Y740045D01*
X2206895Y742189D01*
X2205735Y744990D01*
X2205735Y748022D01*
X2206895Y750823D01*
X2208052Y751980D01*
X2208105Y752054D01*
X2208165Y752123D01*
X2208177Y752153D01*
X2208196Y752179D01*
X2208223Y752266D01*
X2208257Y752351D01*
X2208261Y752392D01*
X2208268Y752414D01*
X2208267Y752447D01*
X2208275Y752518D01*
X2208275Y1077933D01*
X2208273Y1077949D01*
X2208274Y1077962D01*
X2208260Y1078027D01*
X2208253Y1078114D01*
X2208241Y1078144D01*
X2208236Y1078176D01*
X2208222Y1078201D01*
X2208222Y1078203D01*
X2208217Y1078211D01*
X2208193Y1078257D01*
X2208157Y1078340D01*
X2208131Y1078373D01*
X2208120Y1078393D01*
X2208097Y1078415D01*
X2208052Y1078471D01*
X2206895Y1079628D01*
X2205735Y1082429D01*
X2205735Y1085461D01*
X2206895Y1088262D01*
X2208263Y1089630D01*
X2208305Y1089688D01*
X2208355Y1089740D01*
X2208377Y1089787D01*
X2208407Y1089829D01*
X2208428Y1089898D01*
X2208458Y1089963D01*
X2208464Y1090015D01*
X2208479Y1090065D01*
X2208477Y1090136D01*
X2208485Y1090207D01*
X2208474Y1090258D01*
X2208473Y1090310D01*
X2208448Y1090378D01*
X2208433Y1090448D01*
X2208406Y1090493D01*
X2208389Y1090541D01*
X2208344Y1090597D01*
X2208307Y1090659D01*
X2208267Y1090693D01*
X2208235Y1090733D01*
X2208175Y1090772D01*
X2208120Y1090819D01*
X2208072Y1090838D01*
X2208028Y1090866D01*
X2207958Y1090884D01*
X2207892Y1090911D01*
X2207821Y1090919D01*
X2207789Y1090927D01*
X2207766Y1090925D01*
X2207725Y1090929D01*
X2185488Y1090929D01*
X2185398Y1090915D01*
X2185307Y1090907D01*
X2185277Y1090895D01*
X2185245Y1090890D01*
X2185165Y1090847D01*
X2185081Y1090811D01*
X2185049Y1090785D01*
X2185028Y1090774D01*
X2185006Y1090751D01*
X2184950Y1090706D01*
X2146270Y1052026D01*
X2146217Y1051952D01*
X2146157Y1051883D01*
X2146145Y1051853D01*
X2146126Y1051826D01*
X2146099Y1051739D01*
X2146065Y1051655D01*
X2146061Y1051614D01*
X2146054Y1051591D01*
X2146055Y1051559D01*
X2146047Y1051488D01*
X2146047Y956607D01*
X2146061Y956517D01*
X2146069Y956426D01*
X2146081Y956396D01*
X2146086Y956364D01*
X2146129Y956283D01*
X2146165Y956200D01*
X2146191Y956167D01*
X2146202Y956147D01*
X2146225Y956125D01*
X2146270Y956069D01*
X2148189Y954150D01*
X2149349Y951349D01*
X2149349Y948317D01*
X2148189Y945516D01*
X2146045Y943372D01*
X2143244Y942212D01*
X2140212Y942212D01*
X2137411Y943372D01*
X2135267Y945516D01*
X2134107Y948317D01*
X2134107Y951349D01*
X2135267Y954150D01*
X2137186Y956069D01*
X2137239Y956143D01*
X2137299Y956212D01*
X2137311Y956242D01*
X2137330Y956268D01*
X2137357Y956355D01*
X2137391Y956440D01*
X2137395Y956481D01*
X2137402Y956503D01*
X2137401Y956536D01*
X2137409Y956607D01*
X2137409Y1055381D01*
X2181595Y1099567D01*
X2305188Y1099567D01*
X2307941Y1096814D01*
X2392341Y1012414D01*
X2392415Y1012361D01*
X2392484Y1012301D01*
X2392514Y1012289D01*
X2392541Y1012270D01*
X2392628Y1012243D01*
X2392712Y1012209D01*
X2392753Y1012205D01*
X2392776Y1012198D01*
X2392808Y1012199D01*
X2392879Y1012191D01*
X2548212Y1012191D01*
X2548302Y1012205D01*
X2548393Y1012213D01*
X2548423Y1012225D01*
X2548455Y1012230D01*
X2548536Y1012273D01*
X2548619Y1012309D01*
X2548652Y1012335D01*
X2548672Y1012346D01*
X2548694Y1012369D01*
X2548750Y1012414D01*
X2550669Y1014333D01*
X2553470Y1015493D01*
X2556502Y1015493D01*
X2559303Y1014333D01*
X2561447Y1012189D01*
X2562607Y1009388D01*
X2562607Y1006356D01*
X2561447Y1003555D01*
X2559303Y1001411D01*
X2556502Y1000251D01*
X2553470Y1000251D01*
X2550669Y1001411D01*
X2548750Y1003330D01*
X2548676Y1003383D01*
X2548607Y1003443D01*
X2548577Y1003455D01*
X2548551Y1003474D01*
X2548464Y1003501D01*
X2548379Y1003535D01*
X2548338Y1003539D01*
X2548316Y1003546D01*
X2548283Y1003545D01*
X2548212Y1003553D01*
X2388986Y1003553D01*
X2386233Y1006306D01*
X2301833Y1090706D01*
X2301759Y1090759D01*
X2301690Y1090819D01*
X2301660Y1090831D01*
X2301633Y1090850D01*
X2301546Y1090877D01*
X2301462Y1090911D01*
X2301421Y1090915D01*
X2301398Y1090922D01*
X2301366Y1090921D01*
X2301295Y1090929D01*
X2218987Y1090929D01*
X2218916Y1090918D01*
X2218844Y1090916D01*
X2218795Y1090898D01*
X2218744Y1090890D01*
X2218681Y1090856D01*
X2218613Y1090831D01*
X2218573Y1090799D01*
X2218527Y1090774D01*
X2218477Y1090722D01*
X2218421Y1090678D01*
X2218393Y1090634D01*
X2218357Y1090596D01*
X2218327Y1090531D01*
X2218288Y1090471D01*
X2218276Y1090420D01*
X2218254Y1090373D01*
X2218246Y1090302D01*
X2218228Y1090232D01*
X2218232Y1090180D01*
X2218227Y1090129D01*
X2218242Y1090058D01*
X2218247Y1089987D01*
X2218268Y1089939D01*
X2218279Y1089888D01*
X2218316Y1089827D01*
X2218344Y1089761D01*
X2218389Y1089705D01*
X2218405Y1089677D01*
X2218423Y1089662D01*
X2218449Y1089630D01*
X2219817Y1088262D01*
X2220977Y1085461D01*
X2220977Y1082429D01*
X2219817Y1079628D01*
X2218660Y1078471D01*
X2218607Y1078397D01*
X2218547Y1078328D01*
X2218535Y1078298D01*
X2218516Y1078272D01*
X2218489Y1078185D01*
X2218477Y1078154D01*
X2218465Y1078128D01*
X2218464Y1078122D01*
X2218455Y1078100D01*
X2218451Y1078059D01*
X2218444Y1078037D01*
X2218445Y1078004D01*
X2218437Y1077933D01*
X2218437Y752518D01*
X2218451Y752428D01*
X2218459Y752337D01*
X2218471Y752307D01*
X2218476Y752275D01*
X2218519Y752194D01*
X2218555Y752111D01*
X2218581Y752078D01*
X2218592Y752058D01*
X2218615Y752036D01*
X2218660Y751980D01*
X2219817Y750823D01*
X2220977Y748022D01*
X2220977Y744990D01*
X2219817Y742189D01*
X2217673Y740045D01*
X2214872Y738885D01*
X2211840Y738885D01*
G37*
%LPD*%
%LPC*%
G36*
X2060837Y1080642D02*
X2060837Y1080642D01*
X2058036Y1081802D01*
X2057387Y1082451D01*
X2057313Y1082504D01*
X2057244Y1082564D01*
X2057214Y1082576D01*
X2057188Y1082595D01*
X2057101Y1082622D01*
X2057016Y1082656D01*
X2056975Y1082660D01*
X2056953Y1082667D01*
X2056920Y1082666D01*
X2056849Y1082674D01*
X2025300Y1082674D01*
X2023246Y1083525D01*
X1989035Y1117736D01*
X1988184Y1119790D01*
X1988184Y1229524D01*
X1988170Y1229614D01*
X1988162Y1229705D01*
X1988150Y1229735D01*
X1988145Y1229766D01*
X1988102Y1229847D01*
X1988066Y1229931D01*
X1988040Y1229963D01*
X1988029Y1229984D01*
X1988006Y1230006D01*
X1987961Y1230062D01*
X1953221Y1264802D01*
X1952370Y1266856D01*
X1952370Y1320642D01*
X1953221Y1322696D01*
X1997084Y1366559D01*
X1999138Y1367410D01*
X2025941Y1367410D01*
X2026031Y1367424D01*
X2026122Y1367432D01*
X2026152Y1367444D01*
X2026183Y1367449D01*
X2026264Y1367492D01*
X2026348Y1367528D01*
X2026380Y1367554D01*
X2026401Y1367565D01*
X2026423Y1367588D01*
X2026479Y1367633D01*
X2071019Y1412173D01*
X2071072Y1412247D01*
X2071132Y1412316D01*
X2071144Y1412347D01*
X2071163Y1412373D01*
X2071190Y1412460D01*
X2071224Y1412545D01*
X2071228Y1412585D01*
X2071235Y1412608D01*
X2071234Y1412640D01*
X2071242Y1412711D01*
X2071242Y1445217D01*
X2071228Y1445307D01*
X2071220Y1445398D01*
X2071208Y1445428D01*
X2071203Y1445460D01*
X2071160Y1445541D01*
X2071124Y1445624D01*
X2071098Y1445657D01*
X2071087Y1445677D01*
X2071064Y1445699D01*
X2071019Y1445755D01*
X2070370Y1446404D01*
X2069210Y1449205D01*
X2069210Y1452237D01*
X2070370Y1455038D01*
X2072514Y1457182D01*
X2075315Y1458342D01*
X2078347Y1458342D01*
X2081148Y1457182D01*
X2083292Y1455038D01*
X2084452Y1452237D01*
X2084452Y1449205D01*
X2083292Y1446404D01*
X2082643Y1445755D01*
X2082590Y1445681D01*
X2082530Y1445612D01*
X2082518Y1445582D01*
X2082499Y1445556D01*
X2082472Y1445469D01*
X2082438Y1445384D01*
X2082434Y1445343D01*
X2082427Y1445321D01*
X2082428Y1445288D01*
X2082420Y1445217D01*
X2082420Y1408969D01*
X2081569Y1406915D01*
X2031737Y1357083D01*
X2029683Y1356232D01*
X2002880Y1356232D01*
X2002790Y1356218D01*
X2002699Y1356210D01*
X2002669Y1356198D01*
X2002638Y1356193D01*
X2002557Y1356150D01*
X2002473Y1356114D01*
X2002441Y1356088D01*
X2002420Y1356077D01*
X2002398Y1356054D01*
X2002342Y1356009D01*
X1963771Y1317438D01*
X1963718Y1317364D01*
X1963658Y1317295D01*
X1963646Y1317264D01*
X1963627Y1317238D01*
X1963600Y1317151D01*
X1963566Y1317066D01*
X1963562Y1317026D01*
X1963555Y1317003D01*
X1963556Y1316971D01*
X1963548Y1316900D01*
X1963548Y1270598D01*
X1963562Y1270508D01*
X1963570Y1270417D01*
X1963582Y1270387D01*
X1963587Y1270356D01*
X1963630Y1270275D01*
X1963666Y1270191D01*
X1963692Y1270159D01*
X1963703Y1270138D01*
X1963726Y1270116D01*
X1963771Y1270060D01*
X1998511Y1235320D01*
X1999362Y1233266D01*
X1999362Y1123532D01*
X1999376Y1123442D01*
X1999384Y1123351D01*
X1999396Y1123321D01*
X1999401Y1123290D01*
X1999444Y1123209D01*
X1999480Y1123125D01*
X1999506Y1123093D01*
X1999517Y1123072D01*
X1999540Y1123050D01*
X1999585Y1122994D01*
X2028504Y1094075D01*
X2028578Y1094022D01*
X2028647Y1093962D01*
X2028678Y1093950D01*
X2028704Y1093931D01*
X2028791Y1093904D01*
X2028876Y1093870D01*
X2028916Y1093866D01*
X2028939Y1093859D01*
X2028971Y1093860D01*
X2029042Y1093852D01*
X2056849Y1093852D01*
X2056939Y1093866D01*
X2057030Y1093874D01*
X2057060Y1093886D01*
X2057092Y1093891D01*
X2057173Y1093934D01*
X2057256Y1093970D01*
X2057289Y1093996D01*
X2057309Y1094007D01*
X2057331Y1094030D01*
X2057387Y1094075D01*
X2058036Y1094724D01*
X2060837Y1095884D01*
X2063869Y1095884D01*
X2066670Y1094724D01*
X2068814Y1092580D01*
X2069974Y1089779D01*
X2069974Y1086747D01*
X2068814Y1083946D01*
X2066670Y1081802D01*
X2063869Y1080642D01*
X2060837Y1080642D01*
G37*
%LPD*%
%LPC*%
G36*
X2658979Y554619D02*
X2658979Y554619D01*
X2655244Y556166D01*
X2652386Y559024D01*
X2650839Y562759D01*
X2650839Y582041D01*
X2652386Y585776D01*
X2655244Y588634D01*
X2656211Y589034D01*
X2656311Y589096D01*
X2656411Y589156D01*
X2656415Y589161D01*
X2656420Y589164D01*
X2656495Y589254D01*
X2656571Y589343D01*
X2656573Y589349D01*
X2656577Y589353D01*
X2656619Y589462D01*
X2656663Y589571D01*
X2656664Y589579D01*
X2656665Y589583D01*
X2656666Y589601D01*
X2656681Y589738D01*
X2656681Y611210D01*
X2656667Y611300D01*
X2656659Y611391D01*
X2656647Y611421D01*
X2656642Y611453D01*
X2656599Y611533D01*
X2656563Y611617D01*
X2656537Y611649D01*
X2656526Y611670D01*
X2656503Y611692D01*
X2656458Y611748D01*
X2606506Y661700D01*
X2606432Y661753D01*
X2606363Y661813D01*
X2606333Y661825D01*
X2606306Y661844D01*
X2606219Y661871D01*
X2606135Y661905D01*
X2606094Y661909D01*
X2606071Y661916D01*
X2606039Y661915D01*
X2605968Y661923D01*
X2492618Y661923D01*
X2336123Y818418D01*
X2336049Y818471D01*
X2335980Y818531D01*
X2335950Y818543D01*
X2335923Y818562D01*
X2335836Y818589D01*
X2335752Y818623D01*
X2335711Y818627D01*
X2335688Y818634D01*
X2335656Y818633D01*
X2335585Y818641D01*
X2332871Y818641D01*
X2330070Y819801D01*
X2327926Y821945D01*
X2326766Y824746D01*
X2326766Y827778D01*
X2327926Y830579D01*
X2330070Y832723D01*
X2332871Y833883D01*
X2335903Y833883D01*
X2338704Y832723D01*
X2340848Y830579D01*
X2342008Y827778D01*
X2342008Y825064D01*
X2342022Y824974D01*
X2342030Y824883D01*
X2342042Y824853D01*
X2342047Y824821D01*
X2342090Y824741D01*
X2342126Y824657D01*
X2342152Y824625D01*
X2342163Y824604D01*
X2342186Y824582D01*
X2342231Y824526D01*
X2495973Y670784D01*
X2496047Y670731D01*
X2496116Y670671D01*
X2496146Y670659D01*
X2496173Y670640D01*
X2496260Y670613D01*
X2496344Y670579D01*
X2496385Y670575D01*
X2496408Y670568D01*
X2496440Y670569D01*
X2496511Y670561D01*
X2609861Y670561D01*
X2612614Y667808D01*
X2662566Y617856D01*
X2665319Y615103D01*
X2665319Y589738D01*
X2665338Y589623D01*
X2665355Y589507D01*
X2665357Y589501D01*
X2665358Y589495D01*
X2665413Y589392D01*
X2665466Y589287D01*
X2665471Y589283D01*
X2665474Y589278D01*
X2665558Y589198D01*
X2665642Y589115D01*
X2665648Y589112D01*
X2665652Y589108D01*
X2665669Y589100D01*
X2665789Y589034D01*
X2666756Y588634D01*
X2669614Y585776D01*
X2671161Y582041D01*
X2671161Y562759D01*
X2669614Y559024D01*
X2666756Y556166D01*
X2663021Y554619D01*
X2658979Y554619D01*
G37*
%LPD*%
%LPC*%
G36*
X2233684Y939291D02*
X2233684Y939291D01*
X2230883Y940451D01*
X2228739Y942595D01*
X2227579Y945396D01*
X2227579Y948428D01*
X2228739Y951229D01*
X2230883Y953373D01*
X2233684Y954533D01*
X2236716Y954533D01*
X2239517Y953373D01*
X2241436Y951454D01*
X2241510Y951401D01*
X2241579Y951341D01*
X2241609Y951329D01*
X2241635Y951310D01*
X2241722Y951283D01*
X2241807Y951249D01*
X2241848Y951245D01*
X2241870Y951238D01*
X2241903Y951239D01*
X2241974Y951231D01*
X2621103Y951231D01*
X2621217Y951250D01*
X2621334Y951267D01*
X2621339Y951269D01*
X2621345Y951270D01*
X2621448Y951325D01*
X2621553Y951378D01*
X2621557Y951383D01*
X2621563Y951386D01*
X2621643Y951470D01*
X2621725Y951554D01*
X2621729Y951560D01*
X2621732Y951564D01*
X2621740Y951581D01*
X2621806Y951701D01*
X2622820Y954150D01*
X2624964Y956294D01*
X2627765Y957454D01*
X2630797Y957454D01*
X2633598Y956294D01*
X2635742Y954150D01*
X2636902Y951349D01*
X2636902Y948317D01*
X2635742Y945516D01*
X2633598Y943372D01*
X2630797Y942212D01*
X2627765Y942212D01*
X2626985Y942535D01*
X2626921Y942550D01*
X2626861Y942575D01*
X2626778Y942584D01*
X2626746Y942591D01*
X2626726Y942590D01*
X2626694Y942593D01*
X2241974Y942593D01*
X2241884Y942579D01*
X2241793Y942571D01*
X2241763Y942559D01*
X2241731Y942554D01*
X2241650Y942511D01*
X2241567Y942475D01*
X2241534Y942449D01*
X2241514Y942438D01*
X2241492Y942415D01*
X2241436Y942370D01*
X2239517Y940451D01*
X2236716Y939291D01*
X2233684Y939291D01*
G37*
%LPD*%
%LPC*%
G36*
X1922724Y1361469D02*
X1922724Y1361469D01*
X1909520Y1374673D01*
X1909520Y1393347D01*
X1922724Y1406551D01*
X1941398Y1406551D01*
X1954602Y1393347D01*
X1954602Y1374673D01*
X1941398Y1361469D01*
X1922724Y1361469D01*
G37*
%LPD*%
%LPC*%
G36*
X2429077Y1313031D02*
X2429077Y1313031D01*
X2425342Y1314578D01*
X2422484Y1317436D01*
X2422399Y1317641D01*
X2422338Y1317740D01*
X2422278Y1317841D01*
X2422273Y1317845D01*
X2422270Y1317850D01*
X2422180Y1317925D01*
X2422091Y1318001D01*
X2422085Y1318003D01*
X2422080Y1318007D01*
X2421972Y1318049D01*
X2421863Y1318093D01*
X2421855Y1318094D01*
X2421851Y1318095D01*
X2421832Y1318096D01*
X2421696Y1318111D01*
X2337606Y1318111D01*
X2337516Y1318097D01*
X2337425Y1318089D01*
X2337396Y1318077D01*
X2337364Y1318072D01*
X2337283Y1318029D01*
X2337199Y1317993D01*
X2337167Y1317967D01*
X2337146Y1317956D01*
X2337124Y1317933D01*
X2337068Y1317888D01*
X2335064Y1315884D01*
X2332263Y1314724D01*
X2329231Y1314724D01*
X2326430Y1315884D01*
X2324286Y1318028D01*
X2323126Y1320829D01*
X2323126Y1323860D01*
X2324286Y1326661D01*
X2326430Y1328805D01*
X2329231Y1329965D01*
X2332263Y1329965D01*
X2335064Y1328805D01*
X2335373Y1328496D01*
X2335447Y1328443D01*
X2335516Y1328383D01*
X2335547Y1328371D01*
X2335573Y1328352D01*
X2335660Y1328325D01*
X2335745Y1328291D01*
X2335786Y1328287D01*
X2335808Y1328280D01*
X2335840Y1328281D01*
X2335911Y1328273D01*
X2421696Y1328273D01*
X2421811Y1328292D01*
X2421927Y1328309D01*
X2421933Y1328311D01*
X2421939Y1328312D01*
X2422042Y1328367D01*
X2422146Y1328420D01*
X2422151Y1328425D01*
X2422156Y1328428D01*
X2422236Y1328512D01*
X2422318Y1328596D01*
X2422322Y1328602D01*
X2422325Y1328606D01*
X2422333Y1328623D01*
X2422399Y1328743D01*
X2422484Y1328948D01*
X2425342Y1331806D01*
X2429077Y1333353D01*
X2448359Y1333353D01*
X2452094Y1331806D01*
X2454952Y1328948D01*
X2456499Y1325213D01*
X2456499Y1321171D01*
X2454952Y1317436D01*
X2452094Y1314578D01*
X2448359Y1313031D01*
X2429077Y1313031D01*
G37*
%LPD*%
%LPC*%
G36*
X1862780Y1361469D02*
X1862780Y1361469D01*
X1849576Y1374673D01*
X1849576Y1382487D01*
X1860830Y1382487D01*
X1860945Y1382506D01*
X1861061Y1382523D01*
X1861067Y1382526D01*
X1861073Y1382527D01*
X1861176Y1382581D01*
X1861281Y1382634D01*
X1861285Y1382639D01*
X1861290Y1382642D01*
X1861371Y1382726D01*
X1861453Y1382810D01*
X1861456Y1382816D01*
X1861460Y1382820D01*
X1861468Y1382837D01*
X1861534Y1382957D01*
X1861697Y1383352D01*
X1861817Y1383472D01*
X1861829Y1383488D01*
X1861844Y1383500D01*
X1861900Y1383587D01*
X1861961Y1383671D01*
X1861966Y1383690D01*
X1861977Y1383707D01*
X1862002Y1383808D01*
X1862033Y1383906D01*
X1862032Y1383926D01*
X1862037Y1383946D01*
X1862029Y1384049D01*
X1862027Y1384152D01*
X1862020Y1384171D01*
X1862018Y1384191D01*
X1861978Y1384286D01*
X1861942Y1384383D01*
X1861930Y1384399D01*
X1861922Y1384417D01*
X1861817Y1384548D01*
X1861697Y1384668D01*
X1861534Y1385063D01*
X1861472Y1385163D01*
X1861412Y1385263D01*
X1861407Y1385267D01*
X1861404Y1385272D01*
X1861314Y1385347D01*
X1861225Y1385423D01*
X1861219Y1385425D01*
X1861215Y1385429D01*
X1861106Y1385471D01*
X1860997Y1385515D01*
X1860990Y1385516D01*
X1860985Y1385517D01*
X1860967Y1385518D01*
X1860830Y1385533D01*
X1849576Y1385533D01*
X1849576Y1393347D01*
X1862780Y1406551D01*
X1870594Y1406551D01*
X1870594Y1404682D01*
X1870597Y1404662D01*
X1870595Y1404643D01*
X1870617Y1404541D01*
X1870634Y1404439D01*
X1870643Y1404422D01*
X1870647Y1404402D01*
X1870700Y1404313D01*
X1870749Y1404222D01*
X1870763Y1404208D01*
X1870773Y1404191D01*
X1870852Y1404124D01*
X1870927Y1404052D01*
X1870945Y1404044D01*
X1870960Y1404031D01*
X1871056Y1403992D01*
X1871150Y1403949D01*
X1871170Y1403947D01*
X1871188Y1403939D01*
X1871355Y1403921D01*
X1872879Y1403921D01*
X1872899Y1403924D01*
X1872918Y1403922D01*
X1873020Y1403944D01*
X1873122Y1403960D01*
X1873139Y1403970D01*
X1873159Y1403974D01*
X1873248Y1404027D01*
X1873339Y1404076D01*
X1873353Y1404090D01*
X1873370Y1404100D01*
X1873437Y1404179D01*
X1873508Y1404254D01*
X1873517Y1404272D01*
X1873530Y1404287D01*
X1873569Y1404383D01*
X1873612Y1404477D01*
X1873614Y1404497D01*
X1873622Y1404515D01*
X1873640Y1404682D01*
X1873640Y1406551D01*
X1881454Y1406551D01*
X1894658Y1393347D01*
X1894658Y1385533D01*
X1883404Y1385533D01*
X1883289Y1385514D01*
X1883173Y1385497D01*
X1883167Y1385494D01*
X1883161Y1385493D01*
X1883058Y1385439D01*
X1882953Y1385386D01*
X1882949Y1385381D01*
X1882944Y1385378D01*
X1882863Y1385293D01*
X1882781Y1385210D01*
X1882778Y1385204D01*
X1882774Y1385200D01*
X1882766Y1385183D01*
X1882700Y1385063D01*
X1882537Y1384668D01*
X1882417Y1384548D01*
X1882405Y1384532D01*
X1882390Y1384520D01*
X1882334Y1384432D01*
X1882273Y1384349D01*
X1882268Y1384329D01*
X1882257Y1384313D01*
X1882232Y1384212D01*
X1882201Y1384113D01*
X1882202Y1384093D01*
X1882197Y1384074D01*
X1882205Y1383971D01*
X1882207Y1383868D01*
X1882214Y1383849D01*
X1882216Y1383829D01*
X1882256Y1383734D01*
X1882292Y1383637D01*
X1882304Y1383621D01*
X1882312Y1383603D01*
X1882417Y1383472D01*
X1882537Y1383352D01*
X1882700Y1382957D01*
X1882762Y1382858D01*
X1882822Y1382757D01*
X1882827Y1382753D01*
X1882830Y1382748D01*
X1882919Y1382674D01*
X1883009Y1382597D01*
X1883015Y1382595D01*
X1883019Y1382591D01*
X1883127Y1382549D01*
X1883237Y1382505D01*
X1883244Y1382504D01*
X1883249Y1382503D01*
X1883267Y1382502D01*
X1883404Y1382487D01*
X1894658Y1382487D01*
X1894658Y1374673D01*
X1881454Y1361469D01*
X1873640Y1361469D01*
X1873640Y1363338D01*
X1873637Y1363358D01*
X1873639Y1363377D01*
X1873617Y1363479D01*
X1873600Y1363581D01*
X1873591Y1363598D01*
X1873587Y1363618D01*
X1873534Y1363707D01*
X1873485Y1363798D01*
X1873471Y1363812D01*
X1873461Y1363829D01*
X1873382Y1363896D01*
X1873307Y1363968D01*
X1873289Y1363976D01*
X1873274Y1363989D01*
X1873178Y1364028D01*
X1873084Y1364071D01*
X1873064Y1364073D01*
X1873046Y1364081D01*
X1872879Y1364099D01*
X1871355Y1364099D01*
X1871335Y1364096D01*
X1871316Y1364098D01*
X1871214Y1364076D01*
X1871112Y1364060D01*
X1871095Y1364050D01*
X1871075Y1364046D01*
X1870986Y1363993D01*
X1870895Y1363944D01*
X1870881Y1363930D01*
X1870864Y1363920D01*
X1870797Y1363841D01*
X1870726Y1363766D01*
X1870717Y1363748D01*
X1870704Y1363733D01*
X1870665Y1363637D01*
X1870622Y1363543D01*
X1870620Y1363523D01*
X1870612Y1363505D01*
X1870594Y1363338D01*
X1870594Y1361469D01*
X1862780Y1361469D01*
G37*
%LPD*%
%LPC*%
G36*
X1892752Y1311431D02*
X1892752Y1311431D01*
X1879548Y1324635D01*
X1879548Y1332449D01*
X1881417Y1332449D01*
X1881437Y1332452D01*
X1881456Y1332450D01*
X1881558Y1332472D01*
X1881660Y1332489D01*
X1881677Y1332498D01*
X1881697Y1332502D01*
X1881786Y1332555D01*
X1881877Y1332604D01*
X1881891Y1332618D01*
X1881908Y1332628D01*
X1881975Y1332707D01*
X1882047Y1332782D01*
X1882055Y1332800D01*
X1882068Y1332815D01*
X1882107Y1332911D01*
X1882150Y1333005D01*
X1882152Y1333025D01*
X1882160Y1333043D01*
X1882178Y1333210D01*
X1882178Y1334734D01*
X1882175Y1334754D01*
X1882177Y1334773D01*
X1882155Y1334875D01*
X1882139Y1334977D01*
X1882129Y1334994D01*
X1882125Y1335014D01*
X1882072Y1335103D01*
X1882023Y1335194D01*
X1882009Y1335208D01*
X1881999Y1335225D01*
X1881920Y1335292D01*
X1881845Y1335363D01*
X1881827Y1335372D01*
X1881812Y1335385D01*
X1881716Y1335424D01*
X1881622Y1335467D01*
X1881602Y1335469D01*
X1881584Y1335477D01*
X1881417Y1335495D01*
X1879548Y1335495D01*
X1879548Y1343309D01*
X1892752Y1356513D01*
X1900566Y1356513D01*
X1900566Y1345259D01*
X1900585Y1345144D01*
X1900602Y1345028D01*
X1900605Y1345022D01*
X1900606Y1345016D01*
X1900660Y1344913D01*
X1900713Y1344808D01*
X1900718Y1344804D01*
X1900721Y1344799D01*
X1900805Y1344718D01*
X1900889Y1344636D01*
X1900895Y1344633D01*
X1900899Y1344629D01*
X1900916Y1344621D01*
X1901036Y1344555D01*
X1901431Y1344392D01*
X1901551Y1344272D01*
X1901567Y1344260D01*
X1901579Y1344245D01*
X1901667Y1344189D01*
X1901750Y1344128D01*
X1901770Y1344123D01*
X1901786Y1344112D01*
X1901887Y1344087D01*
X1901986Y1344056D01*
X1902006Y1344057D01*
X1902025Y1344052D01*
X1902128Y1344060D01*
X1902231Y1344062D01*
X1902250Y1344069D01*
X1902270Y1344071D01*
X1902365Y1344111D01*
X1902462Y1344147D01*
X1902478Y1344159D01*
X1902496Y1344167D01*
X1902627Y1344272D01*
X1902747Y1344392D01*
X1903142Y1344555D01*
X1903242Y1344617D01*
X1903342Y1344677D01*
X1903346Y1344682D01*
X1903351Y1344685D01*
X1903426Y1344775D01*
X1903502Y1344864D01*
X1903504Y1344870D01*
X1903508Y1344874D01*
X1903550Y1344983D01*
X1903594Y1345092D01*
X1903595Y1345099D01*
X1903596Y1345104D01*
X1903597Y1345122D01*
X1903612Y1345259D01*
X1903612Y1356513D01*
X1911426Y1356513D01*
X1924630Y1343309D01*
X1924630Y1335495D01*
X1922761Y1335495D01*
X1922741Y1335492D01*
X1922722Y1335494D01*
X1922620Y1335472D01*
X1922518Y1335455D01*
X1922501Y1335446D01*
X1922481Y1335442D01*
X1922392Y1335389D01*
X1922301Y1335340D01*
X1922287Y1335326D01*
X1922270Y1335316D01*
X1922203Y1335237D01*
X1922131Y1335162D01*
X1922123Y1335144D01*
X1922110Y1335129D01*
X1922071Y1335033D01*
X1922028Y1334939D01*
X1922026Y1334919D01*
X1922018Y1334901D01*
X1922000Y1334734D01*
X1922000Y1333210D01*
X1922003Y1333190D01*
X1922001Y1333171D01*
X1922023Y1333069D01*
X1922039Y1332967D01*
X1922049Y1332950D01*
X1922053Y1332930D01*
X1922106Y1332841D01*
X1922155Y1332750D01*
X1922169Y1332736D01*
X1922179Y1332719D01*
X1922258Y1332652D01*
X1922333Y1332581D01*
X1922351Y1332572D01*
X1922366Y1332559D01*
X1922462Y1332520D01*
X1922556Y1332477D01*
X1922576Y1332475D01*
X1922594Y1332467D01*
X1922761Y1332449D01*
X1924630Y1332449D01*
X1924630Y1324635D01*
X1911426Y1311431D01*
X1903612Y1311431D01*
X1903612Y1322685D01*
X1903593Y1322800D01*
X1903576Y1322916D01*
X1903573Y1322922D01*
X1903572Y1322928D01*
X1903518Y1323031D01*
X1903465Y1323136D01*
X1903460Y1323140D01*
X1903457Y1323145D01*
X1903372Y1323226D01*
X1903289Y1323308D01*
X1903283Y1323311D01*
X1903279Y1323315D01*
X1903262Y1323323D01*
X1903142Y1323389D01*
X1902747Y1323552D01*
X1902627Y1323672D01*
X1902611Y1323684D01*
X1902599Y1323699D01*
X1902512Y1323755D01*
X1902428Y1323816D01*
X1902409Y1323821D01*
X1902392Y1323832D01*
X1902291Y1323857D01*
X1902193Y1323888D01*
X1902173Y1323887D01*
X1902153Y1323892D01*
X1902050Y1323884D01*
X1901947Y1323882D01*
X1901928Y1323875D01*
X1901908Y1323873D01*
X1901813Y1323833D01*
X1901716Y1323797D01*
X1901700Y1323785D01*
X1901682Y1323777D01*
X1901551Y1323672D01*
X1901431Y1323552D01*
X1901036Y1323389D01*
X1900936Y1323327D01*
X1900836Y1323267D01*
X1900832Y1323262D01*
X1900827Y1323259D01*
X1900752Y1323169D01*
X1900676Y1323080D01*
X1900674Y1323074D01*
X1900670Y1323069D01*
X1900628Y1322961D01*
X1900584Y1322852D01*
X1900583Y1322844D01*
X1900582Y1322840D01*
X1900581Y1322822D01*
X1900566Y1322685D01*
X1900566Y1311431D01*
X1892752Y1311431D01*
G37*
%LPD*%
%LPC*%
G36*
X2344809Y534542D02*
X2344809Y534542D01*
X2342008Y535702D01*
X2339864Y537846D01*
X2338704Y540647D01*
X2338704Y543679D01*
X2339864Y546480D01*
X2342008Y548624D01*
X2344809Y549784D01*
X2347841Y549784D01*
X2350642Y548624D01*
X2351799Y547467D01*
X2351873Y547414D01*
X2351942Y547354D01*
X2351972Y547342D01*
X2351998Y547323D01*
X2352085Y547296D01*
X2352170Y547262D01*
X2352211Y547258D01*
X2352233Y547251D01*
X2352266Y547252D01*
X2352337Y547244D01*
X2388736Y547244D01*
X2388826Y547258D01*
X2388917Y547266D01*
X2388947Y547278D01*
X2388979Y547283D01*
X2389060Y547326D01*
X2389143Y547362D01*
X2389176Y547388D01*
X2389196Y547399D01*
X2389218Y547422D01*
X2389274Y547467D01*
X2399071Y557263D01*
X2399083Y557279D01*
X2399098Y557292D01*
X2399154Y557379D01*
X2399214Y557463D01*
X2399220Y557482D01*
X2399231Y557499D01*
X2399256Y557599D01*
X2399287Y557698D01*
X2399286Y557718D01*
X2399291Y557737D01*
X2399283Y557840D01*
X2399280Y557944D01*
X2399274Y557963D01*
X2399272Y557982D01*
X2399232Y558077D01*
X2399196Y558175D01*
X2399183Y558190D01*
X2399176Y558209D01*
X2399071Y558340D01*
X2398386Y559024D01*
X2396839Y562759D01*
X2396839Y582041D01*
X2398386Y585776D01*
X2401244Y588634D01*
X2404979Y590181D01*
X2409021Y590181D01*
X2412756Y588634D01*
X2415614Y585776D01*
X2417161Y582041D01*
X2417161Y562759D01*
X2415614Y559024D01*
X2412756Y556166D01*
X2412194Y555933D01*
X2412138Y555899D01*
X2412078Y555873D01*
X2412013Y555821D01*
X2411984Y555804D01*
X2411972Y555789D01*
X2411947Y555768D01*
X2393261Y537082D01*
X2352337Y537082D01*
X2352247Y537068D01*
X2352156Y537060D01*
X2352126Y537048D01*
X2352094Y537043D01*
X2352013Y537000D01*
X2351930Y536964D01*
X2351897Y536938D01*
X2351877Y536927D01*
X2351855Y536904D01*
X2351799Y536859D01*
X2350642Y535702D01*
X2347841Y534542D01*
X2344809Y534542D01*
G37*
%LPD*%
%LPC*%
G36*
X2091296Y1557279D02*
X2091296Y1557279D01*
X2084452Y1560114D01*
X2079214Y1565352D01*
X2076379Y1572196D01*
X2076379Y1579604D01*
X2079214Y1586448D01*
X2084452Y1591686D01*
X2091296Y1594521D01*
X2098704Y1594521D01*
X2105548Y1591686D01*
X2110786Y1586448D01*
X2113621Y1579604D01*
X2113621Y1572196D01*
X2110786Y1565352D01*
X2105548Y1560114D01*
X2098704Y1557279D01*
X2091296Y1557279D01*
G37*
%LPD*%
%LPC*%
G36*
X2162976Y1517877D02*
X2162976Y1517877D01*
X2156577Y1524276D01*
X2156577Y1533324D01*
X2161515Y1538262D01*
X2161526Y1538278D01*
X2161542Y1538290D01*
X2161598Y1538378D01*
X2161658Y1538461D01*
X2161664Y1538480D01*
X2161675Y1538497D01*
X2161700Y1538598D01*
X2161731Y1538697D01*
X2161730Y1538716D01*
X2161735Y1538736D01*
X2161727Y1538839D01*
X2161724Y1538942D01*
X2161717Y1538961D01*
X2161716Y1538981D01*
X2161675Y1539076D01*
X2161640Y1539173D01*
X2161627Y1539189D01*
X2161619Y1539207D01*
X2161515Y1539338D01*
X2156577Y1544276D01*
X2156577Y1553324D01*
X2162976Y1559723D01*
X2172024Y1559723D01*
X2178423Y1553324D01*
X2178423Y1544276D01*
X2173485Y1539338D01*
X2173474Y1539322D01*
X2173458Y1539310D01*
X2173402Y1539222D01*
X2173342Y1539139D01*
X2173336Y1539120D01*
X2173325Y1539103D01*
X2173300Y1539002D01*
X2173269Y1538903D01*
X2173270Y1538884D01*
X2173265Y1538864D01*
X2173273Y1538761D01*
X2173276Y1538658D01*
X2173283Y1538639D01*
X2173284Y1538619D01*
X2173325Y1538524D01*
X2173360Y1538427D01*
X2173373Y1538411D01*
X2173381Y1538393D01*
X2173485Y1538262D01*
X2178423Y1533324D01*
X2178423Y1524276D01*
X2172024Y1517877D01*
X2162976Y1517877D01*
G37*
%LPD*%
%LPC*%
G36*
X2429077Y1262231D02*
X2429077Y1262231D01*
X2425342Y1263778D01*
X2422484Y1266636D01*
X2420937Y1270371D01*
X2420937Y1274413D01*
X2422484Y1278148D01*
X2425342Y1281006D01*
X2429077Y1282553D01*
X2448359Y1282553D01*
X2452094Y1281006D01*
X2454952Y1278148D01*
X2456499Y1274413D01*
X2456499Y1270371D01*
X2454952Y1266636D01*
X2452094Y1263778D01*
X2448359Y1262231D01*
X2429077Y1262231D01*
G37*
%LPD*%
%LPC*%
G36*
X2614119Y1107870D02*
X2614119Y1107870D01*
X2610384Y1109417D01*
X2607526Y1112275D01*
X2605979Y1116010D01*
X2605979Y1135292D01*
X2607526Y1139027D01*
X2610384Y1141885D01*
X2614119Y1143432D01*
X2618161Y1143432D01*
X2621896Y1141885D01*
X2624754Y1139027D01*
X2626301Y1135292D01*
X2626301Y1116010D01*
X2624754Y1112275D01*
X2621896Y1109417D01*
X2618161Y1107870D01*
X2614119Y1107870D01*
G37*
%LPD*%
%LPC*%
G36*
X2296619Y1107870D02*
X2296619Y1107870D01*
X2292884Y1109417D01*
X2290026Y1112275D01*
X2288479Y1116010D01*
X2288479Y1135292D01*
X2290026Y1139027D01*
X2292884Y1141885D01*
X2296619Y1143432D01*
X2300661Y1143432D01*
X2304396Y1141885D01*
X2307254Y1139027D01*
X2308801Y1135292D01*
X2308801Y1116010D01*
X2307254Y1112275D01*
X2304396Y1109417D01*
X2300661Y1107870D01*
X2296619Y1107870D01*
G37*
%LPD*%
%LPC*%
G36*
X2271219Y1107870D02*
X2271219Y1107870D01*
X2267484Y1109417D01*
X2264626Y1112275D01*
X2263079Y1116010D01*
X2263079Y1135292D01*
X2264626Y1139027D01*
X2267484Y1141885D01*
X2271219Y1143432D01*
X2275261Y1143432D01*
X2278996Y1141885D01*
X2281854Y1139027D01*
X2283401Y1135292D01*
X2283401Y1116010D01*
X2281854Y1112275D01*
X2278996Y1109417D01*
X2275261Y1107870D01*
X2271219Y1107870D01*
G37*
%LPD*%
%LPC*%
G36*
X2715719Y1107870D02*
X2715719Y1107870D01*
X2711984Y1109417D01*
X2709126Y1112275D01*
X2707579Y1116010D01*
X2707579Y1135292D01*
X2709126Y1139027D01*
X2711984Y1141885D01*
X2715719Y1143432D01*
X2719761Y1143432D01*
X2723496Y1141885D01*
X2726354Y1139027D01*
X2727901Y1135292D01*
X2727901Y1116010D01*
X2726354Y1112275D01*
X2723496Y1109417D01*
X2719761Y1107870D01*
X2715719Y1107870D01*
G37*
%LPD*%
%LPC*%
G36*
X2690319Y1107870D02*
X2690319Y1107870D01*
X2686584Y1109417D01*
X2683726Y1112275D01*
X2682179Y1116010D01*
X2682179Y1135292D01*
X2683726Y1139027D01*
X2686584Y1141885D01*
X2690319Y1143432D01*
X2694361Y1143432D01*
X2698096Y1141885D01*
X2700954Y1139027D01*
X2702501Y1135292D01*
X2702501Y1116010D01*
X2700954Y1112275D01*
X2698096Y1109417D01*
X2694361Y1107870D01*
X2690319Y1107870D01*
G37*
%LPD*%
%LPC*%
G36*
X2639519Y1107870D02*
X2639519Y1107870D01*
X2635784Y1109417D01*
X2632926Y1112275D01*
X2631379Y1116010D01*
X2631379Y1135292D01*
X2632926Y1139027D01*
X2635784Y1141885D01*
X2639519Y1143432D01*
X2643561Y1143432D01*
X2647296Y1141885D01*
X2650154Y1139027D01*
X2651701Y1135292D01*
X2651701Y1116010D01*
X2650154Y1112275D01*
X2647296Y1109417D01*
X2643561Y1107870D01*
X2639519Y1107870D01*
G37*
%LPD*%
%LPC*%
G36*
X2664919Y1107870D02*
X2664919Y1107870D01*
X2661184Y1109417D01*
X2658326Y1112275D01*
X2656779Y1116010D01*
X2656779Y1135292D01*
X2658326Y1139027D01*
X2661184Y1141885D01*
X2664919Y1143432D01*
X2668961Y1143432D01*
X2672696Y1141885D01*
X2675554Y1139027D01*
X2677101Y1135292D01*
X2677101Y1116010D01*
X2675554Y1112275D01*
X2672696Y1109417D01*
X2668961Y1107870D01*
X2664919Y1107870D01*
G37*
%LPD*%
%LPC*%
G36*
X2398219Y1107870D02*
X2398219Y1107870D01*
X2394484Y1109417D01*
X2391626Y1112275D01*
X2390079Y1116010D01*
X2390079Y1135292D01*
X2391626Y1139027D01*
X2394484Y1141885D01*
X2398219Y1143432D01*
X2402261Y1143432D01*
X2405996Y1141885D01*
X2408854Y1139027D01*
X2410401Y1135292D01*
X2410401Y1116010D01*
X2408854Y1112275D01*
X2405996Y1109417D01*
X2402261Y1107870D01*
X2398219Y1107870D01*
G37*
%LPD*%
%LPC*%
G36*
X2563319Y1107870D02*
X2563319Y1107870D01*
X2559584Y1109417D01*
X2556726Y1112275D01*
X2555179Y1116010D01*
X2555179Y1135292D01*
X2556726Y1139027D01*
X2559584Y1141885D01*
X2563319Y1143432D01*
X2567361Y1143432D01*
X2571096Y1141885D01*
X2573954Y1139027D01*
X2575501Y1135292D01*
X2575501Y1116010D01*
X2573954Y1112275D01*
X2571096Y1109417D01*
X2567361Y1107870D01*
X2563319Y1107870D01*
G37*
%LPD*%
%LPC*%
G36*
X2588719Y1107870D02*
X2588719Y1107870D01*
X2584984Y1109417D01*
X2582126Y1112275D01*
X2580579Y1116010D01*
X2580579Y1135292D01*
X2582126Y1139027D01*
X2584984Y1141885D01*
X2588719Y1143432D01*
X2592761Y1143432D01*
X2596496Y1141885D01*
X2599354Y1139027D01*
X2600901Y1135292D01*
X2600901Y1116010D01*
X2599354Y1112275D01*
X2596496Y1109417D01*
X2592761Y1107870D01*
X2588719Y1107870D01*
G37*
%LPD*%
%LPC*%
G36*
X2537919Y1107870D02*
X2537919Y1107870D01*
X2534184Y1109417D01*
X2531326Y1112275D01*
X2529779Y1116010D01*
X2529779Y1135292D01*
X2531326Y1139027D01*
X2534184Y1141885D01*
X2537919Y1143432D01*
X2541961Y1143432D01*
X2545696Y1141885D01*
X2548554Y1139027D01*
X2550101Y1135292D01*
X2550101Y1116010D01*
X2548554Y1112275D01*
X2545696Y1109417D01*
X2541961Y1107870D01*
X2537919Y1107870D01*
G37*
%LPD*%
%LPC*%
G36*
X2429077Y1338431D02*
X2429077Y1338431D01*
X2425342Y1339978D01*
X2422484Y1342836D01*
X2420937Y1346571D01*
X2420937Y1350613D01*
X2422484Y1354348D01*
X2425342Y1357206D01*
X2429077Y1358753D01*
X2448359Y1358753D01*
X2452094Y1357206D01*
X2454952Y1354348D01*
X2456499Y1350613D01*
X2456499Y1346571D01*
X2454952Y1342836D01*
X2452094Y1339978D01*
X2448359Y1338431D01*
X2429077Y1338431D01*
G37*
%LPD*%
%LPC*%
G36*
X2582779Y554619D02*
X2582779Y554619D01*
X2579044Y556166D01*
X2576186Y559024D01*
X2574639Y562759D01*
X2574639Y582041D01*
X2576186Y585776D01*
X2579044Y588634D01*
X2582779Y590181D01*
X2586821Y590181D01*
X2590556Y588634D01*
X2593414Y585776D01*
X2594961Y582041D01*
X2594961Y562759D01*
X2593414Y559024D01*
X2590556Y556166D01*
X2586821Y554619D01*
X2582779Y554619D01*
G37*
%LPD*%
%LPC*%
G36*
X2303379Y554619D02*
X2303379Y554619D01*
X2299644Y556166D01*
X2296786Y559024D01*
X2295239Y562759D01*
X2295239Y582041D01*
X2296786Y585776D01*
X2299644Y588634D01*
X2303379Y590181D01*
X2307421Y590181D01*
X2311156Y588634D01*
X2314014Y585776D01*
X2315561Y582041D01*
X2315561Y562759D01*
X2314014Y559024D01*
X2311156Y556166D01*
X2307421Y554619D01*
X2303379Y554619D01*
G37*
%LPD*%
%LPC*%
G36*
X2328779Y554619D02*
X2328779Y554619D01*
X2325044Y556166D01*
X2322186Y559024D01*
X2320639Y562759D01*
X2320639Y582041D01*
X2322186Y585776D01*
X2325044Y588634D01*
X2328779Y590181D01*
X2332821Y590181D01*
X2336556Y588634D01*
X2339414Y585776D01*
X2340961Y582041D01*
X2340961Y562759D01*
X2339414Y559024D01*
X2336556Y556166D01*
X2332821Y554619D01*
X2328779Y554619D01*
G37*
%LPD*%
%LPC*%
G36*
X2354179Y554619D02*
X2354179Y554619D01*
X2350444Y556166D01*
X2347586Y559024D01*
X2346039Y562759D01*
X2346039Y582041D01*
X2347586Y585776D01*
X2350444Y588634D01*
X2354179Y590181D01*
X2358221Y590181D01*
X2361956Y588634D01*
X2364814Y585776D01*
X2366361Y582041D01*
X2366361Y562759D01*
X2364814Y559024D01*
X2361956Y556166D01*
X2358221Y554619D01*
X2354179Y554619D01*
G37*
%LPD*%
%LPC*%
G36*
X2379579Y554619D02*
X2379579Y554619D01*
X2375844Y556166D01*
X2372986Y559024D01*
X2371439Y562759D01*
X2371439Y582041D01*
X2372986Y585776D01*
X2375844Y588634D01*
X2379579Y590181D01*
X2383621Y590181D01*
X2387356Y588634D01*
X2390214Y585776D01*
X2391761Y582041D01*
X2391761Y562759D01*
X2390214Y559024D01*
X2387356Y556166D01*
X2383621Y554619D01*
X2379579Y554619D01*
G37*
%LPD*%
%LPC*%
G36*
X2429077Y1287631D02*
X2429077Y1287631D01*
X2425342Y1289178D01*
X2422484Y1292036D01*
X2420937Y1295771D01*
X2420937Y1299813D01*
X2422484Y1303548D01*
X2425342Y1306406D01*
X2429077Y1307953D01*
X2448359Y1307953D01*
X2452094Y1306406D01*
X2454952Y1303548D01*
X2456499Y1299813D01*
X2456499Y1295771D01*
X2454952Y1292036D01*
X2452094Y1289178D01*
X2448359Y1287631D01*
X2429077Y1287631D01*
G37*
%LPD*%
%LPC*%
G36*
X2531979Y554619D02*
X2531979Y554619D01*
X2528244Y556166D01*
X2525386Y559024D01*
X2523839Y562759D01*
X2523839Y582041D01*
X2525386Y585776D01*
X2528244Y588634D01*
X2531979Y590181D01*
X2536021Y590181D01*
X2539756Y588634D01*
X2542614Y585776D01*
X2544161Y582041D01*
X2544161Y562759D01*
X2542614Y559024D01*
X2539756Y556166D01*
X2536021Y554619D01*
X2531979Y554619D01*
G37*
%LPD*%
%LPC*%
G36*
X2557379Y554619D02*
X2557379Y554619D01*
X2553644Y556166D01*
X2550786Y559024D01*
X2549239Y562759D01*
X2549239Y582041D01*
X2550786Y585776D01*
X2553644Y588634D01*
X2557379Y590181D01*
X2561421Y590181D01*
X2565156Y588634D01*
X2568014Y585776D01*
X2569561Y582041D01*
X2569561Y562759D01*
X2568014Y559024D01*
X2565156Y556166D01*
X2561421Y554619D01*
X2557379Y554619D01*
G37*
%LPD*%
%LPC*%
G36*
X2608179Y554619D02*
X2608179Y554619D01*
X2604444Y556166D01*
X2601586Y559024D01*
X2600039Y562759D01*
X2600039Y582041D01*
X2601586Y585776D01*
X2604444Y588634D01*
X2608179Y590181D01*
X2612221Y590181D01*
X2615956Y588634D01*
X2618814Y585776D01*
X2620361Y582041D01*
X2620361Y562759D01*
X2618814Y559024D01*
X2615956Y556166D01*
X2612221Y554619D01*
X2608179Y554619D01*
G37*
%LPD*%
%LPC*%
G36*
X2137976Y1517877D02*
X2137976Y1517877D01*
X2131577Y1524276D01*
X2131577Y1533324D01*
X2136515Y1538262D01*
X2136526Y1538278D01*
X2136542Y1538290D01*
X2136598Y1538378D01*
X2136658Y1538461D01*
X2136664Y1538480D01*
X2136675Y1538497D01*
X2136700Y1538598D01*
X2136731Y1538697D01*
X2136730Y1538716D01*
X2136735Y1538736D01*
X2136727Y1538839D01*
X2136724Y1538942D01*
X2136717Y1538961D01*
X2136716Y1538981D01*
X2136675Y1539076D01*
X2136640Y1539173D01*
X2136627Y1539189D01*
X2136619Y1539207D01*
X2136515Y1539338D01*
X2131577Y1544276D01*
X2131577Y1547277D01*
X2141738Y1547277D01*
X2141758Y1547280D01*
X2141777Y1547278D01*
X2141879Y1547300D01*
X2141981Y1547317D01*
X2141998Y1547326D01*
X2142018Y1547330D01*
X2142107Y1547383D01*
X2142198Y1547432D01*
X2142212Y1547446D01*
X2142229Y1547456D01*
X2142296Y1547535D01*
X2142367Y1547610D01*
X2142376Y1547628D01*
X2142389Y1547643D01*
X2142427Y1547739D01*
X2142471Y1547833D01*
X2142473Y1547853D01*
X2142481Y1547871D01*
X2142499Y1548038D01*
X2142499Y1548801D01*
X2142501Y1548801D01*
X2142501Y1548038D01*
X2142504Y1548018D01*
X2142502Y1547999D01*
X2142524Y1547897D01*
X2142541Y1547795D01*
X2142550Y1547778D01*
X2142554Y1547758D01*
X2142607Y1547669D01*
X2142656Y1547578D01*
X2142670Y1547564D01*
X2142680Y1547547D01*
X2142759Y1547480D01*
X2142834Y1547409D01*
X2142852Y1547400D01*
X2142867Y1547387D01*
X2142963Y1547348D01*
X2143057Y1547305D01*
X2143077Y1547303D01*
X2143095Y1547295D01*
X2143262Y1547277D01*
X2153423Y1547277D01*
X2153423Y1544276D01*
X2148485Y1539338D01*
X2148474Y1539322D01*
X2148458Y1539310D01*
X2148402Y1539222D01*
X2148342Y1539139D01*
X2148336Y1539120D01*
X2148325Y1539103D01*
X2148300Y1539002D01*
X2148269Y1538903D01*
X2148270Y1538884D01*
X2148265Y1538864D01*
X2148273Y1538761D01*
X2148276Y1538658D01*
X2148283Y1538639D01*
X2148284Y1538619D01*
X2148325Y1538524D01*
X2148360Y1538427D01*
X2148373Y1538411D01*
X2148381Y1538393D01*
X2148485Y1538262D01*
X2153423Y1533324D01*
X2153423Y1524276D01*
X2147024Y1517877D01*
X2137976Y1517877D01*
G37*
%LPD*%
%LPC*%
G36*
X2321739Y1227271D02*
X2321739Y1227271D01*
X2320250Y1228760D01*
X2320250Y1240864D01*
X2321739Y1242353D01*
X2323211Y1242353D01*
X2323231Y1242356D01*
X2323250Y1242354D01*
X2323352Y1242376D01*
X2323454Y1242392D01*
X2323471Y1242402D01*
X2323491Y1242406D01*
X2323580Y1242459D01*
X2323671Y1242508D01*
X2323685Y1242522D01*
X2323702Y1242532D01*
X2323769Y1242611D01*
X2323841Y1242686D01*
X2323849Y1242704D01*
X2323862Y1242719D01*
X2323901Y1242815D01*
X2323944Y1242909D01*
X2323946Y1242929D01*
X2323954Y1242947D01*
X2323972Y1243114D01*
X2323972Y1246643D01*
X2324892Y1247563D01*
X2324945Y1247637D01*
X2325005Y1247706D01*
X2325017Y1247736D01*
X2325036Y1247763D01*
X2325063Y1247850D01*
X2325097Y1247934D01*
X2325101Y1247975D01*
X2325108Y1247998D01*
X2325107Y1248030D01*
X2325115Y1248101D01*
X2325115Y1250815D01*
X2326275Y1253616D01*
X2328419Y1255760D01*
X2331220Y1256920D01*
X2334252Y1256920D01*
X2337053Y1255760D01*
X2339197Y1253616D01*
X2340357Y1250815D01*
X2340357Y1247783D01*
X2339197Y1244982D01*
X2337053Y1242838D01*
X2336200Y1242485D01*
X2336161Y1242461D01*
X2336117Y1242445D01*
X2336057Y1242397D01*
X2335991Y1242355D01*
X2335961Y1242320D01*
X2335925Y1242291D01*
X2335883Y1242226D01*
X2335834Y1242166D01*
X2335817Y1242123D01*
X2335792Y1242084D01*
X2335773Y1242009D01*
X2335746Y1241936D01*
X2335744Y1241891D01*
X2335732Y1241846D01*
X2335738Y1241768D01*
X2335735Y1241691D01*
X2335748Y1241646D01*
X2335752Y1241601D01*
X2335782Y1241529D01*
X2335804Y1241454D01*
X2335830Y1241417D01*
X2335848Y1241374D01*
X2335933Y1241268D01*
X2335944Y1241252D01*
X2335948Y1241249D01*
X2335953Y1241243D01*
X2336332Y1240864D01*
X2336332Y1228760D01*
X2334843Y1227271D01*
X2321739Y1227271D01*
G37*
%LPD*%
%LPC*%
G36*
X2289354Y1227525D02*
X2289354Y1227525D01*
X2287865Y1229014D01*
X2287865Y1241118D01*
X2289354Y1242607D01*
X2290361Y1242607D01*
X2290432Y1242618D01*
X2290504Y1242620D01*
X2290552Y1242638D01*
X2290604Y1242646D01*
X2290667Y1242680D01*
X2290735Y1242705D01*
X2290775Y1242737D01*
X2290821Y1242762D01*
X2290871Y1242814D01*
X2290927Y1242858D01*
X2290955Y1242902D01*
X2290991Y1242940D01*
X2291021Y1243005D01*
X2291060Y1243065D01*
X2291072Y1243116D01*
X2291094Y1243163D01*
X2291102Y1243234D01*
X2291120Y1243304D01*
X2291116Y1243356D01*
X2291121Y1243407D01*
X2291106Y1243478D01*
X2291101Y1243549D01*
X2291080Y1243597D01*
X2291069Y1243648D01*
X2291032Y1243709D01*
X2291004Y1243775D01*
X2290959Y1243831D01*
X2290943Y1243859D01*
X2290925Y1243874D01*
X2290899Y1243906D01*
X2290842Y1243963D01*
X2289682Y1246764D01*
X2289682Y1249796D01*
X2290842Y1252597D01*
X2292986Y1254741D01*
X2295787Y1255901D01*
X2298819Y1255901D01*
X2301620Y1254741D01*
X2303764Y1252597D01*
X2304924Y1249796D01*
X2304924Y1246764D01*
X2303764Y1243963D01*
X2302971Y1243171D01*
X2302959Y1243155D01*
X2302944Y1243142D01*
X2302888Y1243055D01*
X2302827Y1242971D01*
X2302822Y1242952D01*
X2302811Y1242935D01*
X2302785Y1242834D01*
X2302755Y1242736D01*
X2302756Y1242716D01*
X2302751Y1242697D01*
X2302759Y1242594D01*
X2302761Y1242490D01*
X2302768Y1242471D01*
X2302770Y1242451D01*
X2302810Y1242357D01*
X2302846Y1242259D01*
X2302858Y1242243D01*
X2302866Y1242225D01*
X2302971Y1242094D01*
X2303947Y1241118D01*
X2303947Y1229014D01*
X2302458Y1227525D01*
X2289354Y1227525D01*
G37*
%LPD*%
%LPC*%
G36*
X2593140Y1225060D02*
X2593140Y1225060D01*
X2587112Y1231088D01*
X2587112Y1239614D01*
X2593140Y1245642D01*
X2601666Y1245642D01*
X2607694Y1239614D01*
X2607694Y1231088D01*
X2601666Y1225060D01*
X2593140Y1225060D01*
G37*
%LPD*%
%LPC*%
G36*
X2542340Y1225060D02*
X2542340Y1225060D01*
X2536312Y1231088D01*
X2536312Y1239614D01*
X2542340Y1245642D01*
X2550866Y1245642D01*
X2556894Y1239614D01*
X2556894Y1231088D01*
X2550866Y1225060D01*
X2542340Y1225060D01*
G37*
%LPD*%
%LPC*%
G36*
X2542340Y1250460D02*
X2542340Y1250460D01*
X2536312Y1256488D01*
X2536312Y1265014D01*
X2542340Y1271042D01*
X2550866Y1271042D01*
X2556894Y1265014D01*
X2556894Y1256488D01*
X2550866Y1250460D01*
X2542340Y1250460D01*
G37*
%LPD*%
%LPC*%
G36*
X2350963Y1127174D02*
X2350963Y1127174D01*
X2350963Y1143317D01*
X2351819Y1143182D01*
X2353340Y1142687D01*
X2354765Y1141961D01*
X2356059Y1141021D01*
X2357190Y1139890D01*
X2358130Y1138596D01*
X2358856Y1137171D01*
X2359351Y1135650D01*
X2359601Y1134071D01*
X2359601Y1127174D01*
X2350963Y1127174D01*
G37*
%LPD*%
%LPC*%
G36*
X2433923Y573923D02*
X2433923Y573923D01*
X2433923Y590066D01*
X2434779Y589931D01*
X2436300Y589436D01*
X2437725Y588710D01*
X2439019Y587770D01*
X2440150Y586639D01*
X2441090Y585345D01*
X2441816Y583920D01*
X2442311Y582399D01*
X2442561Y580820D01*
X2442561Y573923D01*
X2433923Y573923D01*
G37*
%LPD*%
%LPC*%
G36*
X2459323Y573923D02*
X2459323Y573923D01*
X2459323Y590066D01*
X2460179Y589931D01*
X2461700Y589436D01*
X2463125Y588710D01*
X2464419Y587770D01*
X2465550Y586639D01*
X2466490Y585345D01*
X2467216Y583920D01*
X2467711Y582399D01*
X2467961Y580820D01*
X2467961Y573923D01*
X2459323Y573923D01*
G37*
%LPD*%
%LPC*%
G36*
X2350963Y1124128D02*
X2350963Y1124128D01*
X2359601Y1124128D01*
X2359601Y1117231D01*
X2359351Y1115652D01*
X2358856Y1114131D01*
X2358130Y1112706D01*
X2357190Y1111412D01*
X2356059Y1110281D01*
X2354765Y1109341D01*
X2353340Y1108615D01*
X2351819Y1108120D01*
X2350963Y1107985D01*
X2350963Y1124128D01*
G37*
%LPD*%
%LPC*%
G36*
X2459323Y570877D02*
X2459323Y570877D01*
X2467961Y570877D01*
X2467961Y563980D01*
X2467711Y562401D01*
X2467216Y560880D01*
X2466490Y559455D01*
X2465550Y558161D01*
X2464419Y557030D01*
X2463125Y556090D01*
X2461700Y555364D01*
X2460179Y554869D01*
X2459323Y554734D01*
X2459323Y570877D01*
G37*
%LPD*%
%LPC*%
G36*
X2433923Y570877D02*
X2433923Y570877D01*
X2442561Y570877D01*
X2442561Y563980D01*
X2442311Y562401D01*
X2441816Y560880D01*
X2441090Y559455D01*
X2440150Y558161D01*
X2439019Y557030D01*
X2437725Y556090D01*
X2436300Y555364D01*
X2434779Y554869D01*
X2433923Y554734D01*
X2433923Y570877D01*
G37*
%LPD*%
%LPC*%
G36*
X2339279Y1127174D02*
X2339279Y1127174D01*
X2339279Y1134071D01*
X2339529Y1135650D01*
X2340024Y1137171D01*
X2340750Y1138596D01*
X2341690Y1139890D01*
X2342821Y1141021D01*
X2344115Y1141961D01*
X2345540Y1142687D01*
X2347061Y1143182D01*
X2347917Y1143317D01*
X2347917Y1127174D01*
X2339279Y1127174D01*
G37*
%LPD*%
%LPC*%
G36*
X2447639Y573923D02*
X2447639Y573923D01*
X2447639Y580820D01*
X2447889Y582399D01*
X2448384Y583920D01*
X2449110Y585345D01*
X2450050Y586639D01*
X2451181Y587770D01*
X2452475Y588710D01*
X2453900Y589436D01*
X2455421Y589931D01*
X2456277Y590066D01*
X2456277Y573923D01*
X2447639Y573923D01*
G37*
%LPD*%
%LPC*%
G36*
X2422239Y573923D02*
X2422239Y573923D01*
X2422239Y580820D01*
X2422489Y582399D01*
X2422984Y583920D01*
X2423710Y585345D01*
X2424650Y586639D01*
X2425781Y587770D01*
X2427075Y588710D01*
X2428500Y589436D01*
X2430021Y589931D01*
X2430877Y590066D01*
X2430877Y573923D01*
X2422239Y573923D01*
G37*
%LPD*%
%LPC*%
G36*
X2347061Y1108120D02*
X2347061Y1108120D01*
X2345540Y1108615D01*
X2344115Y1109341D01*
X2342821Y1110281D01*
X2341690Y1111412D01*
X2340750Y1112706D01*
X2340024Y1114131D01*
X2339529Y1115652D01*
X2339279Y1117231D01*
X2339279Y1124128D01*
X2347917Y1124128D01*
X2347917Y1107985D01*
X2347061Y1108120D01*
G37*
%LPD*%
%LPC*%
G36*
X2455421Y554869D02*
X2455421Y554869D01*
X2453900Y555364D01*
X2452475Y556090D01*
X2451181Y557030D01*
X2450050Y558161D01*
X2449110Y559455D01*
X2448384Y560880D01*
X2447889Y562401D01*
X2447639Y563980D01*
X2447639Y570877D01*
X2456277Y570877D01*
X2456277Y554734D01*
X2455421Y554869D01*
G37*
%LPD*%
%LPC*%
G36*
X2430021Y554869D02*
X2430021Y554869D01*
X2428500Y555364D01*
X2427075Y556090D01*
X2425781Y557030D01*
X2424650Y558161D01*
X2423710Y559455D01*
X2422984Y560880D01*
X2422489Y562401D01*
X2422239Y563980D01*
X2422239Y570877D01*
X2430877Y570877D01*
X2430877Y554734D01*
X2430021Y554869D01*
G37*
%LPD*%
%LPC*%
G36*
X2144023Y1550323D02*
X2144023Y1550323D01*
X2144023Y1559723D01*
X2147024Y1559723D01*
X2153423Y1553324D01*
X2153423Y1550323D01*
X2144023Y1550323D01*
G37*
%LPD*%
%LPC*%
G36*
X2131577Y1550323D02*
X2131577Y1550323D01*
X2131577Y1553324D01*
X2137976Y1559723D01*
X2140977Y1559723D01*
X2140977Y1550323D01*
X2131577Y1550323D01*
G37*
%LPD*%
%LPC*%
G36*
X2598926Y1262274D02*
X2598926Y1262274D01*
X2598926Y1271042D01*
X2601666Y1271042D01*
X2607694Y1265014D01*
X2607694Y1262274D01*
X2598926Y1262274D01*
G37*
%LPD*%
%LPC*%
G36*
X2598926Y1250460D02*
X2598926Y1250460D01*
X2598926Y1259228D01*
X2607694Y1259228D01*
X2607694Y1256488D01*
X2601666Y1250460D01*
X2598926Y1250460D01*
G37*
%LPD*%
%LPC*%
G36*
X2587112Y1262274D02*
X2587112Y1262274D01*
X2587112Y1265014D01*
X2593140Y1271042D01*
X2595880Y1271042D01*
X2595880Y1262274D01*
X2587112Y1262274D01*
G37*
%LPD*%
%LPC*%
G36*
X2593140Y1250460D02*
X2593140Y1250460D01*
X2587112Y1256488D01*
X2587112Y1259228D01*
X2595880Y1259228D01*
X2595880Y1250460D01*
X2593140Y1250460D01*
G37*
%LPD*%
%LPC*%
G36*
X2597402Y1260750D02*
X2597402Y1260750D01*
X2597402Y1260752D01*
X2597404Y1260752D01*
X2597404Y1260750D01*
X2597402Y1260750D01*
G37*
%LPD*%
%LPC*%
G36*
X2349439Y1125650D02*
X2349439Y1125650D01*
X2349439Y1125652D01*
X2349441Y1125652D01*
X2349441Y1125650D01*
X2349439Y1125650D01*
G37*
%LPD*%
%LPC*%
G36*
X2457799Y572399D02*
X2457799Y572399D01*
X2457799Y572401D01*
X2457801Y572401D01*
X2457801Y572399D01*
X2457799Y572399D01*
G37*
%LPD*%
%LPC*%
G36*
X2432399Y572399D02*
X2432399Y572399D01*
X2432399Y572401D01*
X2432401Y572401D01*
X2432401Y572399D01*
X2432399Y572399D01*
G37*
%LPD*%
D10*
X2546603Y1235351D03*
X2546603Y1260751D03*
X2572003Y1235351D03*
X2572003Y1260751D03*
X2597403Y1235351D03*
X2597403Y1260751D03*
D11*
X1902089Y1333972D03*
D12*
X1932061Y1384010D03*
X1872117Y1384010D03*
D13*
X1909709Y1333972D03*
X1894469Y1333972D03*
X1872117Y1376390D03*
X1872117Y1391630D03*
X1932061Y1376390D03*
X1932061Y1391630D03*
D14*
X2142500Y1528800D03*
X2167500Y1528800D03*
X2167500Y1548800D03*
X2142500Y1548800D03*
D15*
X2215000Y1575900D03*
X2095000Y1575900D03*
D16*
X2305400Y580020D02*
X2305400Y564780D01*
X2330800Y564780D02*
X2330800Y580020D01*
X2356200Y580020D02*
X2356200Y564780D01*
X2381600Y564780D02*
X2381600Y580020D01*
X2407000Y580020D02*
X2407000Y564780D01*
X2432400Y564780D02*
X2432400Y580020D01*
X2457800Y580020D02*
X2457800Y564780D01*
X2483200Y564780D02*
X2483200Y580020D01*
X2534000Y580020D02*
X2534000Y564780D01*
X2559400Y564780D02*
X2559400Y580020D01*
X2584800Y580020D02*
X2584800Y564780D01*
X2610200Y564780D02*
X2610200Y580020D01*
X2635600Y580020D02*
X2635600Y564780D01*
X2661000Y564780D02*
X2661000Y580020D01*
X2717740Y1118031D02*
X2717740Y1133271D01*
X2692340Y1133271D02*
X2692340Y1118031D01*
X2666940Y1118031D02*
X2666940Y1133271D01*
X2641540Y1133271D02*
X2641540Y1118031D01*
X2616140Y1118031D02*
X2616140Y1133271D01*
X2590740Y1133271D02*
X2590740Y1118031D01*
X2565340Y1118031D02*
X2565340Y1133271D01*
X2539940Y1133271D02*
X2539940Y1118031D01*
X2501840Y1118031D02*
X2501840Y1133271D01*
X2476440Y1133271D02*
X2476440Y1118031D01*
X2451040Y1118031D02*
X2451040Y1133271D01*
X2425640Y1133271D02*
X2425640Y1118031D01*
X2400240Y1118031D02*
X2400240Y1133271D01*
X2374840Y1133271D02*
X2374840Y1118031D01*
X2349440Y1118031D02*
X2349440Y1133271D01*
X2324040Y1133271D02*
X2324040Y1118031D01*
X2298640Y1118031D02*
X2298640Y1133271D01*
X2273240Y1133271D02*
X2273240Y1118031D01*
X2431098Y1272392D02*
X2446338Y1272392D01*
X2446338Y1297792D02*
X2431098Y1297792D01*
X2431098Y1323192D02*
X2446338Y1323192D01*
X2446338Y1348592D02*
X2431098Y1348592D01*
D17*
X2295906Y1235066D03*
X2295906Y1218066D03*
X2328291Y1234812D03*
X2328291Y1217812D03*
D18*
X1973453Y1289431D03*
D19*
X2094992Y1289431D01*
X2110359Y1289431D01*
X2129917Y1308989D01*
X2129917Y1432052D01*
X2129917Y1440942D01*
X2123059Y1447800D01*
D18*
X2123059Y1447800D03*
D19*
X2094992Y1289431D02*
X2094992Y1230249D01*
D18*
X2230882Y1196594D03*
D19*
X2229866Y1197610D01*
X2134743Y1147064D02*
X2134743Y1135253D01*
X2133092Y1133602D01*
D18*
X2337054Y1421511D03*
D20*
X2326513Y1432052D02*
X2129917Y1432052D01*
X2326513Y1432052D02*
X2337054Y1421511D01*
X2420620Y1421511D01*
X2511298Y1330833D01*
D18*
X2346325Y542163D03*
D20*
X2391156Y542163D01*
X2407000Y558007D02*
X2407000Y572400D01*
X2407000Y558007D02*
X2391156Y542163D01*
D18*
X2133092Y1133602D03*
D19*
X2081784Y1147064D02*
X2030984Y1147064D01*
X2081784Y1147064D02*
X2134743Y1147064D01*
X2030984Y1147064D02*
X2018284Y1134364D01*
D18*
X2018284Y1134364D03*
D19*
X2127631Y1197610D02*
X2132965Y1197610D01*
X2229866Y1197610D01*
X2127631Y1197610D02*
X2094992Y1230249D01*
X2134743Y1195832D02*
X2134743Y1147064D01*
X2134743Y1195832D02*
X2132965Y1197610D01*
X2081784Y1147064D02*
X2081784Y974090D01*
X2081911Y973963D01*
D18*
X2081911Y973963D03*
X2546223Y1330833D03*
D20*
X2511298Y1330833D01*
D18*
X2892298Y709422D03*
D19*
X2894838Y706882D01*
X2894838Y657225D01*
D18*
X2894838Y653415D03*
D19*
X2894838Y657225D01*
D18*
X2975483Y722757D03*
D19*
X2975483Y678561D01*
X2950337Y653415D02*
X2894838Y653415D01*
X2950337Y653415D02*
X2975483Y678561D01*
D18*
X2753741Y851789D03*
D19*
X2753741Y814578D01*
X2845689Y722630D02*
X2845689Y659003D01*
X2847467Y657225D01*
X2894838Y657225D01*
X2845689Y722630D02*
X2753741Y814578D01*
X2679192Y657225D02*
X2847467Y657225D01*
X2635758Y700659D02*
X2577465Y700659D01*
D18*
X2577465Y700659D03*
D19*
X2635758Y700659D02*
X2679192Y657225D01*
D21*
X2243455Y1385951D03*
X2383282Y1400302D03*
X2480310Y1312291D03*
X2692781Y988822D03*
X2653030Y883158D03*
X2715387Y968375D03*
X2241550Y1271397D03*
X2201164Y1234313D03*
X2127631Y1221867D03*
X2231771Y1065657D03*
X2398395Y968502D03*
X2522220Y972947D03*
X2631567Y804291D03*
X2692654Y803529D03*
X2741041Y771398D03*
X3022854Y718693D03*
X2940812Y702310D03*
X2966339Y875665D03*
X2968498Y938149D03*
X3172206Y882777D03*
X3185795Y825246D03*
X3179318Y767588D03*
X2984373Y659003D03*
X2842641Y631825D03*
X2340864Y689737D03*
X2268093Y669290D03*
X2192528Y790194D03*
X2145030Y887984D03*
X2235454Y891159D03*
X2237740Y963168D03*
X2259965Y1026541D03*
X2277364Y1465834D03*
X2242185Y1482725D03*
X2076450Y1532636D03*
X2047367Y1533779D03*
X2128393Y1466596D03*
X2239264Y1511046D03*
X2283079Y1498600D03*
X2327910Y1467358D03*
X2370582Y1443355D03*
X2638933Y1336421D03*
X2700528Y1294257D03*
X2759964Y1238631D03*
X2646934Y1264412D03*
X2690368Y1254633D03*
X2513965Y1249680D03*
X2408555Y1246505D03*
X2241550Y1168146D03*
X2311146Y797433D03*
X2222246Y707771D03*
D22*
X2968244Y840613D03*
D23*
X2966339Y842518D01*
X2966339Y875665D01*
D18*
X2254250Y1335786D03*
D20*
X2254250Y1375156D01*
X2243455Y1385951D01*
D18*
X2681351Y922528D03*
D20*
X2552954Y1050925D01*
X2324040Y1101277D02*
X2324040Y1125651D01*
X2481326Y1050925D02*
X2552954Y1050925D01*
X2481326Y1050925D02*
X2458466Y1073785D01*
X2351532Y1073785D01*
X2324040Y1101277D01*
D24*
X2483200Y596931D02*
X2483200Y572400D01*
X2110105Y798322D02*
X2110105Y1012444D01*
X2443480Y636651D02*
X2483200Y596931D01*
X2443480Y636651D02*
X2271776Y636651D01*
X2110105Y798322D01*
D18*
X2110105Y1012444D03*
X2701417Y927100D03*
D20*
X2569972Y1058545D01*
X2459355Y1093343D02*
X2399284Y1093343D01*
X2373884Y1118743D01*
X2373884Y1124695D02*
X2374840Y1125651D01*
X2494153Y1058545D02*
X2569972Y1058545D01*
X2494153Y1058545D02*
X2459355Y1093343D01*
X2373884Y1118743D02*
X2373884Y1124695D01*
D19*
X2572003Y1221485D02*
X2572003Y1235351D01*
X2374840Y1175452D02*
X2374840Y1158113D01*
X2374840Y1125651D01*
X2563241Y1212723D02*
X2572003Y1221485D01*
X2563241Y1212723D02*
X2412111Y1212723D01*
X2374840Y1175452D01*
D18*
X2189861Y1112139D03*
D25*
X2216658Y1112139D01*
X2262632Y1158113D02*
X2374840Y1158113D01*
X2262632Y1158113D02*
X2216658Y1112139D01*
D23*
X2167500Y1528800D02*
X2167610Y1528910D01*
D18*
X2213356Y746506D03*
D20*
X2213356Y1083945D01*
D18*
X2213356Y1083945D03*
D21*
X2436622Y1199515D03*
D26*
X2428113Y1191006D01*
X2428113Y1128124D01*
X2425640Y1125651D01*
D19*
X2572003Y1260751D02*
X2572003Y1273809D01*
X2587879Y1289685D01*
X2608580Y1289685D01*
X2631567Y1266698D01*
X2631567Y1222248D01*
X2607691Y1198372D02*
X2437765Y1198372D01*
X2436622Y1199515D01*
X2607691Y1198372D02*
X2631567Y1222248D01*
D21*
X2879598Y933577D03*
D26*
X2885186Y939165D01*
X2885186Y1041654D01*
X2451040Y1125651D02*
X2451040Y1145353D01*
X2764155Y1162685D02*
X2885186Y1041654D01*
X2764155Y1162685D02*
X2468372Y1162685D01*
X2451040Y1145353D01*
D18*
X2062353Y1088263D03*
D19*
X2026412Y1088263D01*
X1957959Y1267968D02*
X1957959Y1319530D01*
X2000250Y1361821D01*
X2028571Y1361821D01*
X2076831Y1410081D01*
X2076831Y1450721D01*
D18*
X2076831Y1450721D03*
D19*
X1993773Y1120902D02*
X2026412Y1088263D01*
X1993773Y1120902D02*
X1993773Y1232154D01*
X1957959Y1267968D01*
D23*
X2607152Y575448D02*
X2610200Y572400D01*
D18*
X2358771Y822325D03*
D25*
X2501011Y680085D01*
X2685796Y603885D02*
X2685796Y554101D01*
X2676017Y544322D01*
X2635600Y552100D02*
X2635600Y572400D01*
X2609596Y680085D02*
X2501011Y680085D01*
X2609596Y680085D02*
X2685796Y603885D01*
X2676017Y544322D02*
X2643378Y544322D01*
X2635600Y552100D01*
D18*
X2334387Y826262D03*
D25*
X2494407Y666242D01*
X2661000Y613314D02*
X2661000Y572400D01*
X2608072Y666242D02*
X2494407Y666242D01*
X2608072Y666242D02*
X2661000Y613314D01*
D21*
X2910205Y747141D03*
D26*
X2887853Y769493D01*
X2749296Y918083D02*
X2749296Y957072D01*
D21*
X2749296Y957072D03*
D26*
X2887853Y823214D02*
X2887853Y769493D01*
X2887853Y823214D02*
X2877312Y833755D01*
X2833624Y833755D01*
X2749296Y918083D01*
D21*
X2906522Y731774D03*
D26*
X2879979Y758317D01*
X2734183Y910717D02*
X2734183Y936498D01*
D21*
X2734183Y936498D03*
D26*
X2879979Y817118D02*
X2879979Y758317D01*
X2879979Y817118D02*
X2873756Y823341D01*
X2821559Y823341D01*
X2734183Y910717D01*
D18*
X2310638Y1193927D03*
D25*
X2314702Y1189863D02*
X2330069Y1189863D01*
X2314702Y1189863D02*
X2310638Y1193927D01*
X2712339Y1174369D02*
X2713990Y1176020D01*
X2346579Y1206373D02*
X2330069Y1189863D01*
X2346579Y1206373D02*
X2380615Y1206373D01*
X2400427Y1226185D01*
X2443226Y1226185D01*
X2527173Y1310132D01*
X2656459Y1310132D01*
X2713990Y1252601D01*
X2713990Y1176020D01*
X2712339Y1174369D02*
X2705481Y1174369D01*
X2701417Y1178433D01*
D18*
X2701417Y1178433D03*
D20*
X2295906Y1199515D02*
X2295906Y1218066D01*
D18*
X2295906Y1199515D03*
D21*
X2721610Y924052D03*
D26*
X2721610Y899795D01*
X2908046Y713359D01*
D21*
X2908046Y708660D03*
D26*
X2908046Y713359D01*
D18*
X2664714Y1174496D03*
D25*
X2451354Y1220089D02*
X2409060Y1220089D01*
X2650363Y1299591D02*
X2664714Y1285240D01*
X2650363Y1299591D02*
X2530856Y1299591D01*
X2451354Y1220089D01*
X2409060Y1220089D02*
X2380739Y1191768D01*
X2348357Y1191768D01*
X2347595Y1192530D01*
D18*
X2347595Y1192530D03*
D25*
X2664714Y1174496D02*
X2664714Y1285240D01*
D20*
X2328291Y1217812D02*
X2328291Y1202875D01*
X2325185Y1199769D01*
D18*
X2325185Y1199769D03*
D21*
X2908300Y782701D03*
D26*
X2896870Y794131D01*
X2883535Y841756D02*
X2838128Y841756D01*
X2837493Y842391D01*
X2836418Y842391D01*
X2764790Y914019D01*
X2730881Y1027430D02*
X2726309Y1027430D01*
D21*
X2726309Y1027430D03*
D26*
X2896870Y828421D02*
X2896870Y794131D01*
X2896870Y828421D02*
X2883535Y841756D01*
X2764790Y914019D02*
X2764790Y993521D01*
X2730881Y1027430D01*
D21*
X2909062Y795528D03*
D26*
X2903474Y801116D01*
X2903474Y832485D01*
X2887599Y848360D01*
X2736596Y1040638D02*
X2682875Y1040638D01*
D21*
X2682875Y1040638D03*
D26*
X2840863Y848360D02*
X2887599Y848360D01*
X2840863Y848360D02*
X2783713Y905510D01*
X2783713Y993521D01*
X2736596Y1040638D01*
D21*
X2944749Y883158D03*
D26*
X2923032Y861441D01*
X2844927Y861441D02*
X2804668Y901700D01*
X2749042Y1050544D02*
X2653919Y1050544D01*
D21*
X2653919Y1050544D03*
D26*
X2844927Y861441D02*
X2923032Y861441D01*
X2804668Y901700D02*
X2804668Y994918D01*
X2749042Y1050544D01*
D21*
X2929382Y886079D03*
D26*
X2916555Y873252D01*
X2764663Y1060958D02*
X2617724Y1060958D01*
D21*
X2617724Y1060958D03*
D26*
X2848737Y873252D02*
X2916555Y873252D01*
X2848737Y873252D02*
X2819400Y902589D01*
X2819400Y1006221D01*
X2764663Y1060958D01*
D18*
X2235200Y946912D03*
D25*
X2626360Y946912D01*
X2629281Y949833D01*
D18*
X2629281Y949833D03*
D21*
X2914015Y886587D03*
D26*
X2857500Y886587D01*
X2550188Y1072388D02*
X2548382Y1074194D01*
D21*
X2548382Y1074194D03*
D26*
X2832608Y911479D02*
X2857500Y886587D01*
X2832608Y911479D02*
X2832608Y1019556D01*
X2779776Y1072388D01*
X2550188Y1072388D01*
D18*
X2141728Y949833D03*
D25*
X2141728Y1053592D01*
X2183384Y1095248D01*
X2303399Y1095248D01*
X2390775Y1007872D02*
X2554986Y1007872D01*
D18*
X2554986Y1007872D03*
D25*
X2390775Y1007872D02*
X2303399Y1095248D01*
D21*
X2901315Y896747D03*
D26*
X2899763Y898299D01*
X2863754Y898299D01*
X2839593Y922460D01*
X2839593Y1028192D01*
X2784221Y1083564D01*
X2501840Y1104706D02*
X2501840Y1125651D01*
X2522982Y1083564D02*
X2784221Y1083564D01*
X2522982Y1083564D02*
X2501840Y1104706D01*
D21*
X2882392Y907669D03*
D26*
X2863723Y907669D01*
X2846197Y925195D01*
X2846197Y1056005D01*
X2750185Y1152017D02*
X2485136Y1152017D01*
X2476627Y1143508D01*
X2750185Y1152017D02*
X2846197Y1056005D01*
X2476627Y1125838D02*
X2476627Y1143508D01*
X2476627Y1125838D02*
X2476440Y1125651D01*
D25*
X2295906Y1235066D02*
X2295906Y1246883D01*
X2297303Y1248280D01*
D18*
X2297303Y1248280D03*
D25*
X2328291Y1244854D02*
X2328291Y1234812D01*
X2328291Y1244854D02*
X2332736Y1249299D01*
D18*
X2332736Y1249299D03*
D20*
X2435711Y1320185D02*
X2438718Y1323192D01*
D18*
X2330747Y1322344D03*
D20*
X2331595Y1323192D02*
X2438718Y1323192D01*
X2331595Y1323192D02*
X2330747Y1322344D01*
M02*
