G04 EAGLE Gerber RS-274X export*
G75*
%MOMM*%
%FSLAX34Y34*%
%LPD*%
%IN*%
%IPPOS*%
%AMOC8*
5,1,8,0,0,1.08239X$1,22.5*%
G01*
%ADD10C,0.254000*%


D10*
X1822000Y1338000D02*
X1856000Y1320000D01*
X1948000Y1156000D01*
X1964000Y1106000D01*
X1966000Y1058000D01*
X2058000Y988000D01*
X2076000Y930000D01*
X2080000Y798000D01*
X2208000Y662000D01*
X2216000Y626000D01*
X2322000Y458000D01*
X2342000Y458000D01*
X2356000Y468000D01*
X2364000Y522000D01*
X2370000Y522000D01*
X2374000Y518000D01*
X2396000Y506000D01*
X2518000Y514000D01*
X2544000Y514000D01*
X2606000Y508000D01*
X2622000Y488000D01*
X2646000Y486000D01*
X2674000Y506000D01*
X2722000Y580000D01*
X2784000Y602000D01*
X2836000Y610000D01*
X2976000Y632000D01*
X3190000Y716000D01*
X3224000Y856000D01*
X3224000Y884000D01*
X3188000Y928000D01*
X3018000Y938000D01*
X2926000Y1046000D01*
X2896000Y1058000D01*
X2852000Y1148000D01*
X2852000Y1154000D01*
X2856000Y1186000D01*
X2794000Y1260000D01*
X2774000Y1276000D01*
X2762000Y1280000D01*
X2760000Y1280000D01*
X2730000Y1350000D01*
X2678000Y1350000D01*
X2672000Y1380000D01*
X2484000Y1402000D01*
X2232000Y1602000D01*
X2164000Y1618000D01*
X2140000Y1620000D01*
X2066000Y1608000D01*
X2044000Y1598000D01*
X2004000Y1580000D01*
X2004000Y1564000D01*
X2034000Y1504000D01*
X2034000Y1498000D01*
X2024000Y1488000D01*
X2002000Y1468000D01*
X1964000Y1466000D01*
X1946000Y1432000D01*
X1850000Y1432000D01*
X1822000Y1360000D01*
X1822000Y1338000D01*
M02*
