G04 EAGLE Gerber RS-274X export*
G75*
%MOMM*%
%FSLAX34Y34*%
%LPD*%
%INSilkscreen Bottom*%
%IPPOS*%
%AMOC8*
5,1,8,0,0,1.08239X$1,22.5*%
G01*
%ADD10R,0.050800X0.012700*%
%ADD11R,0.342900X0.012700*%
%ADD12R,0.482600X0.012700*%
%ADD13R,0.571500X0.012700*%
%ADD14R,0.660400X0.012700*%
%ADD15R,0.723900X0.012700*%
%ADD16R,0.800100X0.012700*%
%ADD17R,0.850900X0.012700*%
%ADD18R,0.901700X0.012700*%
%ADD19R,0.952500X0.012700*%
%ADD20R,0.990600X0.012700*%
%ADD21R,1.028700X0.012700*%
%ADD22R,1.079500X0.012700*%
%ADD23R,1.104900X0.012700*%
%ADD24R,1.143000X0.012700*%
%ADD25R,1.181100X0.012700*%
%ADD26R,1.206500X0.012700*%
%ADD27R,1.219200X0.012700*%
%ADD28R,1.257300X0.012700*%
%ADD29R,1.282700X0.012700*%
%ADD30R,1.295400X0.012700*%
%ADD31R,1.320800X0.012700*%
%ADD32R,1.346200X0.012700*%
%ADD33R,1.358900X0.012700*%
%ADD34R,1.397000X0.012700*%
%ADD35R,1.409700X0.012700*%
%ADD36R,1.422400X0.012700*%
%ADD37R,1.435100X0.012700*%
%ADD38R,1.447800X0.012700*%
%ADD39R,1.473200X0.012700*%
%ADD40R,1.485900X0.012700*%
%ADD41R,0.393700X0.012700*%
%ADD42R,0.774700X0.012700*%
%ADD43R,0.304800X0.012700*%
%ADD44R,0.698500X0.012700*%
%ADD45R,0.241300X0.012700*%
%ADD46R,0.165100X0.012700*%
%ADD47R,0.647700X0.012700*%
%ADD48R,0.203200X0.012700*%
%ADD49R,0.317500X0.012700*%
%ADD50R,0.177800X0.012700*%
%ADD51R,0.190500X0.012700*%
%ADD52R,0.266700X0.012700*%
%ADD53R,0.381000X0.012700*%
%ADD54R,0.622300X0.012700*%
%ADD55R,0.469900X0.012700*%
%ADD56R,0.279400X0.012700*%
%ADD57R,0.330200X0.012700*%
%ADD58R,0.520700X0.012700*%
%ADD59R,0.139700X0.012700*%
%ADD60R,0.609600X0.012700*%
%ADD61R,0.355600X0.012700*%
%ADD62R,0.749300X0.012700*%
%ADD63R,0.114300X0.012700*%
%ADD64R,0.673100X0.012700*%
%ADD65R,0.368300X0.012700*%
%ADD66R,0.406400X0.012700*%
%ADD67R,0.419100X0.012700*%
%ADD68R,0.076200X0.012700*%
%ADD69R,0.292100X0.012700*%
%ADD70R,0.457200X0.012700*%
%ADD71R,0.444500X0.012700*%
%ADD72R,0.825500X0.012700*%
%ADD73R,0.812800X0.012700*%
%ADD74R,0.584200X0.012700*%
%ADD75R,0.863600X0.012700*%
%ADD76R,0.038100X0.012700*%
%ADD77R,0.635000X0.012700*%
%ADD78R,0.508000X0.012700*%
%ADD79R,0.495300X0.012700*%
%ADD80R,1.117600X0.012700*%
%ADD81R,0.889000X0.012700*%
%ADD82R,0.927100X0.012700*%
%ADD83R,0.533400X0.012700*%
%ADD84R,0.914400X0.012700*%
%ADD85R,0.965200X0.012700*%
%ADD86R,0.558800X0.012700*%
%ADD87R,0.546100X0.012700*%
%ADD88R,1.003300X0.012700*%
%ADD89R,1.130300X0.012700*%
%ADD90R,1.041400X0.012700*%
%ADD91R,0.977900X0.012700*%
%ADD92R,1.066800X0.012700*%
%ADD93R,1.155700X0.012700*%
%ADD94R,0.088900X0.012700*%
%ADD95R,0.685800X0.012700*%
%ADD96R,1.168400X0.012700*%
%ADD97R,0.012700X0.012700*%
%ADD98R,1.193800X0.012700*%
%ADD99R,0.596900X0.012700*%
%ADD100R,1.231900X0.012700*%
%ADD101R,0.711200X0.012700*%
%ADD102R,1.244600X0.012700*%
%ADD103R,0.736600X0.012700*%
%ADD104R,0.431800X0.012700*%
%ADD105R,0.152400X0.012700*%
%ADD106R,0.787400X0.012700*%
%ADD107R,0.127000X0.012700*%
%ADD108R,0.101600X0.012700*%
%ADD109R,0.025400X0.012700*%
%ADD110R,0.838200X0.012700*%
%ADD111R,1.308100X0.012700*%
%ADD112R,0.876300X0.012700*%
%ADD113R,1.270000X0.012700*%
%ADD114R,0.762000X0.012700*%
%ADD115R,0.254000X0.012700*%
%ADD116R,1.511300X0.012700*%
%ADD117R,0.215900X0.012700*%
%ADD118R,1.752600X0.012700*%
%ADD119R,1.930400X0.012700*%
%ADD120R,2.133600X0.012700*%
%ADD121R,2.286000X0.012700*%
%ADD122R,2.425700X0.012700*%
%ADD123R,2.578100X0.012700*%
%ADD124R,2.705100X0.012700*%
%ADD125R,2.857500X0.012700*%
%ADD126R,2.959100X0.012700*%
%ADD127R,0.063500X0.012700*%
%ADD128R,3.073400X0.012700*%
%ADD129R,3.187700X0.012700*%
%ADD130R,3.289300X0.012700*%
%ADD131R,3.403600X0.012700*%
%ADD132R,3.492500X0.012700*%
%ADD133R,3.594100X0.012700*%
%ADD134R,3.670300X0.012700*%
%ADD135R,3.759200X0.012700*%
%ADD136R,3.848100X0.012700*%
%ADD137R,3.924300X0.012700*%
%ADD138R,4.000500X0.012700*%
%ADD139R,4.076700X0.012700*%
%ADD140R,0.228600X0.012700*%
%ADD141R,4.140200X0.012700*%
%ADD142R,4.229100X0.012700*%
%ADD143R,4.279900X0.012700*%
%ADD144R,4.356100X0.012700*%
%ADD145R,4.419600X0.012700*%
%ADD146R,4.483100X0.012700*%
%ADD147R,4.559300X0.012700*%
%ADD148R,4.610100X0.012700*%
%ADD149R,4.673600X0.012700*%
%ADD150R,4.724400X0.012700*%
%ADD151R,4.787900X0.012700*%
%ADD152R,4.838700X0.012700*%
%ADD153R,4.889500X0.012700*%
%ADD154R,4.953000X0.012700*%
%ADD155R,5.003800X0.012700*%
%ADD156R,5.054600X0.012700*%
%ADD157R,5.092700X0.012700*%
%ADD158R,5.143500X0.012700*%
%ADD159R,5.194300X0.012700*%
%ADD160R,5.232400X0.012700*%
%ADD161R,5.283200X0.012700*%
%ADD162R,5.334000X0.012700*%
%ADD163R,5.372100X0.012700*%
%ADD164R,5.422900X0.012700*%
%ADD165R,5.461000X0.012700*%
%ADD166R,5.511800X0.012700*%
%ADD167R,5.537200X0.012700*%
%ADD168R,5.588000X0.012700*%
%ADD169R,5.626100X0.012700*%
%ADD170R,5.664200X0.012700*%
%ADD171R,5.702300X0.012700*%
%ADD172R,5.740400X0.012700*%
%ADD173R,5.778500X0.012700*%
%ADD174R,5.816600X0.012700*%
%ADD175R,5.842000X0.012700*%
%ADD176R,5.892800X0.012700*%
%ADD177R,5.918200X0.012700*%
%ADD178R,5.956300X0.012700*%
%ADD179R,5.981700X0.012700*%
%ADD180R,6.007100X0.012700*%
%ADD181R,6.057900X0.012700*%
%ADD182R,6.083300X0.012700*%
%ADD183R,6.121400X0.012700*%
%ADD184R,6.146800X0.012700*%
%ADD185R,6.172200X0.012700*%
%ADD186R,6.197600X0.012700*%
%ADD187R,6.235700X0.012700*%
%ADD188R,6.261100X0.012700*%
%ADD189R,6.299200X0.012700*%
%ADD190R,6.324600X0.012700*%
%ADD191R,6.362700X0.012700*%
%ADD192R,6.388100X0.012700*%
%ADD193R,6.413500X0.012700*%
%ADD194R,6.438900X0.012700*%
%ADD195R,6.464300X0.012700*%
%ADD196R,6.489700X0.012700*%
%ADD197R,6.515100X0.012700*%
%ADD198R,6.527800X0.012700*%
%ADD199R,6.565900X0.012700*%
%ADD200R,6.591300X0.012700*%
%ADD201R,6.616700X0.012700*%
%ADD202R,6.642100X0.012700*%
%ADD203R,6.667500X0.012700*%
%ADD204R,6.692900X0.012700*%
%ADD205R,6.718300X0.012700*%
%ADD206R,6.743700X0.012700*%
%ADD207R,6.769100X0.012700*%
%ADD208R,6.794500X0.012700*%
%ADD209R,6.819900X0.012700*%
%ADD210R,6.845300X0.012700*%
%ADD211R,6.858000X0.012700*%
%ADD212R,6.883400X0.012700*%
%ADD213R,6.908800X0.012700*%
%ADD214R,6.921500X0.012700*%
%ADD215R,6.934200X0.012700*%
%ADD216R,6.959600X0.012700*%
%ADD217R,6.985000X0.012700*%
%ADD218R,7.010400X0.012700*%
%ADD219R,7.035800X0.012700*%
%ADD220R,7.061200X0.012700*%
%ADD221R,7.073900X0.012700*%
%ADD222R,7.086600X0.012700*%
%ADD223R,7.112000X0.012700*%
%ADD224R,7.124700X0.012700*%
%ADD225R,7.150100X0.012700*%
%ADD226R,7.162800X0.012700*%
%ADD227R,7.175500X0.012700*%
%ADD228R,7.200900X0.012700*%
%ADD229R,7.226300X0.012700*%
%ADD230R,7.251700X0.012700*%
%ADD231R,7.277100X0.012700*%
%ADD232R,7.289800X0.012700*%
%ADD233R,7.302500X0.012700*%
%ADD234R,7.327900X0.012700*%
%ADD235R,7.340600X0.012700*%
%ADD236R,7.353300X0.012700*%
%ADD237R,7.378700X0.012700*%
%ADD238R,7.404100X0.012700*%
%ADD239R,7.416800X0.012700*%
%ADD240R,7.429500X0.012700*%
%ADD241R,7.442200X0.012700*%
%ADD242R,7.454900X0.012700*%
%ADD243R,7.467600X0.012700*%
%ADD244R,7.480300X0.012700*%
%ADD245R,7.493000X0.012700*%
%ADD246R,7.505700X0.012700*%
%ADD247R,7.518400X0.012700*%
%ADD248R,7.531100X0.012700*%
%ADD249R,7.543800X0.012700*%
%ADD250R,7.556500X0.012700*%
%ADD251R,7.569200X0.012700*%
%ADD252R,7.581900X0.012700*%
%ADD253R,7.594600X0.012700*%
%ADD254R,7.607300X0.012700*%
%ADD255R,7.620000X0.012700*%
%ADD256R,7.632700X0.012700*%
%ADD257R,7.645400X0.012700*%
%ADD258R,7.658100X0.012700*%
%ADD259R,7.670800X0.012700*%
%ADD260R,7.683500X0.012700*%
%ADD261R,7.696200X0.012700*%
%ADD262R,7.708900X0.012700*%
%ADD263R,7.721600X0.012700*%
%ADD264R,7.734300X0.012700*%
%ADD265R,7.759700X0.012700*%
%ADD266R,1.803400X0.012700*%
%ADD267R,5.676900X0.012700*%
%ADD268R,1.727200X0.012700*%
%ADD269R,5.600700X0.012700*%
%ADD270R,1.651000X0.012700*%
%ADD271R,5.549900X0.012700*%
%ADD272R,1.600200X0.012700*%
%ADD273R,5.499100X0.012700*%
%ADD274R,1.562100X0.012700*%
%ADD275R,5.448300X0.012700*%
%ADD276R,1.524000X0.012700*%
%ADD277R,5.435600X0.012700*%
%ADD278R,1.498600X0.012700*%
%ADD279R,5.397500X0.012700*%
%ADD280R,1.460500X0.012700*%
%ADD281R,5.359400X0.012700*%
%ADD282R,5.295900X0.012700*%
%ADD283R,1.384300X0.012700*%
%ADD284R,5.270500X0.012700*%
%ADD285R,1.371600X0.012700*%
%ADD286R,5.245100X0.012700*%
%ADD287R,5.219700X0.012700*%
%ADD288R,5.207000X0.012700*%
%ADD289R,5.181600X0.012700*%
%ADD290R,5.156200X0.012700*%
%ADD291R,5.130800X0.012700*%
%ADD292R,5.118100X0.012700*%
%ADD293R,5.067300X0.012700*%
%ADD294R,5.029200X0.012700*%
%ADD295R,5.016500X0.012700*%
%ADD296R,4.991100X0.012700*%
%ADD297R,4.978400X0.012700*%
%ADD298R,4.940300X0.012700*%
%ADD299R,4.927600X0.012700*%
%ADD300R,4.902200X0.012700*%
%ADD301R,1.092200X0.012700*%
%ADD302R,4.876800X0.012700*%
%ADD303R,4.851400X0.012700*%
%ADD304R,1.054100X0.012700*%
%ADD305R,4.826000X0.012700*%
%ADD306R,4.813300X0.012700*%
%ADD307R,4.800600X0.012700*%
%ADD308R,4.775200X0.012700*%
%ADD309R,1.016000X0.012700*%
%ADD310R,4.762500X0.012700*%
%ADD311R,4.749800X0.012700*%
%ADD312R,4.711700X0.012700*%
%ADD313R,4.699000X0.012700*%
%ADD314R,4.686300X0.012700*%
%ADD315R,4.660900X0.012700*%
%ADD316R,0.939800X0.012700*%
%ADD317R,4.635500X0.012700*%
%ADD318R,4.622800X0.012700*%
%ADD319R,4.597400X0.012700*%
%ADD320R,4.584700X0.012700*%
%ADD321R,4.572000X0.012700*%
%ADD322R,4.546600X0.012700*%
%ADD323R,4.533900X0.012700*%
%ADD324R,4.508500X0.012700*%
%ADD325R,4.495800X0.012700*%
%ADD326R,4.457700X0.012700*%
%ADD327R,4.432300X0.012700*%
%ADD328R,4.406900X0.012700*%
%ADD329R,4.394200X0.012700*%
%ADD330R,4.368800X0.012700*%
%ADD331R,4.343400X0.012700*%
%ADD332R,4.305300X0.012700*%
%ADD333R,4.292600X0.012700*%
%ADD334R,4.254500X0.012700*%
%ADD335R,4.241800X0.012700*%
%ADD336R,4.191000X0.012700*%
%ADD337R,4.178300X0.012700*%
%ADD338R,4.152900X0.012700*%
%ADD339R,4.127500X0.012700*%
%ADD340R,4.089400X0.012700*%
%ADD341R,4.051300X0.012700*%
%ADD342R,4.038600X0.012700*%
%ADD343R,3.987800X0.012700*%
%ADD344R,3.962400X0.012700*%
%ADD345R,3.937000X0.012700*%
%ADD346R,3.911600X0.012700*%
%ADD347R,3.898900X0.012700*%
%ADD348R,3.873500X0.012700*%
%ADD349R,3.822700X0.012700*%
%ADD350R,3.797300X0.012700*%
%ADD351R,3.771900X0.012700*%
%ADD352R,3.746500X0.012700*%
%ADD353R,3.733800X0.012700*%
%ADD354R,3.695700X0.012700*%
%ADD355R,3.644900X0.012700*%
%ADD356R,3.619500X0.012700*%
%ADD357R,3.556000X0.012700*%
%ADD358R,3.543300X0.012700*%
%ADD359R,3.505200X0.012700*%
%ADD360R,3.479800X0.012700*%
%ADD361R,3.441700X0.012700*%
%ADD362R,3.416300X0.012700*%
%ADD363R,3.390900X0.012700*%
%ADD364R,3.365500X0.012700*%
%ADD365R,3.327400X0.012700*%
%ADD366R,3.302000X0.012700*%
%ADD367R,3.263900X0.012700*%
%ADD368R,3.238500X0.012700*%
%ADD369R,3.200400X0.012700*%
%ADD370R,3.162300X0.012700*%
%ADD371R,3.136900X0.012700*%
%ADD372R,3.098800X0.012700*%
%ADD373R,3.035300X0.012700*%
%ADD374R,2.997200X0.012700*%
%ADD375R,2.971800X0.012700*%
%ADD376R,2.933700X0.012700*%
%ADD377R,2.895600X0.012700*%
%ADD378R,2.844800X0.012700*%
%ADD379R,2.806700X0.012700*%
%ADD380R,2.781300X0.012700*%
%ADD381R,2.743200X0.012700*%
%ADD382R,2.692400X0.012700*%
%ADD383R,2.654300X0.012700*%
%ADD384R,2.616200X0.012700*%
%ADD385R,2.565400X0.012700*%
%ADD386R,2.527300X0.012700*%
%ADD387R,2.476500X0.012700*%
%ADD388R,2.438400X0.012700*%
%ADD389R,2.387600X0.012700*%
%ADD390R,2.349500X0.012700*%
%ADD391R,2.235200X0.012700*%
%ADD392R,2.184400X0.012700*%
%ADD393R,2.082800X0.012700*%
%ADD394R,2.019300X0.012700*%
%ADD395R,1.968500X0.012700*%
%ADD396R,1.892300X0.012700*%
%ADD397R,1.841500X0.012700*%
%ADD398R,1.778000X0.012700*%
%ADD399R,1.701800X0.012700*%
%ADD400R,1.638300X0.012700*%
%ADD401C,0.050800*%


D10*
X2493582Y615569D03*
D11*
X2493518Y615696D03*
D12*
X2493582Y615823D03*
D13*
X2493645Y615950D03*
D14*
X2493709Y616077D03*
D15*
X2493772Y616204D03*
D16*
X2493899Y616331D03*
D17*
X2494026Y616458D03*
D18*
X2494026Y616585D03*
D19*
X2494153Y616712D03*
D20*
X2494217Y616839D03*
D21*
X2494280Y616966D03*
D22*
X2494407Y617093D03*
D23*
X2494534Y617220D03*
D24*
X2494598Y617347D03*
D25*
X2494661Y617474D03*
D26*
X2494788Y617601D03*
D27*
X2494852Y617728D03*
D28*
X2494915Y617855D03*
D29*
X2495042Y617982D03*
D30*
X2495106Y618109D03*
D31*
X2495233Y618236D03*
D32*
X2495360Y618363D03*
D33*
X2495423Y618490D03*
D34*
X2495487Y618617D03*
D35*
X2495550Y618744D03*
D36*
X2495614Y618871D03*
D37*
X2495804Y618998D03*
D38*
X2495868Y619125D03*
D39*
X2495995Y619252D03*
D40*
X2496058Y619379D03*
D18*
X2499106Y619506D03*
D41*
X2490597Y619506D03*
D42*
X2499868Y619633D03*
D43*
X2490153Y619633D03*
D44*
X2500376Y619760D03*
D45*
X2489962Y619760D03*
D46*
X2524379Y619887D03*
D45*
X2512060Y619887D03*
D47*
X2500884Y619887D03*
D48*
X2489772Y619887D03*
D49*
X2481453Y619887D03*
D50*
X2458657Y619887D03*
D51*
X2415159Y619887D03*
D52*
X2524379Y620014D03*
D53*
X2512251Y620014D03*
D54*
X2501138Y620014D03*
D50*
X2489645Y620014D03*
D55*
X2481326Y620014D03*
D52*
X2458593Y620014D03*
D56*
X2415096Y620014D03*
D57*
X2524316Y620141D03*
D58*
X2512568Y620141D03*
D44*
X2500630Y620141D03*
D59*
X2489581Y620141D03*
D60*
X2481263Y620141D03*
D11*
X2458593Y620141D03*
D61*
X2414969Y620141D03*
D53*
X2524316Y620268D03*
D54*
X2512822Y620268D03*
D62*
X2500376Y620268D03*
D63*
X2489454Y620268D03*
D64*
X2481199Y620268D03*
D65*
X2458593Y620268D03*
D66*
X2414969Y620268D03*
D65*
X2536190Y620395D03*
D67*
X2524379Y620395D03*
D10*
X2519871Y620395D03*
D62*
X2513203Y620395D03*
D16*
X2500122Y620395D03*
D68*
X2489391Y620395D03*
D62*
X2481199Y620395D03*
D65*
X2470404Y620395D03*
D67*
X2458593Y620395D03*
D69*
X2452878Y620395D03*
D60*
X2442401Y620395D03*
D13*
X2432812Y620395D03*
D57*
X2425637Y620395D03*
D70*
X2414969Y620395D03*
D53*
X2536127Y620522D03*
D71*
X2524379Y620522D03*
D22*
X2514727Y620522D03*
D72*
X2499868Y620522D03*
D10*
X2489391Y620522D03*
D73*
X2481136Y620522D03*
D65*
X2470404Y620522D03*
D71*
X2458593Y620522D03*
D69*
X2452878Y620522D03*
D54*
X2442464Y620522D03*
D74*
X2432749Y620522D03*
D57*
X2425510Y620522D03*
D12*
X2414969Y620522D03*
D65*
X2536063Y620649D03*
D55*
X2524379Y620649D03*
D23*
X2514600Y620649D03*
D75*
X2499678Y620649D03*
D76*
X2489327Y620649D03*
D75*
X2481136Y620649D03*
D65*
X2470277Y620649D03*
D55*
X2458593Y620649D03*
D69*
X2452878Y620649D03*
D77*
X2442401Y620649D03*
D74*
X2432749Y620649D03*
D11*
X2425446Y620649D03*
D78*
X2414969Y620649D03*
D65*
X2536063Y620776D03*
D79*
X2524379Y620776D03*
D80*
X2514537Y620776D03*
D81*
X2499551Y620776D03*
D82*
X2481072Y620776D03*
D65*
X2470277Y620776D03*
D79*
X2458593Y620776D03*
D43*
X2452815Y620776D03*
D77*
X2442401Y620776D03*
D74*
X2432749Y620776D03*
D57*
X2425383Y620776D03*
D83*
X2414969Y620776D03*
D65*
X2535936Y620903D03*
D58*
X2524379Y620903D03*
D80*
X2514410Y620903D03*
D84*
X2499424Y620903D03*
D85*
X2481009Y620903D03*
D65*
X2470277Y620903D03*
D58*
X2458593Y620903D03*
D69*
X2452751Y620903D03*
D77*
X2442401Y620903D03*
D13*
X2432685Y620903D03*
D57*
X2425256Y620903D03*
D86*
X2414969Y620903D03*
D65*
X2535936Y621030D03*
D87*
X2524379Y621030D03*
D80*
X2514410Y621030D03*
D82*
X2499233Y621030D03*
D88*
X2481072Y621030D03*
D65*
X2470150Y621030D03*
D87*
X2458593Y621030D03*
D69*
X2452751Y621030D03*
D47*
X2442464Y621030D03*
D74*
X2432622Y621030D03*
D57*
X2425129Y621030D03*
D74*
X2414969Y621030D03*
D61*
X2535873Y621157D03*
D86*
X2524316Y621157D03*
D89*
X2514346Y621157D03*
D19*
X2499106Y621157D03*
D90*
X2481009Y621157D03*
D65*
X2470150Y621157D03*
D86*
X2458657Y621157D03*
D69*
X2452751Y621157D03*
D47*
X2442464Y621157D03*
D74*
X2432622Y621157D03*
D11*
X2425065Y621157D03*
D60*
X2414969Y621157D03*
D65*
X2535809Y621284D03*
D13*
X2524379Y621284D03*
D24*
X2514283Y621284D03*
D91*
X2498979Y621284D03*
D92*
X2481009Y621284D03*
D61*
X2470087Y621284D03*
D13*
X2458593Y621284D03*
D69*
X2452751Y621284D03*
D64*
X2442464Y621284D03*
D74*
X2432622Y621284D03*
D57*
X2425002Y621284D03*
D77*
X2414969Y621284D03*
D61*
X2535746Y621411D03*
D74*
X2524443Y621411D03*
D24*
X2514283Y621411D03*
D20*
X2498789Y621411D03*
D23*
X2480945Y621411D03*
D65*
X2470023Y621411D03*
D74*
X2458657Y621411D03*
D43*
X2452688Y621411D03*
D64*
X2442464Y621411D03*
D74*
X2432622Y621411D03*
D57*
X2424875Y621411D03*
D47*
X2414905Y621411D03*
D61*
X2535746Y621538D03*
D13*
X2524506Y621538D03*
D93*
X2514219Y621538D03*
D59*
X2503043Y621538D03*
D64*
X2497074Y621538D03*
D89*
X2480945Y621538D03*
D61*
X2469960Y621538D03*
D13*
X2458720Y621538D03*
D43*
X2452688Y621538D03*
D64*
X2442464Y621538D03*
D74*
X2432622Y621538D03*
D11*
X2424811Y621538D03*
D14*
X2414969Y621538D03*
D65*
X2535682Y621665D03*
D13*
X2524633Y621665D03*
D24*
X2514156Y621665D03*
D94*
X2503297Y621665D03*
D77*
X2496757Y621665D03*
D93*
X2480945Y621665D03*
D65*
X2469896Y621665D03*
D13*
X2458847Y621665D03*
D69*
X2452624Y621665D03*
D64*
X2442464Y621665D03*
D74*
X2432495Y621665D03*
D11*
X2424684Y621665D03*
D95*
X2414969Y621665D03*
D61*
X2535619Y621792D03*
D86*
X2524697Y621792D03*
D93*
X2514092Y621792D03*
D76*
X2503424Y621792D03*
D54*
X2496439Y621792D03*
D96*
X2480882Y621792D03*
D61*
X2469833Y621792D03*
D86*
X2458911Y621792D03*
D69*
X2452624Y621792D03*
D95*
X2442528Y621792D03*
D74*
X2432495Y621792D03*
D57*
X2424621Y621792D03*
D64*
X2415032Y621792D03*
D61*
X2535619Y621919D03*
D13*
X2524760Y621919D03*
D93*
X2514092Y621919D03*
D97*
X2503551Y621919D03*
D60*
X2496249Y621919D03*
D98*
X2480882Y621919D03*
D61*
X2469833Y621919D03*
D86*
X2459038Y621919D03*
D69*
X2452624Y621919D03*
D44*
X2442464Y621919D03*
D74*
X2432495Y621919D03*
D57*
X2424494Y621919D03*
D14*
X2415223Y621919D03*
D61*
X2535492Y622046D03*
D86*
X2524824Y622046D03*
D93*
X2514092Y622046D03*
D60*
X2496122Y622046D03*
D27*
X2480882Y622046D03*
D11*
X2469769Y622046D03*
D86*
X2459038Y622046D03*
D69*
X2452624Y622046D03*
D44*
X2442464Y622046D03*
D74*
X2432495Y622046D03*
D11*
X2424430Y622046D03*
D77*
X2415350Y622046D03*
D61*
X2535492Y622173D03*
D86*
X2524951Y622173D03*
D93*
X2514092Y622173D03*
D99*
X2495931Y622173D03*
D100*
X2480818Y622173D03*
D61*
X2469706Y622173D03*
D86*
X2459165Y622173D03*
D43*
X2452561Y622173D03*
D101*
X2442528Y622173D03*
D74*
X2432495Y622173D03*
D11*
X2424303Y622173D03*
D77*
X2415477Y622173D03*
D11*
X2535428Y622300D03*
D86*
X2524951Y622300D03*
D24*
X2514029Y622300D03*
D60*
X2495741Y622300D03*
D102*
X2480882Y622300D03*
D11*
X2469642Y622300D03*
D86*
X2459165Y622300D03*
D69*
X2452497Y622300D03*
D101*
X2442528Y622300D03*
D13*
X2432431Y622300D03*
D57*
X2424240Y622300D03*
D54*
X2415540Y622300D03*
D61*
X2535365Y622427D03*
D87*
X2525014Y622427D03*
D24*
X2514029Y622427D03*
D99*
X2495550Y622427D03*
D28*
X2480818Y622427D03*
D61*
X2469579Y622427D03*
D87*
X2459228Y622427D03*
D69*
X2452497Y622427D03*
D101*
X2442528Y622427D03*
D74*
X2432368Y622427D03*
D57*
X2424113Y622427D03*
D54*
X2415667Y622427D03*
D11*
X2535301Y622554D03*
D87*
X2525014Y622554D03*
D24*
X2514029Y622554D03*
D99*
X2495423Y622554D03*
D101*
X2483676Y622554D03*
D87*
X2477135Y622554D03*
D11*
X2469515Y622554D03*
D86*
X2459292Y622554D03*
D69*
X2452497Y622554D03*
D15*
X2442591Y622554D03*
D74*
X2432368Y622554D03*
D11*
X2424049Y622554D03*
D60*
X2415731Y622554D03*
D11*
X2535301Y622681D03*
D86*
X2525078Y622681D03*
D24*
X2514029Y622681D03*
D99*
X2495296Y622681D03*
D47*
X2483993Y622681D03*
D55*
X2476627Y622681D03*
D11*
X2469515Y622681D03*
D87*
X2459355Y622681D03*
D69*
X2452497Y622681D03*
D15*
X2442591Y622681D03*
D74*
X2432368Y622681D03*
D11*
X2423922Y622681D03*
D60*
X2415858Y622681D03*
D11*
X2535174Y622808D03*
D87*
X2525141Y622808D03*
D24*
X2514029Y622808D03*
D51*
X2502154Y622808D03*
D99*
X2495169Y622808D03*
D77*
X2484057Y622808D03*
D71*
X2476500Y622808D03*
D11*
X2469388Y622808D03*
D87*
X2459355Y622808D03*
D43*
X2452434Y622808D03*
D103*
X2442528Y622808D03*
D74*
X2432368Y622808D03*
D57*
X2423859Y622808D03*
D99*
X2415921Y622808D03*
D11*
X2535174Y622935D03*
D87*
X2525141Y622935D03*
D89*
X2513965Y622935D03*
D56*
X2502218Y622935D03*
D99*
X2495042Y622935D03*
D77*
X2484184Y622935D03*
D104*
X2476310Y622935D03*
D11*
X2469388Y622935D03*
D87*
X2459355Y622935D03*
D43*
X2452434Y622935D03*
D62*
X2442591Y622935D03*
D74*
X2432241Y622935D03*
D11*
X2423795Y622935D03*
D60*
X2415985Y622935D03*
D11*
X2535047Y623062D03*
D86*
X2525205Y623062D03*
D89*
X2513965Y623062D03*
D57*
X2502218Y623062D03*
D74*
X2494979Y623062D03*
D54*
X2484247Y623062D03*
D104*
X2476183Y623062D03*
D57*
X2469325Y623062D03*
D87*
X2459482Y623062D03*
D69*
X2452370Y623062D03*
D62*
X2442591Y623062D03*
D74*
X2432241Y623062D03*
D11*
X2423668Y623062D03*
D99*
X2416048Y623062D03*
D11*
X2535047Y623189D03*
D87*
X2525268Y623189D03*
D89*
X2513965Y623189D03*
D65*
X2502281Y623189D03*
D74*
X2494852Y623189D03*
D60*
X2484311Y623189D03*
D67*
X2476119Y623189D03*
D11*
X2469261Y623189D03*
D87*
X2459482Y623189D03*
D69*
X2452370Y623189D03*
D62*
X2442591Y623189D03*
D74*
X2432241Y623189D03*
D11*
X2423541Y623189D03*
D74*
X2416112Y623189D03*
D57*
X2534984Y623316D03*
D87*
X2525268Y623316D03*
D99*
X2516632Y623316D03*
D43*
X2509838Y623316D03*
D67*
X2502281Y623316D03*
D74*
X2494725Y623316D03*
D99*
X2484374Y623316D03*
D67*
X2475992Y623316D03*
D57*
X2469198Y623316D03*
D87*
X2459482Y623316D03*
D69*
X2452370Y623316D03*
D42*
X2442591Y623316D03*
D74*
X2432241Y623316D03*
D57*
X2423478Y623316D03*
D99*
X2416175Y623316D03*
D11*
X2534920Y623443D03*
D87*
X2525268Y623443D03*
D99*
X2516632Y623443D03*
D45*
X2509520Y623443D03*
D71*
X2502281Y623443D03*
D74*
X2494598Y623443D03*
D60*
X2484438Y623443D03*
D66*
X2475929Y623443D03*
D11*
X2469134Y623443D03*
D87*
X2459482Y623443D03*
D69*
X2452370Y623443D03*
D42*
X2442591Y623443D03*
D74*
X2432241Y623443D03*
D11*
X2423414Y623443D03*
D74*
X2416239Y623443D03*
D57*
X2534857Y623570D03*
D87*
X2525268Y623570D03*
D99*
X2516632Y623570D03*
D48*
X2509330Y623570D03*
D12*
X2502345Y623570D03*
D99*
X2494534Y623570D03*
D60*
X2484438Y623570D03*
D67*
X2475865Y623570D03*
D11*
X2469134Y623570D03*
D83*
X2459546Y623570D03*
D43*
X2452307Y623570D03*
D42*
X2442591Y623570D03*
D74*
X2432241Y623570D03*
D11*
X2423287Y623570D03*
D99*
X2416302Y623570D03*
D11*
X2534793Y623697D03*
D87*
X2525395Y623697D03*
D99*
X2516632Y623697D03*
D105*
X2509203Y623697D03*
D78*
X2502345Y623697D03*
D74*
X2494471Y623697D03*
D99*
X2484501Y623697D03*
D66*
X2475802Y623697D03*
D57*
X2469071Y623697D03*
D87*
X2459609Y623697D03*
D69*
X2452243Y623697D03*
D106*
X2442655Y623697D03*
D74*
X2432114Y623697D03*
D11*
X2423160Y623697D03*
D74*
X2416366Y623697D03*
D57*
X2534730Y623824D03*
D87*
X2525395Y623824D03*
D74*
X2516569Y623824D03*
D107*
X2509076Y623824D03*
D58*
X2502408Y623824D03*
D74*
X2494344Y623824D03*
D99*
X2484501Y623824D03*
D66*
X2475675Y623824D03*
D11*
X2469007Y623824D03*
D87*
X2459609Y623824D03*
D69*
X2452243Y623824D03*
D106*
X2442655Y623824D03*
D74*
X2432114Y623824D03*
D11*
X2423160Y623824D03*
D13*
X2416429Y623824D03*
D57*
X2534730Y623951D03*
D87*
X2525395Y623951D03*
D74*
X2516569Y623951D03*
D108*
X2508949Y623951D03*
D87*
X2502408Y623951D03*
D74*
X2494217Y623951D03*
D99*
X2484501Y623951D03*
D66*
X2475675Y623951D03*
D57*
X2468944Y623951D03*
D87*
X2459609Y623951D03*
D69*
X2452243Y623951D03*
D106*
X2442655Y623951D03*
D74*
X2432114Y623951D03*
D11*
X2423033Y623951D03*
D74*
X2416493Y623951D03*
D57*
X2534603Y624078D03*
D87*
X2525395Y624078D03*
D74*
X2516569Y624078D03*
D68*
X2508949Y624078D03*
D86*
X2502472Y624078D03*
D99*
X2494153Y624078D03*
X2484501Y624078D03*
D66*
X2475548Y624078D03*
D11*
X2468880Y624078D03*
D87*
X2459609Y624078D03*
D69*
X2452243Y624078D03*
D73*
X2442655Y624078D03*
D74*
X2432114Y624078D03*
D11*
X2422906Y624078D03*
D74*
X2416493Y624078D03*
D57*
X2534603Y624205D03*
D87*
X2525395Y624205D03*
D99*
X2516505Y624205D03*
D10*
X2508822Y624205D03*
D13*
X2502408Y624205D03*
D74*
X2494090Y624205D03*
D99*
X2484501Y624205D03*
D66*
X2475548Y624205D03*
D57*
X2468817Y624205D03*
D83*
X2459673Y624205D03*
D43*
X2452180Y624205D03*
D73*
X2442655Y624205D03*
D13*
X2432050Y624205D03*
D11*
X2422779Y624205D03*
D13*
X2416556Y624205D03*
D57*
X2534476Y624332D03*
D83*
X2525459Y624332D03*
D74*
X2516442Y624332D03*
D109*
X2508822Y624332D03*
D74*
X2502472Y624332D03*
D99*
X2494026Y624332D03*
X2484501Y624332D03*
D41*
X2475484Y624332D03*
D57*
X2468817Y624332D03*
D83*
X2459673Y624332D03*
D43*
X2452180Y624332D03*
D73*
X2442655Y624332D03*
D74*
X2431987Y624332D03*
D11*
X2422779Y624332D03*
D74*
X2416620Y624332D03*
D57*
X2534476Y624459D03*
D83*
X2525459Y624459D03*
D74*
X2516442Y624459D03*
D99*
X2502535Y624459D03*
D74*
X2493963Y624459D03*
D99*
X2484501Y624459D03*
D66*
X2475421Y624459D03*
D57*
X2468690Y624459D03*
D83*
X2459673Y624459D03*
D69*
X2452116Y624459D03*
D72*
X2442718Y624459D03*
D74*
X2431987Y624459D03*
D11*
X2422652Y624459D03*
D13*
X2416683Y624459D03*
D57*
X2534476Y624586D03*
D83*
X2525459Y624586D03*
D74*
X2516442Y624586D03*
D60*
X2502472Y624586D03*
D74*
X2493836Y624586D03*
D99*
X2484501Y624586D03*
D66*
X2475421Y624586D03*
D57*
X2468690Y624586D03*
D83*
X2459673Y624586D03*
D69*
X2452116Y624586D03*
D72*
X2442718Y624586D03*
D74*
X2431987Y624586D03*
D11*
X2422525Y624586D03*
D74*
X2416747Y624586D03*
D31*
X2529396Y624713D03*
D74*
X2516442Y624713D03*
D60*
X2502599Y624713D03*
D99*
X2493772Y624713D03*
X2484501Y624713D03*
D66*
X2475294Y624713D03*
D31*
X2463610Y624713D03*
D69*
X2452116Y624713D03*
D110*
X2442655Y624713D03*
D74*
X2431987Y624713D03*
D61*
X2422462Y624713D03*
D74*
X2416747Y624713D03*
D31*
X2529396Y624840D03*
D99*
X2516378Y624840D03*
D86*
X2502853Y624840D03*
D74*
X2493709Y624840D03*
D99*
X2484501Y624840D03*
D66*
X2475294Y624840D03*
D31*
X2463610Y624840D03*
D43*
X2452053Y624840D03*
D17*
X2442718Y624840D03*
D74*
X2431987Y624840D03*
D61*
X2422335Y624840D03*
D13*
X2416810Y624840D03*
D111*
X2529332Y624967D03*
D99*
X2516378Y624967D03*
D87*
X2503043Y624967D03*
D99*
X2493645Y624967D03*
X2484501Y624967D03*
D66*
X2475294Y624967D03*
D111*
X2463546Y624967D03*
D43*
X2452053Y624967D03*
D17*
X2442718Y624967D03*
D74*
X2431860Y624967D03*
D11*
X2422271Y624967D03*
D74*
X2416874Y624967D03*
D111*
X2529332Y625094D03*
D74*
X2516315Y625094D03*
D83*
X2503107Y625094D03*
D74*
X2493582Y625094D03*
D99*
X2484501Y625094D03*
D66*
X2475167Y625094D03*
D111*
X2463546Y625094D03*
D69*
X2451989Y625094D03*
D17*
X2442718Y625094D03*
D74*
X2431860Y625094D03*
D11*
X2422144Y625094D03*
D74*
X2416874Y625094D03*
D30*
X2529269Y625221D03*
D74*
X2516315Y625221D03*
D83*
X2503234Y625221D03*
D99*
X2493518Y625221D03*
X2484501Y625221D03*
D66*
X2475167Y625221D03*
D29*
X2463546Y625221D03*
D69*
X2451989Y625221D03*
D75*
X2442782Y625221D03*
D74*
X2431860Y625221D03*
D61*
X2422081Y625221D03*
D13*
X2416937Y625221D03*
D30*
X2529269Y625348D03*
D74*
X2516315Y625348D03*
D83*
X2503234Y625348D03*
D99*
X2493518Y625348D03*
X2484501Y625348D03*
D66*
X2475167Y625348D03*
D29*
X2463546Y625348D03*
D69*
X2451989Y625348D03*
D112*
X2442718Y625348D03*
D74*
X2431860Y625348D03*
D61*
X2421954Y625348D03*
D74*
X2417001Y625348D03*
D29*
X2529205Y625475D03*
D74*
X2516315Y625475D03*
D58*
X2503297Y625475D03*
D99*
X2493391Y625475D03*
X2484501Y625475D03*
D66*
X2475167Y625475D03*
D113*
X2463483Y625475D03*
D69*
X2451989Y625475D03*
D112*
X2442718Y625475D03*
D74*
X2431860Y625475D03*
D11*
X2421890Y625475D03*
D74*
X2417001Y625475D03*
D113*
X2529269Y625602D03*
D99*
X2516251Y625602D03*
D83*
X2503361Y625602D03*
D99*
X2493391Y625602D03*
D74*
X2484438Y625602D03*
D66*
X2475040Y625602D03*
D113*
X2463483Y625602D03*
D43*
X2451926Y625602D03*
D81*
X2442782Y625602D03*
D74*
X2431733Y625602D03*
D11*
X2421763Y625602D03*
D13*
X2417064Y625602D03*
D28*
X2529205Y625729D03*
D99*
X2516251Y625729D03*
D58*
X2503424Y625729D03*
D99*
X2493264Y625729D03*
X2484374Y625729D03*
D66*
X2475040Y625729D03*
D28*
X2463419Y625729D03*
D69*
X2451862Y625729D03*
D81*
X2442782Y625729D03*
D74*
X2431733Y625729D03*
D82*
X2418842Y625729D03*
D28*
X2529205Y625856D03*
D74*
X2516188Y625856D03*
D58*
X2503424Y625856D03*
D99*
X2493264Y625856D03*
X2484374Y625856D03*
D66*
X2475040Y625856D03*
D28*
X2463419Y625856D03*
D69*
X2451862Y625856D03*
D81*
X2442782Y625856D03*
D74*
X2431733Y625856D03*
D18*
X2418842Y625856D03*
D102*
X2529142Y625983D03*
D74*
X2516188Y625983D03*
D83*
X2503488Y625983D03*
D74*
X2493201Y625983D03*
D99*
X2484374Y625983D03*
D66*
X2475040Y625983D03*
D102*
X2463356Y625983D03*
D69*
X2451862Y625983D03*
D18*
X2442845Y625983D03*
D74*
X2431733Y625983D03*
D81*
X2418779Y625983D03*
D102*
X2529142Y626110D03*
D74*
X2516188Y626110D03*
D83*
X2503488Y626110D03*
D99*
X2493137Y626110D03*
X2484374Y626110D03*
D66*
X2474913Y626110D03*
D102*
X2463356Y626110D03*
D69*
X2451862Y626110D03*
D99*
X2444369Y626110D03*
D69*
X2439797Y626110D03*
D74*
X2431733Y626110D03*
D81*
X2418779Y626110D03*
D100*
X2529078Y626237D03*
D99*
X2516124Y626237D03*
D83*
X2503488Y626237D03*
D99*
X2493137Y626237D03*
X2484374Y626237D03*
D66*
X2474913Y626237D03*
D102*
X2463356Y626237D03*
D43*
X2451799Y626237D03*
D99*
X2444369Y626237D03*
D43*
X2439734Y626237D03*
D74*
X2431606Y626237D03*
D75*
X2418779Y626237D03*
D100*
X2529078Y626364D03*
D99*
X2516124Y626364D03*
D83*
X2503488Y626364D03*
D74*
X2493074Y626364D03*
D99*
X2484374Y626364D03*
D66*
X2474913Y626364D03*
D100*
X2463292Y626364D03*
D43*
X2451799Y626364D03*
D60*
X2444433Y626364D03*
D69*
X2439670Y626364D03*
D74*
X2431606Y626364D03*
D17*
X2418715Y626364D03*
D27*
X2529015Y626491D03*
D74*
X2516061Y626491D03*
D83*
X2503488Y626491D03*
D99*
X2493010Y626491D03*
X2484247Y626491D03*
D66*
X2474913Y626491D03*
D27*
X2463229Y626491D03*
D69*
X2451735Y626491D03*
D99*
X2444496Y626491D03*
D69*
X2439670Y626491D03*
D74*
X2431606Y626491D03*
D110*
X2418652Y626491D03*
D27*
X2529015Y626618D03*
D74*
X2516061Y626618D03*
D83*
X2503488Y626618D03*
D99*
X2493010Y626618D03*
X2484247Y626618D03*
D66*
X2474786Y626618D03*
D27*
X2463229Y626618D03*
D69*
X2451735Y626618D03*
D99*
X2444496Y626618D03*
D69*
X2439670Y626618D03*
D74*
X2431606Y626618D03*
D72*
X2418715Y626618D03*
D49*
X2533396Y626745D03*
D83*
X2525586Y626745D03*
D74*
X2516061Y626745D03*
D83*
X2503488Y626745D03*
D99*
X2492883Y626745D03*
X2484247Y626745D03*
D66*
X2474786Y626745D03*
D49*
X2467737Y626745D03*
D83*
X2459800Y626745D03*
D69*
X2451735Y626745D03*
D60*
X2444560Y626745D03*
D43*
X2439607Y626745D03*
D74*
X2431606Y626745D03*
D73*
X2418652Y626745D03*
D49*
X2533396Y626872D03*
D83*
X2525586Y626872D03*
D74*
X2516061Y626872D03*
D87*
X2503551Y626872D03*
D99*
X2492883Y626872D03*
X2484247Y626872D03*
D66*
X2474786Y626872D03*
D49*
X2467610Y626872D03*
D58*
X2459863Y626872D03*
D69*
X2451735Y626872D03*
D99*
X2444623Y626872D03*
D43*
X2439607Y626872D03*
D99*
X2431542Y626872D03*
D16*
X2418588Y626872D03*
D49*
X2533396Y626999D03*
D58*
X2525649Y626999D03*
D99*
X2515997Y626999D03*
D87*
X2503551Y626999D03*
D99*
X2492883Y626999D03*
D74*
X2484184Y626999D03*
D66*
X2474786Y626999D03*
D49*
X2467610Y626999D03*
D58*
X2459863Y626999D03*
D43*
X2451672Y626999D03*
D99*
X2444623Y626999D03*
D69*
X2439543Y626999D03*
D74*
X2431479Y626999D03*
D42*
X2418588Y626999D03*
D49*
X2533269Y627126D03*
D58*
X2525649Y627126D03*
D99*
X2515997Y627126D03*
D87*
X2503551Y627126D03*
D99*
X2492883Y627126D03*
X2484120Y627126D03*
D66*
X2474786Y627126D03*
D49*
X2467483Y627126D03*
D58*
X2459863Y627126D03*
D69*
X2451608Y627126D03*
D60*
X2444687Y627126D03*
D69*
X2439543Y627126D03*
D74*
X2431479Y627126D03*
D42*
X2418588Y627126D03*
D49*
X2533269Y627253D03*
D58*
X2525649Y627253D03*
D74*
X2515934Y627253D03*
D87*
X2503551Y627253D03*
D99*
X2492756Y627253D03*
X2484120Y627253D03*
D66*
X2474786Y627253D03*
D49*
X2467483Y627253D03*
D58*
X2459863Y627253D03*
D69*
X2451608Y627253D03*
D99*
X2444750Y627253D03*
D69*
X2439543Y627253D03*
D74*
X2431479Y627253D03*
D114*
X2418525Y627253D03*
D49*
X2533142Y627380D03*
D58*
X2525649Y627380D03*
D74*
X2515934Y627380D03*
D87*
X2503551Y627380D03*
D99*
X2492756Y627380D03*
X2484120Y627380D03*
D66*
X2474659Y627380D03*
D49*
X2467356Y627380D03*
D58*
X2459863Y627380D03*
D69*
X2451608Y627380D03*
D99*
X2444750Y627380D03*
D69*
X2439543Y627380D03*
D74*
X2431479Y627380D03*
D103*
X2418525Y627380D03*
D49*
X2533142Y627507D03*
D58*
X2525649Y627507D03*
D74*
X2515934Y627507D03*
D87*
X2503551Y627507D03*
D99*
X2492756Y627507D03*
X2484120Y627507D03*
D66*
X2474659Y627507D03*
D49*
X2467356Y627507D03*
D58*
X2459863Y627507D03*
D69*
X2451608Y627507D03*
D60*
X2444814Y627507D03*
D43*
X2439480Y627507D03*
D74*
X2431352Y627507D03*
D103*
X2418525Y627507D03*
D49*
X2533015Y627634D03*
D58*
X2525649Y627634D03*
D74*
X2515934Y627634D03*
D87*
X2503551Y627634D03*
D99*
X2492629Y627634D03*
X2484120Y627634D03*
D66*
X2474659Y627634D03*
D49*
X2467229Y627634D03*
D58*
X2459863Y627634D03*
D69*
X2451608Y627634D03*
D99*
X2444877Y627634D03*
D69*
X2439416Y627634D03*
D74*
X2431352Y627634D03*
D15*
X2418461Y627634D03*
D49*
X2533015Y627761D03*
D58*
X2525649Y627761D03*
D99*
X2515870Y627761D03*
D87*
X2503551Y627761D03*
D99*
X2492629Y627761D03*
D74*
X2484057Y627761D03*
D66*
X2474659Y627761D03*
D49*
X2467229Y627761D03*
D58*
X2459863Y627761D03*
D43*
X2451545Y627761D03*
D99*
X2444877Y627761D03*
D69*
X2439416Y627761D03*
D74*
X2431352Y627761D03*
D44*
X2418461Y627761D03*
D49*
X2532888Y627888D03*
D58*
X2525649Y627888D03*
D74*
X2515807Y627888D03*
D87*
X2503551Y627888D03*
D99*
X2492629Y627888D03*
X2483993Y627888D03*
D66*
X2474659Y627888D03*
D43*
X2467166Y627888D03*
D83*
X2459927Y627888D03*
D43*
X2451545Y627888D03*
D60*
X2444941Y627888D03*
D69*
X2439416Y627888D03*
D74*
X2431352Y627888D03*
D95*
X2418398Y627888D03*
D49*
X2532888Y628015D03*
D58*
X2525649Y628015D03*
D74*
X2515807Y628015D03*
D87*
X2503551Y628015D03*
D99*
X2492629Y628015D03*
X2483993Y628015D03*
D66*
X2474532Y628015D03*
D49*
X2467102Y628015D03*
D83*
X2459927Y628015D03*
D69*
X2451481Y628015D03*
D99*
X2445004Y628015D03*
D69*
X2439416Y628015D03*
D74*
X2431352Y628015D03*
D64*
X2418461Y628015D03*
D43*
X2532825Y628142D03*
D83*
X2525713Y628142D03*
D74*
X2515807Y628142D03*
D87*
X2503551Y628142D03*
D74*
X2492566Y628142D03*
D99*
X2483993Y628142D03*
D66*
X2474532Y628142D03*
D43*
X2467039Y628142D03*
D58*
X2459990Y628142D03*
D69*
X2451481Y628142D03*
D99*
X2445004Y628142D03*
D43*
X2439353Y628142D03*
D99*
X2431288Y628142D03*
D14*
X2418398Y628142D03*
D49*
X2532761Y628269D03*
D83*
X2525713Y628269D03*
D74*
X2515807Y628269D03*
D87*
X2503551Y628269D03*
D99*
X2492502Y628269D03*
X2483993Y628269D03*
D66*
X2474532Y628269D03*
D49*
X2466975Y628269D03*
D58*
X2459990Y628269D03*
D69*
X2451481Y628269D03*
D99*
X2445131Y628269D03*
D43*
X2439353Y628269D03*
D74*
X2431225Y628269D03*
D47*
X2418334Y628269D03*
D43*
X2532698Y628396D03*
D83*
X2525713Y628396D03*
D99*
X2515743Y628396D03*
D87*
X2503551Y628396D03*
D99*
X2492502Y628396D03*
D74*
X2483930Y628396D03*
D66*
X2474532Y628396D03*
D43*
X2466912Y628396D03*
D58*
X2459990Y628396D03*
D43*
X2451418Y628396D03*
D99*
X2445131Y628396D03*
D69*
X2439289Y628396D03*
D74*
X2431225Y628396D03*
D77*
X2418398Y628396D03*
D49*
X2532634Y628523D03*
D83*
X2525713Y628523D03*
D99*
X2515743Y628523D03*
D86*
X2503488Y628523D03*
D99*
X2492502Y628523D03*
X2483866Y628523D03*
D66*
X2474532Y628523D03*
D49*
X2466848Y628523D03*
D58*
X2459990Y628523D03*
D43*
X2451418Y628523D03*
D99*
X2445131Y628523D03*
D69*
X2439289Y628523D03*
D74*
X2431225Y628523D03*
D54*
X2418334Y628523D03*
D43*
X2532571Y628650D03*
D58*
X2525776Y628650D03*
D74*
X2515680Y628650D03*
D86*
X2503488Y628650D03*
D99*
X2492502Y628650D03*
X2483866Y628650D03*
D66*
X2474405Y628650D03*
D43*
X2466785Y628650D03*
D58*
X2459990Y628650D03*
D69*
X2451354Y628650D03*
D99*
X2445258Y628650D03*
D69*
X2439289Y628650D03*
D74*
X2431225Y628650D03*
D60*
X2418271Y628650D03*
D49*
X2532507Y628777D03*
D58*
X2525776Y628777D03*
D74*
X2515680Y628777D03*
D86*
X2503488Y628777D03*
D74*
X2492439Y628777D03*
D99*
X2483866Y628777D03*
D66*
X2474405Y628777D03*
D43*
X2466785Y628777D03*
D58*
X2459990Y628777D03*
D69*
X2451354Y628777D03*
D99*
X2445258Y628777D03*
D43*
X2439226Y628777D03*
D74*
X2431225Y628777D03*
X2418271Y628777D03*
D43*
X2532444Y628904D03*
D58*
X2525776Y628904D03*
D74*
X2515680Y628904D03*
D86*
X2503488Y628904D03*
D74*
X2492439Y628904D03*
D99*
X2483866Y628904D03*
D66*
X2474405Y628904D03*
D49*
X2466721Y628904D03*
D58*
X2459990Y628904D03*
D69*
X2451354Y628904D03*
D99*
X2445258Y628904D03*
D43*
X2439226Y628904D03*
D74*
X2431098Y628904D03*
X2418271Y628904D03*
D43*
X2532444Y629031D03*
D58*
X2525776Y629031D03*
D74*
X2515680Y629031D03*
D86*
X2503488Y629031D03*
D99*
X2492375Y629031D03*
X2483866Y629031D03*
D66*
X2474405Y629031D03*
D43*
X2466658Y629031D03*
D58*
X2459990Y629031D03*
D69*
X2451354Y629031D03*
D99*
X2445385Y629031D03*
D69*
X2439162Y629031D03*
D74*
X2431098Y629031D03*
X2418271Y629031D03*
D43*
X2532317Y629158D03*
D58*
X2525776Y629158D03*
D99*
X2515616Y629158D03*
D86*
X2503488Y629158D03*
D99*
X2492375Y629158D03*
D74*
X2483803Y629158D03*
D66*
X2474405Y629158D03*
D43*
X2466531Y629158D03*
D58*
X2459990Y629158D03*
D43*
X2451291Y629158D03*
D99*
X2445385Y629158D03*
D69*
X2439162Y629158D03*
D74*
X2431098Y629158D03*
X2418398Y629158D03*
D43*
X2532317Y629285D03*
D58*
X2525776Y629285D03*
D74*
X2515553Y629285D03*
D87*
X2503424Y629285D03*
D99*
X2492375Y629285D03*
X2483739Y629285D03*
D66*
X2474405Y629285D03*
D43*
X2466531Y629285D03*
D58*
X2459990Y629285D03*
D69*
X2451227Y629285D03*
D99*
X2445385Y629285D03*
D69*
X2439162Y629285D03*
D74*
X2431098Y629285D03*
X2418398Y629285D03*
D43*
X2532190Y629412D03*
D58*
X2525776Y629412D03*
D74*
X2515553Y629412D03*
D86*
X2503361Y629412D03*
D99*
X2492375Y629412D03*
X2483739Y629412D03*
D66*
X2474278Y629412D03*
D49*
X2466467Y629412D03*
D58*
X2459990Y629412D03*
D69*
X2451227Y629412D03*
D99*
X2445512Y629412D03*
D69*
X2439162Y629412D03*
D99*
X2431034Y629412D03*
D60*
X2418398Y629412D03*
D43*
X2532190Y629539D03*
D58*
X2525776Y629539D03*
D74*
X2515553Y629539D03*
D86*
X2503361Y629539D03*
D74*
X2492312Y629539D03*
D99*
X2483739Y629539D03*
D66*
X2474278Y629539D03*
D43*
X2466404Y629539D03*
D58*
X2459990Y629539D03*
D69*
X2451227Y629539D03*
D99*
X2445512Y629539D03*
D43*
X2439099Y629539D03*
D74*
X2430971Y629539D03*
D54*
X2418334Y629539D03*
D43*
X2532063Y629666D03*
D58*
X2525776Y629666D03*
D74*
X2515553Y629666D03*
D86*
X2503361Y629666D03*
D74*
X2492312Y629666D03*
D99*
X2483739Y629666D03*
D66*
X2474278Y629666D03*
D43*
X2466404Y629666D03*
D58*
X2459990Y629666D03*
D69*
X2451227Y629666D03*
D99*
X2445512Y629666D03*
D43*
X2439099Y629666D03*
D74*
X2430971Y629666D03*
D54*
X2418334Y629666D03*
D43*
X2532063Y629793D03*
D58*
X2525776Y629793D03*
D99*
X2515489Y629793D03*
D86*
X2503361Y629793D03*
D74*
X2492312Y629793D03*
X2483676Y629793D03*
D66*
X2474278Y629793D03*
D43*
X2466277Y629793D03*
D78*
X2460054Y629793D03*
D43*
X2451164Y629793D03*
D99*
X2445639Y629793D03*
D69*
X2439035Y629793D03*
D74*
X2430971Y629793D03*
D47*
X2418334Y629793D03*
D69*
X2531999Y629920D03*
D78*
X2525840Y629920D03*
D74*
X2515426Y629920D03*
D86*
X2503361Y629920D03*
D74*
X2492312Y629920D03*
D99*
X2483612Y629920D03*
D41*
X2474214Y629920D03*
D43*
X2466277Y629920D03*
D78*
X2460054Y629920D03*
D43*
X2451164Y629920D03*
D99*
X2445639Y629920D03*
D69*
X2439035Y629920D03*
D74*
X2430971Y629920D03*
D14*
X2418271Y629920D03*
D43*
X2531936Y630047D03*
D78*
X2525840Y630047D03*
D74*
X2515426Y630047D03*
D86*
X2503361Y630047D03*
D99*
X2492248Y630047D03*
X2483612Y630047D03*
D66*
X2474151Y630047D03*
D43*
X2466150Y630047D03*
D78*
X2460054Y630047D03*
D69*
X2451100Y630047D03*
D99*
X2445639Y630047D03*
D69*
X2439035Y630047D03*
D74*
X2430971Y630047D03*
D64*
X2418207Y630047D03*
D43*
X2531936Y630174D03*
D78*
X2525840Y630174D03*
D74*
X2515426Y630174D03*
D13*
X2503297Y630174D03*
D99*
X2492248Y630174D03*
X2483612Y630174D03*
D66*
X2474151Y630174D03*
D43*
X2466150Y630174D03*
D78*
X2460054Y630174D03*
D69*
X2451100Y630174D03*
D99*
X2445766Y630174D03*
D43*
X2438972Y630174D03*
D99*
X2430907Y630174D03*
D95*
X2418271Y630174D03*
D43*
X2531809Y630301D03*
D78*
X2525840Y630301D03*
D74*
X2515426Y630301D03*
D86*
X2503234Y630301D03*
D99*
X2492248Y630301D03*
X2483612Y630301D03*
D66*
X2474151Y630301D03*
D43*
X2466023Y630301D03*
D58*
X2460117Y630301D03*
D69*
X2451100Y630301D03*
D99*
X2445766Y630301D03*
D43*
X2438972Y630301D03*
D74*
X2430844Y630301D03*
D44*
X2418207Y630301D03*
D43*
X2531809Y630428D03*
D78*
X2525840Y630428D03*
D99*
X2515362Y630428D03*
D86*
X2503234Y630428D03*
D99*
X2492248Y630428D03*
D74*
X2483549Y630428D03*
D66*
X2474151Y630428D03*
D43*
X2466023Y630428D03*
D58*
X2460117Y630428D03*
D43*
X2451037Y630428D03*
D99*
X2445766Y630428D03*
D43*
X2438972Y630428D03*
D74*
X2430844Y630428D03*
D101*
X2418144Y630428D03*
D43*
X2531682Y630555D03*
D78*
X2525840Y630555D03*
D99*
X2515362Y630555D03*
D86*
X2503234Y630555D03*
D99*
X2492248Y630555D03*
X2483485Y630555D03*
D66*
X2474151Y630555D03*
D43*
X2465896Y630555D03*
D58*
X2460117Y630555D03*
D43*
X2451037Y630555D03*
D99*
X2445893Y630555D03*
D69*
X2438908Y630555D03*
D74*
X2430844Y630555D03*
D103*
X2418144Y630555D03*
D43*
X2531682Y630682D03*
D78*
X2525840Y630682D03*
D74*
X2515299Y630682D03*
D86*
X2503234Y630682D03*
D99*
X2492248Y630682D03*
X2483485Y630682D03*
D41*
X2474087Y630682D03*
D43*
X2465896Y630682D03*
D58*
X2460117Y630682D03*
D69*
X2450973Y630682D03*
D99*
X2445893Y630682D03*
D69*
X2438908Y630682D03*
D74*
X2430844Y630682D03*
D103*
X2418144Y630682D03*
D43*
X2531555Y630809D03*
D78*
X2525840Y630809D03*
D74*
X2515299Y630809D03*
D86*
X2503107Y630809D03*
D74*
X2492185Y630809D03*
D99*
X2483485Y630809D03*
D66*
X2474024Y630809D03*
D43*
X2465769Y630809D03*
D58*
X2460117Y630809D03*
D69*
X2450973Y630809D03*
D99*
X2445893Y630809D03*
D69*
X2438908Y630809D03*
D74*
X2430717Y630809D03*
D62*
X2418080Y630809D03*
D43*
X2531555Y630936D03*
D78*
X2525840Y630936D03*
D74*
X2515299Y630936D03*
D86*
X2503107Y630936D03*
D74*
X2492185Y630936D03*
D99*
X2483485Y630936D03*
D66*
X2474024Y630936D03*
D43*
X2465769Y630936D03*
D58*
X2460117Y630936D03*
D69*
X2450973Y630936D03*
D99*
X2446020Y630936D03*
D43*
X2438845Y630936D03*
D74*
X2430717Y630936D03*
D42*
X2418080Y630936D03*
D43*
X2531428Y631063D03*
D78*
X2525840Y631063D03*
D74*
X2515299Y631063D03*
D86*
X2503107Y631063D03*
D74*
X2492185Y631063D03*
X2483422Y631063D03*
D66*
X2474024Y631063D03*
D69*
X2465705Y631063D03*
D58*
X2460117Y631063D03*
D69*
X2450973Y631063D03*
D99*
X2446020Y631063D03*
D69*
X2438781Y631063D03*
D74*
X2430717Y631063D03*
D106*
X2418017Y631063D03*
D43*
X2531428Y631190D03*
D58*
X2525903Y631190D03*
D99*
X2515235Y631190D03*
D86*
X2503107Y631190D03*
D74*
X2492185Y631190D03*
X2483422Y631190D03*
D66*
X2474024Y631190D03*
D43*
X2465642Y631190D03*
D78*
X2460181Y631190D03*
D43*
X2450910Y631190D03*
D99*
X2446020Y631190D03*
D69*
X2438781Y631190D03*
D74*
X2430717Y631190D03*
D73*
X2418017Y631190D03*
D69*
X2531364Y631317D03*
D58*
X2525903Y631317D03*
D74*
X2515172Y631317D03*
D13*
X2503043Y631317D03*
D74*
X2492185Y631317D03*
D99*
X2483358Y631317D03*
D66*
X2473897Y631317D03*
D69*
X2465578Y631317D03*
D78*
X2460181Y631317D03*
D43*
X2450910Y631317D03*
D74*
X2446084Y631317D03*
D69*
X2438781Y631317D03*
D74*
X2430717Y631317D03*
D73*
X2418017Y631317D03*
D43*
X2531301Y631444D03*
D78*
X2525967Y631444D03*
D74*
X2515172Y631444D03*
D86*
X2502980Y631444D03*
D74*
X2492185Y631444D03*
D99*
X2483358Y631444D03*
D66*
X2473897Y631444D03*
D43*
X2465515Y631444D03*
D78*
X2460181Y631444D03*
D69*
X2450846Y631444D03*
D99*
X2446147Y631444D03*
D69*
X2438781Y631444D03*
D99*
X2430653Y631444D03*
D72*
X2417953Y631444D03*
D69*
X2531237Y631571D03*
D78*
X2525967Y631571D03*
D74*
X2515172Y631571D03*
D86*
X2502980Y631571D03*
D74*
X2492185Y631571D03*
D99*
X2483358Y631571D03*
D66*
X2473897Y631571D03*
D69*
X2465451Y631571D03*
D78*
X2460181Y631571D03*
D69*
X2450846Y631571D03*
D74*
X2446211Y631571D03*
D43*
X2438718Y631571D03*
D74*
X2430590Y631571D03*
D17*
X2417953Y631571D03*
D43*
X2531174Y631698D03*
D78*
X2525967Y631698D03*
D74*
X2515172Y631698D03*
D86*
X2502980Y631698D03*
D74*
X2492185Y631698D03*
X2483295Y631698D03*
D66*
X2473897Y631698D03*
D43*
X2465388Y631698D03*
D78*
X2460181Y631698D03*
D69*
X2450846Y631698D03*
D99*
X2446274Y631698D03*
D43*
X2438718Y631698D03*
D74*
X2430590Y631698D03*
D75*
X2417890Y631698D03*
D69*
X2531110Y631825D03*
D78*
X2525967Y631825D03*
D99*
X2515108Y631825D03*
D86*
X2502853Y631825D03*
D74*
X2492185Y631825D03*
D99*
X2483231Y631825D03*
D66*
X2473897Y631825D03*
D69*
X2465324Y631825D03*
D78*
X2460181Y631825D03*
D18*
X2447798Y631825D03*
D43*
X2438718Y631825D03*
D74*
X2430590Y631825D03*
D75*
X2417890Y631825D03*
D43*
X2531047Y631952D03*
D78*
X2525967Y631952D03*
D99*
X2515108Y631952D03*
D86*
X2502853Y631952D03*
D74*
X2492185Y631952D03*
D99*
X2483231Y631952D03*
D66*
X2473897Y631952D03*
D43*
X2465261Y631952D03*
D78*
X2460181Y631952D03*
D18*
X2447798Y631952D03*
D69*
X2438654Y631952D03*
D74*
X2430590Y631952D03*
D81*
X2417890Y631952D03*
D69*
X2530983Y632079D03*
D78*
X2525967Y632079D03*
D74*
X2515045Y632079D03*
D86*
X2502853Y632079D03*
D74*
X2492185Y632079D03*
D99*
X2483231Y632079D03*
D66*
X2473770Y632079D03*
D43*
X2465261Y632079D03*
D78*
X2460181Y632079D03*
D112*
X2447798Y632079D03*
D69*
X2438654Y632079D03*
D99*
X2430526Y632079D03*
D18*
X2417826Y632079D03*
D43*
X2530920Y632206D03*
D78*
X2525967Y632206D03*
D74*
X2515045Y632206D03*
D86*
X2502726Y632206D03*
D74*
X2492185Y632206D03*
D99*
X2483231Y632206D03*
D66*
X2473770Y632206D03*
D69*
X2465197Y632206D03*
D78*
X2460181Y632206D03*
D112*
X2447798Y632206D03*
D43*
X2438591Y632206D03*
D74*
X2430463Y632206D03*
D18*
X2417826Y632206D03*
D69*
X2530856Y632333D03*
D78*
X2525967Y632333D03*
D74*
X2515045Y632333D03*
D86*
X2502726Y632333D03*
D74*
X2492185Y632333D03*
D99*
X2483231Y632333D03*
D66*
X2473770Y632333D03*
D43*
X2465134Y632333D03*
D78*
X2460181Y632333D03*
D112*
X2447798Y632333D03*
D43*
X2438591Y632333D03*
D74*
X2430463Y632333D03*
D82*
X2417826Y632333D03*
D43*
X2530793Y632460D03*
D78*
X2525967Y632460D03*
D74*
X2515045Y632460D03*
D87*
X2502662Y632460D03*
D74*
X2492185Y632460D03*
X2483168Y632460D03*
D66*
X2473770Y632460D03*
D69*
X2465070Y632460D03*
D78*
X2460181Y632460D03*
D75*
X2447862Y632460D03*
D43*
X2438591Y632460D03*
D74*
X2430463Y632460D03*
X2419541Y632460D03*
D11*
X2414778Y632460D03*
D69*
X2530729Y632587D03*
D78*
X2525967Y632587D03*
D99*
X2514981Y632587D03*
D86*
X2502599Y632587D03*
D74*
X2492185Y632587D03*
D99*
X2483104Y632587D03*
D66*
X2473770Y632587D03*
D43*
X2465007Y632587D03*
D79*
X2460244Y632587D03*
D75*
X2447862Y632587D03*
D69*
X2438527Y632587D03*
D74*
X2430463Y632587D03*
X2419541Y632587D03*
D11*
X2414651Y632587D03*
D69*
X2530729Y632714D03*
D78*
X2525967Y632714D03*
D74*
X2514918Y632714D03*
D87*
X2502535Y632714D03*
D74*
X2492185Y632714D03*
D99*
X2483104Y632714D03*
D66*
X2473643Y632714D03*
D69*
X2464943Y632714D03*
D79*
X2460244Y632714D03*
D17*
X2447925Y632714D03*
D69*
X2438527Y632714D03*
D99*
X2430399Y632714D03*
D74*
X2419668Y632714D03*
D61*
X2414588Y632714D03*
D43*
X2530666Y632841D03*
D78*
X2525967Y632841D03*
D74*
X2514918Y632841D03*
D86*
X2502472Y632841D03*
D13*
X2492248Y632841D03*
D99*
X2483104Y632841D03*
D66*
X2473643Y632841D03*
D43*
X2464880Y632841D03*
D79*
X2460244Y632841D03*
D110*
X2447862Y632841D03*
D69*
X2438527Y632841D03*
D99*
X2430399Y632841D03*
D74*
X2419668Y632841D03*
D11*
X2414524Y632841D03*
D69*
X2530602Y632968D03*
D79*
X2526030Y632968D03*
D74*
X2514918Y632968D03*
D86*
X2502472Y632968D03*
D13*
X2492248Y632968D03*
D99*
X2483104Y632968D03*
D66*
X2473643Y632968D03*
D69*
X2464816Y632968D03*
D79*
X2460244Y632968D03*
D110*
X2447862Y632968D03*
D69*
X2438527Y632968D03*
D74*
X2430336Y632968D03*
D99*
X2419731Y632968D03*
D11*
X2414397Y632968D03*
D43*
X2530539Y633095D03*
D79*
X2526030Y633095D03*
D74*
X2514918Y633095D03*
D87*
X2502408Y633095D03*
D13*
X2492248Y633095D03*
D74*
X2483041Y633095D03*
D66*
X2473643Y633095D03*
D43*
X2464753Y633095D03*
D79*
X2460244Y633095D03*
D72*
X2447925Y633095D03*
D43*
X2438464Y633095D03*
D74*
X2430336Y633095D03*
X2419795Y633095D03*
D61*
X2414334Y633095D03*
D69*
X2530475Y633222D03*
D79*
X2526030Y633222D03*
D99*
X2514854Y633222D03*
D86*
X2502345Y633222D03*
D13*
X2492248Y633222D03*
D99*
X2482977Y633222D03*
D66*
X2473643Y633222D03*
D69*
X2464689Y633222D03*
D79*
X2460244Y633222D03*
D72*
X2447925Y633222D03*
D69*
X2438400Y633222D03*
D74*
X2430336Y633222D03*
X2419795Y633222D03*
D61*
X2414207Y633222D03*
D43*
X2530412Y633349D03*
D79*
X2526030Y633349D03*
D74*
X2514791Y633349D03*
D87*
X2502281Y633349D03*
D13*
X2492248Y633349D03*
D99*
X2482977Y633349D03*
D66*
X2473516Y633349D03*
D43*
X2464626Y633349D03*
D79*
X2460244Y633349D03*
D72*
X2447925Y633349D03*
D69*
X2438400Y633349D03*
D74*
X2430336Y633349D03*
D99*
X2419858Y633349D03*
D11*
X2414143Y633349D03*
D69*
X2530348Y633476D03*
D79*
X2526030Y633476D03*
D74*
X2514791Y633476D03*
D87*
X2502281Y633476D03*
D13*
X2492248Y633476D03*
D99*
X2482977Y633476D03*
D66*
X2473516Y633476D03*
D69*
X2464562Y633476D03*
D78*
X2460308Y633476D03*
D16*
X2447925Y633476D03*
D69*
X2438400Y633476D03*
D99*
X2430272Y633476D03*
D74*
X2419922Y633476D03*
D11*
X2414016Y633476D03*
D43*
X2530285Y633603D03*
D79*
X2526030Y633603D03*
D74*
X2514791Y633603D03*
D87*
X2502154Y633603D03*
D86*
X2492312Y633603D03*
D99*
X2482977Y633603D03*
D66*
X2473516Y633603D03*
D69*
X2464562Y633603D03*
D78*
X2460308Y633603D03*
D16*
X2447925Y633603D03*
D43*
X2438337Y633603D03*
D74*
X2430209Y633603D03*
X2419922Y633603D03*
D61*
X2413953Y633603D03*
D69*
X2530221Y633730D03*
D79*
X2526030Y633730D03*
D74*
X2514791Y633730D03*
D83*
X2502091Y633730D03*
D86*
X2492312Y633730D03*
D74*
X2482914Y633730D03*
D66*
X2473516Y633730D03*
D69*
X2464435Y633730D03*
D78*
X2460308Y633730D03*
D16*
X2447925Y633730D03*
D43*
X2438337Y633730D03*
D74*
X2430209Y633730D03*
X2420049Y633730D03*
D61*
X2413826Y633730D03*
D69*
X2530221Y633857D03*
D79*
X2526030Y633857D03*
D74*
X2514791Y633857D03*
D87*
X2502027Y633857D03*
D86*
X2492312Y633857D03*
D99*
X2482850Y633857D03*
D66*
X2473516Y633857D03*
D69*
X2464435Y633857D03*
D79*
X2460244Y633857D03*
D106*
X2447989Y633857D03*
D43*
X2438337Y633857D03*
D74*
X2430209Y633857D03*
X2420049Y633857D03*
D11*
X2413762Y633857D03*
D16*
X2527554Y633984D03*
D99*
X2514727Y633984D03*
D83*
X2501964Y633984D03*
D86*
X2492312Y633984D03*
D99*
X2482850Y633984D03*
D66*
X2473516Y633984D03*
D16*
X2461768Y633984D03*
D106*
X2447989Y633984D03*
D69*
X2438273Y633984D03*
D99*
X2430145Y633984D03*
D74*
X2420049Y633984D03*
D11*
X2413635Y633984D03*
D16*
X2527554Y634111D03*
D74*
X2514664Y634111D03*
D87*
X2501900Y634111D03*
D86*
X2492312Y634111D03*
D99*
X2482850Y634111D03*
D66*
X2473389Y634111D03*
D16*
X2461768Y634111D03*
D42*
X2447925Y634111D03*
D69*
X2438273Y634111D03*
D74*
X2430082Y634111D03*
X2420176Y634111D03*
D61*
X2413572Y634111D03*
D106*
X2527491Y634238D03*
D74*
X2514664Y634238D03*
D83*
X2501837Y634238D03*
D87*
X2492375Y634238D03*
D99*
X2482850Y634238D03*
D66*
X2473389Y634238D03*
D42*
X2461768Y634238D03*
D114*
X2447989Y634238D03*
D69*
X2438273Y634238D03*
D74*
X2430082Y634238D03*
X2420176Y634238D03*
D61*
X2413445Y634238D03*
D42*
X2527554Y634365D03*
D74*
X2514664Y634365D03*
D83*
X2501710Y634365D03*
D87*
X2492375Y634365D03*
D99*
X2482850Y634365D03*
D66*
X2473389Y634365D03*
D42*
X2461768Y634365D03*
D114*
X2447989Y634365D03*
D43*
X2438210Y634365D03*
D74*
X2430082Y634365D03*
X2420176Y634365D03*
D11*
X2413381Y634365D03*
D114*
X2527491Y634492D03*
D74*
X2514664Y634492D03*
D83*
X2501710Y634492D03*
D87*
X2492375Y634492D03*
D74*
X2482787Y634492D03*
D66*
X2473389Y634492D03*
D114*
X2461705Y634492D03*
X2447989Y634492D03*
D43*
X2438210Y634492D03*
D74*
X2430082Y634492D03*
X2420303Y634492D03*
D61*
X2413318Y634492D03*
D114*
X2527491Y634619D03*
D74*
X2514664Y634619D03*
D83*
X2501583Y634619D03*
X2492439Y634619D03*
D99*
X2482723Y634619D03*
D41*
X2473325Y634619D03*
D114*
X2461705Y634619D03*
D62*
X2448052Y634619D03*
D69*
X2438146Y634619D03*
D99*
X2430018Y634619D03*
D74*
X2420303Y634619D03*
D61*
X2413191Y634619D03*
D62*
X2527427Y634746D03*
D74*
X2514537Y634746D03*
D83*
X2501456Y634746D03*
X2492439Y634746D03*
D99*
X2482723Y634746D03*
D66*
X2473262Y634746D03*
D114*
X2461705Y634746D03*
D62*
X2448052Y634746D03*
D69*
X2438146Y634746D03*
D99*
X2430018Y634746D03*
X2420366Y634746D03*
D61*
X2413064Y634746D03*
D62*
X2527427Y634873D03*
D74*
X2514537Y634873D03*
D58*
X2501392Y634873D03*
D87*
X2492502Y634873D03*
D99*
X2482723Y634873D03*
D66*
X2473262Y634873D03*
D62*
X2461641Y634873D03*
D103*
X2447989Y634873D03*
D69*
X2438146Y634873D03*
D74*
X2429955Y634873D03*
X2420430Y634873D03*
D11*
X2413000Y634873D03*
D103*
X2527364Y635000D03*
D74*
X2514537Y635000D03*
D83*
X2501329Y635000D03*
X2492566Y635000D03*
D74*
X2482660Y635000D03*
D66*
X2473262Y635000D03*
D62*
X2461641Y635000D03*
D15*
X2448052Y635000D03*
D43*
X2438083Y635000D03*
D74*
X2429955Y635000D03*
X2420430Y635000D03*
D61*
X2412937Y635000D03*
D103*
X2527364Y635127D03*
D74*
X2514537Y635127D03*
D83*
X2501202Y635127D03*
X2492566Y635127D03*
D74*
X2482660Y635127D03*
D66*
X2473262Y635127D03*
D103*
X2461578Y635127D03*
D15*
X2448052Y635127D03*
D43*
X2438083Y635127D03*
D74*
X2429955Y635127D03*
D99*
X2420493Y635127D03*
D61*
X2412810Y635127D03*
D15*
X2527300Y635254D03*
D74*
X2514537Y635254D03*
D58*
X2501138Y635254D03*
X2492629Y635254D03*
D99*
X2482596Y635254D03*
D66*
X2473262Y635254D03*
D103*
X2461578Y635254D03*
D15*
X2448052Y635254D03*
D43*
X2438083Y635254D03*
D74*
X2429955Y635254D03*
X2420557Y635254D03*
D61*
X2412683Y635254D03*
D15*
X2527300Y635381D03*
D99*
X2514473Y635381D03*
D58*
X2501011Y635381D03*
X2492629Y635381D03*
D99*
X2482596Y635381D03*
D66*
X2473135Y635381D03*
D15*
X2461514Y635381D03*
D101*
X2448116Y635381D03*
D69*
X2438019Y635381D03*
D99*
X2429891Y635381D03*
X2420620Y635381D03*
D61*
X2412683Y635381D03*
D15*
X2527300Y635508D03*
D74*
X2514410Y635508D03*
D58*
X2500884Y635508D03*
X2492756Y635508D03*
D99*
X2482596Y635508D03*
D66*
X2473135Y635508D03*
D101*
X2461578Y635508D03*
X2448116Y635508D03*
D69*
X2438019Y635508D03*
D74*
X2429828Y635508D03*
D99*
X2420620Y635508D03*
D61*
X2412556Y635508D03*
D101*
X2527237Y635635D03*
D74*
X2514410Y635635D03*
D58*
X2500757Y635635D03*
X2492756Y635635D03*
D99*
X2482596Y635635D03*
D66*
X2473135Y635635D03*
D44*
X2461514Y635635D03*
X2448052Y635635D03*
D69*
X2438019Y635635D03*
D74*
X2429828Y635635D03*
D99*
X2420747Y635635D03*
D61*
X2412429Y635635D03*
D101*
X2527237Y635762D03*
D74*
X2514410Y635762D03*
D58*
X2500630Y635762D03*
X2492883Y635762D03*
D74*
X2482533Y635762D03*
D66*
X2473135Y635762D03*
D44*
X2461514Y635762D03*
D95*
X2448116Y635762D03*
D43*
X2437956Y635762D03*
D74*
X2429828Y635762D03*
D60*
X2420811Y635762D03*
D61*
X2412302Y635762D03*
D44*
X2527173Y635889D03*
D74*
X2514410Y635889D03*
D78*
X2500567Y635889D03*
D58*
X2492883Y635889D03*
D74*
X2482533Y635889D03*
D66*
X2473135Y635889D03*
D95*
X2461451Y635889D03*
X2448116Y635889D03*
D43*
X2437956Y635889D03*
D99*
X2429764Y635889D03*
X2420874Y635889D03*
D61*
X2412302Y635889D03*
D95*
X2527237Y636016D03*
D74*
X2514410Y636016D03*
D78*
X2500440Y636016D03*
D58*
X2493010Y636016D03*
D99*
X2482469Y636016D03*
D41*
X2473071Y636016D03*
D95*
X2461451Y636016D03*
X2448116Y636016D03*
D69*
X2437892Y636016D03*
D99*
X2429764Y636016D03*
D60*
X2420938Y636016D03*
D61*
X2412175Y636016D03*
D64*
X2527173Y636143D03*
D74*
X2514283Y636143D03*
D58*
X2500249Y636143D03*
D78*
X2493074Y636143D03*
D99*
X2482469Y636143D03*
D66*
X2473008Y636143D03*
D64*
X2461387Y636143D03*
X2448179Y636143D03*
D69*
X2437892Y636143D03*
D99*
X2429764Y636143D03*
D60*
X2421065Y636143D03*
D61*
X2412048Y636143D03*
D64*
X2527173Y636270D03*
D74*
X2514283Y636270D03*
D58*
X2500122Y636270D03*
D78*
X2493201Y636270D03*
D99*
X2482469Y636270D03*
D66*
X2473008Y636270D03*
D64*
X2461387Y636270D03*
D14*
X2448116Y636270D03*
D69*
X2437892Y636270D03*
D74*
X2429701Y636270D03*
D60*
X2421065Y636270D03*
D61*
X2411921Y636270D03*
D14*
X2527110Y636397D03*
D74*
X2514283Y636397D03*
D83*
X2499932Y636397D03*
X2493328Y636397D03*
D74*
X2482406Y636397D03*
D66*
X2473008Y636397D03*
D14*
X2461324Y636397D03*
D47*
X2448179Y636397D03*
D43*
X2437829Y636397D03*
D74*
X2429701Y636397D03*
D54*
X2421128Y636397D03*
D61*
X2411921Y636397D03*
D14*
X2527110Y636524D03*
D74*
X2514283Y636524D03*
D83*
X2499678Y636524D03*
X2493455Y636524D03*
D74*
X2482406Y636524D03*
D66*
X2473008Y636524D03*
D14*
X2461324Y636524D03*
D47*
X2448179Y636524D03*
D43*
X2437829Y636524D03*
D74*
X2429701Y636524D03*
D54*
X2421255Y636524D03*
D61*
X2411794Y636524D03*
D47*
X2527046Y636651D03*
D74*
X2514283Y636651D03*
D89*
X2496566Y636651D03*
D99*
X2482342Y636651D03*
D41*
X2472944Y636651D03*
D47*
X2461260Y636651D03*
X2448179Y636651D03*
D43*
X2437829Y636651D03*
D99*
X2429637Y636651D03*
D77*
X2421446Y636651D03*
D61*
X2411667Y636651D03*
D47*
X2527046Y636778D03*
D99*
X2514219Y636778D03*
D23*
X2496566Y636778D03*
D99*
X2482342Y636778D03*
D66*
X2472881Y636778D03*
D47*
X2461260Y636778D03*
X2448179Y636778D03*
D69*
X2437765Y636778D03*
D74*
X2429574Y636778D03*
D47*
X2421509Y636778D03*
D65*
X2411603Y636778D03*
D77*
X2526983Y636905D03*
D74*
X2514156Y636905D03*
D92*
X2496503Y636905D03*
D99*
X2482342Y636905D03*
D66*
X2472881Y636905D03*
D77*
X2461197Y636905D03*
X2448243Y636905D03*
D69*
X2437765Y636905D03*
D74*
X2429574Y636905D03*
D47*
X2421636Y636905D03*
D61*
X2411540Y636905D03*
D77*
X2526983Y637032D03*
D74*
X2514156Y637032D03*
D90*
X2496503Y637032D03*
D74*
X2482279Y637032D03*
D66*
X2472881Y637032D03*
D77*
X2461197Y637032D03*
D54*
X2448179Y637032D03*
D43*
X2437702Y637032D03*
D74*
X2429574Y637032D03*
D14*
X2421700Y637032D03*
D61*
X2411413Y637032D03*
D54*
X2526919Y637159D03*
D74*
X2514156Y637159D03*
D20*
X2496503Y637159D03*
D74*
X2482279Y637159D03*
D66*
X2472881Y637159D03*
D60*
X2461197Y637159D03*
X2448243Y637159D03*
D43*
X2437702Y637159D03*
D74*
X2429574Y637159D03*
D77*
X2421700Y637159D03*
D61*
X2411286Y637159D03*
D60*
X2526983Y637286D03*
D74*
X2514156Y637286D03*
D19*
X2496439Y637286D03*
D99*
X2482215Y637286D03*
D66*
X2472881Y637286D03*
D60*
X2461197Y637286D03*
X2448243Y637286D03*
D43*
X2437702Y637286D03*
D99*
X2429510Y637286D03*
D60*
X2421700Y637286D03*
D65*
X2411222Y637286D03*
D99*
X2526919Y637413D03*
D74*
X2514156Y637413D03*
D84*
X2496376Y637413D03*
D99*
X2482215Y637413D03*
D41*
X2472817Y637413D03*
D60*
X2461197Y637413D03*
X2448243Y637413D03*
D69*
X2437638Y637413D03*
D74*
X2429447Y637413D03*
X2421700Y637413D03*
D61*
X2411159Y637413D03*
D99*
X2526919Y637540D03*
D74*
X2514029Y637540D03*
D112*
X2496439Y637540D03*
D99*
X2482215Y637540D03*
D66*
X2472754Y637540D03*
D99*
X2461133Y637540D03*
X2448306Y637540D03*
D69*
X2437638Y637540D03*
D74*
X2429447Y637540D03*
D86*
X2421700Y637540D03*
D61*
X2411032Y637540D03*
D74*
X2526856Y637667D03*
X2514029Y637667D03*
D73*
X2496376Y637667D03*
D99*
X2482215Y637667D03*
D66*
X2472754Y637667D03*
D74*
X2461070Y637667D03*
X2448243Y637667D03*
D69*
X2437638Y637667D03*
D74*
X2429447Y637667D03*
D58*
X2421636Y637667D03*
D65*
X2410968Y637667D03*
D74*
X2526856Y637794D03*
X2514029Y637794D03*
D114*
X2496376Y637794D03*
D74*
X2482152Y637794D03*
D66*
X2472754Y637794D03*
D74*
X2461070Y637794D03*
X2448243Y637794D03*
D43*
X2437575Y637794D03*
D74*
X2429447Y637794D03*
D79*
X2421636Y637794D03*
D65*
X2410841Y637794D03*
D13*
X2526792Y637921D03*
D74*
X2514029Y637921D03*
D101*
X2496376Y637921D03*
D74*
X2482152Y637921D03*
D41*
X2472690Y637921D03*
D74*
X2461070Y637921D03*
D13*
X2448306Y637921D03*
D56*
X2437575Y637921D03*
D74*
X2429447Y637921D03*
D70*
X2421573Y637921D03*
D61*
X2410778Y637921D03*
D77*
X2496376Y638048D03*
D66*
X2421573Y638048D03*
D86*
X2496376Y638175D03*
D11*
X2421636Y638175D03*
D71*
X2496312Y638302D03*
D115*
X2421573Y638302D03*
D43*
X2496376Y638429D03*
D63*
X2421636Y638429D03*
D73*
X2515045Y650494D03*
D24*
X2515045Y650621D03*
D41*
X2430907Y650621D03*
D38*
X2515045Y650748D03*
D91*
X2430907Y650748D03*
D99*
X2520315Y650875D03*
D65*
X2508504Y650875D03*
D29*
X2430907Y650875D03*
D79*
X2521712Y651002D03*
D56*
X2507044Y651002D03*
D116*
X2430907Y651002D03*
D94*
X2531237Y651129D03*
D71*
X2522982Y651129D03*
D117*
X2505710Y651129D03*
D118*
X2430844Y651129D03*
D59*
X2531237Y651256D03*
D66*
X2523935Y651256D03*
D50*
X2504758Y651256D03*
D119*
X2430844Y651256D03*
D51*
X2531237Y651383D03*
D53*
X2524824Y651383D03*
D105*
X2503742Y651383D03*
D120*
X2430844Y651383D03*
D117*
X2531237Y651510D03*
D65*
X2525649Y651510D03*
D107*
X2502980Y651510D03*
D121*
X2430844Y651510D03*
D45*
X2531237Y651637D03*
D61*
X2526348Y651637D03*
D63*
X2502281Y651637D03*
D122*
X2430780Y651637D03*
D52*
X2531237Y651764D03*
D57*
X2527110Y651764D03*
D108*
X2501456Y651764D03*
D123*
X2430780Y651764D03*
D56*
X2531174Y651891D03*
D49*
X2527681Y651891D03*
D94*
X2500884Y651891D03*
D124*
X2430780Y651891D03*
D99*
X2529713Y652018D03*
D68*
X2500059Y652018D03*
D108*
X2492312Y652018D03*
D125*
X2430780Y652018D03*
D83*
X2530031Y652145D03*
D68*
X2499551Y652145D03*
D46*
X2492248Y652145D03*
D126*
X2430780Y652145D03*
D55*
X2530348Y652272D03*
D127*
X2498979Y652272D03*
D117*
X2492248Y652272D03*
D128*
X2430717Y652272D03*
D67*
X2530729Y652399D03*
D127*
X2498344Y652399D03*
D52*
X2492248Y652399D03*
D129*
X2430780Y652399D03*
D65*
X2530983Y652526D03*
D68*
X2519109Y652526D03*
D10*
X2497900Y652526D03*
D69*
X2492248Y652526D03*
D130*
X2430780Y652526D03*
D57*
X2531174Y652653D03*
D46*
X2519172Y652653D03*
D76*
X2497201Y652653D03*
D49*
X2492248Y652653D03*
D131*
X2430717Y652653D03*
D49*
X2531237Y652780D03*
D117*
X2519172Y652780D03*
D76*
X2496820Y652780D03*
D63*
X2493391Y652780D03*
X2491105Y652780D03*
D132*
X2430780Y652780D03*
D49*
X2531237Y652907D03*
D115*
X2519109Y652907D03*
D109*
X2496376Y652907D03*
D108*
X2493582Y652907D03*
D94*
X2490978Y652907D03*
D133*
X2430780Y652907D03*
D49*
X2531237Y653034D03*
D56*
X2519109Y653034D03*
D109*
X2495741Y653034D03*
D94*
X2493645Y653034D03*
X2490851Y653034D03*
D134*
X2430780Y653034D03*
D43*
X2531174Y653161D03*
X2519109Y653161D03*
D97*
X2495423Y653161D03*
D94*
X2493772Y653161D03*
D68*
X2490788Y653161D03*
D135*
X2430844Y653161D03*
D43*
X2531174Y653288D03*
D57*
X2519109Y653288D03*
D68*
X2493836Y653288D03*
X2490661Y653288D03*
D136*
X2430907Y653288D03*
D69*
X2531237Y653415D03*
D61*
X2519109Y653415D03*
D97*
X2494534Y653415D03*
D68*
X2493963Y653415D03*
X2490661Y653415D03*
D137*
X2430907Y653415D03*
D52*
X2531237Y653542D03*
D65*
X2519172Y653542D03*
D68*
X2493963Y653542D03*
X2490534Y653542D03*
D138*
X2430907Y653542D03*
D115*
X2531174Y653669D03*
D53*
X2519109Y653669D03*
D127*
X2494026Y653669D03*
D68*
X2490534Y653669D03*
D139*
X2430907Y653669D03*
D140*
X2531174Y653796D03*
D41*
X2519172Y653796D03*
D127*
X2494026Y653796D03*
D68*
X2490534Y653796D03*
D141*
X2430971Y653796D03*
D48*
X2531174Y653923D03*
D66*
X2519109Y653923D03*
D127*
X2494026Y653923D03*
X2490470Y653923D03*
D142*
X2431034Y653923D03*
D50*
X2531174Y654050D03*
D66*
X2519109Y654050D03*
D127*
X2494026Y654050D03*
X2490470Y654050D03*
D143*
X2431034Y654050D03*
D107*
X2531174Y654177D03*
D75*
X2516950Y654177D03*
D127*
X2494026Y654177D03*
X2490470Y654177D03*
D144*
X2431034Y654177D03*
D90*
X2516061Y654304D03*
D127*
X2494026Y654304D03*
X2490470Y654304D03*
D145*
X2431098Y654304D03*
D24*
X2515553Y654431D03*
D127*
X2494026Y654431D03*
D68*
X2490534Y654431D03*
D146*
X2431161Y654431D03*
D113*
X2514918Y654558D03*
D127*
X2494026Y654558D03*
D94*
X2490470Y654558D03*
D147*
X2431161Y654558D03*
D64*
X2518918Y654685D03*
D67*
X2509901Y654685D03*
D68*
X2493963Y654685D03*
D63*
X2490343Y654685D03*
D148*
X2431161Y654685D03*
D94*
X2523363Y654812D03*
D104*
X2519109Y654812D03*
D56*
X2508441Y654812D03*
D68*
X2493963Y654812D03*
D46*
X2490216Y654812D03*
D149*
X2431225Y654812D03*
D97*
X2537206Y654939D03*
D94*
X2524379Y654939D03*
D67*
X2519172Y654939D03*
D140*
X2507425Y654939D03*
D68*
X2493836Y654939D03*
D51*
X2490089Y654939D03*
D150*
X2431225Y654939D03*
D97*
X2537333Y655066D03*
D94*
X2525141Y655066D03*
D67*
X2519172Y655066D03*
D50*
X2506663Y655066D03*
D94*
X2493772Y655066D03*
D45*
X2489962Y655066D03*
D151*
X2431288Y655066D03*
D97*
X2537714Y655193D03*
D94*
X2526030Y655193D03*
D66*
X2519109Y655193D03*
D105*
X2505774Y655193D03*
D94*
X2493645Y655193D03*
X2490851Y655193D03*
D46*
X2489327Y655193D03*
D152*
X2431288Y655193D03*
D97*
X2537841Y655320D03*
D94*
X2526538Y655320D03*
D66*
X2519109Y655320D03*
D59*
X2505202Y655320D03*
D108*
X2493582Y655320D03*
D94*
X2490978Y655320D03*
D46*
X2489073Y655320D03*
D153*
X2431288Y655320D03*
D97*
X2538095Y655447D03*
D94*
X2527173Y655447D03*
D41*
X2519172Y655447D03*
D63*
X2504440Y655447D03*
X2493391Y655447D03*
X2491232Y655447D03*
D105*
X2488756Y655447D03*
D154*
X2431352Y655447D03*
D97*
X2538349Y655574D03*
D68*
X2527745Y655574D03*
D53*
X2519109Y655574D03*
D63*
X2503932Y655574D03*
D49*
X2492248Y655574D03*
D105*
X2488502Y655574D03*
D155*
X2431352Y655574D03*
D109*
X2538540Y655701D03*
D94*
X2528189Y655701D03*
D65*
X2519172Y655701D03*
D94*
X2503424Y655701D03*
D69*
X2492248Y655701D03*
D105*
X2488248Y655701D03*
D156*
X2431352Y655701D03*
D109*
X2538794Y655828D03*
D68*
X2528761Y655828D03*
D61*
X2519109Y655828D03*
D94*
X2502789Y655828D03*
D115*
X2492312Y655828D03*
D105*
X2487867Y655828D03*
D157*
X2431415Y655828D03*
D109*
X2539048Y655955D03*
D94*
X2529205Y655955D03*
D11*
X2519172Y655955D03*
D68*
X2502345Y655955D03*
D117*
X2492248Y655955D03*
D59*
X2487676Y655955D03*
D158*
X2431415Y655955D03*
D97*
X2539238Y656082D03*
D68*
X2529650Y656082D03*
D49*
X2519172Y656082D03*
D127*
X2501773Y656082D03*
D46*
X2492248Y656082D03*
D59*
X2487295Y656082D03*
D159*
X2431415Y656082D03*
D109*
X2539429Y656209D03*
D68*
X2530031Y656209D03*
D69*
X2519172Y656209D03*
D127*
X2501392Y656209D03*
D94*
X2497074Y656209D03*
X2492248Y656209D03*
D107*
X2487105Y656209D03*
D160*
X2431479Y656209D03*
D109*
X2539683Y656336D03*
D94*
X2530475Y656336D03*
D115*
X2519109Y656336D03*
D10*
X2500948Y656336D03*
D59*
X2497074Y656336D03*
D107*
X2486851Y656336D03*
D161*
X2431479Y656336D03*
D109*
X2539810Y656463D03*
D94*
X2530856Y656463D03*
D140*
X2519109Y656463D03*
D76*
X2500503Y656463D03*
D51*
X2497074Y656463D03*
D107*
X2486597Y656463D03*
D162*
X2431479Y656463D03*
D109*
X2540064Y656590D03*
D68*
X2531174Y656590D03*
D50*
X2519109Y656590D03*
D76*
X2500122Y656590D03*
D117*
X2497074Y656590D03*
D107*
X2486343Y656590D03*
D163*
X2431542Y656590D03*
D109*
X2540318Y656717D03*
D68*
X2531555Y656717D03*
D94*
X2519172Y656717D03*
D109*
X2499678Y656717D03*
D45*
X2497074Y656717D03*
D107*
X2486089Y656717D03*
D164*
X2431542Y656717D03*
D109*
X2540445Y656844D03*
D94*
X2531872Y656844D03*
D109*
X2499297Y656844D03*
D52*
X2497074Y656844D03*
D63*
X2485898Y656844D03*
D165*
X2431606Y656844D03*
D76*
X2540635Y656971D03*
D68*
X2532190Y656971D03*
D97*
X2498979Y656971D03*
D56*
X2497011Y656971D03*
D63*
X2485644Y656971D03*
D166*
X2431606Y656971D03*
D109*
X2540826Y657098D03*
D94*
X2532507Y657098D03*
D43*
X2497138Y657098D03*
D63*
X2485390Y657098D03*
D167*
X2431606Y657098D03*
D76*
X2541016Y657225D03*
D68*
X2532825Y657225D03*
D69*
X2497074Y657225D03*
D63*
X2485263Y657225D03*
D168*
X2431606Y657225D03*
D109*
X2541207Y657352D03*
D94*
X2533142Y657352D03*
D108*
X2506663Y657352D03*
D49*
X2497074Y657352D03*
D63*
X2485009Y657352D03*
D169*
X2431669Y657352D03*
D76*
X2541397Y657479D03*
D94*
X2533396Y657479D03*
D105*
X2506663Y657479D03*
D49*
X2497074Y657479D03*
D63*
X2484755Y657479D03*
D170*
X2431606Y657479D03*
D109*
X2541588Y657606D03*
D68*
X2533714Y657606D03*
D51*
X2506599Y657606D03*
D49*
X2497074Y657606D03*
D108*
X2484565Y657606D03*
D171*
X2431669Y657606D03*
D109*
X2541715Y657733D03*
D68*
X2533968Y657733D03*
D140*
X2506663Y657733D03*
D49*
X2497074Y657733D03*
D108*
X2484311Y657733D03*
D172*
X2431733Y657733D03*
D76*
X2541905Y657860D03*
D68*
X2534222Y657860D03*
X2507425Y657860D03*
X2505774Y657860D03*
D49*
X2497074Y657860D03*
D108*
X2484184Y657860D03*
D173*
X2431669Y657860D03*
D109*
X2542096Y657987D03*
D68*
X2534476Y657987D03*
D127*
X2507615Y657987D03*
X2505583Y657987D03*
D49*
X2497074Y657987D03*
D108*
X2483930Y657987D03*
D174*
X2431733Y657987D03*
D76*
X2542286Y658114D03*
D68*
X2534730Y658114D03*
D127*
X2507742Y658114D03*
D10*
X2505520Y658114D03*
D49*
X2497074Y658114D03*
D108*
X2483803Y658114D03*
D175*
X2431733Y658114D03*
D76*
X2542413Y658241D03*
D68*
X2534984Y658241D03*
D10*
X2507806Y658241D03*
D127*
X2505456Y658241D03*
D49*
X2497074Y658241D03*
D108*
X2483549Y658241D03*
D176*
X2431733Y658241D03*
D109*
X2542604Y658368D03*
D68*
X2535238Y658368D03*
D127*
X2507869Y658368D03*
D10*
X2505393Y658368D03*
D69*
X2497074Y658368D03*
D108*
X2483422Y658368D03*
D177*
X2431733Y658368D03*
D109*
X2542731Y658495D03*
D68*
X2535492Y658495D03*
D10*
X2507933Y658495D03*
X2505266Y658495D03*
D69*
X2497074Y658495D03*
D94*
X2483231Y658495D03*
D178*
X2431796Y658495D03*
D76*
X2542921Y658622D03*
D68*
X2535746Y658622D03*
D127*
X2511933Y658622D03*
D10*
X2507933Y658622D03*
X2505266Y658622D03*
D52*
X2497074Y658622D03*
D94*
X2482977Y658622D03*
D179*
X2431796Y658622D03*
D76*
X2543048Y658749D03*
D94*
X2535936Y658749D03*
D63*
X2511933Y658749D03*
D10*
X2507933Y658749D03*
X2505266Y658749D03*
D52*
X2497074Y658749D03*
D94*
X2482850Y658749D03*
D180*
X2431796Y658749D03*
D76*
X2543175Y658876D03*
D68*
X2536127Y658876D03*
D105*
X2511870Y658876D03*
D10*
X2507933Y658876D03*
X2505266Y658876D03*
D45*
X2497074Y658876D03*
D94*
X2482723Y658876D03*
D181*
X2431796Y658876D03*
D109*
X2543366Y659003D03*
D68*
X2536381Y659003D03*
D50*
X2511870Y659003D03*
D127*
X2507996Y659003D03*
D10*
X2505266Y659003D03*
D117*
X2497074Y659003D03*
D127*
X2490216Y659003D03*
D94*
X2482469Y659003D03*
D182*
X2431796Y659003D03*
D76*
X2543556Y659130D03*
D94*
X2536571Y659130D03*
D50*
X2511870Y659130D03*
D46*
X2508504Y659130D03*
D10*
X2505266Y659130D03*
D50*
X2497138Y659130D03*
D59*
X2490216Y659130D03*
D94*
X2482342Y659130D03*
D183*
X2431860Y659130D03*
D76*
X2543683Y659257D03*
D68*
X2536762Y659257D03*
D71*
X2510663Y659257D03*
D10*
X2507933Y659257D03*
X2505266Y659257D03*
D105*
X2497265Y659257D03*
D51*
X2490216Y659257D03*
D68*
X2482152Y659257D03*
D184*
X2431860Y659257D03*
D76*
X2543810Y659384D03*
D68*
X2537016Y659384D03*
D41*
X2510917Y659384D03*
D127*
X2507869Y659384D03*
D10*
X2505393Y659384D03*
D127*
X2497836Y659384D03*
D117*
X2490216Y659384D03*
D68*
X2482025Y659384D03*
D185*
X2431860Y659384D03*
D76*
X2543937Y659511D03*
D94*
X2537206Y659511D03*
D57*
X2511362Y659511D03*
D10*
X2507806Y659511D03*
X2505393Y659511D03*
D127*
X2497836Y659511D03*
D45*
X2490216Y659511D03*
D94*
X2481834Y659511D03*
D186*
X2431860Y659511D03*
D76*
X2544064Y659638D03*
D68*
X2537397Y659638D03*
D56*
X2511616Y659638D03*
D127*
X2507742Y659638D03*
D10*
X2505520Y659638D03*
X2497900Y659638D03*
D52*
X2490216Y659638D03*
D94*
X2481707Y659638D03*
D187*
X2431923Y659638D03*
D76*
X2544191Y659765D03*
D94*
X2537587Y659765D03*
D140*
X2511870Y659765D03*
D127*
X2507615Y659765D03*
X2505583Y659765D03*
X2497963Y659765D03*
D52*
X2490216Y659765D03*
D68*
X2481517Y659765D03*
D188*
X2431923Y659765D03*
D109*
X2544382Y659892D03*
D68*
X2537778Y659892D03*
D48*
X2511870Y659892D03*
D94*
X2507488Y659892D03*
D68*
X2505774Y659892D03*
D10*
X2498027Y659892D03*
D69*
X2490216Y659892D03*
D68*
X2481390Y659892D03*
D189*
X2431860Y659892D03*
D109*
X2544509Y660019D03*
D68*
X2537905Y660019D03*
D48*
X2511870Y660019D03*
D140*
X2506663Y660019D03*
D127*
X2498090Y660019D03*
D69*
X2490216Y660019D03*
D68*
X2481263Y660019D03*
D190*
X2431860Y660019D03*
D76*
X2544699Y660146D03*
D68*
X2538159Y660146D03*
D51*
X2511933Y660146D03*
D48*
X2506663Y660146D03*
D10*
X2498154Y660146D03*
D49*
X2490216Y660146D03*
D68*
X2481136Y660146D03*
D191*
X2431923Y660146D03*
D76*
X2544826Y660273D03*
D68*
X2538286Y660273D03*
D50*
X2511870Y660273D03*
D46*
X2506599Y660273D03*
D127*
X2498217Y660273D03*
D49*
X2490216Y660273D03*
D127*
X2480945Y660273D03*
D192*
X2431923Y660273D03*
D76*
X2544953Y660400D03*
D68*
X2538540Y660400D03*
D97*
X2518029Y660400D03*
D105*
X2511870Y660400D03*
D59*
X2506726Y660400D03*
D10*
X2498281Y660400D03*
D49*
X2490216Y660400D03*
D127*
X2480818Y660400D03*
D193*
X2431923Y660400D03*
D76*
X2545080Y660527D03*
D68*
X2538667Y660527D03*
D107*
X2517966Y660527D03*
X2511870Y660527D03*
D127*
X2507107Y660527D03*
D10*
X2498281Y660527D03*
D49*
X2490216Y660527D03*
D68*
X2480628Y660527D03*
D194*
X2431923Y660527D03*
D76*
X2545207Y660654D03*
D68*
X2538794Y660654D03*
D46*
X2518029Y660654D03*
D68*
X2511870Y660654D03*
D10*
X2507171Y660654D03*
X2498408Y660654D03*
D49*
X2490216Y660654D03*
D68*
X2480501Y660654D03*
D195*
X2431923Y660654D03*
D76*
X2545334Y660781D03*
D68*
X2539048Y660781D03*
D117*
X2518029Y660781D03*
D10*
X2507171Y660781D03*
X2498408Y660781D03*
D49*
X2490216Y660781D03*
D68*
X2480374Y660781D03*
D196*
X2431923Y660781D03*
D76*
X2545461Y660908D03*
D68*
X2539175Y660908D03*
D63*
X2518664Y660908D03*
D108*
X2517331Y660908D03*
D127*
X2507234Y660908D03*
D10*
X2498535Y660908D03*
D49*
X2490216Y660908D03*
D68*
X2480247Y660908D03*
D197*
X2431923Y660908D03*
D76*
X2545588Y661035D03*
D68*
X2539302Y661035D03*
X2518855Y661035D03*
X2517077Y661035D03*
D10*
X2507298Y661035D03*
X2498535Y661035D03*
D49*
X2490216Y661035D03*
D68*
X2480120Y661035D03*
D198*
X2431987Y661035D03*
D76*
X2545715Y661162D03*
D68*
X2539556Y661162D03*
D127*
X2519045Y661162D03*
D68*
X2516950Y661162D03*
D10*
X2507298Y661162D03*
X2498662Y661162D03*
D43*
X2490153Y661162D03*
D68*
X2479993Y661162D03*
D199*
X2432050Y661162D03*
D10*
X2545779Y661289D03*
D68*
X2539683Y661289D03*
D127*
X2519172Y661289D03*
X2516886Y661289D03*
X2507361Y661289D03*
D10*
X2498662Y661289D03*
D49*
X2490089Y661289D03*
D127*
X2479929Y661289D03*
D200*
X2432050Y661289D03*
D10*
X2545906Y661416D03*
D68*
X2539810Y661416D03*
D10*
X2519236Y661416D03*
X2516823Y661416D03*
X2507425Y661416D03*
D76*
X2498725Y661416D03*
D49*
X2489962Y661416D03*
D127*
X2479802Y661416D03*
D201*
X2432050Y661416D03*
D76*
X2545969Y661543D03*
D68*
X2539937Y661543D03*
D127*
X2519299Y661543D03*
D10*
X2516696Y661543D03*
X2507425Y661543D03*
X2498789Y661543D03*
D11*
X2489835Y661543D03*
D127*
X2479675Y661543D03*
D202*
X2432050Y661543D03*
D76*
X2546096Y661670D03*
D68*
X2540064Y661670D03*
D10*
X2519363Y661670D03*
X2516696Y661670D03*
X2507425Y661670D03*
D76*
X2498852Y661670D03*
D11*
X2489708Y661670D03*
D127*
X2479548Y661670D03*
D203*
X2432050Y661670D03*
D76*
X2546223Y661797D03*
D68*
X2540318Y661797D03*
D63*
X2534158Y661797D03*
D86*
X2523681Y661797D03*
D10*
X2519363Y661797D03*
X2516696Y661797D03*
X2507552Y661797D03*
X2498916Y661797D03*
D117*
X2490216Y661797D03*
D63*
X2488311Y661797D03*
D127*
X2479421Y661797D03*
D204*
X2432050Y661797D03*
D76*
X2546350Y661924D03*
D68*
X2540445Y661924D03*
D46*
X2534158Y661924D03*
D81*
X2523554Y661924D03*
D10*
X2516696Y661924D03*
X2507552Y661924D03*
D76*
X2498979Y661924D03*
D51*
X2490216Y661924D03*
D63*
X2488057Y661924D03*
D127*
X2479294Y661924D03*
D205*
X2432050Y661924D03*
D76*
X2546477Y662051D03*
D68*
X2540572Y662051D03*
D48*
X2534095Y662051D03*
D41*
X2527300Y662051D03*
D10*
X2519363Y662051D03*
X2516696Y662051D03*
D76*
X2507615Y662051D03*
D10*
X2499043Y662051D03*
D59*
X2490216Y662051D03*
D108*
X2487867Y662051D03*
D127*
X2479167Y662051D03*
D206*
X2432050Y662051D03*
D76*
X2546604Y662178D03*
D68*
X2540699Y662178D03*
D140*
X2534095Y662178D03*
D11*
X2528443Y662178D03*
D10*
X2519363Y662178D03*
X2516696Y662178D03*
D76*
X2507615Y662178D03*
X2499106Y662178D03*
D127*
X2490216Y662178D03*
D63*
X2487676Y662178D03*
D127*
X2479040Y662178D03*
D206*
X2432050Y662178D03*
D10*
X2546668Y662305D03*
D68*
X2540826Y662305D03*
D115*
X2534095Y662305D03*
D57*
X2529396Y662305D03*
D10*
X2519363Y662305D03*
D68*
X2516569Y662305D03*
D10*
X2507679Y662305D03*
D76*
X2499106Y662305D03*
D108*
X2487486Y662305D03*
D127*
X2478913Y662305D03*
D207*
X2432050Y662305D03*
D10*
X2546795Y662432D03*
D68*
X2540953Y662432D03*
D52*
X2534158Y662432D03*
D69*
X2530221Y662432D03*
D127*
X2519299Y662432D03*
D108*
X2516442Y662432D03*
D76*
X2507742Y662432D03*
X2499233Y662432D03*
D108*
X2487232Y662432D03*
D10*
X2478850Y662432D03*
D208*
X2432050Y662432D03*
D76*
X2546858Y662559D03*
D68*
X2541080Y662559D03*
D69*
X2534158Y662559D03*
D56*
X2530920Y662559D03*
D10*
X2519236Y662559D03*
D105*
X2516315Y662559D03*
D76*
X2507742Y662559D03*
X2499233Y662559D03*
D108*
X2487105Y662559D03*
D10*
X2478723Y662559D03*
D209*
X2432050Y662559D03*
D76*
X2546985Y662686D03*
D68*
X2541207Y662686D03*
D83*
X2532952Y662686D03*
D127*
X2519172Y662686D03*
D51*
X2516124Y662686D03*
D10*
X2507806Y662686D03*
D76*
X2499360Y662686D03*
D108*
X2486851Y662686D03*
D127*
X2478659Y662686D03*
D210*
X2432050Y662686D03*
D76*
X2547112Y662813D03*
D68*
X2541334Y662813D03*
D12*
X2533206Y662813D03*
D127*
X2519045Y662813D03*
D140*
X2516061Y662813D03*
D76*
X2507869Y662813D03*
X2499360Y662813D03*
D94*
X2486660Y662813D03*
D127*
X2478532Y662813D03*
D211*
X2432114Y662813D03*
D10*
X2547176Y662940D03*
D68*
X2541461Y662940D03*
D104*
X2533587Y662940D03*
D68*
X2518982Y662940D03*
X2517077Y662940D03*
D46*
X2515362Y662940D03*
D76*
X2507869Y662940D03*
D109*
X2499424Y662940D03*
D108*
X2486470Y662940D03*
D127*
X2478405Y662940D03*
D212*
X2432114Y662940D03*
D10*
X2547303Y663067D03*
D68*
X2541588Y663067D03*
D53*
X2533841Y663067D03*
D94*
X2518791Y663067D03*
X2517267Y663067D03*
D46*
X2514981Y663067D03*
D76*
X2507869Y663067D03*
X2499487Y663067D03*
D94*
X2486279Y663067D03*
D10*
X2478342Y663067D03*
D213*
X2432114Y663067D03*
D76*
X2547366Y663194D03*
D68*
X2541715Y663194D03*
D57*
X2534095Y663194D03*
D117*
X2518029Y663194D03*
D105*
X2514664Y663194D03*
D76*
X2507996Y663194D03*
D109*
X2499551Y663194D03*
D94*
X2486025Y663194D03*
D10*
X2478215Y663194D03*
D214*
X2432050Y663194D03*
D76*
X2547493Y663321D03*
D68*
X2541842Y663321D03*
D49*
X2534158Y663321D03*
D51*
X2518029Y663321D03*
D105*
X2514283Y663321D03*
D76*
X2507996Y663321D03*
X2499614Y663321D03*
D108*
X2485835Y663321D03*
D10*
X2478088Y663321D03*
D215*
X2432114Y663321D03*
D10*
X2547557Y663448D03*
D68*
X2541969Y663448D03*
D49*
X2534158Y663448D03*
D59*
X2518029Y663448D03*
D105*
X2513902Y663448D03*
D76*
X2507996Y663448D03*
D109*
X2499678Y663448D03*
D94*
X2485644Y663448D03*
D127*
X2478024Y663448D03*
D216*
X2432114Y663448D03*
D10*
X2547684Y663575D03*
D68*
X2542096Y663575D03*
D49*
X2534158Y663575D03*
D68*
X2517966Y663575D03*
D105*
X2513521Y663575D03*
D76*
X2508123Y663575D03*
X2499741Y663575D03*
D94*
X2485390Y663575D03*
D10*
X2477961Y663575D03*
D217*
X2432114Y663575D03*
D76*
X2547747Y663702D03*
D68*
X2542223Y663702D03*
D49*
X2534158Y663702D03*
D59*
X2513203Y663702D03*
D76*
X2508123Y663702D03*
D109*
X2499805Y663702D03*
D94*
X2485263Y663702D03*
D10*
X2477834Y663702D03*
D218*
X2432114Y663702D03*
D76*
X2547874Y663829D03*
D68*
X2542350Y663829D03*
D43*
X2534095Y663829D03*
D59*
X2512822Y663829D03*
D76*
X2508123Y663829D03*
D109*
X2499805Y663829D03*
D94*
X2485009Y663829D03*
D10*
X2477707Y663829D03*
D218*
X2432114Y663829D03*
D10*
X2547938Y663956D03*
D68*
X2542477Y663956D03*
D69*
X2534158Y663956D03*
D107*
X2512378Y663956D03*
D127*
X2507996Y663956D03*
D109*
X2499932Y663956D03*
D68*
X2484819Y663956D03*
D10*
X2477707Y663956D03*
D219*
X2432114Y663956D03*
D10*
X2548065Y664083D03*
D68*
X2542604Y664083D03*
D56*
X2534095Y664083D03*
D107*
X2512124Y664083D03*
D68*
X2507806Y664083D03*
D109*
X2499932Y664083D03*
D94*
X2484628Y664083D03*
D10*
X2477580Y664083D03*
D220*
X2432114Y664083D03*
D76*
X2548128Y664210D03*
D68*
X2542731Y664210D03*
D52*
X2534158Y664210D03*
D107*
X2511616Y664210D03*
D68*
X2507552Y664210D03*
D109*
X2500059Y664210D03*
D68*
X2484438Y664210D03*
D10*
X2477453Y664210D03*
D221*
X2432177Y664210D03*
D10*
X2548192Y664337D03*
D68*
X2542858Y664337D03*
D45*
X2534158Y664337D03*
D63*
X2511298Y664337D03*
D127*
X2507234Y664337D03*
D109*
X2500059Y664337D03*
D68*
X2484184Y664337D03*
D10*
X2477453Y664337D03*
D222*
X2432114Y664337D03*
D10*
X2548319Y664464D03*
D94*
X2542921Y664464D03*
D140*
X2534095Y664464D03*
D63*
X2510917Y664464D03*
D127*
X2506980Y664464D03*
D109*
X2500059Y664464D03*
D68*
X2484057Y664464D03*
D10*
X2477326Y664464D03*
D223*
X2432114Y664464D03*
D76*
X2548382Y664591D03*
D68*
X2542985Y664591D03*
D51*
X2534158Y664591D03*
D63*
X2510536Y664591D03*
D127*
X2506599Y664591D03*
D109*
X2500186Y664591D03*
D68*
X2483803Y664591D03*
D10*
X2477199Y664591D03*
D224*
X2432177Y664591D03*
D10*
X2548446Y664718D03*
D68*
X2543112Y664718D03*
D105*
X2534095Y664718D03*
D108*
X2510219Y664718D03*
D127*
X2506345Y664718D03*
D97*
X2500249Y664718D03*
D127*
X2483612Y664718D03*
D10*
X2477199Y664718D03*
D225*
X2432177Y664718D03*
D10*
X2548573Y664845D03*
D68*
X2543239Y664845D03*
D94*
X2534158Y664845D03*
D108*
X2509838Y664845D03*
D10*
X2506028Y664845D03*
D109*
X2500313Y664845D03*
D68*
X2483422Y664845D03*
D10*
X2477072Y664845D03*
D226*
X2432114Y664845D03*
D10*
X2548573Y664972D03*
D68*
X2543366Y664972D03*
D108*
X2509457Y664972D03*
D10*
X2505774Y664972D03*
D109*
X2500313Y664972D03*
D68*
X2483168Y664972D03*
D10*
X2476945Y664972D03*
D227*
X2432177Y664972D03*
D10*
X2548700Y665099D03*
D68*
X2543493Y665099D03*
D94*
X2509139Y665099D03*
D10*
X2505520Y665099D03*
D109*
X2500440Y665099D03*
D127*
X2482977Y665099D03*
D76*
X2476881Y665099D03*
D228*
X2432177Y665099D03*
D76*
X2548763Y665226D03*
D94*
X2543556Y665226D03*
X2508758Y665226D03*
D76*
X2505202Y665226D03*
D109*
X2500440Y665226D03*
D68*
X2482787Y665226D03*
D10*
X2476818Y665226D03*
D228*
X2432177Y665226D03*
D10*
X2548827Y665353D03*
D68*
X2543620Y665353D03*
D94*
X2508377Y665353D03*
D76*
X2504948Y665353D03*
D97*
X2500503Y665353D03*
D127*
X2482596Y665353D03*
D76*
X2476754Y665353D03*
D229*
X2432177Y665353D03*
D10*
X2548954Y665480D03*
D68*
X2543747Y665480D03*
X2507933Y665480D03*
D76*
X2504567Y665480D03*
D97*
X2500630Y665480D03*
D127*
X2482342Y665480D03*
D10*
X2476691Y665480D03*
D230*
X2432177Y665480D03*
D10*
X2548954Y665607D03*
D68*
X2543874Y665607D03*
X2507679Y665607D03*
D76*
X2504313Y665607D03*
D97*
X2500630Y665607D03*
D127*
X2482215Y665607D03*
D10*
X2476564Y665607D03*
D230*
X2432177Y665607D03*
D10*
X2549081Y665734D03*
D68*
X2544001Y665734D03*
D127*
X2507234Y665734D03*
D109*
X2503996Y665734D03*
X2500694Y665734D03*
D127*
X2481961Y665734D03*
D76*
X2476500Y665734D03*
D231*
X2432177Y665734D03*
D76*
X2549144Y665861D03*
D68*
X2544001Y665861D03*
D127*
X2506853Y665861D03*
D109*
X2503742Y665861D03*
D94*
X2502154Y665861D03*
D97*
X2500757Y665861D03*
D10*
X2481771Y665861D03*
X2476437Y665861D03*
D232*
X2432241Y665861D03*
D10*
X2549208Y665988D03*
D68*
X2544128Y665988D03*
D10*
X2506536Y665988D03*
D109*
X2503488Y665988D03*
D59*
X2502154Y665988D03*
D109*
X2500821Y665988D03*
D59*
X2490724Y665988D03*
D127*
X2481580Y665988D03*
D76*
X2476373Y665988D03*
D233*
X2432177Y665988D03*
D10*
X2549335Y666115D03*
D68*
X2545652Y666115D03*
X2544255Y666115D03*
D10*
X2506155Y666115D03*
D48*
X2502218Y666115D03*
D97*
X2500884Y666115D03*
D51*
X2490724Y666115D03*
D127*
X2481326Y666115D03*
D10*
X2476310Y666115D03*
D234*
X2432177Y666115D03*
D10*
X2549335Y666242D03*
D105*
X2545652Y666242D03*
D68*
X2544382Y666242D03*
D10*
X2505774Y666242D03*
D117*
X2502154Y666242D03*
D97*
X2500884Y666242D03*
D45*
X2490724Y666242D03*
D10*
X2481136Y666242D03*
D76*
X2476246Y666242D03*
D234*
X2432177Y666242D03*
D10*
X2549462Y666369D03*
D52*
X2545334Y666369D03*
D10*
X2505393Y666369D03*
D45*
X2502154Y666369D03*
D52*
X2490724Y666369D03*
D127*
X2480945Y666369D03*
D76*
X2476119Y666369D03*
D235*
X2432241Y666369D03*
D10*
X2549462Y666496D03*
D56*
X2545525Y666496D03*
D109*
X2508822Y666496D03*
D76*
X2505075Y666496D03*
D52*
X2502154Y666496D03*
D69*
X2490724Y666496D03*
D10*
X2480755Y666496D03*
D76*
X2476119Y666496D03*
D236*
X2432177Y666496D03*
D10*
X2549589Y666623D03*
D69*
X2545588Y666623D03*
D68*
X2508695Y666623D03*
D76*
X2504694Y666623D03*
D56*
X2502218Y666623D03*
D107*
X2491677Y666623D03*
X2489772Y666623D03*
D10*
X2480501Y666623D03*
D76*
X2475992Y666623D03*
D237*
X2432177Y666623D03*
D10*
X2549589Y666750D03*
D43*
X2545652Y666750D03*
D63*
X2508504Y666750D03*
D109*
X2504250Y666750D03*
D69*
X2502154Y666750D03*
D108*
X2491931Y666750D03*
X2489518Y666750D03*
D10*
X2480374Y666750D03*
D76*
X2475992Y666750D03*
D237*
X2432177Y666750D03*
D10*
X2549716Y666877D03*
D57*
X2545652Y666877D03*
D76*
X2509012Y666877D03*
D108*
X2508060Y666877D03*
D109*
X2503996Y666877D03*
D43*
X2502218Y666877D03*
D108*
X2492058Y666877D03*
X2489391Y666877D03*
D10*
X2480120Y666877D03*
D76*
X2475865Y666877D03*
D238*
X2432177Y666877D03*
D10*
X2549716Y667004D03*
D61*
X2545652Y667004D03*
D94*
X2514600Y667004D03*
D76*
X2509012Y667004D03*
D94*
X2507615Y667004D03*
D49*
X2502154Y667004D03*
D68*
X2492185Y667004D03*
X2489264Y667004D03*
D76*
X2479929Y667004D03*
D10*
X2475802Y667004D03*
D239*
X2432241Y667004D03*
D10*
X2549843Y667131D03*
D65*
X2545588Y667131D03*
D59*
X2514600Y667131D03*
D76*
X2509139Y667131D03*
D68*
X2507298Y667131D03*
D49*
X2502154Y667131D03*
D94*
X2492248Y667131D03*
X2489200Y667131D03*
D10*
X2479739Y667131D03*
D76*
X2475738Y667131D03*
D240*
X2432177Y667131D03*
D10*
X2549843Y667258D03*
D53*
X2545652Y667258D03*
D46*
X2514600Y667258D03*
D76*
X2509139Y667258D03*
D68*
X2506917Y667258D03*
D49*
X2502154Y667258D03*
D68*
X2492312Y667258D03*
X2489137Y667258D03*
D76*
X2479548Y667258D03*
X2475738Y667258D03*
D241*
X2432241Y667258D03*
D10*
X2549970Y667385D03*
D41*
X2545588Y667385D03*
D51*
X2514600Y667385D03*
D10*
X2509203Y667385D03*
D127*
X2506472Y667385D03*
D49*
X2502154Y667385D03*
D68*
X2492439Y667385D03*
X2489010Y667385D03*
D76*
X2479294Y667385D03*
X2475611Y667385D03*
D242*
X2432177Y667385D03*
D10*
X2549970Y667512D03*
D66*
X2545652Y667512D03*
D94*
X2537460Y667512D03*
D51*
X2514600Y667512D03*
D76*
X2509266Y667512D03*
D127*
X2506091Y667512D03*
D49*
X2502154Y667512D03*
D68*
X2492439Y667512D03*
X2489010Y667512D03*
D76*
X2479167Y667512D03*
X2475611Y667512D03*
D243*
X2432241Y667512D03*
D10*
X2550097Y667639D03*
D66*
X2545652Y667639D03*
D46*
X2537460Y667639D03*
D48*
X2514537Y667639D03*
D10*
X2509330Y667639D03*
D127*
X2505710Y667639D03*
D49*
X2502154Y667639D03*
D68*
X2492439Y667639D03*
D127*
X2488946Y667639D03*
D76*
X2478913Y667639D03*
X2475484Y667639D03*
D244*
X2432177Y667639D03*
D10*
X2550097Y667766D03*
D67*
X2545588Y667766D03*
D51*
X2537460Y667766D03*
D117*
X2514600Y667766D03*
D76*
X2509393Y667766D03*
D10*
X2505266Y667766D03*
D49*
X2502154Y667766D03*
D127*
X2492502Y667766D03*
X2488946Y667766D03*
D76*
X2478659Y667766D03*
X2475484Y667766D03*
D244*
X2432177Y667766D03*
D76*
X2550160Y667893D03*
D104*
X2545652Y667893D03*
D117*
X2537460Y667893D03*
X2514600Y667893D03*
D10*
X2509457Y667893D03*
X2504885Y667893D03*
D49*
X2502154Y667893D03*
D127*
X2492502Y667893D03*
X2488946Y667893D03*
D76*
X2478532Y667893D03*
X2475357Y667893D03*
D245*
X2432241Y667893D03*
D10*
X2550224Y668020D03*
D104*
X2545652Y668020D03*
D68*
X2538286Y668020D03*
X2536635Y668020D03*
D71*
X2531618Y668020D03*
D117*
X2514600Y668020D03*
D76*
X2509520Y668020D03*
X2504440Y668020D03*
D43*
X2502091Y668020D03*
D127*
X2492502Y668020D03*
X2488946Y668020D03*
D76*
X2478278Y668020D03*
X2475357Y668020D03*
D246*
X2432177Y668020D03*
D10*
X2550224Y668147D03*
D104*
X2545652Y668147D03*
D68*
X2538413Y668147D03*
X2536508Y668147D03*
D54*
X2531618Y668147D03*
D117*
X2514600Y668147D03*
D10*
X2509584Y668147D03*
D109*
X2504123Y668147D03*
D49*
X2502027Y668147D03*
D127*
X2492502Y668147D03*
X2488946Y668147D03*
D109*
X2478088Y668147D03*
D76*
X2475230Y668147D03*
D247*
X2432241Y668147D03*
D10*
X2550351Y668274D03*
D104*
X2545652Y668274D03*
D127*
X2538603Y668274D03*
D10*
X2536381Y668274D03*
D16*
X2531618Y668274D03*
D117*
X2514600Y668274D03*
D10*
X2509584Y668274D03*
D11*
X2501900Y668274D03*
D127*
X2492502Y668274D03*
X2488946Y668274D03*
D76*
X2477897Y668274D03*
X2475230Y668274D03*
D248*
X2432177Y668274D03*
D10*
X2550351Y668401D03*
D104*
X2545652Y668401D03*
D10*
X2538667Y668401D03*
D19*
X2531745Y668401D03*
D51*
X2514600Y668401D03*
D10*
X2509711Y668401D03*
D11*
X2501773Y668401D03*
D68*
X2492439Y668401D03*
D127*
X2488946Y668401D03*
D109*
X2477707Y668401D03*
X2475167Y668401D03*
D249*
X2432241Y668401D03*
D10*
X2550478Y668528D03*
D104*
X2545652Y668528D03*
D127*
X2538730Y668528D03*
D66*
X2534476Y668528D03*
D11*
X2528189Y668528D03*
D51*
X2514600Y668528D03*
D10*
X2509711Y668528D03*
D61*
X2501583Y668528D03*
D68*
X2492439Y668528D03*
X2489010Y668528D03*
D109*
X2477453Y668528D03*
D76*
X2475103Y668528D03*
D250*
X2432177Y668528D03*
D10*
X2550478Y668655D03*
D67*
X2545588Y668655D03*
D10*
X2538794Y668655D03*
D45*
X2535174Y668655D03*
X2527173Y668655D03*
D51*
X2514473Y668655D03*
D10*
X2509838Y668655D03*
D117*
X2502154Y668655D03*
D63*
X2500249Y668655D03*
D68*
X2492439Y668655D03*
X2489010Y668655D03*
D109*
X2477326Y668655D03*
D76*
X2475103Y668655D03*
D251*
X2432241Y668655D03*
D127*
X2550541Y668782D03*
D66*
X2545652Y668782D03*
D10*
X2538794Y668782D03*
D46*
X2535555Y668782D03*
D117*
X2526538Y668782D03*
D51*
X2514346Y668782D03*
D10*
X2509838Y668782D03*
D46*
X2502154Y668782D03*
D107*
X2500059Y668782D03*
D68*
X2492312Y668782D03*
D94*
X2489073Y668782D03*
D109*
X2477072Y668782D03*
X2475040Y668782D03*
D251*
X2432241Y668782D03*
D10*
X2550605Y668909D03*
D66*
X2545652Y668909D03*
D10*
X2538794Y668909D03*
D94*
X2535936Y668909D03*
D50*
X2525967Y668909D03*
D63*
X2514600Y668909D03*
D127*
X2513584Y668909D03*
X2509901Y668909D03*
D63*
X2502154Y668909D03*
X2499868Y668909D03*
D94*
X2492248Y668909D03*
D63*
X2489073Y668909D03*
D97*
X2476881Y668909D03*
D76*
X2474976Y668909D03*
D252*
X2432177Y668909D03*
D10*
X2550605Y669036D03*
D66*
X2545652Y669036D03*
D10*
X2538794Y669036D03*
X2536127Y669036D03*
D46*
X2525522Y669036D03*
D76*
X2514600Y669036D03*
D127*
X2513457Y669036D03*
D10*
X2509965Y669036D03*
D97*
X2502535Y669036D03*
D63*
X2499614Y669036D03*
D68*
X2492185Y669036D03*
D107*
X2489010Y669036D03*
D109*
X2476691Y669036D03*
X2474913Y669036D03*
D253*
X2432241Y669036D03*
D127*
X2550668Y669163D03*
D53*
X2545652Y669163D03*
D10*
X2538794Y669163D03*
X2536127Y669163D03*
D105*
X2525078Y669163D03*
D127*
X2513330Y669163D03*
D10*
X2509965Y669163D03*
D97*
X2502535Y669163D03*
D63*
X2499487Y669163D03*
D108*
X2492058Y669163D03*
D50*
X2489010Y669163D03*
D97*
X2476500Y669163D03*
D76*
X2474849Y669163D03*
D254*
X2432177Y669163D03*
D10*
X2550732Y669290D03*
D65*
X2545588Y669290D03*
D10*
X2538794Y669290D03*
X2536127Y669290D03*
D59*
X2524633Y669290D03*
D127*
X2513203Y669290D03*
D10*
X2510092Y669290D03*
D97*
X2502662Y669290D03*
D63*
X2499233Y669290D03*
D108*
X2491931Y669290D03*
D117*
X2488946Y669290D03*
D97*
X2476246Y669290D03*
D76*
X2474849Y669290D03*
D254*
X2432177Y669290D03*
D10*
X2550732Y669417D03*
D61*
X2545652Y669417D03*
D10*
X2538794Y669417D03*
X2536127Y669417D03*
D59*
X2524252Y669417D03*
D127*
X2513076Y669417D03*
D10*
X2510092Y669417D03*
D97*
X2502662Y669417D03*
D63*
X2499106Y669417D03*
X2491740Y669417D03*
X2489708Y669417D03*
X2488311Y669417D03*
D97*
X2476119Y669417D03*
D109*
X2474786Y669417D03*
D255*
X2432241Y669417D03*
D10*
X2550859Y669544D03*
D57*
X2545652Y669544D03*
D127*
X2538730Y669544D03*
X2536190Y669544D03*
D107*
X2523808Y669544D03*
D10*
X2512886Y669544D03*
X2510219Y669544D03*
D97*
X2502789Y669544D03*
D63*
X2498852Y669544D03*
D69*
X2490724Y669544D03*
D63*
X2488057Y669544D03*
D76*
X2474722Y669544D03*
D256*
X2432177Y669544D03*
D10*
X2550859Y669671D03*
D49*
X2545588Y669671D03*
D109*
X2539429Y669671D03*
D10*
X2538667Y669671D03*
X2536254Y669671D03*
D63*
X2523490Y669671D03*
D10*
X2512759Y669671D03*
X2510219Y669671D03*
D97*
X2502789Y669671D03*
D108*
X2498662Y669671D03*
D52*
X2490724Y669671D03*
D63*
X2487803Y669671D03*
D97*
X2475611Y669671D03*
D76*
X2474722Y669671D03*
D257*
X2432241Y669671D03*
D10*
X2550859Y669798D03*
D69*
X2545588Y669798D03*
D97*
X2539746Y669798D03*
D127*
X2538603Y669798D03*
X2536317Y669798D03*
D108*
X2523173Y669798D03*
D10*
X2512632Y669798D03*
D127*
X2510282Y669798D03*
D109*
X2502853Y669798D03*
D63*
X2498471Y669798D03*
D45*
X2490724Y669798D03*
D107*
X2487613Y669798D03*
D109*
X2474659Y669798D03*
D257*
X2432241Y669798D03*
D127*
X2550922Y669925D03*
D52*
X2545588Y669925D03*
D109*
X2540064Y669925D03*
D127*
X2538476Y669925D03*
X2536444Y669925D03*
D108*
X2522792Y669925D03*
D76*
X2512568Y669925D03*
D105*
X2510854Y669925D03*
D97*
X2502916Y669925D03*
D108*
X2498281Y669925D03*
D51*
X2490724Y669925D03*
D63*
X2487422Y669925D03*
D76*
X2474595Y669925D03*
D258*
X2432177Y669925D03*
D10*
X2550986Y670052D03*
D140*
X2545652Y670052D03*
D109*
X2540318Y670052D03*
D68*
X2538413Y670052D03*
X2536635Y670052D03*
D108*
X2522538Y670052D03*
D76*
X2512441Y670052D03*
D50*
X2510981Y670052D03*
D109*
X2502980Y670052D03*
D63*
X2498090Y670052D03*
D59*
X2490724Y670052D03*
D63*
X2487168Y670052D03*
D76*
X2474595Y670052D03*
D259*
X2432241Y670052D03*
D10*
X2550986Y670179D03*
D50*
X2545652Y670179D03*
D109*
X2540572Y670179D03*
D45*
X2537460Y670179D03*
D94*
X2522220Y670179D03*
D115*
X2511235Y670179D03*
D97*
X2503043Y670179D03*
D63*
X2497836Y670179D03*
X2486914Y670179D03*
D109*
X2474532Y670179D03*
D259*
X2432241Y670179D03*
D10*
X2551113Y670306D03*
D63*
X2545588Y670306D03*
D109*
X2540826Y670306D03*
D48*
X2537524Y670306D03*
D94*
X2521966Y670306D03*
D45*
X2511044Y670306D03*
D109*
X2503107Y670306D03*
D108*
X2497646Y670306D03*
X2486724Y670306D03*
D76*
X2474468Y670306D03*
D260*
X2432177Y670306D03*
D10*
X2551113Y670433D03*
D109*
X2541080Y670433D03*
D46*
X2537460Y670433D03*
D94*
X2521585Y670433D03*
D68*
X2511870Y670433D03*
X2510092Y670433D03*
D97*
X2503170Y670433D03*
D63*
X2497455Y670433D03*
D108*
X2486470Y670433D03*
D76*
X2474468Y670433D03*
D260*
X2432177Y670433D03*
D10*
X2551113Y670560D03*
D109*
X2541334Y670560D03*
D63*
X2537460Y670560D03*
D94*
X2521331Y670560D03*
D127*
X2512060Y670560D03*
X2510028Y670560D03*
D109*
X2503234Y670560D03*
D108*
X2497265Y670560D03*
X2486216Y670560D03*
D109*
X2474405Y670560D03*
D261*
X2432241Y670560D03*
D127*
X2551176Y670687D03*
D109*
X2541461Y670687D03*
D68*
X2521141Y670687D03*
D127*
X2512187Y670687D03*
X2509901Y670687D03*
D109*
X2503234Y670687D03*
D63*
X2497074Y670687D03*
D108*
X2486089Y670687D03*
D109*
X2474405Y670687D03*
D262*
X2432177Y670687D03*
D10*
X2551240Y670814D03*
D109*
X2541715Y670814D03*
D68*
X2520887Y670814D03*
D10*
X2512251Y670814D03*
X2509838Y670814D03*
D109*
X2503361Y670814D03*
D108*
X2496884Y670814D03*
X2485835Y670814D03*
D76*
X2474341Y670814D03*
D262*
X2432177Y670814D03*
D10*
X2551240Y670941D03*
D76*
X2541905Y670941D03*
D68*
X2520633Y670941D03*
D10*
X2512251Y670941D03*
X2509711Y670941D03*
D109*
X2503361Y670941D03*
D108*
X2496630Y670941D03*
X2485581Y670941D03*
D76*
X2474341Y670941D03*
D263*
X2432241Y670941D03*
D10*
X2551240Y671068D03*
D76*
X2542159Y671068D03*
D68*
X2520379Y671068D03*
D10*
X2512378Y671068D03*
X2509711Y671068D03*
D109*
X2503488Y671068D03*
D108*
X2496503Y671068D03*
X2485327Y671068D03*
D109*
X2474278Y671068D03*
D263*
X2432241Y671068D03*
D127*
X2551303Y671195D03*
D76*
X2542286Y671195D03*
D68*
X2520125Y671195D03*
D10*
X2512378Y671195D03*
X2509711Y671195D03*
D109*
X2503488Y671195D03*
D108*
X2496249Y671195D03*
D94*
X2485136Y671195D03*
D109*
X2474278Y671195D03*
D264*
X2432177Y671195D03*
D10*
X2551367Y671322D03*
D109*
X2542477Y671322D03*
D68*
X2519871Y671322D03*
D10*
X2512378Y671322D03*
X2509711Y671322D03*
D76*
X2503551Y671322D03*
D108*
X2496122Y671322D03*
X2484946Y671322D03*
D76*
X2474214Y671322D03*
D264*
X2432177Y671322D03*
D10*
X2551367Y671449D03*
D76*
X2542667Y671449D03*
D68*
X2519617Y671449D03*
D10*
X2512378Y671449D03*
X2509711Y671449D03*
D109*
X2503615Y671449D03*
D108*
X2495868Y671449D03*
X2484692Y671449D03*
D109*
X2474151Y671449D03*
D264*
X2432177Y671449D03*
D127*
X2551430Y671576D03*
D76*
X2542794Y671576D03*
D127*
X2519426Y671576D03*
D10*
X2512378Y671576D03*
X2509711Y671576D03*
D76*
X2503678Y671576D03*
D94*
X2495677Y671576D03*
X2484501Y671576D03*
D109*
X2474151Y671576D03*
D265*
X2432177Y671576D03*
D127*
X2551430Y671703D03*
D109*
X2542985Y671703D03*
D127*
X2519172Y671703D03*
D10*
X2512378Y671703D03*
X2509711Y671703D03*
D109*
X2503742Y671703D03*
D108*
X2495487Y671703D03*
D94*
X2484247Y671703D03*
D109*
X2474151Y671703D03*
D265*
X2432177Y671703D03*
D10*
X2551494Y671830D03*
D76*
X2543175Y671830D03*
D107*
X2532317Y671830D03*
D10*
X2518982Y671830D03*
D127*
X2512314Y671830D03*
D10*
X2509711Y671830D03*
D76*
X2503805Y671830D03*
D94*
X2495296Y671830D03*
X2483993Y671830D03*
D109*
X2474151Y671830D03*
D265*
X2432177Y671830D03*
D10*
X2551494Y671957D03*
D76*
X2543302Y671957D03*
D53*
X2532317Y671957D03*
D127*
X2518791Y671957D03*
D10*
X2512251Y671957D03*
D127*
X2509774Y671957D03*
D109*
X2503869Y671957D03*
D108*
X2495106Y671957D03*
D94*
X2483866Y671957D03*
D76*
X2474087Y671957D03*
D265*
X2432177Y671957D03*
D127*
X2551557Y672084D03*
D76*
X2543429Y672084D03*
D87*
X2532253Y672084D03*
D127*
X2518537Y672084D03*
X2512187Y672084D03*
D10*
X2509838Y672084D03*
D76*
X2503932Y672084D03*
D94*
X2494915Y672084D03*
X2483612Y672084D03*
D76*
X2474087Y672084D03*
D173*
X2442210Y672084D03*
D266*
X2402396Y672084D03*
D127*
X2551557Y672211D03*
D76*
X2543556Y672211D03*
D47*
X2532253Y672211D03*
D10*
X2518347Y672211D03*
D127*
X2512060Y672211D03*
X2509901Y672211D03*
D76*
X2503932Y672211D03*
D108*
X2494725Y672211D03*
D68*
X2483422Y672211D03*
D109*
X2474024Y672211D03*
D267*
X2442718Y672211D03*
D268*
X2401888Y672211D03*
D127*
X2551557Y672338D03*
D76*
X2543683Y672338D03*
D62*
X2532253Y672338D03*
D10*
X2518093Y672338D03*
D68*
X2511997Y672338D03*
X2510092Y672338D03*
D76*
X2504059Y672338D03*
D94*
X2494534Y672338D03*
D10*
X2483422Y672338D03*
D109*
X2474024Y672338D03*
D269*
X2443099Y672338D03*
D270*
X2401507Y672338D03*
D10*
X2551621Y672465D03*
D76*
X2543810Y672465D03*
D140*
X2535238Y672465D03*
D56*
X2529523Y672465D03*
D10*
X2517966Y672465D03*
D94*
X2511806Y672465D03*
D68*
X2510219Y672465D03*
D76*
X2504059Y672465D03*
D94*
X2494280Y672465D03*
D76*
X2483485Y672465D03*
D109*
X2474024Y672465D03*
D271*
X2443353Y672465D03*
D272*
X2401253Y672465D03*
D10*
X2551621Y672592D03*
D76*
X2543937Y672592D03*
D51*
X2535809Y672592D03*
D45*
X2528951Y672592D03*
D10*
X2517712Y672592D03*
D117*
X2511044Y672592D03*
D76*
X2504186Y672592D03*
D94*
X2494153Y672592D03*
D10*
X2483549Y672592D03*
D76*
X2479294Y672592D03*
D109*
X2474024Y672592D03*
D273*
X2443607Y672592D03*
D274*
X2401062Y672592D03*
D127*
X2551684Y672719D03*
D76*
X2544064Y672719D03*
D46*
X2536317Y672719D03*
D48*
X2528380Y672719D03*
D10*
X2517458Y672719D03*
D51*
X2511044Y672719D03*
D76*
X2504186Y672719D03*
D94*
X2493899Y672719D03*
D76*
X2483612Y672719D03*
D46*
X2479294Y672719D03*
D76*
X2473960Y672719D03*
D275*
X2443861Y672719D03*
D276*
X2400745Y672719D03*
D127*
X2551684Y672846D03*
D76*
X2544191Y672846D03*
D59*
X2536698Y672846D03*
D48*
X2527999Y672846D03*
D10*
X2517331Y672846D03*
D105*
X2510981Y672846D03*
D76*
X2504313Y672846D03*
D94*
X2493772Y672846D03*
D10*
X2483676Y672846D03*
D48*
X2479358Y672846D03*
D109*
X2473897Y672846D03*
D277*
X2444052Y672846D03*
D278*
X2400618Y672846D03*
D10*
X2551748Y672973D03*
D76*
X2544318Y672973D03*
D59*
X2537079Y672973D03*
D51*
X2527554Y672973D03*
D10*
X2517077Y672973D03*
D68*
X2510981Y672973D03*
D76*
X2504313Y672973D03*
D94*
X2493518Y672973D03*
D10*
X2483803Y672973D03*
D45*
X2479294Y672973D03*
D109*
X2473897Y672973D03*
D279*
X2444242Y672973D03*
D280*
X2400427Y672973D03*
D10*
X2551748Y673100D03*
D76*
X2544445Y673100D03*
D107*
X2537397Y673100D03*
D50*
X2527237Y673100D03*
D10*
X2516950Y673100D03*
X2504377Y673100D03*
D68*
X2493328Y673100D03*
D76*
X2483866Y673100D03*
D56*
X2479358Y673100D03*
D109*
X2473897Y673100D03*
D281*
X2444433Y673100D03*
D37*
X2400300Y673100D03*
D127*
X2551811Y673227D03*
D76*
X2544572Y673227D03*
D63*
X2537714Y673227D03*
D46*
X2526919Y673227D03*
D10*
X2516696Y673227D03*
D76*
X2504440Y673227D03*
D94*
X2493137Y673227D03*
D10*
X2483930Y673227D03*
D43*
X2479358Y673227D03*
D109*
X2473897Y673227D03*
D162*
X2444560Y673227D03*
D35*
X2400173Y673227D03*
D127*
X2551811Y673354D03*
D76*
X2544699Y673354D03*
D63*
X2537968Y673354D03*
D46*
X2526665Y673354D03*
D76*
X2516505Y673354D03*
X2504440Y673354D03*
D94*
X2492883Y673354D03*
D76*
X2483993Y673354D03*
D107*
X2480374Y673354D03*
D63*
X2478278Y673354D03*
D109*
X2473897Y673354D03*
D282*
X2444750Y673354D03*
D283*
X2400046Y673354D03*
D127*
X2551811Y673481D03*
D76*
X2544826Y673481D03*
D63*
X2538222Y673481D03*
D105*
X2526348Y673481D03*
D10*
X2516315Y673481D03*
D76*
X2504567Y673481D03*
D94*
X2492756Y673481D03*
D10*
X2484057Y673481D03*
D108*
X2480501Y673481D03*
X2478088Y673481D03*
D109*
X2473897Y673481D03*
D284*
X2444877Y673481D03*
D285*
X2399856Y673481D03*
D127*
X2551811Y673608D03*
D10*
X2544890Y673608D03*
D108*
X2538540Y673608D03*
D105*
X2526094Y673608D03*
D76*
X2516124Y673608D03*
D10*
X2504631Y673608D03*
D94*
X2492502Y673608D03*
D76*
X2484120Y673608D03*
D94*
X2480691Y673608D03*
X2477897Y673608D03*
D109*
X2473897Y673608D03*
D286*
X2445004Y673608D03*
D32*
X2399729Y673608D03*
D127*
X2551811Y673735D03*
D76*
X2544953Y673735D03*
D94*
X2538730Y673735D03*
D105*
X2525840Y673735D03*
D10*
X2515934Y673735D03*
D76*
X2504694Y673735D03*
D68*
X2492312Y673735D03*
D10*
X2484184Y673735D03*
D94*
X2480818Y673735D03*
D68*
X2477834Y673735D03*
D109*
X2473897Y673735D03*
D287*
X2445131Y673735D03*
D31*
X2399602Y673735D03*
D10*
X2551875Y673862D03*
D76*
X2545080Y673862D03*
D94*
X2538984Y673862D03*
D105*
X2525586Y673862D03*
D10*
X2515680Y673862D03*
D76*
X2504694Y673862D03*
D94*
X2492121Y673862D03*
D76*
X2484247Y673862D03*
D68*
X2480882Y673862D03*
X2477707Y673862D03*
D76*
X2473833Y673862D03*
D288*
X2445322Y673862D03*
D111*
X2399538Y673862D03*
D10*
X2551875Y673989D03*
D76*
X2545207Y673989D03*
D68*
X2539175Y673989D03*
D59*
X2525268Y673989D03*
D76*
X2515489Y673989D03*
D10*
X2504758Y673989D03*
D68*
X2491931Y673989D03*
D10*
X2484311Y673989D03*
D94*
X2480945Y673989D03*
D68*
X2477707Y673989D03*
D109*
X2473770Y673989D03*
D289*
X2445449Y673989D03*
D29*
X2399411Y673989D03*
D127*
X2551938Y674116D03*
D76*
X2545207Y674116D03*
D94*
X2539365Y674116D03*
D59*
X2525141Y674116D03*
D76*
X2515235Y674116D03*
X2504821Y674116D03*
D68*
X2491804Y674116D03*
D76*
X2484374Y674116D03*
D68*
X2481009Y674116D03*
X2477580Y674116D03*
D109*
X2473770Y674116D03*
D290*
X2445576Y674116D03*
D113*
X2399348Y674116D03*
D127*
X2551938Y674243D03*
D76*
X2545334Y674243D03*
D68*
X2539556Y674243D03*
D59*
X2524887Y674243D03*
D76*
X2514981Y674243D03*
D10*
X2504885Y674243D03*
D68*
X2491550Y674243D03*
D76*
X2484501Y674243D03*
D68*
X2481009Y674243D03*
X2477580Y674243D03*
D109*
X2473770Y674243D03*
D291*
X2445703Y674243D03*
D102*
X2399221Y674243D03*
D127*
X2551938Y674370D03*
D76*
X2545461Y674370D03*
D127*
X2539746Y674370D03*
D59*
X2524633Y674370D03*
D76*
X2514727Y674370D03*
X2504948Y674370D03*
D68*
X2491296Y674370D03*
D76*
X2484501Y674370D03*
D127*
X2481072Y674370D03*
D68*
X2477580Y674370D03*
D109*
X2473770Y674370D03*
D292*
X2445766Y674370D03*
D100*
X2399157Y674370D03*
D127*
X2551938Y674497D03*
D10*
X2545525Y674497D03*
D68*
X2539937Y674497D03*
D107*
X2524443Y674497D03*
D76*
X2514473Y674497D03*
D10*
X2505012Y674497D03*
D68*
X2491169Y674497D03*
D76*
X2484628Y674497D03*
D68*
X2481136Y674497D03*
D127*
X2477516Y674497D03*
D109*
X2473770Y674497D03*
D157*
X2445893Y674497D03*
D100*
X2399030Y674497D03*
D127*
X2551938Y674624D03*
D76*
X2545588Y674624D03*
D127*
X2540127Y674624D03*
D107*
X2524189Y674624D03*
D76*
X2514219Y674624D03*
X2505075Y674624D03*
D68*
X2490915Y674624D03*
D76*
X2484628Y674624D03*
D68*
X2481136Y674624D03*
D127*
X2477516Y674624D03*
D109*
X2473770Y674624D03*
D293*
X2446020Y674624D03*
D26*
X2398903Y674624D03*
D127*
X2551938Y674751D03*
D76*
X2545715Y674751D03*
D127*
X2540254Y674751D03*
D107*
X2524062Y674751D03*
D76*
X2513965Y674751D03*
D10*
X2505139Y674751D03*
D68*
X2490788Y674751D03*
D76*
X2484755Y674751D03*
D68*
X2481136Y674751D03*
D127*
X2477516Y674751D03*
D109*
X2473770Y674751D03*
D156*
X2446084Y674751D03*
D98*
X2398840Y674751D03*
D127*
X2551938Y674878D03*
D76*
X2545715Y674878D03*
D127*
X2540381Y674878D03*
D107*
X2523808Y674878D03*
D10*
X2513648Y674878D03*
X2505139Y674878D03*
D68*
X2490534Y674878D03*
D76*
X2484755Y674878D03*
D68*
X2481136Y674878D03*
D127*
X2477516Y674878D03*
D109*
X2473770Y674878D03*
D294*
X2446211Y674878D03*
D25*
X2398776Y674878D03*
D127*
X2552065Y675005D03*
D76*
X2545842Y675005D03*
D127*
X2540508Y675005D03*
D107*
X2523681Y675005D03*
D76*
X2513457Y675005D03*
D10*
X2505266Y675005D03*
D127*
X2490343Y675005D03*
D76*
X2484882Y675005D03*
D127*
X2481072Y675005D03*
D68*
X2477580Y675005D03*
D109*
X2473770Y675005D03*
D295*
X2446274Y675005D03*
D96*
X2398713Y675005D03*
D127*
X2552065Y675132D03*
D10*
X2545906Y675132D03*
X2540699Y675132D03*
D107*
X2523427Y675132D03*
D76*
X2513076Y675132D03*
D10*
X2505266Y675132D03*
D68*
X2490153Y675132D03*
D10*
X2484946Y675132D03*
D127*
X2481072Y675132D03*
D68*
X2477580Y675132D03*
D109*
X2473770Y675132D03*
D296*
X2446401Y675132D03*
D93*
X2398649Y675132D03*
D127*
X2552065Y675259D03*
D76*
X2545969Y675259D03*
D127*
X2540889Y675259D03*
D107*
X2523300Y675259D03*
D76*
X2512822Y675259D03*
D10*
X2505393Y675259D03*
D127*
X2489962Y675259D03*
D76*
X2485009Y675259D03*
D68*
X2481009Y675259D03*
X2477580Y675259D03*
D109*
X2473770Y675259D03*
D297*
X2446465Y675259D03*
D24*
X2398586Y675259D03*
D127*
X2552065Y675386D03*
D10*
X2546033Y675386D03*
X2540953Y675386D03*
D63*
X2523109Y675386D03*
D76*
X2512568Y675386D03*
D10*
X2505393Y675386D03*
D68*
X2489772Y675386D03*
D76*
X2485136Y675386D03*
D68*
X2481009Y675386D03*
X2477707Y675386D03*
D109*
X2473770Y675386D03*
D154*
X2446592Y675386D03*
D89*
X2398522Y675386D03*
D127*
X2552065Y675513D03*
D76*
X2546096Y675513D03*
D10*
X2541080Y675513D03*
D63*
X2522982Y675513D03*
D76*
X2512187Y675513D03*
D10*
X2505520Y675513D03*
D127*
X2489581Y675513D03*
D10*
X2485073Y675513D03*
D68*
X2480882Y675513D03*
X2477707Y675513D03*
D109*
X2473770Y675513D03*
D298*
X2446655Y675513D03*
D80*
X2398459Y675513D03*
D127*
X2552065Y675640D03*
D10*
X2546160Y675640D03*
X2541207Y675640D03*
D63*
X2522855Y675640D03*
D76*
X2511933Y675640D03*
D10*
X2505520Y675640D03*
D127*
X2489327Y675640D03*
D10*
X2484946Y675640D03*
D68*
X2480882Y675640D03*
D94*
X2477770Y675640D03*
D109*
X2473770Y675640D03*
D299*
X2446719Y675640D03*
D23*
X2398395Y675640D03*
D94*
X2552065Y675767D03*
D76*
X2546223Y675767D03*
D10*
X2541334Y675767D03*
D108*
X2522665Y675767D03*
D76*
X2511552Y675767D03*
D127*
X2505583Y675767D03*
D107*
X2497011Y675767D03*
D127*
X2489200Y675767D03*
X2484755Y675767D03*
D94*
X2480691Y675767D03*
D108*
X2477834Y675767D03*
D109*
X2473770Y675767D03*
D300*
X2446846Y675767D03*
D301*
X2398332Y675767D03*
D46*
X2552065Y675894D03*
D10*
X2546287Y675894D03*
X2541461Y675894D03*
D108*
X2522538Y675894D03*
D76*
X2511298Y675894D03*
D10*
X2505647Y675894D03*
D51*
X2497074Y675894D03*
D127*
X2488946Y675894D03*
X2484501Y675894D03*
D108*
X2480628Y675894D03*
D107*
X2477834Y675894D03*
D109*
X2473770Y675894D03*
D153*
X2446909Y675894D03*
D22*
X2398268Y675894D03*
D117*
X2552065Y676021D03*
D76*
X2546350Y676021D03*
D10*
X2541588Y676021D03*
D94*
X2522474Y676021D03*
D109*
X2510981Y676021D03*
D127*
X2505710Y676021D03*
D140*
X2497011Y676021D03*
D127*
X2488819Y676021D03*
D10*
X2484311Y676021D03*
D108*
X2480501Y676021D03*
D46*
X2477897Y676021D03*
D109*
X2473770Y676021D03*
D302*
X2446973Y676021D03*
D22*
X2398141Y676021D03*
D115*
X2552129Y676148D03*
D76*
X2546350Y676148D03*
D10*
X2541715Y676148D03*
D68*
X2522411Y676148D03*
D109*
X2510600Y676148D03*
D105*
X2506282Y676148D03*
D56*
X2497011Y676148D03*
D127*
X2488565Y676148D03*
X2484120Y676148D03*
D59*
X2480183Y676148D03*
X2478405Y676148D03*
D127*
X2477135Y676148D03*
D109*
X2473770Y676148D03*
D303*
X2447100Y676148D03*
D92*
X2398078Y676148D03*
D69*
X2552065Y676275D03*
D10*
X2546414Y676275D03*
D76*
X2541778Y676275D03*
D10*
X2522411Y676275D03*
D109*
X2510346Y676275D03*
D50*
X2506409Y676275D03*
D43*
X2497011Y676275D03*
D10*
X2488375Y676275D03*
X2483930Y676275D03*
D69*
X2479294Y676275D03*
D10*
X2476945Y676275D03*
D109*
X2473770Y676275D03*
D152*
X2447163Y676275D03*
D304*
X2398014Y676275D03*
D49*
X2552065Y676402D03*
D76*
X2546477Y676402D03*
D10*
X2541842Y676402D03*
D76*
X2519553Y676402D03*
D109*
X2509965Y676402D03*
D51*
X2506472Y676402D03*
D107*
X2498027Y676402D03*
X2495995Y676402D03*
D127*
X2488184Y676402D03*
D10*
X2483676Y676402D03*
D52*
X2479294Y676402D03*
D10*
X2476691Y676402D03*
D109*
X2473770Y676402D03*
D305*
X2447227Y676402D03*
D304*
X2398014Y676402D03*
D63*
X2553208Y676529D03*
D107*
X2550986Y676529D03*
D10*
X2546541Y676529D03*
X2541969Y676529D03*
D105*
X2519490Y676529D03*
D109*
X2509584Y676529D03*
D117*
X2506472Y676529D03*
D63*
X2498217Y676529D03*
D108*
X2495868Y676529D03*
D10*
X2487994Y676529D03*
X2483422Y676529D03*
D140*
X2479358Y676529D03*
D10*
X2476564Y676529D03*
D109*
X2473770Y676529D03*
D306*
X2447290Y676529D03*
D90*
X2397951Y676529D03*
D108*
X2553399Y676656D03*
X2550859Y676656D03*
D10*
X2546541Y676656D03*
X2542096Y676656D03*
D48*
X2519490Y676656D03*
D45*
X2506472Y676656D03*
D94*
X2498344Y676656D03*
X2495677Y676656D03*
D127*
X2487803Y676656D03*
D10*
X2483295Y676656D03*
D51*
X2479294Y676656D03*
D76*
X2476373Y676656D03*
D109*
X2473770Y676656D03*
D307*
X2447354Y676656D03*
D21*
X2397887Y676656D03*
D68*
X2553526Y676783D03*
D108*
X2550732Y676783D03*
D76*
X2546604Y676783D03*
X2542159Y676783D03*
D115*
X2519490Y676783D03*
D97*
X2508885Y676783D03*
D52*
X2506472Y676783D03*
D94*
X2498471Y676783D03*
X2495550Y676783D03*
D127*
X2487549Y676783D03*
D10*
X2483041Y676783D03*
D63*
X2479294Y676783D03*
D76*
X2476119Y676783D03*
D97*
X2473833Y676783D03*
D308*
X2447481Y676783D03*
D309*
X2397824Y676783D03*
D68*
X2553653Y676910D03*
D94*
X2550668Y676910D03*
D10*
X2546668Y676910D03*
X2542223Y676910D03*
D56*
X2519490Y676910D03*
D97*
X2508631Y676910D03*
D69*
X2506472Y676910D03*
D68*
X2498535Y676910D03*
X2495487Y676910D03*
D10*
X2487359Y676910D03*
X2482787Y676910D03*
D76*
X2475992Y676910D03*
D97*
X2473833Y676910D03*
D310*
X2447544Y676910D03*
D309*
X2397824Y676910D03*
D127*
X2553716Y677037D03*
D94*
X2550541Y677037D03*
D76*
X2546731Y677037D03*
X2542286Y677037D03*
D43*
X2519490Y677037D03*
D69*
X2506472Y677037D03*
D68*
X2498662Y677037D03*
D94*
X2495423Y677037D03*
D127*
X2487168Y677037D03*
D10*
X2482660Y677037D03*
D76*
X2475738Y677037D03*
D97*
X2473833Y677037D03*
D311*
X2447608Y677037D03*
D88*
X2397760Y677037D03*
D68*
X2553780Y677164D03*
X2550478Y677164D03*
D76*
X2546731Y677164D03*
X2542413Y677164D03*
D63*
X2520569Y677164D03*
D107*
X2518474Y677164D03*
D49*
X2506472Y677164D03*
D68*
X2498662Y677164D03*
X2495360Y677164D03*
D10*
X2486978Y677164D03*
X2482406Y677164D03*
D76*
X2475611Y677164D03*
D97*
X2473833Y677164D03*
D150*
X2447608Y677164D03*
D20*
X2397697Y677164D03*
D127*
X2553843Y677291D03*
D94*
X2550414Y677291D03*
D10*
X2546795Y677291D03*
X2542477Y677291D03*
D108*
X2520760Y677291D03*
D63*
X2518283Y677291D03*
D49*
X2506472Y677291D03*
D68*
X2498789Y677291D03*
X2495360Y677291D03*
D127*
X2486787Y677291D03*
D76*
X2482215Y677291D03*
X2475357Y677291D03*
D109*
X2473897Y677291D03*
D312*
X2447671Y677291D03*
D91*
X2397760Y677291D03*
D127*
X2553843Y677418D03*
D94*
X2550414Y677418D03*
D10*
X2546795Y677418D03*
D76*
X2542540Y677418D03*
D108*
X2520887Y677418D03*
D94*
X2518156Y677418D03*
D49*
X2506472Y677418D03*
D68*
X2498789Y677418D03*
D127*
X2495296Y677418D03*
D10*
X2486597Y677418D03*
D76*
X2481961Y677418D03*
D109*
X2475167Y677418D03*
X2473897Y677418D03*
D313*
X2447735Y677418D03*
D85*
X2397697Y677418D03*
D127*
X2553843Y677545D03*
D68*
X2550351Y677545D03*
D76*
X2546858Y677545D03*
X2542667Y677545D03*
D94*
X2520950Y677545D03*
X2518029Y677545D03*
D49*
X2506472Y677545D03*
D68*
X2498789Y677545D03*
X2495233Y677545D03*
D127*
X2486406Y677545D03*
D10*
X2481771Y677545D03*
D97*
X2474976Y677545D03*
D109*
X2473897Y677545D03*
D314*
X2447798Y677545D03*
D19*
X2397633Y677545D03*
D127*
X2553970Y677672D03*
D68*
X2550351Y677672D03*
D10*
X2546922Y677672D03*
D76*
X2542667Y677672D03*
D94*
X2521077Y677672D03*
D68*
X2517966Y677672D03*
D49*
X2506472Y677672D03*
D68*
X2498789Y677672D03*
X2495233Y677672D03*
D10*
X2486216Y677672D03*
D76*
X2481580Y677672D03*
D109*
X2474786Y677672D03*
X2473897Y677672D03*
D149*
X2447862Y677672D03*
D19*
X2397633Y677672D03*
D127*
X2553970Y677799D03*
D68*
X2550351Y677799D03*
D10*
X2546922Y677799D03*
D76*
X2542794Y677799D03*
D68*
X2521141Y677799D03*
X2517839Y677799D03*
D49*
X2506472Y677799D03*
D127*
X2498852Y677799D03*
D68*
X2495233Y677799D03*
D10*
X2485962Y677799D03*
D76*
X2481326Y677799D03*
D97*
X2474595Y677799D03*
D109*
X2473897Y677799D03*
D315*
X2447925Y677799D03*
D316*
X2397570Y677799D03*
D127*
X2553970Y677926D03*
D68*
X2550351Y677926D03*
D10*
X2546922Y677926D03*
D76*
X2542794Y677926D03*
D127*
X2521204Y677926D03*
D68*
X2517839Y677926D03*
D49*
X2506472Y677926D03*
D68*
X2498789Y677926D03*
X2495233Y677926D03*
D10*
X2485835Y677926D03*
D76*
X2481199Y677926D03*
D97*
X2473960Y677926D03*
D317*
X2448052Y677926D03*
D316*
X2397570Y677926D03*
D127*
X2553970Y678053D03*
D68*
X2550351Y678053D03*
D76*
X2546985Y678053D03*
X2542921Y678053D03*
D68*
X2521268Y678053D03*
D127*
X2517775Y678053D03*
D49*
X2506472Y678053D03*
D68*
X2498789Y678053D03*
X2495233Y678053D03*
D10*
X2485581Y678053D03*
D76*
X2480945Y678053D03*
D97*
X2473960Y678053D03*
D318*
X2448116Y678053D03*
D82*
X2397506Y678053D03*
D127*
X2553843Y678180D03*
D68*
X2550351Y678180D03*
D76*
X2546985Y678180D03*
X2542921Y678180D03*
D68*
X2521268Y678180D03*
D127*
X2517775Y678180D03*
D49*
X2506472Y678180D03*
D68*
X2498789Y678180D03*
D127*
X2495296Y678180D03*
D10*
X2485454Y678180D03*
D76*
X2480691Y678180D03*
D97*
X2473960Y678180D03*
D319*
X2448116Y678180D03*
D82*
X2397506Y678180D03*
D127*
X2553843Y678307D03*
D68*
X2550351Y678307D03*
D10*
X2547049Y678307D03*
D76*
X2543048Y678307D03*
D68*
X2521268Y678307D03*
X2517712Y678307D03*
D69*
X2506472Y678307D03*
D68*
X2498789Y678307D03*
D127*
X2495296Y678307D03*
D10*
X2485200Y678307D03*
D109*
X2480501Y678307D03*
D97*
X2473960Y678307D03*
D320*
X2448179Y678307D03*
D84*
X2397443Y678307D03*
D127*
X2553843Y678434D03*
D94*
X2550414Y678434D03*
D10*
X2547049Y678434D03*
D76*
X2543048Y678434D03*
D68*
X2521268Y678434D03*
X2517712Y678434D03*
D69*
X2506472Y678434D03*
D68*
X2498662Y678434D03*
X2495360Y678434D03*
D76*
X2485009Y678434D03*
X2480310Y678434D03*
D109*
X2474024Y678434D03*
D321*
X2448243Y678434D03*
D84*
X2397443Y678434D03*
D68*
X2553780Y678561D03*
X2550478Y678561D03*
D10*
X2547049Y678561D03*
D76*
X2543175Y678561D03*
D127*
X2521331Y678561D03*
D68*
X2517712Y678561D03*
D52*
X2506472Y678561D03*
D68*
X2498662Y678561D03*
D94*
X2495423Y678561D03*
D10*
X2484819Y678561D03*
D76*
X2480056Y678561D03*
D109*
X2474024Y678561D03*
D147*
X2448306Y678561D03*
D18*
X2397379Y678561D03*
D127*
X2553716Y678688D03*
D94*
X2550541Y678688D03*
D10*
X2547049Y678688D03*
D76*
X2543175Y678688D03*
D68*
X2521268Y678688D03*
X2517712Y678688D03*
D45*
X2506472Y678688D03*
D94*
X2498598Y678688D03*
D68*
X2495487Y678688D03*
D76*
X2484628Y678688D03*
D109*
X2479866Y678688D03*
D97*
X2474087Y678688D03*
D322*
X2448370Y678688D03*
D18*
X2397379Y678688D03*
D68*
X2553653Y678815D03*
D94*
X2550668Y678815D03*
D10*
X2547176Y678815D03*
D109*
X2543239Y678815D03*
D68*
X2521268Y678815D03*
D127*
X2517775Y678815D03*
D45*
X2506472Y678815D03*
D94*
X2498471Y678815D03*
D108*
X2495487Y678815D03*
D76*
X2484374Y678815D03*
X2479675Y678815D03*
D97*
X2474087Y678815D03*
D323*
X2448433Y678815D03*
D81*
X2397316Y678815D03*
D68*
X2553526Y678942D03*
D108*
X2550732Y678942D03*
D10*
X2547176Y678942D03*
D76*
X2543302Y678942D03*
D68*
X2521268Y678942D03*
D127*
X2517775Y678942D03*
D51*
X2506472Y678942D03*
D108*
X2498408Y678942D03*
D59*
X2495423Y678942D03*
D76*
X2484247Y678942D03*
D109*
X2479485Y678942D03*
D97*
X2474087Y678942D03*
D324*
X2448433Y678942D03*
D112*
X2397379Y678942D03*
D94*
X2553462Y679069D03*
D108*
X2550859Y679069D03*
D10*
X2547176Y679069D03*
D76*
X2543302Y679069D03*
D127*
X2521204Y679069D03*
D68*
X2517839Y679069D03*
D46*
X2506472Y679069D03*
D108*
X2498281Y679069D03*
D50*
X2495487Y679069D03*
D76*
X2483993Y679069D03*
D109*
X2479231Y679069D03*
X2474151Y679069D03*
D325*
X2448497Y679069D03*
D75*
X2397316Y679069D03*
D108*
X2553272Y679196D03*
D107*
X2550986Y679196D03*
D10*
X2547176Y679196D03*
D76*
X2543429Y679196D03*
D68*
X2521141Y679196D03*
X2517839Y679196D03*
D63*
X2506472Y679196D03*
D107*
X2498027Y679196D03*
D140*
X2495487Y679196D03*
D76*
X2483866Y679196D03*
X2479040Y679196D03*
D109*
X2474151Y679196D03*
D146*
X2448560Y679196D03*
D75*
X2397316Y679196D03*
D59*
X2552954Y679323D03*
D46*
X2551303Y679323D03*
D10*
X2547176Y679323D03*
D76*
X2543429Y679323D03*
D68*
X2521141Y679323D03*
D94*
X2517902Y679323D03*
D43*
X2497011Y679323D03*
D108*
X2494725Y679323D03*
D76*
X2487803Y679323D03*
X2483612Y679323D03*
D109*
X2478850Y679323D03*
D97*
X2474214Y679323D03*
D326*
X2448687Y679323D03*
D75*
X2397316Y679323D03*
D69*
X2552065Y679450D03*
D10*
X2547176Y679450D03*
D109*
X2543493Y679450D03*
D94*
X2521077Y679450D03*
D68*
X2517966Y679450D03*
D56*
X2497011Y679450D03*
D108*
X2494598Y679450D03*
D127*
X2487803Y679450D03*
D76*
X2483485Y679450D03*
D109*
X2478596Y679450D03*
D97*
X2474214Y679450D03*
D327*
X2448687Y679450D03*
D17*
X2397252Y679450D03*
D115*
X2552129Y679577D03*
D10*
X2547176Y679577D03*
D76*
X2543556Y679577D03*
D94*
X2520950Y679577D03*
X2518029Y679577D03*
D45*
X2497074Y679577D03*
D108*
X2494344Y679577D03*
X2487740Y679577D03*
D76*
X2483231Y679577D03*
D97*
X2478405Y679577D03*
X2474214Y679577D03*
D145*
X2448751Y679577D03*
D17*
X2397252Y679577D03*
D140*
X2552129Y679704D03*
D10*
X2547176Y679704D03*
D76*
X2543556Y679704D03*
D94*
X2520823Y679704D03*
D108*
X2518093Y679704D03*
D48*
X2497011Y679704D03*
D108*
X2494217Y679704D03*
D76*
X2488057Y679704D03*
D127*
X2487295Y679704D03*
D109*
X2483041Y679704D03*
X2478215Y679704D03*
D97*
X2474214Y679704D03*
D328*
X2448814Y679704D03*
D17*
X2397252Y679704D03*
D46*
X2552065Y679831D03*
D127*
X2547239Y679831D03*
D109*
X2543620Y679831D03*
D63*
X2520696Y679831D03*
D59*
X2518156Y679831D03*
X2497074Y679831D03*
D108*
X2493963Y679831D03*
D76*
X2488184Y679831D03*
D10*
X2487105Y679831D03*
D76*
X2482850Y679831D03*
D109*
X2477961Y679831D03*
D97*
X2474341Y679831D03*
D329*
X2448878Y679831D03*
D110*
X2397189Y679831D03*
D94*
X2552065Y679958D03*
D127*
X2547239Y679958D03*
D109*
X2543620Y679958D03*
D59*
X2520442Y679958D03*
D51*
X2518283Y679958D03*
D108*
X2493836Y679958D03*
D10*
X2488248Y679958D03*
D127*
X2486914Y679958D03*
D76*
X2482596Y679958D03*
D97*
X2477770Y679958D03*
X2474341Y679958D03*
D330*
X2448878Y679958D03*
D72*
X2397252Y679958D03*
D10*
X2547303Y680085D03*
D76*
X2543683Y680085D03*
D53*
X2519109Y680085D03*
D108*
X2493582Y680085D03*
D76*
X2488311Y680085D03*
D10*
X2486724Y680085D03*
D76*
X2482469Y680085D03*
D109*
X2477580Y680085D03*
D97*
X2474341Y680085D03*
D144*
X2448941Y680085D03*
D72*
X2397252Y680085D03*
D97*
X2551811Y680212D03*
D10*
X2547303Y680212D03*
D109*
X2543747Y680212D03*
D52*
X2519553Y680212D03*
D108*
X2517458Y680212D03*
D94*
X2493391Y680212D03*
D76*
X2488438Y680212D03*
D10*
X2486470Y680212D03*
D76*
X2482215Y680212D03*
D109*
X2477326Y680212D03*
D97*
X2474341Y680212D03*
D331*
X2449005Y680212D03*
D73*
X2397189Y680212D03*
D97*
X2551811Y680339D03*
D10*
X2547303Y680339D03*
D109*
X2543747Y680339D03*
D140*
X2519490Y680339D03*
D108*
X2517331Y680339D03*
X2493201Y680339D03*
D10*
X2488502Y680339D03*
X2486343Y680339D03*
D109*
X2482025Y680339D03*
D97*
X2477135Y680339D03*
D109*
X2474405Y680339D03*
D332*
X2449068Y680339D03*
D73*
X2397189Y680339D03*
D10*
X2547303Y680466D03*
D76*
X2543810Y680466D03*
D51*
X2519553Y680466D03*
D108*
X2517204Y680466D03*
D94*
X2493010Y680466D03*
D76*
X2488565Y680466D03*
D10*
X2486089Y680466D03*
D76*
X2481834Y680466D03*
D97*
X2476881Y680466D03*
X2474468Y680466D03*
D333*
X2449132Y680466D03*
D73*
X2397189Y680466D03*
D97*
X2551684Y680593D03*
D10*
X2547303Y680593D03*
D76*
X2543810Y680593D03*
D107*
X2519490Y680593D03*
D108*
X2517077Y680593D03*
X2492820Y680593D03*
D76*
X2488692Y680593D03*
D10*
X2485962Y680593D03*
D109*
X2481644Y680593D03*
D97*
X2476754Y680593D03*
X2474468Y680593D03*
D143*
X2449195Y680593D03*
D106*
X2397189Y680593D03*
D97*
X2551684Y680720D03*
D10*
X2547303Y680720D03*
D109*
X2543874Y680720D03*
D108*
X2516823Y680720D03*
D94*
X2492629Y680720D03*
D10*
X2488756Y680720D03*
X2485708Y680720D03*
D76*
X2481453Y680720D03*
D109*
X2474532Y680720D03*
D334*
X2449195Y680720D03*
D106*
X2397189Y680720D03*
D97*
X2551684Y680847D03*
D10*
X2547303Y680847D03*
D109*
X2543874Y680847D03*
D108*
X2516696Y680847D03*
X2492439Y680847D03*
D76*
X2488819Y680847D03*
D10*
X2485454Y680847D03*
D109*
X2481263Y680847D03*
D97*
X2474595Y680847D03*
D335*
X2449259Y680847D03*
D106*
X2397189Y680847D03*
D97*
X2551557Y680974D03*
D10*
X2547303Y680974D03*
D109*
X2543874Y680974D03*
D108*
X2516569Y680974D03*
D94*
X2492248Y680974D03*
D76*
X2488946Y680974D03*
D10*
X2485327Y680974D03*
D109*
X2481009Y680974D03*
D97*
X2474595Y680974D03*
D142*
X2449322Y680974D03*
D106*
X2397189Y680974D03*
D97*
X2551557Y681101D03*
D10*
X2547303Y681101D03*
D109*
X2543874Y681101D03*
D108*
X2516442Y681101D03*
X2492058Y681101D03*
D10*
X2489010Y681101D03*
X2485073Y681101D03*
D109*
X2480882Y681101D03*
D97*
X2474595Y681101D03*
D336*
X2449386Y681101D03*
D42*
X2397252Y681101D03*
D97*
X2551557Y681228D03*
D10*
X2547303Y681228D03*
D76*
X2543937Y681228D03*
D108*
X2516188Y681228D03*
D94*
X2491867Y681228D03*
D10*
X2489137Y681228D03*
D76*
X2484882Y681228D03*
D109*
X2480628Y681228D03*
D97*
X2474722Y681228D03*
D337*
X2449449Y681228D03*
D42*
X2397252Y681228D03*
D97*
X2551557Y681355D03*
D10*
X2547303Y681355D03*
D109*
X2544001Y681355D03*
D108*
X2516061Y681355D03*
D68*
X2491677Y681355D03*
D76*
X2489200Y681355D03*
D10*
X2484692Y681355D03*
D109*
X2480501Y681355D03*
D97*
X2474722Y681355D03*
D338*
X2449449Y681355D03*
D114*
X2397189Y681355D03*
D97*
X2551430Y681482D03*
D10*
X2547303Y681482D03*
D109*
X2544001Y681482D03*
D108*
X2515934Y681482D03*
D94*
X2491486Y681482D03*
D10*
X2489264Y681482D03*
D76*
X2484501Y681482D03*
D109*
X2480247Y681482D03*
X2474786Y681482D03*
D141*
X2449513Y681482D03*
D114*
X2397189Y681482D03*
D97*
X2551430Y681609D03*
D127*
X2547239Y681609D03*
D109*
X2544001Y681609D03*
D108*
X2515807Y681609D03*
D68*
X2491296Y681609D03*
D10*
X2489391Y681609D03*
X2484311Y681609D03*
D97*
X2480056Y681609D03*
X2474849Y681609D03*
D339*
X2449576Y681609D03*
D114*
X2397189Y681609D03*
D97*
X2551430Y681736D03*
D127*
X2547239Y681736D03*
D109*
X2544001Y681736D03*
D108*
X2515553Y681736D03*
D94*
X2491105Y681736D03*
D76*
X2489454Y681736D03*
X2484120Y681736D03*
D109*
X2479866Y681736D03*
D97*
X2474849Y681736D03*
D340*
X2449640Y681736D03*
D62*
X2397252Y681736D03*
D109*
X2551367Y681863D03*
D127*
X2547239Y681863D03*
D109*
X2544001Y681863D03*
D108*
X2515426Y681863D03*
D68*
X2490915Y681863D03*
D10*
X2489518Y681863D03*
D76*
X2483866Y681863D03*
D97*
X2479675Y681863D03*
X2474976Y681863D03*
D139*
X2449703Y681863D03*
D62*
X2397252Y681863D03*
D97*
X2551303Y681990D03*
D127*
X2547239Y681990D03*
D76*
X2544064Y681990D03*
D108*
X2515299Y681990D03*
D94*
X2490724Y681990D03*
D10*
X2489645Y681990D03*
D109*
X2483676Y681990D03*
X2479485Y681990D03*
D97*
X2474976Y681990D03*
D341*
X2449703Y681990D03*
D62*
X2397252Y681990D03*
D97*
X2551303Y682117D03*
D127*
X2547239Y682117D03*
D76*
X2544064Y682117D03*
D108*
X2515045Y682117D03*
D68*
X2490534Y682117D03*
D10*
X2489772Y682117D03*
D76*
X2483485Y682117D03*
D97*
X2479294Y682117D03*
X2475103Y682117D03*
D342*
X2449767Y682117D03*
D15*
X2397252Y682117D03*
D109*
X2551240Y682244D03*
D127*
X2547239Y682244D03*
D109*
X2544128Y682244D03*
D108*
X2514918Y682244D03*
D107*
X2490153Y682244D03*
D76*
X2483231Y682244D03*
D97*
X2479040Y682244D03*
X2475103Y682244D03*
D138*
X2449830Y682244D03*
D15*
X2397252Y682244D03*
D97*
X2551176Y682371D03*
D127*
X2547239Y682371D03*
D109*
X2544128Y682371D03*
D108*
X2514791Y682371D03*
D94*
X2490089Y682371D03*
D109*
X2483041Y682371D03*
D97*
X2478913Y682371D03*
X2475230Y682371D03*
D343*
X2449894Y682371D03*
D15*
X2397252Y682371D03*
D97*
X2551176Y682498D03*
D127*
X2547239Y682498D03*
D109*
X2544128Y682498D03*
D94*
X2514600Y682498D03*
D10*
X2490026Y682498D03*
D76*
X2482850Y682498D03*
D97*
X2478659Y682498D03*
X2475230Y682498D03*
D344*
X2449894Y682498D03*
D15*
X2397252Y682498D03*
D109*
X2551113Y682625D03*
D108*
X2547049Y682625D03*
D109*
X2544128Y682625D03*
D108*
X2514410Y682625D03*
D76*
X2489962Y682625D03*
D109*
X2482660Y682625D03*
D97*
X2475357Y682625D03*
D345*
X2450021Y682625D03*
D101*
X2397316Y682625D03*
D97*
X2551049Y682752D03*
D46*
X2546985Y682752D03*
D109*
X2544128Y682752D03*
D108*
X2514283Y682752D03*
D76*
X2482469Y682752D03*
D97*
X2478278Y682752D03*
X2475357Y682752D03*
D346*
X2450021Y682752D03*
D101*
X2397316Y682752D03*
D97*
X2551049Y682879D03*
D51*
X2546985Y682879D03*
D109*
X2544128Y682879D03*
D94*
X2514092Y682879D03*
D63*
X2485898Y682879D03*
D109*
X2482279Y682879D03*
D97*
X2475484Y682879D03*
D347*
X2450084Y682879D03*
D101*
X2397316Y682879D03*
D109*
X2550986Y683006D03*
D117*
X2546985Y683006D03*
D109*
X2544128Y683006D03*
D108*
X2513902Y683006D03*
D51*
X2485898Y683006D03*
D109*
X2482025Y683006D03*
D97*
X2475484Y683006D03*
D348*
X2450084Y683006D03*
D44*
X2397379Y683006D03*
D97*
X2550922Y683133D03*
D45*
X2546985Y683133D03*
D109*
X2544128Y683133D03*
D108*
X2513775Y683133D03*
D45*
X2485898Y683133D03*
D109*
X2481898Y683133D03*
D97*
X2475611Y683133D03*
D136*
X2450211Y683133D03*
D44*
X2397379Y683133D03*
D97*
X2550922Y683260D03*
D52*
X2546985Y683260D03*
D109*
X2544128Y683260D03*
D94*
X2513584Y683260D03*
D52*
X2485898Y683260D03*
D109*
X2481644Y683260D03*
D97*
X2475611Y683260D03*
D349*
X2450211Y683260D03*
D44*
X2397379Y683260D03*
D109*
X2550859Y683387D03*
D69*
X2546985Y683387D03*
D109*
X2544128Y683387D03*
D108*
X2513394Y683387D03*
D69*
X2485898Y683387D03*
D109*
X2481390Y683387D03*
D97*
X2475738Y683387D03*
D350*
X2450211Y683387D03*
D95*
X2397443Y683387D03*
D97*
X2550795Y683514D03*
D69*
X2546985Y683514D03*
D109*
X2544128Y683514D03*
D108*
X2513267Y683514D03*
D59*
X2486787Y683514D03*
X2485009Y683514D03*
D109*
X2481263Y683514D03*
D351*
X2450338Y683514D03*
D95*
X2397443Y683514D03*
D109*
X2550732Y683641D03*
D43*
X2547049Y683641D03*
D109*
X2544128Y683641D03*
D108*
X2513013Y683641D03*
D63*
X2496566Y683641D03*
D108*
X2487105Y683641D03*
X2484692Y683641D03*
D109*
X2481009Y683641D03*
D97*
X2475865Y683641D03*
D352*
X2450338Y683641D03*
D64*
X2397506Y683641D03*
D109*
X2550732Y683768D03*
D49*
X2546985Y683768D03*
D109*
X2544128Y683768D03*
D108*
X2512886Y683768D03*
D46*
X2496566Y683768D03*
D108*
X2487232Y683768D03*
X2484565Y683768D03*
D109*
X2480882Y683768D03*
D97*
X2475992Y683768D03*
D353*
X2450402Y683768D03*
D64*
X2397506Y683768D03*
D97*
X2550668Y683895D03*
D49*
X2546985Y683895D03*
D109*
X2544128Y683895D03*
D94*
X2512695Y683895D03*
D48*
X2496503Y683895D03*
D94*
X2487295Y683895D03*
X2484501Y683895D03*
D109*
X2480628Y683895D03*
D354*
X2450465Y683895D03*
D64*
X2397506Y683895D03*
D109*
X2550605Y684022D03*
D49*
X2546985Y684022D03*
D109*
X2544128Y684022D03*
D108*
X2512505Y684022D03*
D140*
X2496503Y684022D03*
D94*
X2487422Y684022D03*
X2484374Y684022D03*
D97*
X2480437Y684022D03*
X2476119Y684022D03*
D134*
X2450465Y684022D03*
D14*
X2397570Y684022D03*
D97*
X2550541Y684149D03*
D49*
X2546985Y684149D03*
D109*
X2544128Y684149D03*
D108*
X2512378Y684149D03*
D115*
X2496503Y684149D03*
D68*
X2487486Y684149D03*
X2484311Y684149D03*
D109*
X2480247Y684149D03*
D97*
X2476246Y684149D03*
D355*
X2450592Y684149D03*
D14*
X2397570Y684149D03*
D109*
X2550478Y684276D03*
D49*
X2546985Y684276D03*
D109*
X2544128Y684276D03*
D108*
X2512124Y684276D03*
D52*
X2496566Y684276D03*
D68*
X2487613Y684276D03*
X2484184Y684276D03*
D97*
X2480056Y684276D03*
X2476373Y684276D03*
D356*
X2450592Y684276D03*
D14*
X2397570Y684276D03*
D109*
X2550478Y684403D03*
D49*
X2546985Y684403D03*
D109*
X2544128Y684403D03*
D108*
X2511997Y684403D03*
D56*
X2496503Y684403D03*
D68*
X2487613Y684403D03*
X2484184Y684403D03*
D97*
X2479802Y684403D03*
D133*
X2450592Y684403D03*
D47*
X2397633Y684403D03*
D109*
X2550351Y684530D03*
D49*
X2546985Y684530D03*
D109*
X2544128Y684530D03*
D94*
X2511806Y684530D03*
D43*
X2496503Y684530D03*
D68*
X2487613Y684530D03*
X2484184Y684530D03*
D357*
X2450656Y684530D03*
D47*
X2397633Y684530D03*
D109*
X2550351Y684657D03*
D43*
X2547049Y684657D03*
D109*
X2544128Y684657D03*
D108*
X2511616Y684657D03*
D43*
X2496503Y684657D03*
D127*
X2487676Y684657D03*
X2484120Y684657D03*
D97*
X2479421Y684657D03*
X2476627Y684657D03*
D358*
X2450719Y684657D03*
D77*
X2397697Y684657D03*
D109*
X2550224Y684784D03*
D69*
X2546985Y684784D03*
D109*
X2544128Y684784D03*
D94*
X2511425Y684784D03*
D43*
X2496503Y684784D03*
D127*
X2487676Y684784D03*
X2484120Y684784D03*
D359*
X2450783Y684784D03*
D77*
X2397697Y684784D03*
D109*
X2550224Y684911D03*
D69*
X2546985Y684911D03*
D97*
X2544064Y684911D03*
D108*
X2511235Y684911D03*
D49*
X2496566Y684911D03*
D127*
X2487676Y684911D03*
X2484120Y684911D03*
D360*
X2450783Y684911D03*
D77*
X2397824Y684911D03*
D76*
X2550160Y685038D03*
D52*
X2546985Y685038D03*
D97*
X2544064Y685038D03*
D94*
X2511044Y685038D03*
D49*
X2496566Y685038D03*
D127*
X2487676Y685038D03*
X2484120Y685038D03*
D361*
X2450846Y685038D03*
D77*
X2397824Y685038D03*
D109*
X2550097Y685165D03*
D45*
X2546985Y685165D03*
D109*
X2544001Y685165D03*
D108*
X2510854Y685165D03*
D49*
X2496566Y685165D03*
D127*
X2487676Y685165D03*
X2484120Y685165D03*
D362*
X2450846Y685165D03*
D54*
X2397887Y685165D03*
D109*
X2550097Y685292D03*
D140*
X2547049Y685292D03*
D109*
X2544001Y685292D03*
D94*
X2510663Y685292D03*
D49*
X2496566Y685292D03*
D68*
X2487613Y685292D03*
D127*
X2484120Y685292D03*
D363*
X2450973Y685292D03*
D54*
X2397887Y685292D03*
D109*
X2549970Y685419D03*
D51*
X2546985Y685419D03*
D109*
X2544001Y685419D03*
D108*
X2510473Y685419D03*
D49*
X2496566Y685419D03*
D68*
X2487613Y685419D03*
X2484184Y685419D03*
D364*
X2450973Y685419D03*
D60*
X2397951Y685419D03*
D109*
X2549970Y685546D03*
D46*
X2546985Y685546D03*
D109*
X2544001Y685546D03*
D94*
X2510282Y685546D03*
D43*
X2496503Y685546D03*
D68*
X2487613Y685546D03*
X2484184Y685546D03*
D365*
X2451037Y685546D03*
D60*
X2397951Y685546D03*
D109*
X2549843Y685673D03*
D63*
X2546985Y685673D03*
D109*
X2544001Y685673D03*
D108*
X2510092Y685673D03*
D49*
X2496439Y685673D03*
D68*
X2487486Y685673D03*
X2484311Y685673D03*
D366*
X2451037Y685673D03*
D60*
X2398078Y685673D03*
D76*
X2549779Y685800D03*
D97*
X2543937Y685800D03*
D108*
X2509838Y685800D03*
D11*
X2496312Y685800D03*
D68*
X2487486Y685800D03*
X2484311Y685800D03*
D367*
X2451100Y685800D03*
D60*
X2398078Y685800D03*
D109*
X2549716Y685927D03*
X2543874Y685927D03*
D94*
X2509647Y685927D03*
D61*
X2496122Y685927D03*
D68*
X2487359Y685927D03*
D108*
X2484311Y685927D03*
D368*
X2451100Y685927D03*
D99*
X2398141Y685927D03*
D76*
X2549652Y686054D03*
D109*
X2543874Y686054D03*
D108*
X2509457Y686054D03*
D53*
X2495995Y686054D03*
D94*
X2487295Y686054D03*
D107*
X2484311Y686054D03*
D369*
X2451164Y686054D03*
D99*
X2398141Y686054D03*
D109*
X2549589Y686181D03*
X2543874Y686181D03*
D94*
X2509266Y686181D03*
D115*
X2496503Y686181D03*
D107*
X2494471Y686181D03*
D108*
X2487105Y686181D03*
D50*
X2484311Y686181D03*
D370*
X2451227Y686181D03*
D74*
X2398205Y686181D03*
D76*
X2549525Y686308D03*
D109*
X2543874Y686308D03*
D108*
X2509076Y686308D03*
D140*
X2496503Y686308D03*
D63*
X2494280Y686308D03*
X2486914Y686308D03*
D107*
X2484819Y686308D03*
D68*
X2483549Y686308D03*
D371*
X2451227Y686308D03*
D74*
X2398205Y686308D03*
D109*
X2549462Y686435D03*
D97*
X2543810Y686435D03*
D108*
X2508822Y686435D03*
D51*
X2496566Y686435D03*
D63*
X2493899Y686435D03*
D49*
X2485898Y686435D03*
D10*
X2483295Y686435D03*
D372*
X2451291Y686435D03*
D74*
X2398332Y686435D03*
D76*
X2549398Y686562D03*
D97*
X2543810Y686562D03*
D94*
X2508631Y686562D03*
D105*
X2496503Y686562D03*
D108*
X2493709Y686562D03*
D56*
X2485835Y686562D03*
D127*
X2483104Y686562D03*
D128*
X2451291Y686562D03*
D13*
X2398395Y686562D03*
D109*
X2549335Y686689D03*
X2543747Y686689D03*
D108*
X2508441Y686689D03*
D94*
X2496566Y686689D03*
D108*
X2493455Y686689D03*
D45*
X2485898Y686689D03*
D10*
X2482914Y686689D03*
D373*
X2451354Y686689D03*
D13*
X2398395Y686689D03*
D76*
X2549271Y686816D03*
D109*
X2543747Y686816D03*
D108*
X2508187Y686816D03*
X2493201Y686816D03*
D117*
X2485898Y686816D03*
D10*
X2482660Y686816D03*
D374*
X2451418Y686816D03*
D86*
X2398459Y686816D03*
D76*
X2549144Y686943D03*
D97*
X2543683Y686943D03*
D94*
X2507996Y686943D03*
D108*
X2492947Y686943D03*
D46*
X2485898Y686943D03*
D76*
X2482469Y686943D03*
D375*
X2451418Y686943D03*
D13*
X2398522Y686943D03*
D76*
X2549144Y687070D03*
D97*
X2543683Y687070D03*
D94*
X2507742Y687070D03*
D108*
X2492693Y687070D03*
D76*
X2482215Y687070D03*
D376*
X2451481Y687070D03*
D86*
X2398586Y687070D03*
D76*
X2549017Y687197D03*
D109*
X2543620Y687197D03*
D108*
X2507552Y687197D03*
X2492439Y687197D03*
D76*
X2481961Y687197D03*
D377*
X2451545Y687197D03*
D87*
X2398649Y687197D03*
D76*
X2549017Y687324D03*
D109*
X2543620Y687324D03*
D108*
X2507298Y687324D03*
D94*
X2492121Y687324D03*
D109*
X2481771Y687324D03*
D378*
X2451545Y687324D03*
D86*
X2398713Y687324D03*
D76*
X2548890Y687451D03*
D97*
X2543556Y687451D03*
D108*
X2507044Y687451D03*
D94*
X2491867Y687451D03*
D109*
X2481517Y687451D03*
D379*
X2451608Y687451D03*
D87*
X2398776Y687451D03*
D76*
X2548763Y687578D03*
D109*
X2543493Y687578D03*
D94*
X2506853Y687578D03*
X2491613Y687578D03*
D97*
X2481326Y687578D03*
D380*
X2451608Y687578D03*
D83*
X2398840Y687578D03*
D76*
X2548763Y687705D03*
D109*
X2543493Y687705D03*
D94*
X2506599Y687705D03*
X2491359Y687705D03*
D97*
X2481072Y687705D03*
D381*
X2451672Y687705D03*
D83*
X2398840Y687705D03*
D76*
X2548636Y687832D03*
D97*
X2543429Y687832D03*
D94*
X2506345Y687832D03*
D68*
X2491169Y687832D03*
D382*
X2451672Y687832D03*
D83*
X2398967Y687832D03*
D10*
X2548573Y687959D03*
D97*
X2543429Y687959D03*
D94*
X2506091Y687959D03*
D68*
X2490915Y687959D03*
D383*
X2451735Y687959D03*
D58*
X2399030Y687959D03*
D76*
X2548509Y688086D03*
D109*
X2543366Y688086D03*
D108*
X2505901Y688086D03*
D127*
X2490597Y688086D03*
D384*
X2451799Y688086D03*
D83*
X2399094Y688086D03*
D76*
X2548382Y688213D03*
D97*
X2543302Y688213D03*
D108*
X2505647Y688213D03*
D127*
X2490343Y688213D03*
D385*
X2451799Y688213D03*
D58*
X2399157Y688213D03*
D10*
X2548319Y688340D03*
D109*
X2543239Y688340D03*
D94*
X2505329Y688340D03*
D127*
X2490089Y688340D03*
D386*
X2451862Y688340D03*
D78*
X2399221Y688340D03*
D10*
X2548192Y688467D03*
D109*
X2543239Y688467D03*
D108*
X2505139Y688467D03*
D127*
X2489835Y688467D03*
D387*
X2451862Y688467D03*
D78*
X2399348Y688467D03*
D76*
X2548128Y688594D03*
D97*
X2543175Y688594D03*
D108*
X2504758Y688594D03*
D127*
X2489581Y688594D03*
D388*
X2451926Y688594D03*
D78*
X2399348Y688594D03*
D10*
X2548065Y688721D03*
D109*
X2543112Y688721D03*
D108*
X2504504Y688721D03*
D127*
X2489327Y688721D03*
D389*
X2451926Y688721D03*
D79*
X2399411Y688721D03*
D10*
X2547938Y688848D03*
D97*
X2543048Y688848D03*
D108*
X2504250Y688848D03*
D127*
X2489073Y688848D03*
D390*
X2451989Y688848D03*
D79*
X2399538Y688848D03*
D10*
X2547811Y688975D03*
D109*
X2542985Y688975D03*
D108*
X2503996Y688975D03*
D10*
X2488756Y688975D03*
D121*
X2452053Y688975D03*
D12*
X2399602Y688975D03*
D10*
X2547811Y689102D03*
D97*
X2542921Y689102D03*
D108*
X2503742Y689102D03*
D76*
X2488565Y689102D03*
D391*
X2452053Y689102D03*
D12*
X2399729Y689102D03*
D10*
X2547684Y689229D03*
D109*
X2542858Y689229D03*
D108*
X2503361Y689229D03*
D76*
X2488311Y689229D03*
D392*
X2452053Y689229D03*
D12*
X2399729Y689229D03*
D10*
X2547557Y689356D03*
D97*
X2542794Y689356D03*
D108*
X2503107Y689356D03*
D76*
X2488057Y689356D03*
D97*
X2482215Y689356D03*
D120*
X2452053Y689356D03*
D12*
X2399856Y689356D03*
D10*
X2547430Y689483D03*
D97*
X2542794Y689483D03*
D63*
X2502789Y689483D03*
D76*
X2487803Y689483D03*
D393*
X2452180Y689483D03*
D55*
X2399919Y689483D03*
D10*
X2547303Y689610D03*
D97*
X2542667Y689610D03*
D108*
X2502472Y689610D03*
D109*
X2487486Y689610D03*
D97*
X2482723Y689610D03*
D394*
X2452116Y689610D03*
D55*
X2400046Y689610D03*
D10*
X2547176Y689737D03*
D97*
X2542667Y689737D03*
D63*
X2502154Y689737D03*
D76*
X2487295Y689737D03*
D97*
X2482977Y689737D03*
D395*
X2452243Y689737D03*
D70*
X2400110Y689737D03*
D127*
X2547112Y689864D03*
D97*
X2542540Y689864D03*
D63*
X2501773Y689864D03*
D109*
X2486978Y689864D03*
D396*
X2452243Y689864D03*
D70*
X2400237Y689864D03*
D127*
X2546985Y689991D03*
D97*
X2542540Y689991D03*
D63*
X2501392Y689991D03*
D109*
X2486724Y689991D03*
X2483549Y689991D03*
D397*
X2452243Y689991D03*
D71*
X2400300Y689991D03*
D127*
X2546858Y690118D03*
D97*
X2542413Y690118D03*
D63*
X2501011Y690118D03*
D97*
X2486533Y690118D03*
D398*
X2452307Y690118D03*
D71*
X2400427Y690118D03*
D127*
X2546731Y690245D03*
D109*
X2542350Y690245D03*
D63*
X2500630Y690245D03*
D97*
X2486279Y690245D03*
D109*
X2484184Y690245D03*
D399*
X2452307Y690245D03*
D104*
X2400491Y690245D03*
D127*
X2546604Y690372D03*
D97*
X2542286Y690372D03*
D63*
X2500249Y690372D03*
D109*
X2484438Y690372D03*
D400*
X2452370Y690372D03*
D104*
X2400618Y690372D03*
D127*
X2546477Y690499D03*
D109*
X2542223Y690499D03*
D63*
X2499868Y690499D03*
D109*
X2484819Y690499D03*
D274*
X2452370Y690499D03*
D67*
X2400681Y690499D03*
D127*
X2546350Y690626D03*
D97*
X2542159Y690626D03*
D107*
X2499424Y690626D03*
D109*
X2485200Y690626D03*
D40*
X2452370Y690626D03*
D67*
X2400808Y690626D03*
D127*
X2546223Y690753D03*
D97*
X2542032Y690753D03*
D107*
X2498916Y690753D03*
D109*
X2485581Y690753D03*
D34*
X2452434Y690753D03*
D67*
X2400935Y690753D03*
D127*
X2546096Y690880D03*
D109*
X2541969Y690880D03*
D59*
X2498471Y690880D03*
D76*
X2486025Y690880D03*
D30*
X2452434Y690880D03*
D66*
X2400999Y690880D03*
D127*
X2545969Y691007D03*
D97*
X2541905Y691007D03*
D59*
X2497963Y691007D03*
D10*
X2486343Y691007D03*
D27*
X2452434Y691007D03*
D66*
X2401126Y691007D03*
D127*
X2545842Y691134D03*
D97*
X2541778Y691134D03*
D59*
X2497328Y691134D03*
D10*
X2486851Y691134D03*
D23*
X2452497Y691134D03*
D66*
X2401253Y691134D03*
D68*
X2545652Y691261D03*
D109*
X2541715Y691261D03*
D46*
X2496693Y691261D03*
D127*
X2487295Y691261D03*
D88*
X2452497Y691261D03*
D41*
X2401316Y691261D03*
D68*
X2545525Y691388D03*
D97*
X2541651Y691388D03*
D50*
X2495868Y691388D03*
D68*
X2487994Y691388D03*
D75*
X2452561Y691388D03*
D41*
X2401443Y691388D03*
D68*
X2545398Y691515D03*
D97*
X2541524Y691515D03*
D117*
X2494915Y691515D03*
D108*
X2488756Y691515D03*
D101*
X2452561Y691515D03*
D53*
X2401634Y691515D03*
D68*
X2545271Y691642D03*
D97*
X2541397Y691642D03*
D54*
X2491994Y691642D03*
D83*
X2452561Y691642D03*
D65*
X2401697Y691642D03*
D94*
X2545080Y691769D03*
D109*
X2541334Y691769D03*
D11*
X2491867Y691769D03*
D107*
X2452561Y691769D03*
D65*
X2401824Y691769D03*
D94*
X2544953Y691896D03*
D97*
X2541270Y691896D03*
D65*
X2401951Y691896D03*
D94*
X2544699Y692023D03*
D97*
X2541143Y692023D03*
D61*
X2402142Y692023D03*
D94*
X2544572Y692150D03*
D97*
X2541016Y692150D03*
D11*
X2402205Y692150D03*
D108*
X2544382Y692277D03*
D97*
X2540889Y692277D03*
D11*
X2402332Y692277D03*
D108*
X2544128Y692404D03*
D97*
X2540762Y692404D03*
D57*
X2402523Y692404D03*
D108*
X2544001Y692531D03*
D97*
X2540635Y692531D03*
D57*
X2402650Y692531D03*
D108*
X2543747Y692658D03*
D97*
X2540508Y692658D03*
D49*
X2402840Y692658D03*
D63*
X2543556Y692785D03*
D97*
X2540381Y692785D03*
D49*
X2402967Y692785D03*
D63*
X2543302Y692912D03*
D97*
X2540254Y692912D03*
D43*
X2403158Y692912D03*
D107*
X2543112Y693039D03*
D97*
X2540127Y693039D03*
D68*
X2537905Y693039D03*
D69*
X2403348Y693039D03*
D59*
X2542794Y693166D03*
D97*
X2540000Y693166D03*
D105*
X2537905Y693166D03*
D69*
X2403475Y693166D03*
D59*
X2542540Y693293D03*
D97*
X2539873Y693293D03*
D50*
X2537905Y693293D03*
D56*
X2403666Y693293D03*
D105*
X2542223Y693420D03*
D97*
X2539746Y693420D03*
D140*
X2537905Y693420D03*
D52*
X2403856Y693420D03*
D46*
X2541905Y693547D03*
D45*
X2537968Y693547D03*
D115*
X2404047Y693547D03*
D50*
X2541588Y693674D03*
D56*
X2538032Y693674D03*
D115*
X2404301Y693674D03*
D48*
X2541207Y693801D03*
D56*
X2537905Y693801D03*
D45*
X2404491Y693801D03*
D140*
X2540699Y693928D03*
D69*
X2537968Y693928D03*
D140*
X2404682Y693928D03*
D58*
X2538984Y694055D03*
D117*
X2404872Y694055D03*
D12*
X2538794Y694182D03*
D48*
X2405190Y694182D03*
D71*
X2538603Y694309D03*
D51*
X2405507Y694309D03*
D67*
X2538349Y694436D03*
D50*
X2405698Y694436D03*
D65*
X2538095Y694563D03*
D46*
X2406015Y694563D03*
D57*
X2537905Y694690D03*
D105*
X2406333Y694690D03*
D57*
X2537905Y694817D03*
D107*
X2406714Y694817D03*
D43*
X2537905Y694944D03*
D108*
X2407095Y694944D03*
D43*
X2537905Y695071D03*
D68*
X2407603Y695071D03*
D43*
X2537905Y695198D03*
D56*
X2537905Y695325D03*
X2537905Y695452D03*
D115*
X2537905Y695579D03*
D140*
X2537905Y695706D03*
D48*
X2537905Y695833D03*
D50*
X2537905Y695960D03*
D107*
X2537905Y696087D03*
D109*
X2537905Y696214D03*
D401*
X2286768Y1212629D02*
X2279650Y1212629D01*
X2286768Y1212629D02*
X2286768Y1216188D01*
X2285582Y1217374D01*
X2283209Y1217374D01*
X2282023Y1216188D01*
X2282023Y1212629D01*
X2282023Y1215002D02*
X2279650Y1217374D01*
X2285582Y1219645D02*
X2286768Y1220832D01*
X2286768Y1223204D01*
X2285582Y1224391D01*
X2284395Y1224391D01*
X2283209Y1223204D01*
X2283209Y1222018D01*
X2283209Y1223204D02*
X2282023Y1224391D01*
X2280836Y1224391D01*
X2279650Y1223204D01*
X2279650Y1220832D01*
X2280836Y1219645D01*
X2286768Y1226662D02*
X2286768Y1231407D01*
X2286768Y1226662D02*
X2283209Y1226662D01*
X2284395Y1229034D01*
X2284395Y1230221D01*
X2283209Y1231407D01*
X2280836Y1231407D01*
X2279650Y1230221D01*
X2279650Y1227848D01*
X2280836Y1226662D01*
X2312797Y1213772D02*
X2319915Y1213772D01*
X2319915Y1217331D01*
X2318729Y1218517D01*
X2316356Y1218517D01*
X2315170Y1217331D01*
X2315170Y1213772D01*
X2315170Y1216145D02*
X2312797Y1218517D01*
X2318729Y1220788D02*
X2319915Y1221975D01*
X2319915Y1224347D01*
X2318729Y1225534D01*
X2317542Y1225534D01*
X2316356Y1224347D01*
X2316356Y1223161D01*
X2316356Y1224347D02*
X2315170Y1225534D01*
X2313983Y1225534D01*
X2312797Y1224347D01*
X2312797Y1221975D01*
X2313983Y1220788D01*
X2318729Y1230177D02*
X2319915Y1232550D01*
X2318729Y1230177D02*
X2316356Y1227805D01*
X2313983Y1227805D01*
X2312797Y1228991D01*
X2312797Y1231364D01*
X2313983Y1232550D01*
X2315170Y1232550D01*
X2316356Y1231364D01*
X2316356Y1227805D01*
M02*
