G04 EAGLE Gerber RS-274X export*
G75*
%MOMM*%
%FSLAX34Y34*%
%LPD*%
%INSolderpaste Top*%
%IPPOS*%
%AMOC8*
5,1,8,0,0,1.08239X$1,22.5*%
G01*
%ADD10C,0.304800*%
%ADD11C,0.718719*%
%ADD12R,3.000000X1.400000*%
%ADD13R,1.200000X1.200000*%
%ADD14R,2.400000X2.400000*%
%ADD15R,2.235200X1.219200*%
%ADD16R,2.200000X3.600000*%
%ADD17R,1.900000X3.400000*%
%ADD18R,0.889000X0.787400*%
%ADD19R,0.300000X1.200000*%
%ADD20C,0.210000*%
%ADD21R,0.762000X0.889000*%
%ADD22R,1.800000X1.400000*%
%ADD23R,1.200000X1.000000*%
%ADD24C,0.155000*%
%ADD25R,1.100000X1.000000*%
%ADD26R,1.400000X1.000000*%
%ADD27R,2.000000X5.500000*%
%ADD28R,1.000000X1.100000*%
%ADD29R,1.000000X1.400000*%
%ADD30R,1.200000X0.550000*%
%ADD31R,1.200000X1.200000*%
%ADD32R,1.500000X0.600000*%
%ADD33R,0.600000X1.500000*%


D10*
X176276Y424180D02*
X176278Y424342D01*
X176284Y424504D01*
X176294Y424666D01*
X176308Y424827D01*
X176326Y424988D01*
X176347Y425149D01*
X176373Y425309D01*
X176403Y425468D01*
X176436Y425627D01*
X176474Y425785D01*
X176515Y425941D01*
X176560Y426097D01*
X176609Y426252D01*
X176662Y426405D01*
X176719Y426557D01*
X176779Y426707D01*
X176843Y426856D01*
X176910Y427004D01*
X176981Y427149D01*
X177056Y427293D01*
X177134Y427435D01*
X177216Y427575D01*
X177301Y427713D01*
X177389Y427849D01*
X177481Y427983D01*
X177576Y428114D01*
X177674Y428243D01*
X177775Y428370D01*
X177879Y428494D01*
X177987Y428615D01*
X178097Y428734D01*
X178210Y428850D01*
X178326Y428963D01*
X178445Y429073D01*
X178566Y429181D01*
X178690Y429285D01*
X178817Y429386D01*
X178946Y429484D01*
X179077Y429579D01*
X179211Y429671D01*
X179347Y429759D01*
X179485Y429844D01*
X179625Y429926D01*
X179767Y430004D01*
X179911Y430079D01*
X180056Y430150D01*
X180204Y430217D01*
X180353Y430281D01*
X180503Y430341D01*
X180655Y430398D01*
X180808Y430451D01*
X180963Y430500D01*
X181119Y430545D01*
X181275Y430586D01*
X181433Y430624D01*
X181592Y430657D01*
X181751Y430687D01*
X181911Y430713D01*
X182072Y430734D01*
X182233Y430752D01*
X182394Y430766D01*
X182556Y430776D01*
X182718Y430782D01*
X182880Y430784D01*
X183042Y430782D01*
X183204Y430776D01*
X183366Y430766D01*
X183527Y430752D01*
X183688Y430734D01*
X183849Y430713D01*
X184009Y430687D01*
X184168Y430657D01*
X184327Y430624D01*
X184485Y430586D01*
X184641Y430545D01*
X184797Y430500D01*
X184952Y430451D01*
X185105Y430398D01*
X185257Y430341D01*
X185407Y430281D01*
X185556Y430217D01*
X185704Y430150D01*
X185849Y430079D01*
X185993Y430004D01*
X186135Y429926D01*
X186275Y429844D01*
X186413Y429759D01*
X186549Y429671D01*
X186683Y429579D01*
X186814Y429484D01*
X186943Y429386D01*
X187070Y429285D01*
X187194Y429181D01*
X187315Y429073D01*
X187434Y428963D01*
X187550Y428850D01*
X187663Y428734D01*
X187773Y428615D01*
X187881Y428494D01*
X187985Y428370D01*
X188086Y428243D01*
X188184Y428114D01*
X188279Y427983D01*
X188371Y427849D01*
X188459Y427713D01*
X188544Y427575D01*
X188626Y427435D01*
X188704Y427293D01*
X188779Y427149D01*
X188850Y427004D01*
X188917Y426856D01*
X188981Y426707D01*
X189041Y426557D01*
X189098Y426405D01*
X189151Y426252D01*
X189200Y426097D01*
X189245Y425941D01*
X189286Y425785D01*
X189324Y425627D01*
X189357Y425468D01*
X189387Y425309D01*
X189413Y425149D01*
X189434Y424988D01*
X189452Y424827D01*
X189466Y424666D01*
X189476Y424504D01*
X189482Y424342D01*
X189484Y424180D01*
X189482Y424018D01*
X189476Y423856D01*
X189466Y423694D01*
X189452Y423533D01*
X189434Y423372D01*
X189413Y423211D01*
X189387Y423051D01*
X189357Y422892D01*
X189324Y422733D01*
X189286Y422575D01*
X189245Y422419D01*
X189200Y422263D01*
X189151Y422108D01*
X189098Y421955D01*
X189041Y421803D01*
X188981Y421653D01*
X188917Y421504D01*
X188850Y421356D01*
X188779Y421211D01*
X188704Y421067D01*
X188626Y420925D01*
X188544Y420785D01*
X188459Y420647D01*
X188371Y420511D01*
X188279Y420377D01*
X188184Y420246D01*
X188086Y420117D01*
X187985Y419990D01*
X187881Y419866D01*
X187773Y419745D01*
X187663Y419626D01*
X187550Y419510D01*
X187434Y419397D01*
X187315Y419287D01*
X187194Y419179D01*
X187070Y419075D01*
X186943Y418974D01*
X186814Y418876D01*
X186683Y418781D01*
X186549Y418689D01*
X186413Y418601D01*
X186275Y418516D01*
X186135Y418434D01*
X185993Y418356D01*
X185849Y418281D01*
X185704Y418210D01*
X185556Y418143D01*
X185407Y418079D01*
X185257Y418019D01*
X185105Y417962D01*
X184952Y417909D01*
X184797Y417860D01*
X184641Y417815D01*
X184485Y417774D01*
X184327Y417736D01*
X184168Y417703D01*
X184009Y417673D01*
X183849Y417647D01*
X183688Y417626D01*
X183527Y417608D01*
X183366Y417594D01*
X183204Y417584D01*
X183042Y417578D01*
X182880Y417576D01*
X182718Y417578D01*
X182556Y417584D01*
X182394Y417594D01*
X182233Y417608D01*
X182072Y417626D01*
X181911Y417647D01*
X181751Y417673D01*
X181592Y417703D01*
X181433Y417736D01*
X181275Y417774D01*
X181119Y417815D01*
X180963Y417860D01*
X180808Y417909D01*
X180655Y417962D01*
X180503Y418019D01*
X180353Y418079D01*
X180204Y418143D01*
X180056Y418210D01*
X179911Y418281D01*
X179767Y418356D01*
X179625Y418434D01*
X179485Y418516D01*
X179347Y418601D01*
X179211Y418689D01*
X179077Y418781D01*
X178946Y418876D01*
X178817Y418974D01*
X178690Y419075D01*
X178566Y419179D01*
X178445Y419287D01*
X178326Y419397D01*
X178210Y419510D01*
X178097Y419626D01*
X177987Y419745D01*
X177879Y419866D01*
X177775Y419990D01*
X177674Y420117D01*
X177576Y420246D01*
X177481Y420377D01*
X177389Y420511D01*
X177301Y420647D01*
X177216Y420785D01*
X177134Y420925D01*
X177056Y421067D01*
X176981Y421211D01*
X176910Y421356D01*
X176843Y421504D01*
X176779Y421653D01*
X176719Y421803D01*
X176662Y421955D01*
X176609Y422108D01*
X176560Y422263D01*
X176515Y422419D01*
X176474Y422575D01*
X176436Y422733D01*
X176403Y422892D01*
X176373Y423051D01*
X176347Y423211D01*
X176326Y423372D01*
X176308Y423533D01*
X176294Y423694D01*
X176284Y423856D01*
X176278Y424018D01*
X176276Y424180D01*
X201676Y424180D02*
X201678Y424342D01*
X201684Y424504D01*
X201694Y424666D01*
X201708Y424827D01*
X201726Y424988D01*
X201747Y425149D01*
X201773Y425309D01*
X201803Y425468D01*
X201836Y425627D01*
X201874Y425785D01*
X201915Y425941D01*
X201960Y426097D01*
X202009Y426252D01*
X202062Y426405D01*
X202119Y426557D01*
X202179Y426707D01*
X202243Y426856D01*
X202310Y427004D01*
X202381Y427149D01*
X202456Y427293D01*
X202534Y427435D01*
X202616Y427575D01*
X202701Y427713D01*
X202789Y427849D01*
X202881Y427983D01*
X202976Y428114D01*
X203074Y428243D01*
X203175Y428370D01*
X203279Y428494D01*
X203387Y428615D01*
X203497Y428734D01*
X203610Y428850D01*
X203726Y428963D01*
X203845Y429073D01*
X203966Y429181D01*
X204090Y429285D01*
X204217Y429386D01*
X204346Y429484D01*
X204477Y429579D01*
X204611Y429671D01*
X204747Y429759D01*
X204885Y429844D01*
X205025Y429926D01*
X205167Y430004D01*
X205311Y430079D01*
X205456Y430150D01*
X205604Y430217D01*
X205753Y430281D01*
X205903Y430341D01*
X206055Y430398D01*
X206208Y430451D01*
X206363Y430500D01*
X206519Y430545D01*
X206675Y430586D01*
X206833Y430624D01*
X206992Y430657D01*
X207151Y430687D01*
X207311Y430713D01*
X207472Y430734D01*
X207633Y430752D01*
X207794Y430766D01*
X207956Y430776D01*
X208118Y430782D01*
X208280Y430784D01*
X208442Y430782D01*
X208604Y430776D01*
X208766Y430766D01*
X208927Y430752D01*
X209088Y430734D01*
X209249Y430713D01*
X209409Y430687D01*
X209568Y430657D01*
X209727Y430624D01*
X209885Y430586D01*
X210041Y430545D01*
X210197Y430500D01*
X210352Y430451D01*
X210505Y430398D01*
X210657Y430341D01*
X210807Y430281D01*
X210956Y430217D01*
X211104Y430150D01*
X211249Y430079D01*
X211393Y430004D01*
X211535Y429926D01*
X211675Y429844D01*
X211813Y429759D01*
X211949Y429671D01*
X212083Y429579D01*
X212214Y429484D01*
X212343Y429386D01*
X212470Y429285D01*
X212594Y429181D01*
X212715Y429073D01*
X212834Y428963D01*
X212950Y428850D01*
X213063Y428734D01*
X213173Y428615D01*
X213281Y428494D01*
X213385Y428370D01*
X213486Y428243D01*
X213584Y428114D01*
X213679Y427983D01*
X213771Y427849D01*
X213859Y427713D01*
X213944Y427575D01*
X214026Y427435D01*
X214104Y427293D01*
X214179Y427149D01*
X214250Y427004D01*
X214317Y426856D01*
X214381Y426707D01*
X214441Y426557D01*
X214498Y426405D01*
X214551Y426252D01*
X214600Y426097D01*
X214645Y425941D01*
X214686Y425785D01*
X214724Y425627D01*
X214757Y425468D01*
X214787Y425309D01*
X214813Y425149D01*
X214834Y424988D01*
X214852Y424827D01*
X214866Y424666D01*
X214876Y424504D01*
X214882Y424342D01*
X214884Y424180D01*
X214882Y424018D01*
X214876Y423856D01*
X214866Y423694D01*
X214852Y423533D01*
X214834Y423372D01*
X214813Y423211D01*
X214787Y423051D01*
X214757Y422892D01*
X214724Y422733D01*
X214686Y422575D01*
X214645Y422419D01*
X214600Y422263D01*
X214551Y422108D01*
X214498Y421955D01*
X214441Y421803D01*
X214381Y421653D01*
X214317Y421504D01*
X214250Y421356D01*
X214179Y421211D01*
X214104Y421067D01*
X214026Y420925D01*
X213944Y420785D01*
X213859Y420647D01*
X213771Y420511D01*
X213679Y420377D01*
X213584Y420246D01*
X213486Y420117D01*
X213385Y419990D01*
X213281Y419866D01*
X213173Y419745D01*
X213063Y419626D01*
X212950Y419510D01*
X212834Y419397D01*
X212715Y419287D01*
X212594Y419179D01*
X212470Y419075D01*
X212343Y418974D01*
X212214Y418876D01*
X212083Y418781D01*
X211949Y418689D01*
X211813Y418601D01*
X211675Y418516D01*
X211535Y418434D01*
X211393Y418356D01*
X211249Y418281D01*
X211104Y418210D01*
X210956Y418143D01*
X210807Y418079D01*
X210657Y418019D01*
X210505Y417962D01*
X210352Y417909D01*
X210197Y417860D01*
X210041Y417815D01*
X209885Y417774D01*
X209727Y417736D01*
X209568Y417703D01*
X209409Y417673D01*
X209249Y417647D01*
X209088Y417626D01*
X208927Y417608D01*
X208766Y417594D01*
X208604Y417584D01*
X208442Y417578D01*
X208280Y417576D01*
X208118Y417578D01*
X207956Y417584D01*
X207794Y417594D01*
X207633Y417608D01*
X207472Y417626D01*
X207311Y417647D01*
X207151Y417673D01*
X206992Y417703D01*
X206833Y417736D01*
X206675Y417774D01*
X206519Y417815D01*
X206363Y417860D01*
X206208Y417909D01*
X206055Y417962D01*
X205903Y418019D01*
X205753Y418079D01*
X205604Y418143D01*
X205456Y418210D01*
X205311Y418281D01*
X205167Y418356D01*
X205025Y418434D01*
X204885Y418516D01*
X204747Y418601D01*
X204611Y418689D01*
X204477Y418781D01*
X204346Y418876D01*
X204217Y418974D01*
X204090Y419075D01*
X203966Y419179D01*
X203845Y419287D01*
X203726Y419397D01*
X203610Y419510D01*
X203497Y419626D01*
X203387Y419745D01*
X203279Y419866D01*
X203175Y419990D01*
X203074Y420117D01*
X202976Y420246D01*
X202881Y420377D01*
X202789Y420511D01*
X202701Y420647D01*
X202616Y420785D01*
X202534Y420925D01*
X202456Y421067D01*
X202381Y421211D01*
X202310Y421356D01*
X202243Y421504D01*
X202179Y421653D01*
X202119Y421803D01*
X202062Y421955D01*
X202009Y422108D01*
X201960Y422263D01*
X201915Y422419D01*
X201874Y422575D01*
X201836Y422733D01*
X201803Y422892D01*
X201773Y423051D01*
X201747Y423211D01*
X201726Y423372D01*
X201708Y423533D01*
X201694Y423694D01*
X201684Y423856D01*
X201678Y424018D01*
X201676Y424180D01*
X201676Y398780D02*
X201678Y398942D01*
X201684Y399104D01*
X201694Y399266D01*
X201708Y399427D01*
X201726Y399588D01*
X201747Y399749D01*
X201773Y399909D01*
X201803Y400068D01*
X201836Y400227D01*
X201874Y400385D01*
X201915Y400541D01*
X201960Y400697D01*
X202009Y400852D01*
X202062Y401005D01*
X202119Y401157D01*
X202179Y401307D01*
X202243Y401456D01*
X202310Y401604D01*
X202381Y401749D01*
X202456Y401893D01*
X202534Y402035D01*
X202616Y402175D01*
X202701Y402313D01*
X202789Y402449D01*
X202881Y402583D01*
X202976Y402714D01*
X203074Y402843D01*
X203175Y402970D01*
X203279Y403094D01*
X203387Y403215D01*
X203497Y403334D01*
X203610Y403450D01*
X203726Y403563D01*
X203845Y403673D01*
X203966Y403781D01*
X204090Y403885D01*
X204217Y403986D01*
X204346Y404084D01*
X204477Y404179D01*
X204611Y404271D01*
X204747Y404359D01*
X204885Y404444D01*
X205025Y404526D01*
X205167Y404604D01*
X205311Y404679D01*
X205456Y404750D01*
X205604Y404817D01*
X205753Y404881D01*
X205903Y404941D01*
X206055Y404998D01*
X206208Y405051D01*
X206363Y405100D01*
X206519Y405145D01*
X206675Y405186D01*
X206833Y405224D01*
X206992Y405257D01*
X207151Y405287D01*
X207311Y405313D01*
X207472Y405334D01*
X207633Y405352D01*
X207794Y405366D01*
X207956Y405376D01*
X208118Y405382D01*
X208280Y405384D01*
X208442Y405382D01*
X208604Y405376D01*
X208766Y405366D01*
X208927Y405352D01*
X209088Y405334D01*
X209249Y405313D01*
X209409Y405287D01*
X209568Y405257D01*
X209727Y405224D01*
X209885Y405186D01*
X210041Y405145D01*
X210197Y405100D01*
X210352Y405051D01*
X210505Y404998D01*
X210657Y404941D01*
X210807Y404881D01*
X210956Y404817D01*
X211104Y404750D01*
X211249Y404679D01*
X211393Y404604D01*
X211535Y404526D01*
X211675Y404444D01*
X211813Y404359D01*
X211949Y404271D01*
X212083Y404179D01*
X212214Y404084D01*
X212343Y403986D01*
X212470Y403885D01*
X212594Y403781D01*
X212715Y403673D01*
X212834Y403563D01*
X212950Y403450D01*
X213063Y403334D01*
X213173Y403215D01*
X213281Y403094D01*
X213385Y402970D01*
X213486Y402843D01*
X213584Y402714D01*
X213679Y402583D01*
X213771Y402449D01*
X213859Y402313D01*
X213944Y402175D01*
X214026Y402035D01*
X214104Y401893D01*
X214179Y401749D01*
X214250Y401604D01*
X214317Y401456D01*
X214381Y401307D01*
X214441Y401157D01*
X214498Y401005D01*
X214551Y400852D01*
X214600Y400697D01*
X214645Y400541D01*
X214686Y400385D01*
X214724Y400227D01*
X214757Y400068D01*
X214787Y399909D01*
X214813Y399749D01*
X214834Y399588D01*
X214852Y399427D01*
X214866Y399266D01*
X214876Y399104D01*
X214882Y398942D01*
X214884Y398780D01*
X214882Y398618D01*
X214876Y398456D01*
X214866Y398294D01*
X214852Y398133D01*
X214834Y397972D01*
X214813Y397811D01*
X214787Y397651D01*
X214757Y397492D01*
X214724Y397333D01*
X214686Y397175D01*
X214645Y397019D01*
X214600Y396863D01*
X214551Y396708D01*
X214498Y396555D01*
X214441Y396403D01*
X214381Y396253D01*
X214317Y396104D01*
X214250Y395956D01*
X214179Y395811D01*
X214104Y395667D01*
X214026Y395525D01*
X213944Y395385D01*
X213859Y395247D01*
X213771Y395111D01*
X213679Y394977D01*
X213584Y394846D01*
X213486Y394717D01*
X213385Y394590D01*
X213281Y394466D01*
X213173Y394345D01*
X213063Y394226D01*
X212950Y394110D01*
X212834Y393997D01*
X212715Y393887D01*
X212594Y393779D01*
X212470Y393675D01*
X212343Y393574D01*
X212214Y393476D01*
X212083Y393381D01*
X211949Y393289D01*
X211813Y393201D01*
X211675Y393116D01*
X211535Y393034D01*
X211393Y392956D01*
X211249Y392881D01*
X211104Y392810D01*
X210956Y392743D01*
X210807Y392679D01*
X210657Y392619D01*
X210505Y392562D01*
X210352Y392509D01*
X210197Y392460D01*
X210041Y392415D01*
X209885Y392374D01*
X209727Y392336D01*
X209568Y392303D01*
X209409Y392273D01*
X209249Y392247D01*
X209088Y392226D01*
X208927Y392208D01*
X208766Y392194D01*
X208604Y392184D01*
X208442Y392178D01*
X208280Y392176D01*
X208118Y392178D01*
X207956Y392184D01*
X207794Y392194D01*
X207633Y392208D01*
X207472Y392226D01*
X207311Y392247D01*
X207151Y392273D01*
X206992Y392303D01*
X206833Y392336D01*
X206675Y392374D01*
X206519Y392415D01*
X206363Y392460D01*
X206208Y392509D01*
X206055Y392562D01*
X205903Y392619D01*
X205753Y392679D01*
X205604Y392743D01*
X205456Y392810D01*
X205311Y392881D01*
X205167Y392956D01*
X205025Y393034D01*
X204885Y393116D01*
X204747Y393201D01*
X204611Y393289D01*
X204477Y393381D01*
X204346Y393476D01*
X204217Y393574D01*
X204090Y393675D01*
X203966Y393779D01*
X203845Y393887D01*
X203726Y393997D01*
X203610Y394110D01*
X203497Y394226D01*
X203387Y394345D01*
X203279Y394466D01*
X203175Y394590D01*
X203074Y394717D01*
X202976Y394846D01*
X202881Y394977D01*
X202789Y395111D01*
X202701Y395247D01*
X202616Y395385D01*
X202534Y395525D01*
X202456Y395667D01*
X202381Y395811D01*
X202310Y395956D01*
X202243Y396104D01*
X202179Y396253D01*
X202119Y396403D01*
X202062Y396555D01*
X202009Y396708D01*
X201960Y396863D01*
X201915Y397019D01*
X201874Y397175D01*
X201836Y397333D01*
X201803Y397492D01*
X201773Y397651D01*
X201747Y397811D01*
X201726Y397972D01*
X201708Y398133D01*
X201694Y398294D01*
X201684Y398456D01*
X201678Y398618D01*
X201676Y398780D01*
X176276Y398780D02*
X176278Y398942D01*
X176284Y399104D01*
X176294Y399266D01*
X176308Y399427D01*
X176326Y399588D01*
X176347Y399749D01*
X176373Y399909D01*
X176403Y400068D01*
X176436Y400227D01*
X176474Y400385D01*
X176515Y400541D01*
X176560Y400697D01*
X176609Y400852D01*
X176662Y401005D01*
X176719Y401157D01*
X176779Y401307D01*
X176843Y401456D01*
X176910Y401604D01*
X176981Y401749D01*
X177056Y401893D01*
X177134Y402035D01*
X177216Y402175D01*
X177301Y402313D01*
X177389Y402449D01*
X177481Y402583D01*
X177576Y402714D01*
X177674Y402843D01*
X177775Y402970D01*
X177879Y403094D01*
X177987Y403215D01*
X178097Y403334D01*
X178210Y403450D01*
X178326Y403563D01*
X178445Y403673D01*
X178566Y403781D01*
X178690Y403885D01*
X178817Y403986D01*
X178946Y404084D01*
X179077Y404179D01*
X179211Y404271D01*
X179347Y404359D01*
X179485Y404444D01*
X179625Y404526D01*
X179767Y404604D01*
X179911Y404679D01*
X180056Y404750D01*
X180204Y404817D01*
X180353Y404881D01*
X180503Y404941D01*
X180655Y404998D01*
X180808Y405051D01*
X180963Y405100D01*
X181119Y405145D01*
X181275Y405186D01*
X181433Y405224D01*
X181592Y405257D01*
X181751Y405287D01*
X181911Y405313D01*
X182072Y405334D01*
X182233Y405352D01*
X182394Y405366D01*
X182556Y405376D01*
X182718Y405382D01*
X182880Y405384D01*
X183042Y405382D01*
X183204Y405376D01*
X183366Y405366D01*
X183527Y405352D01*
X183688Y405334D01*
X183849Y405313D01*
X184009Y405287D01*
X184168Y405257D01*
X184327Y405224D01*
X184485Y405186D01*
X184641Y405145D01*
X184797Y405100D01*
X184952Y405051D01*
X185105Y404998D01*
X185257Y404941D01*
X185407Y404881D01*
X185556Y404817D01*
X185704Y404750D01*
X185849Y404679D01*
X185993Y404604D01*
X186135Y404526D01*
X186275Y404444D01*
X186413Y404359D01*
X186549Y404271D01*
X186683Y404179D01*
X186814Y404084D01*
X186943Y403986D01*
X187070Y403885D01*
X187194Y403781D01*
X187315Y403673D01*
X187434Y403563D01*
X187550Y403450D01*
X187663Y403334D01*
X187773Y403215D01*
X187881Y403094D01*
X187985Y402970D01*
X188086Y402843D01*
X188184Y402714D01*
X188279Y402583D01*
X188371Y402449D01*
X188459Y402313D01*
X188544Y402175D01*
X188626Y402035D01*
X188704Y401893D01*
X188779Y401749D01*
X188850Y401604D01*
X188917Y401456D01*
X188981Y401307D01*
X189041Y401157D01*
X189098Y401005D01*
X189151Y400852D01*
X189200Y400697D01*
X189245Y400541D01*
X189286Y400385D01*
X189324Y400227D01*
X189357Y400068D01*
X189387Y399909D01*
X189413Y399749D01*
X189434Y399588D01*
X189452Y399427D01*
X189466Y399266D01*
X189476Y399104D01*
X189482Y398942D01*
X189484Y398780D01*
X189482Y398618D01*
X189476Y398456D01*
X189466Y398294D01*
X189452Y398133D01*
X189434Y397972D01*
X189413Y397811D01*
X189387Y397651D01*
X189357Y397492D01*
X189324Y397333D01*
X189286Y397175D01*
X189245Y397019D01*
X189200Y396863D01*
X189151Y396708D01*
X189098Y396555D01*
X189041Y396403D01*
X188981Y396253D01*
X188917Y396104D01*
X188850Y395956D01*
X188779Y395811D01*
X188704Y395667D01*
X188626Y395525D01*
X188544Y395385D01*
X188459Y395247D01*
X188371Y395111D01*
X188279Y394977D01*
X188184Y394846D01*
X188086Y394717D01*
X187985Y394590D01*
X187881Y394466D01*
X187773Y394345D01*
X187663Y394226D01*
X187550Y394110D01*
X187434Y393997D01*
X187315Y393887D01*
X187194Y393779D01*
X187070Y393675D01*
X186943Y393574D01*
X186814Y393476D01*
X186683Y393381D01*
X186549Y393289D01*
X186413Y393201D01*
X186275Y393116D01*
X186135Y393034D01*
X185993Y392956D01*
X185849Y392881D01*
X185704Y392810D01*
X185556Y392743D01*
X185407Y392679D01*
X185257Y392619D01*
X185105Y392562D01*
X184952Y392509D01*
X184797Y392460D01*
X184641Y392415D01*
X184485Y392374D01*
X184327Y392336D01*
X184168Y392303D01*
X184009Y392273D01*
X183849Y392247D01*
X183688Y392226D01*
X183527Y392208D01*
X183366Y392194D01*
X183204Y392184D01*
X183042Y392178D01*
X182880Y392176D01*
X182718Y392178D01*
X182556Y392184D01*
X182394Y392194D01*
X182233Y392208D01*
X182072Y392226D01*
X181911Y392247D01*
X181751Y392273D01*
X181592Y392303D01*
X181433Y392336D01*
X181275Y392374D01*
X181119Y392415D01*
X180963Y392460D01*
X180808Y392509D01*
X180655Y392562D01*
X180503Y392619D01*
X180353Y392679D01*
X180204Y392743D01*
X180056Y392810D01*
X179911Y392881D01*
X179767Y392956D01*
X179625Y393034D01*
X179485Y393116D01*
X179347Y393201D01*
X179211Y393289D01*
X179077Y393381D01*
X178946Y393476D01*
X178817Y393574D01*
X178690Y393675D01*
X178566Y393779D01*
X178445Y393887D01*
X178326Y393997D01*
X178210Y394110D01*
X178097Y394226D01*
X177987Y394345D01*
X177879Y394466D01*
X177775Y394590D01*
X177674Y394717D01*
X177576Y394846D01*
X177481Y394977D01*
X177389Y395111D01*
X177301Y395247D01*
X177216Y395385D01*
X177134Y395525D01*
X177056Y395667D01*
X176981Y395811D01*
X176910Y395956D01*
X176843Y396104D01*
X176779Y396253D01*
X176719Y396403D01*
X176662Y396555D01*
X176609Y396708D01*
X176560Y396863D01*
X176515Y397019D01*
X176474Y397175D01*
X176436Y397333D01*
X176403Y397492D01*
X176373Y397651D01*
X176347Y397811D01*
X176326Y397972D01*
X176308Y398133D01*
X176294Y398294D01*
X176284Y398456D01*
X176278Y398618D01*
X176276Y398780D01*
D11*
X1987395Y1271971D02*
X1991209Y1271971D01*
X1991209Y1270173D01*
X1987395Y1270173D01*
X1987395Y1271971D01*
X1987395Y1289751D02*
X1991209Y1289751D01*
X1991209Y1287953D01*
X1987395Y1287953D01*
X1987395Y1289751D01*
D12*
X2071106Y1211905D03*
X2023106Y1211905D03*
X2071360Y1288232D03*
X2023360Y1288232D03*
D13*
X1987058Y1130330D03*
X1987058Y1151330D03*
X2343877Y1213898D03*
X2343877Y1234898D03*
X2295973Y1212644D03*
X2295973Y1233644D03*
D14*
X1984301Y1231499D03*
X1940301Y1231499D03*
D15*
X2055791Y1339636D03*
X2055791Y1362750D03*
X2055791Y1385864D03*
D16*
X1993813Y1362750D03*
D11*
X2796393Y818086D02*
X2796393Y814272D01*
X2794595Y814272D01*
X2794595Y818086D01*
X2796393Y818086D01*
X2814173Y818086D02*
X2814173Y814272D01*
X2812375Y814272D01*
X2812375Y818086D01*
X2814173Y818086D01*
D17*
X2059913Y1480677D03*
X2098913Y1480677D03*
D13*
X2169165Y1157102D03*
X2190165Y1157102D03*
D18*
X2130353Y1070962D03*
X2130353Y1090266D03*
X2110033Y1080614D03*
D11*
X2105988Y1424144D02*
X2105988Y1427958D01*
X2105988Y1424144D02*
X2104190Y1424144D01*
X2104190Y1427958D01*
X2105988Y1427958D01*
X2123768Y1427958D02*
X2123768Y1424144D01*
X2121970Y1424144D01*
X2121970Y1427958D01*
X2123768Y1427958D01*
X2374886Y1315883D02*
X2378700Y1315883D01*
X2378700Y1314085D01*
X2374886Y1314085D01*
X2374886Y1315883D01*
X2374886Y1333663D02*
X2378700Y1333663D01*
X2378700Y1331865D01*
X2374886Y1331865D01*
X2374886Y1333663D01*
X2978772Y806066D02*
X2978772Y804268D01*
X2974958Y804268D01*
X2974958Y806066D01*
X2978772Y806066D01*
X2978772Y822048D02*
X2978772Y823846D01*
X2978772Y822048D02*
X2974958Y822048D01*
X2974958Y823846D01*
X2978772Y823846D01*
X2956643Y747597D02*
X2952829Y747597D01*
X2956643Y747597D02*
X2956643Y745799D01*
X2952829Y745799D01*
X2952829Y747597D01*
X2952829Y765377D02*
X2956643Y765377D01*
X2956643Y763579D01*
X2952829Y763579D01*
X2952829Y765377D01*
X2233237Y1287297D02*
X2233237Y1289095D01*
X2233237Y1287297D02*
X2229423Y1287297D01*
X2229423Y1289095D01*
X2233237Y1289095D01*
X2233237Y1305077D02*
X2233237Y1306875D01*
X2233237Y1305077D02*
X2229423Y1305077D01*
X2229423Y1306875D01*
X2233237Y1306875D01*
X2239576Y1320013D02*
X2243390Y1320013D01*
X2243390Y1318215D01*
X2239576Y1318215D01*
X2239576Y1320013D01*
X2239576Y1337793D02*
X2243390Y1337793D01*
X2243390Y1335995D01*
X2239576Y1335995D01*
X2239576Y1337793D01*
X2235015Y1351198D02*
X2231201Y1351198D01*
X2235015Y1351198D02*
X2235015Y1349400D01*
X2231201Y1349400D01*
X2231201Y1351198D01*
X2231201Y1368978D02*
X2235015Y1368978D01*
X2235015Y1367180D01*
X2231201Y1367180D01*
X2231201Y1368978D01*
D19*
X2159989Y1111348D03*
X2166489Y1111348D03*
X2172989Y1111348D03*
X2179489Y1111348D03*
X2179489Y1069098D03*
X2172989Y1069098D03*
X2166489Y1069098D03*
X2159989Y1069098D03*
D20*
X3109086Y788536D02*
X3109086Y774636D01*
X3097186Y774636D01*
X3097186Y788536D01*
X3109086Y788536D01*
X3109086Y776631D02*
X3097186Y776631D01*
X3097186Y778626D02*
X3109086Y778626D01*
X3109086Y780621D02*
X3097186Y780621D01*
X3097186Y782616D02*
X3109086Y782616D01*
X3109086Y784611D02*
X3097186Y784611D01*
X3097186Y786606D02*
X3109086Y786606D01*
X3109086Y858636D02*
X3109086Y872536D01*
X3109086Y858636D02*
X3097186Y858636D01*
X3097186Y872536D01*
X3109086Y872536D01*
X3109086Y860631D02*
X3097186Y860631D01*
X3097186Y862626D02*
X3109086Y862626D01*
X3109086Y864621D02*
X3097186Y864621D01*
X3097186Y866616D02*
X3109086Y866616D01*
X3109086Y868611D02*
X3097186Y868611D01*
X3097186Y870606D02*
X3109086Y870606D01*
X3154086Y788536D02*
X3154086Y774636D01*
X3142186Y774636D01*
X3142186Y788536D01*
X3154086Y788536D01*
X3154086Y776631D02*
X3142186Y776631D01*
X3142186Y778626D02*
X3154086Y778626D01*
X3154086Y780621D02*
X3142186Y780621D01*
X3142186Y782616D02*
X3154086Y782616D01*
X3154086Y784611D02*
X3142186Y784611D01*
X3142186Y786606D02*
X3154086Y786606D01*
X3154086Y858636D02*
X3154086Y872536D01*
X3154086Y858636D02*
X3142186Y858636D01*
X3142186Y872536D01*
X3154086Y872536D01*
X3154086Y860631D02*
X3142186Y860631D01*
X3142186Y862626D02*
X3154086Y862626D01*
X3154086Y864621D02*
X3142186Y864621D01*
X3142186Y866616D02*
X3154086Y866616D01*
X3154086Y868611D02*
X3142186Y868611D01*
X3142186Y870606D02*
X3154086Y870606D01*
D21*
X3125636Y781041D03*
D22*
X2876528Y651908D03*
X2876528Y685908D03*
D23*
X2790809Y846536D03*
X2812809Y846536D03*
D11*
X2813102Y832441D02*
X2813102Y828627D01*
X2813102Y832441D02*
X2814900Y832441D01*
X2814900Y828627D01*
X2813102Y828627D01*
X2795322Y828627D02*
X2795322Y832441D01*
X2797120Y832441D01*
X2797120Y828627D01*
X2795322Y828627D01*
D24*
X2295565Y1354139D02*
X2284015Y1354139D01*
X2284015Y1358789D01*
X2295565Y1358789D01*
X2295565Y1354139D01*
X2295565Y1355611D02*
X2284015Y1355611D01*
X2284015Y1357083D02*
X2295565Y1357083D01*
X2295565Y1358555D02*
X2284015Y1358555D01*
X2339015Y1328739D02*
X2350565Y1328739D01*
X2339015Y1328739D02*
X2339015Y1333389D01*
X2350565Y1333389D01*
X2350565Y1328739D01*
X2350565Y1330211D02*
X2339015Y1330211D01*
X2339015Y1331683D02*
X2350565Y1331683D01*
X2350565Y1333155D02*
X2339015Y1333155D01*
X2295565Y1366839D02*
X2284015Y1366839D01*
X2284015Y1371489D01*
X2295565Y1371489D01*
X2295565Y1366839D01*
X2295565Y1368311D02*
X2284015Y1368311D01*
X2284015Y1369783D02*
X2295565Y1369783D01*
X2295565Y1371255D02*
X2284015Y1371255D01*
X2284015Y1341439D02*
X2295565Y1341439D01*
X2284015Y1341439D02*
X2284015Y1346089D01*
X2295565Y1346089D01*
X2295565Y1341439D01*
X2295565Y1342911D02*
X2284015Y1342911D01*
X2284015Y1344383D02*
X2295565Y1344383D01*
X2295565Y1345855D02*
X2284015Y1345855D01*
X2284015Y1328739D02*
X2295565Y1328739D01*
X2284015Y1328739D02*
X2284015Y1333389D01*
X2295565Y1333389D01*
X2295565Y1328739D01*
X2295565Y1330211D02*
X2284015Y1330211D01*
X2284015Y1331683D02*
X2295565Y1331683D01*
X2295565Y1333155D02*
X2284015Y1333155D01*
X2339015Y1341439D02*
X2350565Y1341439D01*
X2339015Y1341439D02*
X2339015Y1346089D01*
X2350565Y1346089D01*
X2350565Y1341439D01*
X2350565Y1342911D02*
X2339015Y1342911D01*
X2339015Y1344383D02*
X2350565Y1344383D01*
X2350565Y1345855D02*
X2339015Y1345855D01*
X2339015Y1316039D02*
X2350565Y1316039D01*
X2339015Y1316039D02*
X2339015Y1320689D01*
X2350565Y1320689D01*
X2350565Y1316039D01*
X2350565Y1317511D02*
X2339015Y1317511D01*
X2339015Y1318983D02*
X2350565Y1318983D01*
X2350565Y1320455D02*
X2339015Y1320455D01*
X2339015Y1303339D02*
X2350565Y1303339D01*
X2339015Y1303339D02*
X2339015Y1307989D01*
X2350565Y1307989D01*
X2350565Y1303339D01*
X2350565Y1304811D02*
X2339015Y1304811D01*
X2339015Y1306283D02*
X2350565Y1306283D01*
X2350565Y1307755D02*
X2339015Y1307755D01*
X2295565Y1303339D02*
X2284015Y1303339D01*
X2284015Y1307989D01*
X2295565Y1307989D01*
X2295565Y1303339D01*
X2295565Y1304811D02*
X2284015Y1304811D01*
X2284015Y1306283D02*
X2295565Y1306283D01*
X2295565Y1307755D02*
X2284015Y1307755D01*
X2339015Y1277939D02*
X2350565Y1277939D01*
X2339015Y1277939D02*
X2339015Y1282589D01*
X2350565Y1282589D01*
X2350565Y1277939D01*
X2350565Y1279411D02*
X2339015Y1279411D01*
X2339015Y1280883D02*
X2350565Y1280883D01*
X2350565Y1282355D02*
X2339015Y1282355D01*
X2295565Y1316039D02*
X2284015Y1316039D01*
X2284015Y1320689D01*
X2295565Y1320689D01*
X2295565Y1316039D01*
X2295565Y1317511D02*
X2284015Y1317511D01*
X2284015Y1318983D02*
X2295565Y1318983D01*
X2295565Y1320455D02*
X2284015Y1320455D01*
X2284015Y1290639D02*
X2295565Y1290639D01*
X2284015Y1290639D02*
X2284015Y1295289D01*
X2295565Y1295289D01*
X2295565Y1290639D01*
X2295565Y1292111D02*
X2284015Y1292111D01*
X2284015Y1293583D02*
X2295565Y1293583D01*
X2295565Y1295055D02*
X2284015Y1295055D01*
X2339015Y1290639D02*
X2350565Y1290639D01*
X2339015Y1290639D02*
X2339015Y1295289D01*
X2350565Y1295289D01*
X2350565Y1290639D01*
X2350565Y1292111D02*
X2339015Y1292111D01*
X2339015Y1293583D02*
X2350565Y1293583D01*
X2350565Y1295055D02*
X2339015Y1295055D01*
X2295565Y1277939D02*
X2284015Y1277939D01*
X2284015Y1282589D01*
X2295565Y1282589D01*
X2295565Y1277939D01*
X2295565Y1279411D02*
X2284015Y1279411D01*
X2284015Y1280883D02*
X2295565Y1280883D01*
X2295565Y1282355D02*
X2284015Y1282355D01*
X2339015Y1354139D02*
X2350565Y1354139D01*
X2339015Y1354139D02*
X2339015Y1358789D01*
X2350565Y1358789D01*
X2350565Y1354139D01*
X2350565Y1355611D02*
X2339015Y1355611D01*
X2339015Y1357083D02*
X2350565Y1357083D01*
X2350565Y1358555D02*
X2339015Y1358555D01*
X2339015Y1366839D02*
X2350565Y1366839D01*
X2339015Y1366839D02*
X2339015Y1371489D01*
X2350565Y1371489D01*
X2350565Y1366839D01*
X2350565Y1368311D02*
X2339015Y1368311D01*
X2339015Y1369783D02*
X2350565Y1369783D01*
X2350565Y1371255D02*
X2339015Y1371255D01*
D25*
X2312193Y1229625D03*
X2312193Y1212625D03*
X2326447Y1229625D03*
X2326447Y1212625D03*
D11*
X2262470Y1232164D02*
X2258656Y1232164D01*
X2258656Y1233962D01*
X2262470Y1233962D01*
X2262470Y1232164D01*
X2262470Y1214384D02*
X2258656Y1214384D01*
X2258656Y1216182D01*
X2262470Y1216182D01*
X2262470Y1214384D01*
D13*
X2300718Y1395992D03*
X2300718Y1416992D03*
D25*
X2321718Y1416992D03*
X2321718Y1399992D03*
X2172501Y1470903D03*
X2172501Y1487903D03*
X2157501Y1470903D03*
X2157501Y1487903D03*
D26*
X2019333Y1421760D03*
X2041333Y1431260D03*
X2041333Y1412260D03*
D11*
X2058451Y1449869D02*
X2058451Y1453683D01*
X2060249Y1453683D01*
X2060249Y1449869D01*
X2058451Y1449869D01*
X2040671Y1449869D02*
X2040671Y1453683D01*
X2042469Y1453683D01*
X2042469Y1449869D01*
X2040671Y1449869D01*
X1999240Y1436751D02*
X1995426Y1436751D01*
X1995426Y1438549D01*
X1999240Y1438549D01*
X1999240Y1436751D01*
X1999240Y1418971D02*
X1995426Y1418971D01*
X1995426Y1420769D01*
X1999240Y1420769D01*
X1999240Y1418971D01*
D27*
X2190841Y1383783D03*
X2190841Y1288783D03*
X3030155Y871529D03*
X3030155Y776529D03*
D13*
X2680942Y730117D03*
X2701942Y730117D03*
X2580500Y732000D03*
X2601500Y732000D03*
X2511500Y732000D03*
X2532500Y732000D03*
X2430500Y733000D03*
X2451500Y733000D03*
X2344500Y734000D03*
X2365500Y734000D03*
X2258500Y735000D03*
X2279500Y735000D03*
D28*
X2155468Y810063D03*
X2138468Y810063D03*
X2155468Y825063D03*
X2138468Y825063D03*
X2155468Y840063D03*
X2138468Y840063D03*
D29*
X2173317Y939429D03*
X2182817Y917429D03*
X2163817Y917429D03*
D25*
X2140317Y917929D03*
X2140317Y934929D03*
X2123317Y917659D03*
X2123317Y934659D03*
X2191399Y967922D03*
X2191399Y984922D03*
X2183317Y870929D03*
X2183317Y887929D03*
X2177399Y984922D03*
X2177399Y967922D03*
X2169317Y887929D03*
X2169317Y870929D03*
D28*
X2172480Y1023914D03*
X2155480Y1023914D03*
X2155480Y1038295D03*
X2172480Y1038295D03*
D25*
X2395417Y1332720D03*
X2395417Y1315720D03*
X2879793Y727364D03*
X2879793Y710364D03*
X2095265Y1098078D03*
X2095265Y1081078D03*
X2278733Y1233244D03*
X2278733Y1216244D03*
X2360777Y1233593D03*
X2360777Y1216593D03*
X2005298Y1134530D03*
X2005298Y1151530D03*
D28*
X2189708Y1137139D03*
X2172708Y1137139D03*
D11*
X2981232Y774824D02*
X2985046Y774824D01*
X2985046Y773026D01*
X2981232Y773026D01*
X2981232Y774824D01*
X2981232Y792604D02*
X2985046Y792604D01*
X2985046Y790806D01*
X2981232Y790806D01*
X2981232Y792604D01*
X2981073Y853139D02*
X2984887Y853139D01*
X2981073Y853139D02*
X2981073Y854937D01*
X2984887Y854937D01*
X2984887Y853139D01*
X2984887Y835359D02*
X2981073Y835359D01*
X2981073Y837157D01*
X2984887Y837157D01*
X2984887Y835359D01*
X2102580Y1355502D02*
X2102580Y1359316D01*
X2102580Y1355502D02*
X2100782Y1355502D01*
X2100782Y1359316D01*
X2102580Y1359316D01*
X2120360Y1359316D02*
X2120360Y1355502D01*
X2118562Y1355502D01*
X2118562Y1359316D01*
X2120360Y1359316D01*
D30*
X2135649Y1384401D03*
X2135649Y1393901D03*
X2135649Y1403401D03*
X2109649Y1403401D03*
X2109649Y1384401D03*
D31*
G36*
X2586042Y880281D02*
X2594527Y871796D01*
X2586042Y863311D01*
X2577557Y871796D01*
X2586042Y880281D01*
G37*
G36*
X2600892Y895131D02*
X2609377Y886646D01*
X2600892Y878161D01*
X2592407Y886646D01*
X2600892Y895131D01*
G37*
G36*
X2348909Y890710D02*
X2340424Y882225D01*
X2331939Y890710D01*
X2340424Y899195D01*
X2348909Y890710D01*
G37*
G36*
X2363759Y875860D02*
X2355274Y867375D01*
X2346789Y875860D01*
X2355274Y884345D01*
X2363759Y875860D01*
G37*
G36*
X2358458Y1049064D02*
X2366943Y1040579D01*
X2358458Y1032094D01*
X2349973Y1040579D01*
X2358458Y1049064D01*
G37*
G36*
X2373308Y1063914D02*
X2381793Y1055429D01*
X2373308Y1046944D01*
X2364823Y1055429D01*
X2373308Y1063914D01*
G37*
G36*
X2583097Y1052508D02*
X2574612Y1044023D01*
X2566127Y1052508D01*
X2574612Y1060993D01*
X2583097Y1052508D01*
G37*
G36*
X2597947Y1037658D02*
X2589462Y1029173D01*
X2580977Y1037658D01*
X2589462Y1046143D01*
X2597947Y1037658D01*
G37*
D13*
X2456856Y811022D03*
X2477856Y811022D03*
X2458126Y1094613D03*
X2479126Y1094613D03*
D32*
X2925908Y781625D03*
X2925908Y789625D03*
X2925908Y797625D03*
X2925908Y805625D03*
X2925908Y813625D03*
X2925908Y821625D03*
X2925908Y829625D03*
X2925908Y837625D03*
D33*
X2911408Y852125D03*
X2903408Y852125D03*
X2895408Y852125D03*
X2887408Y852125D03*
X2879408Y852125D03*
X2871408Y852125D03*
X2863408Y852125D03*
X2855408Y852125D03*
D32*
X2840908Y837625D03*
X2840908Y829625D03*
X2840908Y821625D03*
X2840908Y813625D03*
X2840908Y805625D03*
X2840908Y797625D03*
X2840908Y789625D03*
X2840908Y781625D03*
D33*
X2855408Y767125D03*
X2863408Y767125D03*
X2871408Y767125D03*
X2879408Y767125D03*
X2887408Y767125D03*
X2895408Y767125D03*
X2903408Y767125D03*
X2911408Y767125D03*
D28*
X2276339Y805307D03*
X2259339Y805307D03*
X2276466Y820928D03*
X2259466Y820928D03*
X2276974Y837565D03*
X2259974Y837565D03*
D29*
X2264029Y938735D03*
X2273529Y916735D03*
X2254529Y916735D03*
D25*
X2235200Y917330D03*
X2235200Y934330D03*
X2219198Y917584D03*
X2219198Y934584D03*
X2265807Y966479D03*
X2265807Y983479D03*
X2278253Y871737D03*
X2278253Y888737D03*
X2282063Y983352D03*
X2282063Y966352D03*
X2259838Y889372D03*
X2259838Y872372D03*
D13*
X2641854Y754974D03*
X2641854Y733974D03*
X2641981Y698668D03*
X2641981Y719668D03*
M02*
