G04 EAGLE Gerber RS-274X export*
G75*
%MOMM*%
%FSLAX34Y34*%
%LPD*%
%INSoldermask Bottom*%
%IPPOS*%
%AMOC8*
5,1,8,0,0,1.08239X$1,22.5*%
G01*
%ADD10P,1.897646X8X22.500000*%
%ADD11P,4.549502X8X202.500000*%
%ADD12P,4.549502X8X112.500000*%
%ADD13C,2.153200*%
%ADD14P,2.034460X8X202.500000*%
%ADD15C,3.419200*%
%ADD16C,1.727200*%
%ADD17R,1.303200X1.203200*%
%ADD18C,1.219200*%
%ADD19C,0.959600*%
%ADD20C,1.168400*%


D10*
X2546603Y1235351D03*
X2546603Y1260751D03*
X2572003Y1235351D03*
X2572003Y1260751D03*
X2597403Y1235351D03*
X2597403Y1260751D03*
D11*
X1902089Y1333972D03*
D12*
X1932061Y1384010D03*
X1872117Y1384010D03*
D13*
X1909709Y1333972D03*
X1894469Y1333972D03*
X1872117Y1376390D03*
X1872117Y1391630D03*
X1932061Y1376390D03*
X1932061Y1391630D03*
D14*
X2142500Y1528800D03*
X2167500Y1528800D03*
X2167500Y1548800D03*
X2142500Y1548800D03*
D15*
X2215000Y1575900D03*
X2095000Y1575900D03*
D16*
X2305400Y580020D02*
X2305400Y564780D01*
X2330800Y564780D02*
X2330800Y580020D01*
X2356200Y580020D02*
X2356200Y564780D01*
X2381600Y564780D02*
X2381600Y580020D01*
X2407000Y580020D02*
X2407000Y564780D01*
X2432400Y564780D02*
X2432400Y580020D01*
X2457800Y580020D02*
X2457800Y564780D01*
X2483200Y564780D02*
X2483200Y580020D01*
X2534000Y580020D02*
X2534000Y564780D01*
X2559400Y564780D02*
X2559400Y580020D01*
X2584800Y580020D02*
X2584800Y564780D01*
X2610200Y564780D02*
X2610200Y580020D01*
X2635600Y580020D02*
X2635600Y564780D01*
X2661000Y564780D02*
X2661000Y580020D01*
X2717740Y1118031D02*
X2717740Y1133271D01*
X2692340Y1133271D02*
X2692340Y1118031D01*
X2666940Y1118031D02*
X2666940Y1133271D01*
X2641540Y1133271D02*
X2641540Y1118031D01*
X2616140Y1118031D02*
X2616140Y1133271D01*
X2590740Y1133271D02*
X2590740Y1118031D01*
X2565340Y1118031D02*
X2565340Y1133271D01*
X2539940Y1133271D02*
X2539940Y1118031D01*
X2501840Y1118031D02*
X2501840Y1133271D01*
X2476440Y1133271D02*
X2476440Y1118031D01*
X2451040Y1118031D02*
X2451040Y1133271D01*
X2425640Y1133271D02*
X2425640Y1118031D01*
X2400240Y1118031D02*
X2400240Y1133271D01*
X2374840Y1133271D02*
X2374840Y1118031D01*
X2349440Y1118031D02*
X2349440Y1133271D01*
X2324040Y1133271D02*
X2324040Y1118031D01*
X2298640Y1118031D02*
X2298640Y1133271D01*
X2273240Y1133271D02*
X2273240Y1118031D01*
X2431098Y1272392D02*
X2446338Y1272392D01*
X2446338Y1297792D02*
X2431098Y1297792D01*
X2431098Y1323192D02*
X2446338Y1323192D01*
X2446338Y1348592D02*
X2431098Y1348592D01*
D17*
X2295906Y1235066D03*
X2295906Y1218066D03*
X2328291Y1234812D03*
X2328291Y1217812D03*
D18*
X1973453Y1289431D03*
X2123059Y1447800D03*
X2230882Y1196594D03*
X2337054Y1421511D03*
X2346325Y542163D03*
X2133092Y1133602D03*
X2018284Y1134364D03*
X2081911Y973963D03*
X2546223Y1330833D03*
X2892298Y709422D03*
X2894838Y653415D03*
X2975483Y722757D03*
X2753741Y851789D03*
X2577465Y700659D03*
D19*
X2243455Y1385951D03*
X2383282Y1400302D03*
X2480310Y1312291D03*
X2692781Y988822D03*
X2653030Y883158D03*
X2715387Y968375D03*
X2241550Y1271397D03*
X2201164Y1234313D03*
X2127631Y1221867D03*
X2231771Y1065657D03*
X2398395Y968502D03*
X2522220Y972947D03*
X2631567Y804291D03*
X2692654Y803529D03*
X2741041Y771398D03*
X3022854Y718693D03*
X2940812Y702310D03*
X2966339Y875665D03*
X2968498Y938149D03*
X3172206Y882777D03*
X3185795Y825246D03*
X3179318Y767588D03*
X2984373Y659003D03*
X2842641Y631825D03*
X2340864Y689737D03*
X2268093Y669290D03*
X2192528Y790194D03*
X2145030Y887984D03*
X2235454Y891159D03*
X2237740Y963168D03*
X2259965Y1026541D03*
X2277364Y1465834D03*
X2242185Y1482725D03*
X2076450Y1532636D03*
X2047367Y1533779D03*
X2128393Y1466596D03*
X2239264Y1511046D03*
X2283079Y1498600D03*
X2327910Y1467358D03*
X2370582Y1443355D03*
X2638933Y1336421D03*
X2700528Y1294257D03*
X2759964Y1238631D03*
X2646934Y1264412D03*
X2690368Y1254633D03*
X2513965Y1249680D03*
X2408555Y1246505D03*
X2241550Y1168146D03*
X2311146Y797433D03*
X2222246Y707771D03*
D20*
X2968244Y840613D03*
D18*
X2254250Y1335786D03*
X2681351Y922528D03*
X2110105Y1012444D03*
X2701417Y927100D03*
X2189861Y1112139D03*
X2213356Y746506D03*
X2213356Y1083945D03*
D19*
X2436622Y1199515D03*
X2879598Y933577D03*
D18*
X2062353Y1088263D03*
X2076831Y1450721D03*
X2358771Y822325D03*
X2334387Y826262D03*
D19*
X2910205Y747141D03*
X2749296Y957072D03*
X2906522Y731774D03*
X2734183Y936498D03*
D18*
X2310638Y1193927D03*
X2701417Y1178433D03*
X2295906Y1199515D03*
D19*
X2721610Y924052D03*
X2908046Y708660D03*
D18*
X2664714Y1174496D03*
X2347595Y1192530D03*
X2325185Y1199769D03*
D19*
X2908300Y782701D03*
X2726309Y1027430D03*
X2909062Y795528D03*
X2682875Y1040638D03*
X2944749Y883158D03*
X2653919Y1050544D03*
X2929382Y886079D03*
X2617724Y1060958D03*
D18*
X2235200Y946912D03*
X2629281Y949833D03*
D19*
X2914015Y886587D03*
X2548382Y1074194D03*
D18*
X2141728Y949833D03*
X2554986Y1007872D03*
D19*
X2901315Y896747D03*
X2882392Y907669D03*
D18*
X2297303Y1248280D03*
X2332736Y1249299D03*
X2330747Y1322344D03*
M02*
