M48
;GenerationSoftware,Autodesk,EAGLE,9.6.2*%
;CreationDate,2024-03-22T07:26:10Z*%
FMAT,2
ICI,OFF
METRIC,TZ,000.000
T7C0.350
T6C0.559
T5C0.610
T4C0.950
T3C1.016
T2C1.300
T1C2.200
%
G90
M71
T1
X209500Y157590
X221500Y157590
T2
X193206Y137639
X187212Y139163
X187212Y137639
X189447Y133397
X190971Y133397
X187212Y138401
X193206Y138401
X190209Y133397
X193206Y139163
T3
X243872Y132319
X230540Y57240
X245780Y57240
X269234Y112565
X243872Y129779
X243872Y127239
X227324Y112565
X229864Y112565
X232404Y112565
X243872Y134859
X234944Y112565
X237484Y112565
X240024Y112565
X242564Y112565
X245104Y112565
X247644Y112565
X250184Y112565
X253994Y112565
X256534Y112565
X259074Y112565
X261614Y112565
X264154Y112565
X266694Y112565
X271774Y112565
X266100Y57240
X263560Y57240
X261020Y57240
X258480Y57240
X255940Y57240
X253400Y57240
X248320Y57240
X243240Y57240
X240700Y57240
X238160Y57240
X235620Y57240
X233080Y57240
T4
X254660Y123535
X259740Y126075
X259740Y123535
X257200Y123535
X214250Y154880
X216750Y154880
X254660Y126075
X214250Y152880
X257200Y126075
X216750Y152880
T5
X212306Y144780
X223088Y119659
X233705Y142151
X234632Y54216
X213309Y113360
X201828Y113436
X208191Y97396
X254622Y133083
X289230Y70942
X289484Y65341
X297548Y72276
X275374Y85179
X257746Y70066
X270142Y117843
X225425Y133579
X268135Y92253
X211010Y101244
X270142Y92710
X218986Y111214
X221336Y74651
X221336Y108394
X206235Y108826
X207683Y145072
X235877Y82233
X233439Y82626
X231064Y119393
X255499Y100787
X229591Y119951
X266471Y117450
X234759Y119253
X232519Y119977
X223520Y94691
X262928Y94983
X214173Y94983
X229730Y124828
X233274Y124930
X233075Y132234
X197345Y128943
T6
X296824Y84061
T7
X265392Y105054
X292938Y88608
X261772Y106096
X290805Y70866
X272161Y92405
X291402Y88659
X254838Y107419
X290830Y78270
X222225Y70777
X290132Y89675
X288239Y90767
X272631Y102743
X290906Y79553
X268288Y104064
X273418Y93650
X290652Y73177
X274930Y95707
X291021Y74714
X287960Y93358
X243662Y119951
X231115Y79743
X224155Y116815
X240855Y124650
X251396Y124968
X269037Y125463
X264693Y126441
X275996Y123863
X270053Y129426
X263893Y133642
X237058Y144336
X232791Y146736
X228308Y149860
X223926Y151105
X212839Y146660
X204737Y153378
X207645Y153264
X224218Y148273
X227736Y146583
X225996Y102654
X223774Y96317
X223545Y89116
X214503Y88798
X219253Y79019
X226809Y66929
X234086Y68974
X284264Y63182
X298437Y65900
X317932Y76759
X318580Y82525
X224155Y127140
X317221Y88278
X296850Y93815
X296634Y87566
X294081Y70231
X302285Y71869
X274104Y77140
X269265Y80353
X263157Y80429
X252222Y97295
X239839Y96850
X223177Y106566
X212763Y122187
X220116Y123431
X271539Y96837
X265303Y88316
X269278Y98882
X248031Y131229
X238328Y140030
X224345Y138595
X294475Y88316
M30